<?xml version="1.0" encoding="utf-8"?>
<!-- Generator: Adobe Illustrator 24.0.1, SVG Export Plug-In . SVG Version: 6.00 Build 0)  -->
<svg version="1.1" id="Layer_1" xmlns="http://www.w3.org/2000/svg" xmlns:xlink="http://www.w3.org/1999/xlink" x="0px" y="0px"
	 viewBox="0 0 793.7 226.8" style="enable-background:new 0 0 793.7 226.8;" xml:space="preserve">
<style type="text/css">
	.st0{fill:#636466;}
	.st1{fill:#00AEEF;}
	.st2{fill-rule:evenodd;clip-rule:evenodd;fill:#636466;}
</style>
<g>
	<g>
		<g>
			<g>
				<g>
					<path class="st0" d="M91.5,153.1L91.5,153.1L91.5,153.1L91.5,153.1z"/>
				</g>
				<g>
					<path class="st1" d="M116.8,117.5c-2.3,0.5-3.5,2-3.5,4.3v31.8v31.5l27.3-31.7L125.1,125C122.5,120,119.6,117.5,116.8,117.5z"
						/>
					<path class="st1" d="M73.3,64.4v66.4c0,11,7.8,20.1,18.1,22.3h0.1v-11.8V53.9V42.1C81.1,44.2,73.3,53.4,73.3,64.4z"/>
					<path class="st1" d="M167,42.1c-1.4-0.3-2.9-0.4-4.5-0.4h-59.6c5.8,0,10.5,4.9,10.5,10.7v48.2l27-31h26.3l-30.1,32.3l30.2,51.3
						h0.1c10.4-2.1,18.3-11.3,18.3-22.3V64.4C185.3,53.4,177.4,44.2,167,42.1z"/>
				</g>
				<path class="st0" d="M64.1,97.6v35.5c0,14.9,11.4,20.2,11.4,20.2s-26.2,0.5-26.2-26.4V97.4v0.2V68.1c0-26.9,26.2-26.4,26.2-26.4
					S64.1,47,64.1,61.9v35.5V97.6z"/>
				<path class="st0" d="M194.5,97.6v35.5c0,14.9-11.4,20.2-11.4,20.2s26.2,0.5,26.2-26.4V97.4v0.2V68.1c0-26.9-26.2-26.4-26.2-26.4
					s11.4,5.3,11.4,20.2v35.5V97.6z"/>
			</g>
			<g>
				<path class="st2" d="M697.2,104.9v28.8h14.1V101c0.4-12.2-3.3-19.8-11.2-22.7c-10.5-3.7-19.4-1.4-26.6,6.9V68.5
					c0-4.7-2.3-7.1-7-7.1h-7.1v72.4h14.2V105c0-8.6,3.6-15.6,12-15.6C693.5,89.2,697.2,95.4,697.2,104.9 M651.8,116.5h-10.6
					c-1.8,0-3.4,0.6-4.8,2c-2.3,2.7-5.2,4-8.5,4c-7.9,0.1-11.8-5.5-11.8-16.7S619.8,89,627.2,89c4.5,0,7.5,2,9.2,5.9h15.4
					c-2.4-12.2-10.5-18.3-24.2-18.3c-17.4,0.3-26,10-26,29.3c0.4,19.4,9.2,29.2,26.2,29.2C641,135.3,649.2,128,651.8,116.5z
					 M596.2,80.5v-3.1h-8.5v-8.9c0-3.7-3.1-7.1-6.8-7.1h-7.3v61.5c-0.1,6.3,2.4,9.6,7.8,10.1c5.3,0.5,10.3,0.5,14.9,0.1v-10.8h-4.4
					c-2.8,0-4.2-1.3-4.2-3.6V87.5h1.5C593,87.5,596.2,84.6,596.2,80.5z M541.5,88.2c5.9,0,8.8,1.6,9.2,4.8c0,3.1-3.1,4.9-9.2,5.6
					c-14.3,1.4-24.1,5-24.4,18.5c0,12.5,9.4,18.7,22.9,17.7c15.2-1.1,24.6-8,24.6-23.5V92.1c-0.3-10.4-8.2-15.5-23.7-15.5
					c-13,0-20.3,5.1-22,15.5H533C533.7,89.5,536.5,88.2,541.5,88.2z M538.2,123.3c-4.5,0-6.8-2.1-7.1-6.6c0-4.2,2.9-6.8,8.5-7.9
					c4.2-0.9,8-2,11.3-3.4v5.2C550.8,118.6,546,123.3,538.2,123.3z M452.4,89c6.3,0,9.5,2.9,9.8,8.7v36h14.3V98
					c0.1-5.9,3.3-8.7,9.6-8.7c6.3,0,9.5,2.9,9.8,8.7v29c0,4.5,2.3,6.7,7,7h7.3v-33.1c0.1-16.1-7.9-24.1-23.9-24.1
					c-7.2,0-12.8,1.5-16.8,4.6c-4-3.2-9.6-4.8-16.8-4.8c-16.1,0-24.2,8-24.2,24.1v33.1h14.4v-36C442.9,91.9,446.1,89,452.4,89z
					 M415,61.4h-7v23.9c-3.6-5.9-9-8.7-16.1-8.7c-15,0.5-22.5,10.3-22.5,29.5c0,18.7,8.7,28.2,26.2,28.5
					c17.6,0.1,26.4-8.3,26.4-25.2V68.5C422,64.7,418.8,61.4,415,61.4z M396.1,89.2c7.7,0,11.6,5.3,11.9,16.2
					c0,11.4-4,17.1-12.1,17.1s-11.9-5.7-11.8-17.1C384.5,94.6,388.4,89.2,396.1,89.2z M332.5,133.7h14.4v-29.3
					c0-8.2,3.9-12.3,11.8-12.3h4.8V77.4h-2c-18.8,0-28.5,9-29,27.2L332.5,133.7L332.5,133.7z M302.6,88.2c5.9,0,8.8,1.6,9.2,4.8
					c0,3.1-3.1,4.9-9.2,5.6c-14.3,1.4-24.1,5-24.4,18.5c0,12.5,9.4,18.7,22.9,17.7c15.2-1.1,24.6-8,24.6-23.5V92.1
					c-0.3-10.4-8.2-15.5-23.7-15.5c-13,0-20.3,5.1-22,15.5h14.2C294.8,89.5,297.6,88.2,302.6,88.2z M299.3,123.3
					c-4.5,0-6.8-2.1-7.1-6.6c0-4.2,2.9-6.8,8.5-7.9c4.2-0.9,8-2,11.3-3.4v5.2C312,118.6,307.2,123.3,299.3,123.3z M234.9,61.4h-7.3
					v72.4h14.2v-20.5c0-1.5,0.7-2.4,2.2-2.8c1.8,0,3.6,1.6,5.4,4.8l10,18.5h17l-19.7-33.4l19.5-20.9h-17l-17.5,20V68.3
					C241.6,64.5,238.6,61.4,234.9,61.4z"/>
				<path class="st0" d="M733.2,70.4c0-0.2,0-0.5-0.1-0.7c-0.1-0.2-0.2-0.4-0.4-0.5c-0.2-0.2-0.4-0.3-0.8-0.4
					c-0.3-0.1-0.7-0.1-1.2-0.1h-1.5v3.8h1.4c1,0,1.6-0.2,2-0.5C733.2,71.5,733.2,71,733.2,70.4 M737.5,79.7c0,0.1,0,0.2-0.1,0.3
					c0,0.1-0.1,0.1-0.3,0.1c-0.1,0.1-0.3,0.1-0.5,0.1c-0.2,0.1-0.5,0.1-1,0.1c-0.4,0-0.7,0-1-0.1c-0.2,0-0.4,0-0.5-0.1
					c-0.1-0.1-0.3-0.1-0.3-0.3c-0.1-0.1-0.1-0.2-0.2-0.4l-0.7-2.3c-0.3-0.8-0.6-1.4-1-1.7c-0.3-0.3-0.9-0.5-1.6-0.5h-0.9v4.7
					c0,0.2-0.1,0.4-0.3,0.5c-0.2,0.1-0.7,0.1-1.4,0.1s-1.2-0.1-1.4-0.1c-0.2-0.1-0.3-0.3-0.3-0.5v-12c0-0.5,0.1-0.9,0.4-1.2
					c0.2-0.3,0.6-0.4,1.1-0.4h3.8c0.9,0,1.6,0.1,2.3,0.2c0.7,0.2,1.3,0.4,1.8,0.8c0.5,0.3,0.8,0.8,1.1,1.2c0.2,0.5,0.3,1.1,0.3,1.9
					c0,1-0.3,1.9-0.9,2.5c-0.5,0.6-1.3,1-2.3,1.2c0.5,0.2,1,0.5,1.5,0.9c0.5,0.5,0.9,1.1,1.2,1.9l0.8,2.1
					C737.4,79.2,737.5,79.5,737.5,79.7z M741.4,73.5c0-1.6-0.2-3-0.8-4.3c-0.5-1.3-1.2-2.4-2.1-3.3c-0.9-1-2-1.6-3.2-2.1
					c-1.2-0.5-2.6-0.8-4-0.8c-1.5,0-2.9,0.3-4.1,0.8S724.9,65,724,66c-0.9,0.9-1.6,2-2.1,3.2s-0.7,2.6-0.7,4c0,1.6,0.2,3,0.8,4.3
					c0.5,1.3,1.2,2.4,2.1,3.4c0.9,0.9,2,1.6,3.2,2.1c1.2,0.5,2.6,0.8,4,0.8c1.5,0,2.9-0.3,4.2-0.8c1.2-0.5,2.3-1.3,3.2-2.2
					c0.9-1,1.6-2,2.1-3.2C741.2,76.3,741.4,74.9,741.4,73.5z M744.4,73.3c0,1.9-0.3,3.6-1,5.1c-0.7,1.6-1.6,2.9-2.8,4.1
					c-1.2,1.2-2.6,2.1-4.2,2.8c-1.6,0.7-3.4,1-5.1,1c-1.9,0-3.7-0.3-5.3-1c-1.6-0.7-3-1.6-4.1-2.7c-1.2-1.2-2.1-2.5-2.7-4.1
					c-0.7-1.6-1-3.3-1-5.2c0-1.9,0.3-3.6,1-5.1c0.7-1.6,1.6-3,2.8-4.1c1.2-1.2,2.6-2.1,4.2-2.7c1.6-0.7,3.3-1,5.1-1
					c1.9,0,3.7,0.3,5.3,1c1.6,0.7,3,1.6,4.1,2.7c1.2,1.2,2.1,2.5,2.7,4.1C744.2,69.7,744.4,71.5,744.4,73.3z"/>
			</g>
		</g>
	</g>
</g>
</svg>
