<?xml version="1.0" encoding="UTF-8"?>
<svg width="21px" height="21px" viewBox="0 0 21 21" version="1.1" xmlns="http://www.w3.org/2000/svg" xmlns:xlink="http://www.w3.org/1999/xlink">
    <!-- Generator: Sketch 47.1 (45422) - http://www.bohemiancoding.com/sketch -->
    <title>Icon / Settings / Gris@3x</title>
    <desc>Created with Sketch.</desc>
    <defs></defs>
    <g id="Symbols-" stroke="none" stroke-width="1" fill="none" fill-rule="evenodd" stroke-linecap="round" stroke-linejoin="round">
        <g id="Icon-/-Settings-/-Gris" stroke="#959595" stroke-width="1.5">
            <path d="M10.4989968,14.4373746 C8.32416165,14.4373746 6.56061909,12.673832 6.56061909,10.4989968 C6.56061909,8.32616796 8.32416165,6.56262539 10.4989968,6.56262539 C12.673832,6.56262539 14.4373746,8.32616796 14.4373746,10.4989968 C14.4373746,12.673832 12.673832,14.4373746 10.4989968,14.4373746 Z M19.9025509,9.00429923 L18.163084,8.71539123 C17.9624534,7.85267985 17.6213815,7.04614503 17.1639438,6.31785612 L18.1309831,4.96159358 C18.5001433,4.44396675 18.4419604,3.7357409 17.992548,3.28632846 L17.7116652,3.00544569 C17.2622528,2.55603325 16.5540269,2.49785039 16.0364001,2.8670106 L14.6821439,3.83605618 C13.953855,3.37861852 13.1473201,3.03554027 12.2846088,2.83691602 L11.9936945,1.09744913 C11.8893666,0.463456578 11.3416452,0 10.6996274,0 L10.2983663,0 C9.65634852,0 9.10862711,0.463456578 9.00429923,1.09744913 L8.71338492,2.83691602 C7.85067355,3.03554027 7.04413872,3.37861852 6.31584981,3.83605618 L4.96159358,2.8670106 C4.44396675,2.49785039 3.7357409,2.55603325 3.28632846,3.00544569 L3.00544569,3.28632846 C2.55603325,3.7357409 2.49785039,4.44396675 2.8670106,4.96159358 L3.83404987,6.31785612 C3.37661221,7.04614503 3.03554027,7.85267985 2.83490972,8.71539123 L1.09544282,9.00429923 C0.463456578,9.11063342 0,9.65835483 0,10.2983663 L0,10.6996274 C0,11.3416452 0.463456578,11.8893666 1.09544282,11.9957008 L2.83490972,12.2846088 C3.03554027,13.1473201 3.37661221,13.953855 3.83404987,14.6821439 L2.8670106,16.0384064 C2.49785039,16.5560332 2.55603325,17.2642591 3.00544569,17.7136715 L3.28632846,17.9945543 C3.7357409,18.4439668 4.44396675,18.5021496 4.96159358,18.1329894 L6.31584981,17.1639438 C7.04413872,17.6213815 7.85067355,17.9644597 8.71338492,18.163084 L9.00429923,19.9025509 C9.10862711,20.5365434 9.65634852,21 10.2983663,21 L10.6996274,21 C11.3416452,21 11.8893666,20.5365434 11.9936945,19.9025509 L12.2846088,18.163084 C13.1473201,17.9644597 13.953855,17.6213815 14.6821439,17.1639438 L16.0364001,18.1329894 C16.5540269,18.5021496 17.2622528,18.4439668 17.7116652,17.9945543 L17.992548,17.7136715 C18.4419604,17.2642591 18.5001433,16.5560332 18.1309831,16.0384064 L17.1639438,14.6821439 C17.6213815,13.953855 17.9624534,13.1473201 18.163084,12.2846088 L19.9025509,11.9957008 C20.5345371,11.8893666 20.9979937,11.3416452 20.9979937,10.6996274 L20.9979937,10.2983663 C20.9979937,9.65835483 20.5345371,9.11063342 19.9025509,9.00429923 Z" id="Page-1"></path>
        </g>
    </g>
</svg>
