<svg width="22" height="23" xmlns="http://www.w3.org/2000/svg" xmlns:xlink="http://www.w3.org/1999/xlink"><defs><path id="a" d="M22 11.5V0H0v23h22z"/></defs><g fill="none" fill-rule="evenodd"><path d="M1.6 7.904c0-3.48 2.849-6.313 6.352-6.313 3.502 0 6.35 2.833 6.35 6.313 0 3.48-2.848 6.314-6.35 6.314-3.503 0-6.352-2.833-6.352-6.314zM22 21.875l-8.432-8.381a7.857 7.857 0 0 0 2.336-5.59C15.904 3.546 12.337 0 7.952 0S0 3.546 0 7.904c0 4.359 3.567 7.904 7.952 7.904 1.612 0 3.11-.486 4.363-1.309L20.869 23 22 21.875z" fill="#959595" mask="url(#b)"/></g></svg>
