<svg width="33" height="32" xmlns="http://www.w3.org/2000/svg"><path d="M29.0774 0H3.9226C1.756 0 0 1.6985 0 3.795v24.41C0 30.3006 1.756 32 3.9226 32h25.1548C31.244 32 33 30.3006 33 28.205V3.795C33 1.6985 31.244 0 29.0774 0zm-5.3582 4.9995c0-.5516.4617-.9994 1.0306-.9994h3.0936c.5697 0 1.0315.4478 1.0315.9994v3.0007c0 .5516-.4618.9994-1.0315.9994h-3.0936c-.5689 0-1.0306-.4478-1.0306-.9994V4.9995zm-7.181 4.8982c3.505 0 6.3466 2.7494 6.3466 6.1394 0 3.3909-2.8416 6.1394-6.3465 6.1394-3.5041 0-6.3457-2.7485-6.3457-6.1394 0-3.39 2.8416-6.1394 6.3457-6.1394zM29.9065 28c0 .5516-.4618 1.0002-1.0315 1.0002H4.125c-.5697 0-1.0315-.4486-1.0315-1.0002V12.9997h4.1251c-.5373.7497-.7192 2.1489-.7192 3.0374 0 5.3547 4.5041 9.7118 10.0388 9.7118 5.5355 0 10.0396-4.357 10.0396-9.7118 0-.8885-.1306-2.2658-.7966-3.0374h4.125v15.0002z" fill="#FF6161" fill-rule="evenodd"/></svg>
