<?xml version="1.0" encoding="UTF-8"?>
<svg width="397px" height="82px" viewBox="0 0 397 82" version="1.1" xmlns="http://www.w3.org/2000/svg" xmlns:xlink="http://www.w3.org/1999/xlink">
    <!-- Generator: Sketch 47.1 (45422) - http://www.bohemiancoding.com/sketch -->
    <title>Icon / Logo @3x</title>
    <desc>Created with Sketch.</desc>
    <defs></defs>
    <g id="Symbols-" stroke="none" stroke-width="1"
    fill="none" fill-rule="evenodd">
        <g id="Icon-/-Logo-">
            <g id="Page-1">
                <path d="M166.341416,44.6051919 C165.600515,47.5802413 164.677749,50.5131552 163.830702,53.4633377 C163.771967,53.6643453 163.651668,53.8515378 163.559675,54.0449471 C163.494571,54.0338952 163.428761,54.0221525 163.360827,54.009719 L163.360827,22.4957461 C163.744369,23.1788954 164.006904,23.6195923 164.241842,24.0720319 C167.645601,30.6541648 168.101323,37.536082 166.341416,44.6051919 M160.496999,12.3438302 C160.057553,12.0723664 159.325851,11.9010611 158.871544,12.062696 C157.173203,12.661574 156.478298,15.0501789 157.428661,16.5470287 C157.62114,16.8481946 157.703934,17.2598801 157.711011,17.6218318 C157.951609,31.6288095 158.176639,45.6357871 158.410869,59.6413833 C158.441298,61.5319592 158.971322,63.1621233 160.930076,64 L162.365882,64 C162.992145,63.3721105 163.723848,62.818131 164.229812,62.1087334 C167.058966,58.1445335 168.928557,53.744472 170.198775,49.1019581 C172.224047,41.6985264 172.741334,34.2336183 170.711108,26.7507507 C169.088484,20.7702589 165.960705,15.7429986 160.496999,12.3438302" id="Fill-1"
                fill="#302F30"></path>
                <path d="M47.602566,47.2365325 C46.9486787,48.6621694 46.115994,50.0299161 45.2125201,51.3265204 C44.8206256,51.8886844 43.906205,52.6426539 43.4654148,52.5247808 C42.8531252,52.3559921 42.2641887,51.5155358 42.0124129,50.8438683 C40.7447763,47.4450772 40.1813823,43.9095812 40.5200025,40.3141024 C40.8739483,36.5686667 41.3432,32.8288108 41.9664364,29.1175513 C42.4021181,26.5215528 43.3318642,24.029478 44.9570954,21.850569 C45.4285365,21.219355 46.0554218,20.6948545 46.5903542,20.1061864 C47.3704944,19.2482933 48.1250921,19.5175183 48.5432589,20.3356554 C49.0935168,21.4118578 49.6065557,22.5710597 49.7831636,23.7407237 C50.175788,26.3367222 50.3458279,28.9620146 50.6078207,31.5768448 C50.4538361,36.9648319 49.8882527,42.2530803 47.602566,47.2365325 M52.7074122,16.7513362 C50.7632649,14.040952 46.6757391,13.1363281 44.2608805,14.9302314 C41.5526483,16.9424441 39.5201971,19.4666027 38.2350457,22.5278163 C35.8617848,28.1878184 35.1714082,34.1414569 35.0123151,40.1592632 C34.8860623,44.8330368 35.7245853,49.3875425 37.8037427,53.6553862 C38.736408,55.5678601 40.0084233,57.2397055 42.3014077,57.9148603 C42.609377,58.0076244 42.8516656,58.4547053 43.0238949,58.783913 C43.6836205,60.0442487 44.2769358,61.3345757 44.944689,62.5914239 C45.7379653,64.0854134 46.6465477,64.3399914 48.2586428,63.5957866 C50.0130459,62.7860192 50.5363018,61.674943 49.8298699,60.2290793 C49.2080931,58.9506093 48.5688014,57.6812065 47.9280502,56.3887871 C51.6141942,52.3085638 53.0102729,49.8820516 54.2589351,45.3728818 C56.1870271,38.4072083 56.4139902,31.3404011 55.4287805,24.2380227 C55.0624284,21.5911087 54.3268051,19.0069673 52.7074122,16.7513362" id="Fill-3"
                fill="#302F30"></path>
                <path d="M123.22134,37.7026217 C123.026782,33.0951579 122.83154,28.4856155 122.635616,23.8636018 C125.260452,24.2079491 126.922051,26.3516323 126.657178,28.9144907 C126.320626,32.1431797 125.074767,35.0212856 123.22134,37.7026217 M128.873099,47.9000131 C127.683219,46.5378666 126.519963,45.1507775 125.352611,43.7823954 C125.775861,43.1664503 126.131528,42.6592828 126.47559,42.1431083 C128.707895,38.8104916 130.640511,35.337226 131.574392,31.3616429 C132.805914,26.1119056 131.325903,22.4737413 126.644207,20.0730102 C124.958715,19.2076384 123.036339,18.8161772 121.215679,18.2307175 C118.534866,17.36881 116.855517,18.9970115 117.009799,21.8612604 C117.144966,24.3527551 117.183878,26.8518712 117.312901,29.3433659 C117.847425,39.5864855 118.392872,49.8296051 118.982009,60.0706461 C119.012729,60.6103776 119.356791,61.3247077 119.782089,61.6101626 C120.814957,62.3030143 121.983674,62.1589011 123.078664,61.6163982 C124.108118,61.1043808 124.068524,60.1489383 123.998892,59.1914173 C123.966807,58.7653135 123.931309,58.3357454 123.909463,57.9082559 C123.783854,55.310062 123.66234,52.7111753 123.524442,49.8081267 C125.555362,52.0307949 127.382848,53.9797868 129.15299,55.9786639 C130.927229,57.9796197 132.654363,60.0221465 134.384229,62.0605162 C135.423923,63.2868637 136.439042,63.3187349 137.833037,62.1201014 C139.206553,60.9408678 139.371075,59.8634834 138.30817,58.6468358 C135.169973,55.0599426 132.012661,51.4869064 128.873099,47.9000131" id="Fill-5"
                fill="#302F30"></path>
                <path d="M78.5023392,24.7313576 C77.6522463,25.0469008 77.1765062,25.5699825 77.2537874,26.5137884 C77.3814077,28.0964457 77.5132819,29.6812208 77.6175052,31.2659959 C77.967752,36.5426969 78.3499038,41.8370457 77.2445704,47.062921 C76.9099216,48.6498138 76.2760742,50.2847087 75.3593352,51.60759 C74.1200004,53.3956681 71.6739449,53.1493044 70.5771195,51.2567512 C70.0127542,50.2790614 69.5242522,49.1503063 69.3994679,48.046258 C68.8726797,43.3964079 69.0322051,38.7027912 68.6018411,34.0430583 C68.6018411,31.1043418 68.5876611,28.1628016 68.6075131,25.2247909 C68.6188571,23.5397762 67.9389246,22.4258452 66.6251447,22.0954778 C64.7711056,21.6288692 63.3070173,22.907278 63.2169741,25.1704356 C62.9652785,31.6055401 62.7646311,38.0420565 63.622523,44.4545718 C64.045088,47.6121214 64.6505753,50.7146099 66.1898177,53.567205 C67.8885855,56.7226369 70.7536609,58.3794151 73.9782001,57.9262189 C76.198084,57.6142053 77.8521847,56.3463852 79.2063777,54.6451344 C81.7304233,51.4762902 82.934308,47.7836583 82.9839381,43.8178381 C83.0555473,38.3392459 82.8726249,32.8571242 82.7329516,27.378532 C82.6726864,24.9791331 80.8058853,23.8729672 78.5023392,24.7313576" id="Fill-7"
                fill="#302F30"></path>
                <path d="M104.36999,53.6762854 C102.16531,53.7839995 99.9523227,53.699996 97.7130318,53.699996 C97.4375333,48.0629544 97.1689569,42.5194005 96.8886129,36.7773545 C98.1103589,36.7773545 99.2718828,36.7617732 100.430638,36.7820966 C101.333969,36.7990328 101.986028,36.3986613 102.177077,35.5714977 C102.35359,34.8100466 102.446346,33.982883 102.332132,33.2193996 C102.183999,32.2127124 101.537478,31.6375594 100.370416,31.7059816 C99.1694361,31.7764361 97.9615343,31.7208854 96.5888871,31.7208854 C96.4691352,29.9967812 96.3473067,28.2625153 96.2150951,26.3710816 C98.1948082,26.2667546 100.051308,26.1454915 101.907808,26.075037 C102.837443,26.0384548 103.697857,25.984259 104.132563,24.9782493 C104.642028,23.8082972 104.669716,22.6593461 103.917979,21.6113346 C103.687474,21.2881921 103.137169,20.9806309 102.750917,21.0009543 C99.4456269,21.1615094 96.1396445,21.3437428 92.8461219,21.6445295 C91.6576019,21.7535986 90.9979283,22.6966057 91.0000049,23.8022002 C91.0013893,24.5602641 91.0249244,25.3203603 91.0609191,26.0763919 C91.3364177,31.6741416 91.6333746,37.2718912 91.891568,42.8723507 C92.0833094,47.0616868 92.21206,51.2544101 92.4031092,55.4437462 C92.5242455,58.0905341 93.5957825,59.0619939 96.2787782,58.996959 C99.0067674,58.931924 101.731988,58.8316618 104.458593,58.7463034 C106.263869,58.6893978 107.106286,57.8466529 106.989303,56.0886763 C106.891701,54.6233571 106.497143,53.5746682 104.36999,53.6762854" id="Fill-9"
                fill="#302F30"></path>
                <path d="M193.394873,44.0948832 C193.082253,44.4458406 192.722564,44.7702314 192.338288,45.0379937 C190.349463,46.4285398 188.156206,45.7573863 187.663039,43.3964642 C186.701996,38.7969656 187.654609,34.5763891 190.844737,30.9969039 C191.303481,30.4823529 191.939961,30.0992362 192.549745,29.7496771 C193.966721,28.9373017 195.58813,29.4099056 196.202832,30.9130097 C196.594836,31.872899 196.704429,32.9467446 196.866008,33.6514557 C196.426232,37.6329338 195.952034,41.213118 193.394873,44.0948832 M190.703531,24.644716 C184.515764,28.4765829 180.861975,36.628301 182.319697,43.6761114 C183.001138,46.9780467 184.806606,49.5724743 188.197654,50.6197533 C191.512831,51.6418641 194.367859,50.5267706 196.734637,48.1924149 C200.487482,44.4849912 201.700025,39.7512619 202,34.8756117 C201.911483,31.8945717 201.511048,29.2099578 199.805338,26.8658145 C197.990035,24.3762547 193.099113,23.1618864 190.703531,24.644716" id="Fill-11"
                fill="#302F30"></path>
                <path d="M147.006955,34.7457254 C146.946101,32.9476812 145.790666,31.957274 143.863096,32.0014147 C142.001122,32.0427966 140.920766,33.0249274 141.004539,34.836076 C141.319874,41.5392567 141.678675,48.241058 142.065928,54.9414799 C142.152862,56.4636447 143.352555,57.1167893 145.516428,56.9829878 C147.353902,56.8698772 148.042264,56.2077665 147.998006,55.209083 C147.77909,52.5337421 147.538045,50.4487832 147.451901,48.3562377 C147.261436,43.82009 147.160276,39.2818732 147.006955,34.7457254" id="Fill-13"
                fill="#302F30"></path>
                <path d="M144.398007,27.9997089 C145.887988,28.0198015 146.981237,26.9977578 146.999801,25.5698437 C147.016991,24.135232 145.917554,23 144.509395,23 C143.045542,23 142.041679,24.0113276 142.001111,25.528319 C141.96192,26.9488659 142.963033,27.9796163 144.398007,27.9997089" id="Fill-15"
                fill="#302F30"></path>
                <path d="M281.44862,41.407796 C281.110237,37.1229648 280.847747,32.8284519 280.380556,28.5581432 C279.779682,23.0928396 279.008225,17.6462078 278.319623,12.1905859 C278.088465,10.3420782 277.324667,9.71484419 275.485145,10.115942 C273.883745,10.4665568 272.625602,11.1525724 272.981391,13.3482372 C273.51612,16.6579858 273.986096,19.9794907 274.343974,23.3099857 C274.971305,29.1355858 275.508818,34.9722506 276.056776,40.8047662 C276.246158,42.8455243 276.356168,44.8952724 276.519093,47.1773807 C276.319266,46.8523532 276.239196,46.7534618 276.190458,46.6372818 C271.969028,36.434183 268.47728,25.9855848 265.52583,15.3564925 C264.968821,13.3530781 263.554715,12.5605641 261.530685,13.1656686 C260.32128,13.5273481 259.922322,14.0757457 260.01214,15.312925 C260.148607,17.1330792 260.32128,18.9477011 260.450088,20.7678554 C261.031466,28.986903 261.589171,37.205259 262.177511,45.4243066 C262.515894,50.1662511 262.88352,54.9075039 263.267856,59.6452991 C263.384828,61.0532907 263.927215,61.5996136 265.343409,61.7648936 C265.947068,61.836123 266.593894,61.7794161 267.187804,61.641798 C268.31157,61.3810845 268.732807,60.7296463 268.64299,59.5609302 C268.282327,55.016077 267.902864,50.4739899 267.564482,45.9298282 C267.375099,43.3821655 267.24629,40.8324281 267.090328,38.2840739 C267.141155,38.2723175 267.194767,38.2612528 267.24629,38.2488049 C267.323575,38.4133933 267.414089,38.5752156 267.474664,38.7460279 C270.299394,46.5128031 273.523778,54.1163731 277.207695,61.5207771 C277.494554,62.0940704 277.867054,62.6445426 278.297343,63.1161783 C279.125197,64.0124245 280.675074,64.2482423 281.754975,63.7261236 C282.711637,63.2683189 283.091099,62.3354207 282.981786,60.9792951 C282.463072,54.4566147 281.964549,47.9318596 281.44862,41.407796" id="Fill-17"
                fill="#302F30"></path>
                <path d="M322.8236,37.6616525 C322.779006,37.7339189 322.67991,37.7724609 322.499412,37.9032286 C322.292016,33.1446609 322.083913,28.4796953 321.87864,23.8064707 C324.817571,24.1684907 326.526992,26.5243741 326.017351,29.5767675 C325.534608,32.4798104 324.374466,35.1481597 322.8236,37.6616525 M325.77244,44.9481663 C324.698655,43.771257 324.713519,43.771257 325.616009,42.4986809 C328.184034,38.8846746 330.429994,35.1240709 331.333191,30.743353 C332.02333,27.3998294 331.654548,24.3150882 328.908856,21.9096508 C326.076809,19.4326353 322.596385,18.3754817 318.888038,18.0113969 C317.504929,17.8737467 316.31789,19.0011019 316.087843,20.4127048 C316.013521,20.8573149 315.983792,21.3184431 316.008566,21.7678711 C316.681717,34.5507578 317.366901,47.3343327 318.039344,60.1158429 C318.091724,61.0910946 318.561726,61.788293 319.551279,61.8584946 C320.446691,61.9231902 321.388819,61.8288998 322.262287,61.6045299 C322.974369,61.4214551 323.348106,60.7951467 323.31059,60.0132935 C323.253964,58.9781639 323.21928,57.9409696 323.167608,56.903087 C323.053646,54.6146523 322.932607,52.3248411 322.81369,50.0329651 C322.905001,49.9964878 322.999143,49.958634 323.091162,49.9235332 C326.825698,54.0158739 330.555988,58.1130324 334.306097,62.1936728 C334.603388,62.5157743 334.999068,62.8392523 335.406781,62.9569432 C336.349617,63.2232964 337.981884,62.2129439 338.652203,61.0559938 C339.211393,60.0890011 339.125037,59.5769423 338.182909,58.5438775 C334.049153,54.0096796 329.905488,49.4809877 325.77244,44.9481663" id="Fill-19"
                fill="#302F30"></path>
                <path d="M231.085108,48.3195176 C230.520354,49.1475948 229.886157,49.9323423 229.284556,50.737723 C229.17118,50.7170899 229.057096,50.695769 228.943011,50.6751358 C228.519268,42.924636 228.0934,35.1748241 227.670366,27.4229488 C227.776656,27.3933746 227.88578,27.3644882 227.994905,27.3362895 C230.473586,28.8734594 232.432156,30.8769384 233.479466,33.6012023 C235.527319,38.9286822 234.185231,43.7699075 231.085108,48.3195176 M231.669702,23.5789925 C230.030003,22.426287 228.267007,21.4393346 226.540858,20.4049259 C225.579997,19.8292609 223.631348,19.8842827 222.923457,20.4626987 C222.024244,21.1944879 221.761353,22.5775968 222.224778,23.8609789 C222.360829,24.2468188 222.420351,24.6780517 222.418225,25.0865881 C222.360829,35.078536 223.153043,45.0244032 223.995568,54.9702703 C224.086978,56.0431943 224.35412,56.8953434 225.169009,57.7234206 C226.679744,59.2605905 228.066473,59.4923695 229.577208,57.963453 C231.48901,56.0287511 233.442619,54.0954247 235.064603,51.9392603 C238.144886,47.8532084 239.895836,43.2492643 240,38.0985417 C239.851194,36.9458363 239.779626,35.7766243 239.546496,34.641801 C238.563668,29.8624751 235.624397,26.3569026 231.669702,23.5789925" id="Fill-21"
                fill="#302F30"></path>
                <path d="M305.204576,54.5156199 C303.044737,54.5273413 300.88215,54.5190674 298.676299,54.5190674 C298.410525,48.8376396 298.139258,43.1410429 297.863183,37.2176029 C299.115821,37.2176029 300.244157,37.20795 301.369059,37.2196714 C302.348369,37.2307033 303.02276,36.7646055 303.193762,35.8220677 C303.330426,35.0429399 303.385366,34.2045156 303.250763,33.4309037 C303.070833,32.3739099 302.461683,32.0236471 301.366998,32.0333 C300.11436,32.0443319 298.861722,32.0353685 297.543843,32.0353685 C297.428468,30.2909495 297.306226,28.4920606 297.174369,26.5325196 C299.269654,26.4277165 301.261238,26.324982 303.25557,26.2319003 C304.427171,26.1753619 305.00061,25.7947614 305.264323,24.6536493 C305.401674,24.0406895 305.418156,23.3608487 305.32201,22.7396149 C305.120792,21.4350929 304.484858,20.933831 303.197883,21.0069174 C300.229735,21.1744643 297.2609,21.3551117 294.296873,21.5778181 C292.726955,21.696411 291.913839,22.7106562 292.007238,24.2482271 C292.040889,24.8287807 292.028527,25.4141609 292.057371,25.9960935 C292.412422,33.5860398 292.775028,41.1752965 293.120465,48.7638638 C293.235839,51.3280907 293.190514,53.90266 293.437745,56.4517181 C293.701458,59.1566017 294.570201,60.0584595 296.612605,59.9970945 C299.684453,59.9060814 302.7563,59.8419584 305.824027,59.6744115 C306.392659,59.6406263 307.14122,59.3048429 307.455753,58.856672 C308.194699,57.8072626 308.130145,56.574448 307.56838,55.4285095 C307.081472,54.4315017 306.121391,54.5094145 305.204576,54.5156199" id="Fill-23"
                fill="#302F30"></path>
                <path d="M355.174799,42.4949301 C354.50413,43.5794612 353.463564,44.5699578 352.355344,45.2762613 C350.592633,46.397013 348.706377,45.6510061 347.948198,43.7570819 C347.840097,43.4847301 347.755528,43.1949646 347.714347,42.9065922 C347.619483,42.1933232 347.552563,41.477268 347.501086,41.0126679 C347.616541,37.4839367 348.31589,34.3703504 350.541156,31.7645502 C351.237563,30.9481916 352.178117,30.2718398 353.128966,29.7041501 C354.516632,28.8752535 356.218306,29.3516949 356.839704,30.798433 C357.251518,31.7687296 357.461837,32.8859986 357.461837,33.9350055 C357.456689,36.9531643 356.796316,39.882861 355.174799,42.4949301 M362.424196,30.2983088 C361.925607,28.4399087 361.03653,26.7263914 359.342945,25.5318051 C356.839704,23.7632602 352.245036,22.9448119 348.565184,26.3439845 C343.291759,31.2149709 341.045166,37.1154609 342.374002,43.9953026 C342.965249,47.0468958 344.846357,49.4771649 348.133515,50.5707512 C351.777333,51.7813581 355.945479,50.3687512 358.587707,47.1214269 C361.596891,43.4199508 362.843364,39.1737713 363,33.941971 C362.879397,33.1367572 362.791887,31.6844468 362.424196,30.2983088" id="Fill-25"
                fill="#302F30"></path>
                <path d="M253.087599,34.7597527 C253.032079,33.0610447 251.826498,31.9698488 249.983229,32.0006349 C248.0543,32.0327893 246.962139,33.0336792 247.001003,34.8090104 C247.073179,38.3220453 247.117595,41.8343961 247.286535,45.3426421 C247.438819,48.3979905 247.718799,51.4492341 248.006711,54.4984252 C248.067783,55.1079898 248.267656,55.8003348 248.683264,56.2710199 C249.395508,57.0782996 251.566347,57.2028122 252.885347,56.7054458 C254.157552,56.2258669 254.168656,55.3255448 253.764152,54.3574934 C253.536519,47.8246851 253.304128,41.2918768 253.087599,34.7597527" id="Fill-27"
                fill="#302F30"></path>
                <path d="M247,25.5446286 C247,27.0538388 247.934598,28 249.426214,28 C250.970484,27.9986721 251.999997,27.0206401 251.999997,25.5479484 C252.002075,24.0772487 250.919909,22.9797016 249.491338,23.0002848 C247.981016,23.0248518 247,24.0247948 247,25.5446286" id="Fill-29"
                fill="#302F30"></path>
                <path d="M13.0657115,57.5147188 C9.01002646,59.4021686 5.80965557,62.4981446 1.95933063,64.6933081 C0.797034962,65.3561832 -0.665890916,66.6379745 0.331269849,68.0558296 C1.23104336,69.3362253 3.76381759,69.1471315 4.94446158,68.4737899 C8.77079256,66.2918839 12.0537309,63.1554376 16.0508424,61.2952006 C17.2752401,60.7251279 18.6316046,59.2870377 17.6796089,57.932679 C16.7297304,56.5825069 14.3098689,56.9355752 13.0657115,57.5147188" id="Fill-31"
                fill="#302F30"></path>
                <path d="M17.2232369,34.5582902 C14.2632957,32.5804353 10.9594467,31.5900735 7.5114447,31.0407491 C6.00950793,30.8012264 3.8595692,31.6323844 3.19303328,33.1455367 C2.48805656,34.744745 3.84172169,35.7035528 5.1919546,35.918693 C7.66108922,36.3123994 9.98881662,37.0682584 12.1023739,38.4810119 C13.4951663,39.4111344 15.5798929,38.9916112 16.8463798,38.0077036 C17.9158576,37.1765456 18.6153428,35.4884127 17.2232369,34.5582902" id="Fill-33"
                fill="#302F30"></path>
                <path d="M29.2475875,10.8360869 C24.7813094,7.0189763 19.8563661,3.78662302 15.0095965,0.43599679 C12.7135034,-1.15176792 6.81519373,1.95240128 9.84874849,4.05025935 C14.6955181,7.40088558 19.6204614,10.6325781 24.0874313,14.4503494 C26.1967377,16.2528555 32.0694507,13.2477977 29.2475875,10.8360869" id="Fill-35"
                fill="#302F30"></path>
                <path d="M392.357352,15.4839392 C386.243103,18.7540616 379.867293,21.4760332 373.753726,24.7468512 C369.768162,26.8796304 373.377433,30.2631393 376.642509,28.5157351 C382.756076,25.2442214 389.131886,22.5229454 395.246135,19.252823 C399.2317,17.1207394 395.623111,13.7372306 392.357352,15.4839392" id="Fill-37"
                fill="#302F30"></path>
                <path d="M386.814877,46.152566 C382.871149,46.4584254 379.10453,45.7003958 375.477735,44.2087218 C372.678405,43.0563495 367.447587,46.9760872 371.460868,48.6273097 C376.109448,50.5398017 381.142362,51.2901674 386.16954,50.9000051 C387.602189,50.7892269 389.854416,49.8639849 389.992805,48.2315737 C390.134062,46.5636299 388.164349,46.0480583 386.814877,46.152566" id="Fill-39"
                fill="#302F30"></path>
                <g id="Group-43" transform="translate(369.000000, 61.000000)"
                fill="#302F30">
                    <path d="M17.020152,16.5188172 C12.361032,12.8735069 8.814312,7.99498966 7.348392,2.20623103 C6.562152,-0.898872414 -0.393048,0.9723 0.401112,4.10854138 C2.093112,10.7894379 6.297912,16.2928862 11.648952,20.4798517 C13.979592,22.3025069 20.111832,18.9374379 17.020152,16.5188172" id="Fill-41"></path>
                </g>
            </g>
        </g>
    </g>
</svg>
