<?xml version="1.0" encoding="UTF-8"?>
<svg width="10px" height="14px" viewBox="0 0 10 14" version="1.1" xmlns="http://www.w3.org/2000/svg" xmlns:xlink="http://www.w3.org/1999/xlink">
    <!-- Generator: Sketch 47.1 (45422) - http://www.bohemiancoding.com/sketch -->
    <title>Icon / Password / Sign In / Gris@3x</title>
    <desc>Created with Sketch.</desc>
    <defs>
        <polygon id="path-1" points="5 14 10 14 10 2.24206597e-15 5 0 0 2.24206597e-15 0 14"></polygon>
    </defs>
    <g id="Symbols-" stroke="none" stroke-width="1" fill="none" fill-rule="evenodd">
        <g id="Icon-/-Password-/-Sign-In-/-Gris">
            <g id="Page-1">
                <mask id="mask-2" fill="white">
                    <use xlink:href="#path-1"></use>
                </mask>
                <g id="Clip-2"></g>
                <path d="M8.74434957,12.1067436 C8.74434957,12.4551028 8.46308388,12.7378291 8.11652436,12.7378291 L1.88347564,12.7378291 C1.53691612,12.7378291 1.25565043,12.4551028 1.25565043,12.1067436 L1.25565043,7.39001082 C1.25565043,7.04165164 1.53691612,6.75892535 1.88347564,6.75892535 L8.11652436,6.75892535 C8.46308388,6.75892535 8.74434957,7.04165164 8.74434957,7.39001082 L8.74434957,12.1067436 Z M5,1.26217093 C6.10497238,1.26217093 7.00527373,2.16714749 7.00527373,3.27785792 L7.00527373,5.49675442 L2.99347062,5.49675442 L2.99347062,3.27785792 C2.99347062,2.16714749 3.89377197,1.26217093 5,1.26217093 L5,1.26217093 Z M8.26092416,5.5106383 L8.26092416,3.27785792 C8.26092416,1.47042914 6.79809141,0 5,0 C3.20065294,0 1.73782019,1.47042914 1.73782019,3.27785792 L1.73782019,5.5106383 C0.768458061,5.58636855 0,6.39542012 0,7.39001082 L0,12.1067436 C0,13.150559 0.843797087,14 1.88347564,14 L8.11652436,14 C9.15494726,14 10,13.150559 10,12.1067436 L10,7.39001082 C10,6.39542012 9.23154194,5.58636855 8.26092416,5.5106383 L8.26092416,5.5106383 Z" id="Fill-1" fill="#959595" mask="url(#mask-2)"></path>
            </g>
        </g>
    </g>
</svg>