<svg width="11" height="16" viewBox="0 0 11 16" xmlns="http://www.w3.org/2000/svg" xmlns:xlink="http://www.w3.org/1999/xlink">
  <defs>
    <path id="a" d="M10.866.2471V9H.0002V.2471z"/>
  </defs>
  <g fill="none" fill-rule="evenodd">
    <g transform="translate(0 6.686)">
      <mask id="b" fill="#fff">
        <use xlink:href="#a"/>
      </mask>
      <path d="M10.3662.2471h-2.933c-.276 0-.5.224-.5.5s.224.5.5.5h2.433v6.753h-8.866v-6.753h2.433c.276 0 .5-.224.5-.5s-.224-.5-.5-.5H.5002c-.277 0-.5.224-.5.5v7.753c0 .276.223.5.5.5h9.866c.276 0 .5-.224.5-.5V.7471c0-.276-.224-.5-.5-.5" fill="#959595" mask="url(#b)"/>
    </g>
    <path fill="#959595" d="M4.9331 1.914v9.644h1V1.914l3.006 3.006.707-.707L5.4331 0l-4.213 4.213.707.707"/>
  </g>
</svg>
