<svg width="27" height="23" xmlns="http://www.w3.org/2000/svg"><path d="M23.37 12.693H7.434L5.677 4.837H25.31l-1.94 7.856zm-3.854 8.81c-.826 0-1.499-.68-1.499-1.516a1.51 1.51 0 0 1 1.5-1.518c.827 0 1.501.681 1.501 1.518a1.51 1.51 0 0 1-1.502 1.516zm-8.26 0c-.827 0-1.5-.68-1.5-1.516 0-.837.673-1.518 1.5-1.518s1.5.681 1.5 1.518a1.51 1.51 0 0 1-1.5 1.516zM26.843 3.627a.744.744 0 0 0-.585-.288H5.343L4.726.584A.742.742 0 0 0 4.006 0H0v1.497h3.413l3.614 16.157a.74.74 0 0 0 .721.584h1.087a3.02 3.02 0 0 0-.561 1.75c0 1.66 1.337 3.012 2.982 3.012 1.644 0 2.981-1.352 2.981-3.013a3.01 3.01 0 0 0-.563-1.749h3.423a3.02 3.02 0 0 0-.561 1.75c0 1.66 1.337 3.012 2.98 3.012 1.646 0 2.983-1.352 2.983-3.013a3.01 3.01 0 0 0-.563-1.749h.96v-1.497H8.341l-.57-2.55h16.178c.34 0 .636-.234.719-.568l2.31-9.354a.76.76 0 0 0-.135-.642z" fill="#FFFFFF" fill-rule="evenodd"/></svg>
