<svg width="38" height="30" xmlns="http://www.w3.org/2000/svg"><path d="M33.729 4.6764S36.7769 4.4422 38 3.5511c0 0-.2917 1.0245-3.961 4.2702 0 0 1.2352 17.5063-17.581 21.7942 0 0-9.5417 1.9898-16.458-3.084 0 0 7.2384 1.2559 11.3119-3.1389 0 0-5.254.052-6.9163-5.179 0 0 1.9843.418 3.1634-.1053 0 0-5.95-1.204-5.8436-7.5337 0 0 1.609 1.1506 3.0555.9416 0 0-5.3604-4.4467-2.036-9.992 0 0 7.1822 8.2883 16.0828 7.796a7.332 7.332 0 0 1-.2386-1.8577C18.5791 3.342 22.0038 0 26.2293 0c2.1332 0 4.0643.854 5.4515 2.23 1.018.0163 3.1102-.1601 5.201-1.6206 0 0 .12 1.5954-3.1528 4.067" fill="#FF6161" fill-rule="evenodd"/></svg>
