<svg width="26" height="23" viewBox="0 0 26 23" xmlns="http://www.w3.org/2000/svg" class="user-icon">
  <path d="M8.227505 6.122078c0-2.526205 2.056106-4.58077 4.58231-4.58077 2.524664 0 4.57923 2.054565 4.57923 4.58077s-2.054566 4.58077-4.57923 4.58077c-2.526204 0-4.58231-2.054565-4.58231-4.58077m7.97473 5.090942c1.643036-1.098953 2.728117-2.970102 2.728117-5.090942C18.930352 2.746612 16.185282 0 12.809816 0c-3.377007 0-6.12362 2.746612-6.12362 6.122078 0 2.10851 1.072752 3.971952 2.700373 5.073988C4.495995 12.535463.690504 16.698538 0 21.91741l1.528978.20037c.74137-5.608823 5.574913-9.839716 11.243847-9.839716 5.910918 0 10.880097 4.611596 11.310122 10.500936l1.538226-.112516c-.403823-5.510178-4.304875-10.027753-9.418937-11.453464" fill="#FFF" fill-rule="evenodd"/>
</svg>
