<?xml version="1.0" encoding="utf-8"?>
<!-- Generator: Adobe Illustrator 23.0.4, SVG Export Plug-In . SVG Version: 6.00 Build 0)  -->
<svg version="1.1" id="Capa_1" xmlns="http://www.w3.org/2000/svg" xmlns:xlink="http://www.w3.org/1999/xlink" x="0px" y="0px"
	 viewBox="0 0 100 100" style="enable-background:new 0 0 100 100;" xml:space="preserve">
<style type="text/css">
	.st0{fill:none;stroke:#DD4751;stroke-width:6.4258;stroke-linecap:round;stroke-linejoin:round;stroke-miterlimit:10;}
</style>
<g>
	<g id="Kv4jNH.tif_2_">
		<g>
			<path class="st0" d="M3.646,49.977C3.659,24.411,24.541,3.592,50.12,3.646C75.599,3.699,96.39,24.554,96.354,50.02
				c-0.036,25.591-20.93,46.423-46.47,46.334C24.37,96.265,3.633,75.466,3.646,49.977z"/>
			<path class="st0" d="M23.399,39.207c0.292-6.649,3.732-12.31,10.627-15.764c2.277-1.14,3.159-0.978,4.98,0.769
				c2.406,2.31,4.807,4.625,7.198,6.951c1.99,1.936,2.205,3.64,0.661,5.975c-0.633,0.956-1.435,1.803-2.19,2.674
				c-1.145,1.321-1.318,2.649-0.383,4.211c3.251,5.428,7.829,9.436,13.214,12.616c1.26,0.744,2.295,0.35,3.338-0.478
				c1.25-0.992,2.503-2,3.854-2.841c1.422-0.885,2.788-0.638,3.998,0.59c2.656,2.695,5.335,5.368,8.031,8.024
				c1.237,1.218,1.292,2.54,0.597,4.035c-5.188,11.161-19.132,14.734-28.932,7.28c-7.951-6.047-14.967-13.08-21.04-21.018
				C24.659,48.709,23.379,44.655,23.399,39.207z"/>
		</g>
	</g>
	<line class="st0" x1="64.156" y1="37.853" x2="76.311" y2="25.599"/>
	<line class="st0" x1="58.728" y1="31.726" x2="62.724" y2="24"/>
	<line class="st0" x1="68.662" y1="43.84" x2="77.11" y2="40.784"/>
</g>
<g>
</g>
<g>
</g>
<g>
</g>
<g>
</g>
<g>
</g>
<g>
</g>
</svg>
