<?xml version="1.0" encoding="utf-8"?>
<!-- Generator: Adobe Illustrator 23.0.4, SVG Export Plug-In . SVG Version: 6.00 Build 0)  -->
<svg version="1.1" id="Capa_1" xmlns="http://www.w3.org/2000/svg" xmlns:xlink="http://www.w3.org/1999/xlink" x="0px" y="0px"
	 viewBox="0 0 100 100" style="enable-background:new 0 0 100 100;" xml:space="preserve">
<style type="text/css">
	.st0{fill:#FFFFFF;}
</style>
<g>
	<path class="st0" d="M19.335,10.628C10.571,12.417,8.251,23.849,7.537,31.172C6.3,43.854,8.023,56.145,8.984,68.713
		c0.653,8.541-1.222,20.183,7.006,25.422c9.902,6.305,23.1,4.161,34.262,4.173c5.498,0.006,11.234,0.517,16.626-0.677
		c2.867-0.635,5.597-1.659,8.435-2.324c3.108-0.728,6.269-0.716,9.357-1.638c3.805-1.135,6.885-2.422,8.466-6.249
		c1.84-4.452,1.952-10.09,2.452-14.808c1.314-12.379,1.451-24.673-0.189-37.025c-0.67-5.052-1.097-10.565-2.98-15.351
		c-1.867-4.747-5.695-7.249-10.335-9.095C70.813,6.656,56.473,8.051,44.814,9.728c-6.878,0.989-13.692,1.819-20.638,1.819
		c-2.385,0-8.634-1.751-10.466,0.477c-1.305,1.588,0.959,3.878,2.276,2.276c0.242-0.294,7.489,0.465,8.19,0.466
		c4.645,0.002,8.939-0.437,13.544-0.924c10.315-1.092,20.265-2.603,30.693-2.017c4.508,0.254,9.414,0.877,13.547,2.759
		c6.372,2.903,7.714,7.573,8.963,13.996c1.811,9.317,2.652,18.613,2.557,28.14c-0.047,4.686-0.488,9.569-0.993,14.227
		c-0.489,4.512-0.403,10.875-2.278,14.989c-2.237,4.908-8.806,5.192-13.411,5.895c-5.153,0.787-9.875,2.998-15.144,3.262
		c-10.197,0.511-20.855,0.431-31.057,0.001c-4.775-0.201-10.219-1.234-14.004-4.439c-4.052-3.431-3.641-9.482-3.994-14.428
		c-0.733-10.268-1.99-20.447-2.052-30.709c-0.05-8.429-2.085-29.394,9.643-31.788C22.218,13.317,21.36,10.214,19.335,10.628
		L19.335,10.628z"/>
	<path class="st0" d="M65.636,86.791c0.303,0.151,0.606,0.303,0.909,0.454c1.156,0.578,2.299-0.147,2.422-1.39
		c0.912-9.286,0.919-18.652,1.623-27.927c-0.394,0.517-0.788,1.035-1.181,1.552c2.285-0.447,4.543-0.504,6.869-0.481
		c2.072,0.02,2.073-3.198,0-3.219c-2.704-0.027-5.082,0.079-7.725,0.596c-0.727,0.142-1.13,0.88-1.181,1.552
		c-0.704,9.274-0.711,18.644-1.623,27.927c0.807-0.463,1.614-0.926,2.422-1.39c-0.303-0.151-0.606-0.303-0.909-0.454
		C65.412,83.089,63.78,85.865,65.636,86.791L65.636,86.791z"/>
	<path class="st0" d="M78.377,55.916c0-2.81,0.46-5.975-0.122-8.733c-0.115-0.546-0.609-0.972-1.124-1.124
		c-1.584-0.466-3.164-0.207-4.78-0.121c-0.842,0.044-3.179,0.587-3.782-0.005c-1.48-1.452-3.757,0.822-2.276,2.276
		c2.58,2.532,6.923,0.053,9.983,0.954c-0.375-0.375-0.749-0.749-1.124-1.124c0.255,1.209,0.045,2.464,0.013,3.685
		c-0.036,1.396-0.006,2.796-0.006,4.192C75.158,57.987,78.377,57.991,78.377,55.916L78.377,55.916z"/>
	<path class="st0" d="M69.531,46.088c-0.007-2.211-0.346-5.488,1.38-7.211c1.419-1.416,4.081,0.621,5.856,0.466
		c2.048-0.179,2.067-3.399,0-3.219c-1.525,0.133-2.906-0.949-4.441-1.005c-1.389-0.051-2.722,0.488-3.691,1.482
		c-2.405,2.466-2.333,6.301-2.323,9.487C66.32,48.158,69.538,48.162,69.531,46.088L69.531,46.088z"/>
	<path class="st0" d="M78.377,37.242c0.004-1.723,0.242-3.173,0.492-4.85c0.246-1.652,0.032-3.319-0.001-4.979
		c-0.041-2.068-3.259-2.075-3.219,0c0.035,1.77,0.271,3.514-0.113,5.26c-0.341,1.549-0.375,2.977-0.379,4.569
		C75.154,39.313,78.372,39.316,78.377,37.242L78.377,37.242z"/>
	<path class="st0" d="M55.771,46.088c-0.111-5.689-0.013-12.317,5.474-15.809c4.442-2.827,10.628-0.39,15.522-0.273
		c2.072,0.05,2.071-3.169,0-3.219c-6.225-0.149-13.091-2.944-18.474,1.679c-5.485,4.711-5.871,10.979-5.741,17.622
		C52.593,48.156,55.812,48.163,55.771,46.088L55.771,46.088z"/>
	<path class="st0" d="M54.162,44.97c-1.191,0.095-2.187,0.542-3.394,0.514c-0.871-0.02-1.801-0.193-2.574,0.32
		c-1.907,1.264-1.047,4.903-1.047,6.758c0,1.947-0.681,4.491,1.441,5.575c1.67,0.853,3.785,0.416,5.574,0.372
		c2.068-0.051,2.075-3.27,0-3.219c-1.053,0.026-2.139,0.217-3.191,0.114c-0.894-0.088-0.677,0.016-0.677-0.809
		c0.001-0.9,0.071-1.807,0.071-2.711c0-0.853-0.056-1.696-0.084-2.547c-0.022-0.234-0.024-0.468-0.007-0.702
		c0.126-0.459-0.008-0.52-0.403-0.18c-1.122-0.071,0.072,0.202,0.142,0.218c1.497,0.34,2.737-0.371,4.148-0.484
		C56.213,48.025,56.231,44.805,54.162,44.97L54.162,44.97z"/>
	<path class="st0" d="M52.061,56.899c0,4.957-0.466,10.173,0.23,15.092c0.29,2.05,0.765,3.842,0.85,5.982
		c0.07,1.783-0.591,4.015-0.258,5.759c0.332,1.738,0.5,2.15,2.111,2.778c1.353,0.528,3.794,0.044,5.239,0.111
		c2.567,0.118,5.118,0.336,7.689,0.389c2.072,0.043,2.072-3.176,0-3.219c-3.168-0.066-6.47-0.077-9.616-0.475
		c-3.502-0.443-1.314,0.366-2.044-1.752c-0.422-1.224,0.127-3.19,0.061-4.479c-0.166-3.21-1.06-6.289-1.056-9.522
		c0.004-3.555,0.013-7.11,0.013-10.666C55.28,54.828,52.061,54.825,52.061,56.899L52.061,56.899z"/>
	<path class="st0" d="M16.167,11.042c-3.21,3.032-4.324,7.231-6.59,10.891c0.926,0.541,1.853,1.083,2.779,1.624
		c1.952-3.253,3.474-7.343,6.131-10.114c-0.897-0.237-1.793-0.473-2.69-0.71c0.405,1.138-2.641,4.7-3.298,5.807
		c-1.759,2.964-3.175,6.126-4.437,9.327c-0.73,1.852,1.941,2.545,2.941,1.24c3.143-4.1,3.855-9.68,7.867-13.195
		c-0.916-0.379-1.831-0.759-2.747-1.138c-0.293,3.401-3.172,6.56-4.729,9.485c-1.712,3.216-3.071,6.578-4.313,9.996
		c-0.531,1.46,1.7,2.826,2.69,1.566c1.841-2.345,2.926-4.869,4.158-7.566c0.876-1.917,3.11-8.496,5.252-9.385
		c-0.679-0.517-1.358-1.035-2.037-1.552c-0.467,4.249-3.666,9.238-5.42,13.084c-1.282,2.81-2.479,5.669-3.66,8.522
		c-0.693,1.674,2.16,2.882,2.941,1.24c2.234-4.697,4.693-9.259,6.569-14.117c1.196-3.098,2.708-8.52,5.19-11.042
		c-0.916-0.379-1.831-0.759-2.747-1.138c0.396,3.26-1.492,6.382-2.654,9.315c-1.499,3.782-3.011,7.548-4.58,11.302
		c-1.305,3.121-4.206,7.918-3.879,11.489c0.127,1.388,2.303,2.441,2.999,0.812c2.146-5.021,4.695-9.861,6.901-14.867
		c1.831-4.156,3.121-10.242,6.543-13.411c-0.916-0.379-1.831-0.759-2.747-1.138c-0.298,11.562-9.053,21.481-11.684,32.597
		c-0.399,1.685,2.177,2.981,2.941,1.24c2.57-5.852,4.631-11.91,7.077-17.814c1.49-3.597,2.796-7.298,4.463-10.818
		c0.475-1.002,1.179-1.968,1.505-3.023c-0.129,0.417,1.165-4.009-0.14-2.113c-1.06,1.54-1.209,5.974-1.838,7.804
		c-1.558,4.534-3.789,8.796-5.838,13.118c-2.902,6.121-4.684,13.045-7.874,18.951c0.98,0.413,1.961,0.827,2.941,1.24
		c1.103-4.404,1.321-8.685,1.321-13.222c0-2.078-3.136-2.065-3.219,0c-0.117,2.923-0.426,9.191-1.852,11.919
		c0.926,0,1.853,0,2.779,0c-2.134-3.363-1.138-8.405-2.754-12.164c-0.678-1.576-2.932-0.626-2.999,0.812
		c-0.222,4.773,1.67,9.569,1.902,14.351c1.073,0,2.146,0,3.219,0c-0.502-4.067-1.144-7.832-0.896-11.987
		c-1.054,0.143-2.107,0.285-3.161,0.428c0.945,2.876,0.595,7.115,0.767,10.122c0.196,3.43,0.361,6.871,0.539,10.304
		c0.107,2.055,3.25,2.085,3.219,0c-0.106-7.077-1.202-14.388-0.38-21.443c-1,0.271-1.999,0.541-2.999,0.812
		c0.721,1.689,0.169,4.366,0.144,6.142c-0.046,3.294-0.052,6.58,0.112,9.871c0.226,4.518,0.121,9.556,1.463,13.898
		c0.521,1.687,3.214,1.443,3.161-0.428c-0.233-8.28-0.046-16.558-0.025-24.839c-1.073,0-2.146,0-3.219,0
		c0,6.018-0.159,12.061,0.007,18.077c0.127,4.606-0.016,10.243,1.633,14.597c0.501,1.321,2.126,1.572,2.941,0.384
		c2.067-3.012,1.089-7.532,1.089-10.975c0.001-5.525,0.405-11.217-0.092-16.714c-0.146-1.613-2.058-2.159-2.999-0.812
		c-2.934,4.204-1.077,12.724-1.117,17.459c-0.036,4.184-0.779,10.945,2.462,14.249c0.646,0.658,1.616,0.557,2.276,0
		c4.258-3.598,0.869-15.058-1.988-18.463c-0.334-0.398-1.078-0.601-1.566-0.414c-5.985,2.301-0.413,15.922,1.638,19.597
		c0.541,0.968,1.759,0.973,2.528,0.326c3.009-2.535,0.14-8.455-2.469-10.24c-0.562-0.384-1.496-0.246-1.95,0.252
		c-2.882,3.157,1.893,12.418,5.921,12.606c0.761,0.035,1.299-0.536,1.552-1.181c1.739-4.445-4.059-7.976-7.844-8.324
		c-0.522-0.048-1.158,0.334-1.39,0.797c-2.165,4.335,3.558,10.723,8.154,9.266c0.742-0.235,1.101-0.814,1.181-1.552
		c0.395-3.63-3.969-5.169-6.852-5.54c-1.152-0.148-1.688,1.141-1.552,2.037c0.57,3.751,7.433,8.709,11.268,7.587
		c0.873-0.256,1.304-1.115,1.124-1.98c-0.702-3.37-3.904-3.976-6.529-5.592c-1.801-1.109-3.259,1.582-1.624,2.779
		c2.61,1.911,4.24,3.4,7.525,3.904c1.33,0.204,2.572-1.046,1.817-2.364c-1.932-3.374-5.728-4.831-7.716-8.077
		c-0.843,0.65-1.685,1.3-2.528,1.95c2.35,2.82,5.074,5.256,7.609,7.905c1.467,1.533,3.534-0.696,2.276-2.276
		c-4.08-5.121-6.959-10.929-8.565-17.285c-1.325-5.244-3.874-12.733-2.984-18.156c-0.897,0.237-1.793,0.473-2.69,0.71
		c2.821,3.553,2.952,10.55,3.683,14.922c0.631,3.773,0.977,7.647,2.559,11.156c0.717,1.59,2.888,0.608,2.999-0.812
		c0.16-2.042-0.748-3.886-1.237-5.858c-0.985-3.975-1.6-8.136-1.841-12.22c-0.388-6.571-1.02-14.9,0.741-21.245
		c-0.98,0.128-1.961,0.256-2.941,0.384c1.484,3.166,1.211,7.902,1.522,11.307c0.371,4.053,0.727,8.108,1.124,12.159
		c0.594,6.066,0.823,12.949,3.408,18.54c0.683,1.476,3.041,0.712,2.999-0.812c-0.463-16.908-4.176-33.773-1.988-50.753
		c-1.054,0.143-2.107,0.285-3.161,0.428c1.186,4.25,0.827,9.366,1.187,13.773c0.378,4.622,0.742,9.244,1.053,13.871
		c0.552,8.209,0.128,17.431,2.502,25.347c1.035-0.285,2.069-0.57,3.104-0.856c-2.789-8.469-2.814-18.044-3.277-26.877
		c-0.216-4.12-0.236-8.235-0.148-12.359c0.072-3.363-0.649-8.997,0.871-12.093c-0.98-0.128-1.961-0.256-2.941-0.384
		c2.248,8.672,2.618,17.693,3.066,26.598c0.439,8.726,1.699,17.548,1.945,26.237c0.807-0.463,1.614-0.926,2.422-1.39
		c0.939,0.485,0.097-1.293-0.098-2.596c-0.351-2.351-0.586-4.723-0.834-7.087c-0.509-4.866-0.942-9.74-1.35-14.615
		c-0.982-11.736-1.371-23.574,0.156-35.279c-1,0.271-1.999,0.541-2.999,0.812c2.407,4.212,2.078,10.295,2.525,15.069
		c0.473,5.051,0.856,10.106,1.13,15.171c0.475,8.785,0.089,18.055,2.04,26.663c0.402,1.774,3.195,1.38,3.161-0.428
		c-0.098-5.176-1.554-10.241-1.974-15.408c-0.4-4.934-0.551-9.893-0.78-14.836c-0.429-9.258-1.246-19.417-0.129-28.606
		c-1,0.271-1.999,0.541-2.999,0.812c2.158,4.647,2.169,11.202,2.631,16.243c0.423,4.614,0.732,9.241,1.059,13.862
		c0.647,9.128,1.99,18.635,1.895,27.76c1.073,0,2.146,0,3.219,0c-0.042-3.851-1.067-7.519-1.525-11.332
		c-0.516-4.295-0.632-8.632-0.86-12.948c-0.479-9.068-0.915-18.118-0.497-27.197c-0.679,0.517-1.358,1.035-2.037,1.552
		c-0.75-0.162,0.154,1.819,0.352,2.876c0.341,1.812,0.54,3.654,0.743,5.485c0.48,4.328,0.801,8.674,1.1,13.018
		c0.186,2.696,0.334,5.393,0.577,8.085c0.589,6.537,0.339,14.229,2.477,20.451c0.687,2,3.402,1.162,3.104-0.856
		c-1.372-9.287-2.62-18.249-3.101-27.647c-0.416-8.12-1.628-16.712-0.757-24.819c-0.916,0.379-1.831,0.759-2.747,1.138
		c1.791,1.868,1.893,7.451,2.357,10.002c0.933,5.122,1.734,10.27,2.248,15.452c0.792,7.99,0.084,16.811,2.311,24.555
		c0.492,1.709,3.22,1.427,3.161-0.428c-0.255-8.01-1.778-15.92-1.955-23.978c-0.167-7.599,0.343-15.274-0.079-22.857
		c-1.054,0.143-2.107,0.285-3.161,0.428c1.603,8.236,2.794,16.417,3.769,24.755c0.76,6.5,0.907,13.639,2.688,19.936
		c0.486,1.718,3.209,1.421,3.161-0.428c-0.163-6.327-1.88-12.587-2.262-18.944c-0.19-3.163-0.127-6.354-0.483-9.504
		c-0.162-1.43-1.079-3.99-0.723-5.28c-1.035,0-2.069,0-3.104,0c2.313,6.599,3.069,13.507,3.513,20.455
		c0.27,4.221-0.484,9.307,1.426,13.198c0.709,1.445,3.049,0.736,2.999-0.812c-0.239-7.365-0.692-14.713-0.932-22.087
		c-1.054,0.143-2.107,0.285-3.161,0.428c1.363,8.109,1.893,16.39,3.487,24.443c0.353,1.784,3.219,1.373,3.161-0.428
		c-0.189-5.863-0.32-11.727-0.539-17.589c-1.054,0.143-2.107,0.285-3.161,0.428c0.514,3.589,0.068,9.101,2.041,12.279
		c0.905,1.457,2.817,0.71,2.999-0.812c0.502-4.2,0.111-8.585,0.111-12.818c0-2.071-3.219-2.074-3.219,0c0,0.181,0,0.363,0,0.544
		c0,2.079,3.133,2.064,3.219,0c0.061-1.472,0.436-4.245-0.789-5.495c-0.205-0.209-2.384-1.753-2.218-0.551
		c-0.284-2.043-3.385-1.173-3.104,0.856c0.019,0.136,0.038,0.273,0.057,0.409c0.07,0.506,0.638,1.028,1.124,1.124
		c2.141,0.422,1.799,1.517,1.71,3.657c1.073,0,2.146,0,3.219,0c0-0.181,0-0.363,0-0.544c0-2.071-3.219-2.074-3.219,0
		c0,4.232,0.391,8.618-0.111,12.818c1-0.271,1.999-0.541,2.999-0.812c-1.629-2.624-1.299-8.594-1.716-11.51
		c-0.258-1.801-3.228-1.363-3.161,0.428c0.218,5.862,0.35,11.726,0.539,17.589c1.054-0.143,2.107-0.285,3.161-0.428
		c-1.59-8.034-2.127-16.35-3.487-24.443c-0.302-1.798-3.219-1.364-3.161,0.428c0.24,7.374,0.693,14.722,0.932,22.087
		c1-0.271,1.999-0.541,2.999-0.812c-1.182-2.408-0.692-6.012-0.823-8.623c-0.148-2.927-0.338-5.852-0.633-8.769
		c-0.533-5.282-1.397-10.468-3.159-15.493c-0.508-1.449-2.66-1.606-3.104,0c-0.344,1.246-0.005,2.41,0.183,3.661
		c0.496,3.294,0.64,6.536,0.796,9.867c0.33,7.048,2.193,14.068,2.373,21.057c1.054-0.143,2.107-0.285,3.161-0.428
		c-2.06-7.285-2.173-15.638-3.049-23.165c-0.845-7.271-2.011-14.347-3.408-21.527c-0.345-1.773-3.262-1.381-3.161,0.428
		c0.422,7.584-0.085,15.256,0.079,22.857c0.173,8.057,1.701,15.979,1.955,23.978c1.054-0.143,2.107-0.285,3.161-0.428
		c-2.74-9.524-1.642-20.666-3.019-30.536c-0.67-4.804-1.604-9.564-2.35-14.353c-0.385-2.467-0.582-4.671-2.375-6.541
		c-1.051-1.097-2.607-0.166-2.747,1.138c-0.942,8.764,0.425,18.052,0.853,26.836c0.441,9.041,1.801,17.56,3.12,26.485
		c1.035-0.285,2.069-0.57,3.104-0.856c-2.21-6.435-2.02-14.89-2.543-21.706c-0.309-4.019-0.52-8.044-0.848-12.061
		c-0.246-3.018,0.191-17.467-4.105-18.395c-1.052-0.227-1.987,0.468-2.037,1.552c-0.418,9.079,0.018,18.129,0.497,27.197
		c0.211,4.005,0.339,8.023,0.762,12.013c0.434,4.093,1.579,8.163,1.623,12.267c0.023,2.071,3.197,2.074,3.219,0
		c0.109-10.546-1.44-21.52-2.212-32.063c-0.622-8.482-0.165-19.575-3.813-27.427c-0.754-1.623-2.831-0.571-2.999,0.812
		c-1.115,9.171-0.3,19.371,0.129,28.606c0.229,4.942,0.377,9.904,0.78,14.836c0.421,5.145,1.877,10.273,1.974,15.408
		c1.054-0.143,2.107-0.285,3.161-0.428c-2.34-10.318-1.566-21.669-2.322-32.213c-0.366-5.113-0.9-10.206-1.382-15.308
		c-0.338-3.582-0.499-6.969-2.317-10.151c-0.869-1.521-2.808-0.655-2.999,0.812c-1.696,13.004-0.972,26.05,0.168,39.059
		c0.477,5.443,0.962,10.891,1.646,16.313c0.213,1.69,0.05,6.027,1.906,6.984c1.043,0.538,2.458-0.112,2.422-1.39
		c-0.267-9.4-1.57-18.928-2.053-28.363c-0.434-8.481-0.932-17.072-3.073-25.328c-0.331-1.276-2.321-1.648-2.941-0.384
		c-1.361,2.773-1.137,5.514-1.159,8.546c-0.037,5.16-0.305,10.296-0.102,15.459c0.382,9.693,0.428,20.504,3.491,29.803
		c0.643,1.954,3.703,1.143,3.104-0.856c-2.639-8.798-2.012-19.494-2.675-28.641c-0.339-4.683-0.783-9.359-1.119-14.042
		c-0.246-3.437-0.017-6.97-0.949-10.308c-0.524-1.878-2.942-1.272-3.161,0.428c-2.188,16.981,1.525,33.844,1.988,50.753
		c1-0.271,1.999-0.541,2.999-0.812c-3.482-7.533-3.048-17.609-3.791-25.758c-0.471-5.164-0.018-11.458-2.263-16.248
		c-0.607-1.295-2.594-0.867-2.941,0.384c-1.738,6.263-1.118,13.57-0.936,20.016c0.083,2.931,0.34,5.839,0.804,8.734
		c0.558,3.48,2.626,7.963,2.355,11.429c1-0.271,1.999-0.541,2.999-0.812c-3.687-8.18-0.985-19.475-6.745-26.729
		c-0.721-0.909-2.503-0.426-2.69,0.71c-1.022,6.229,1.475,13.896,2.984,19.868c1.748,6.915,4.959,13.139,9.393,18.705
		c0.759-0.759,1.517-1.517,2.276-2.276c-2.534-2.649-5.258-5.084-7.609-7.905c-1.179-1.414-3.47,0.412-2.528,1.95
		c1.99,3.25,5.797,4.726,7.716,8.077c0.606-0.788,1.212-1.576,1.817-2.364c-2.835-0.435-4.554-1.967-6.756-3.58
		c-0.541,0.926-1.083,1.853-1.624,2.779c1.527,0.94,4.622,1.61,5.05,3.668c0.375-0.66,0.749-1.32,1.124-1.98
		c-2.182,0.638-7.065-3.735-7.309-5.339c-0.517,0.679-1.035,1.358-1.552,2.037c1.785,0,2.996,0.774,3.634,2.322
		c0.394-0.517,0.788-1.035,1.181-1.552c-4.053,1.285-3.005-2.72-4.059-3.184c1.278,0.562,3.583,1.922,2.891,3.693
		c0.517-0.394,1.035-0.788,1.552-1.181c-0.894-0.042-4.279-6.417-3.645-7.111c-0.65,0.084-1.3,0.168-1.95,0.252
		c0.404,0.277,3.004,4.186,1.818,5.185c0.843,0.109,1.685,0.217,2.528,0.326c-1.83-3.278-2.964-7.642-3.447-11.339
		c-0.032-0.244-0.037-2.561-0.198-2.659c0.077,0.047,0.727,4.251,0.779,4.579c0.268,1.688,1.226,6.781-0.273,8.048
		c0.759,0,1.517,0,2.276,0c-2.658-2.71-1.515-9.506-1.505-13.008c0.012-3.962-1.67-11.457,0.663-14.8
		c-1-0.271-1.999-0.541-2.999-0.812c0.379,4.193,0.101,8.528,0.097,12.738c-0.003,3.215,1.227,10.587-0.655,13.328
		c0.98,0.128,1.961,0.256,2.941,0.384c-1.755-4.633-1.487-10.901-1.542-15.822c-0.06-5.33,0.018-10.666,0.018-15.996
		c0-2.071-3.213-2.074-3.219,0c-0.021,8.281-0.208,16.56,0.025,24.839c1.054-0.143,2.107-0.285,3.161-0.428
		c-1.728-5.592-1.466-12.632-1.497-18.453c-0.021-3.857,0.999-8.609-0.547-12.228c-0.706-1.653-2.84-0.547-2.999,0.812
		c-0.822,7.056,0.275,14.366,0.38,21.443c1.073,0,2.146,0,3.219,0c-0.215-4.136-0.377-8.295-0.732-12.418
		c-0.249-2.897,0.224-6.085-0.689-8.864c-0.573-1.743-3.052-1.398-3.161,0.428c-0.258,4.319,0.37,7.725,0.896,11.987
		c0.246,1.995,3.321,2.119,3.219,0c-0.23-4.738-2.122-9.61-1.902-14.351c-1,0.271-1.999,0.541-2.999,0.812
		c1.66,3.86,0.485,8.588,2.754,12.164c0.617,0.972,2.197,1.115,2.779,0c2.02-3.864,2.12-9.282,2.291-13.543
		c-1.073,0-2.146,0-3.219,0c0,4.213-0.177,8.259-1.206,12.366c-0.432,1.726,2.051,2.888,2.941,1.24
		c2.265-4.193,3.378-8.979,5.295-13.35c2.231-5.086,4.861-9.989,7.031-15.1c1.001-2.357,6.109-13.197,2.853-15.849
		c-3.438-2.799-6.143,5.403-6.946,7.154c-4.158,9.074-7.137,18.663-11.145,27.79c0.98,0.413,1.961,0.827,2.941,1.24
		c2.703-11.416,11.49-21.486,11.799-33.452c0.037-1.447-1.759-2.053-2.747-1.138c-3.105,2.876-4.459,7.986-6.061,11.774
		c-2.457,5.809-5.419,11.382-7.886,17.155c1,0.271,1.999,0.541,2.999,0.812c-0.167-1.828,1.372-4.623,2.022-6.32
		c1.262-3.295,2.704-6.518,4.025-9.79c1.903-4.713,5.698-10.79,5.065-15.996c-0.159-1.306-1.681-2.222-2.747-1.138
		c-1.934,1.966-3.24,5.673-4.331,8.141c-2.62,5.925-5.144,11.811-7.931,17.67c0.98,0.413,1.961,0.827,2.941,1.24
		c2.889-6.978,8.362-14.89,9.195-22.462c0.106-0.964-1.127-1.93-2.037-1.552c-2.513,1.043-3.098,2.802-4.28,5.159
		c-2.057,4.104-3.71,9.002-6.551,12.619c0.897,0.522,1.793,1.044,2.69,1.566c1.694-4.659,3.749-8.91,6.263-13.17
		c1.396-2.366,2.659-4.436,2.895-7.167c0.129-1.499-1.792-1.975-2.747-1.138c-4.26,3.732-5.046,9.509-8.371,13.846
		c0.98,0.413,1.961,0.827,2.941,1.24c1.614-4.092,3.732-7.709,5.953-11.461c0.868-1.467,2.425-3.579,1.783-5.384
		c-0.391-1.097-1.8-1.638-2.69-0.71c-2.895,3.02-4.5,7.21-6.634,10.766c-1.07,1.782,1.69,3.383,2.779,1.624
		c2.041-3.296,3.207-7.52,6.086-10.239C19.952,11.892,17.673,9.619,16.167,11.042L16.167,11.042z"/>
	<path class="st0" d="M16.245,61.75c0.738,5.486,1.548,11.922,3.329,17.128c0.46,1.345,2.844,1.704,3.104,0
		c0.615-4.047-0.315-8.289-0.874-12.3c-0.388-2.788-0.484-6.469-2.387-8.711c-0.631-0.743-2.112-0.574-2.528,0.326
		c-1.887,4.088-0.782,9.704-0.221,13.988c0.614,4.693,0.387,13.308,4.424,16.648c0.819,0.677,1.924,0.604,2.528-0.326
		c2.353-3.623,1.422-9.389,1.172-13.505c-0.172-2.825-0.502-9.336-3.798-10.563c-6.202-2.309-3.659,15.028-3.399,16.995
		c0.294,2.221,3.029,17.893,8.507,11.668c2.27-2.579,3.486-18.619-3.128-16.616c-5.008,1.516-1.412,14.619,0.266,17.18
		c4.843,7.39,8.375-5.876,5.825-10.11c-1.281-2.126-3.99-3.338-5.915-1.207c-2.279,2.521-0.86,7.557,0.531,10.152
		c3.269,6.096,10.599,5.154,9.286-2.641c-1.19-7.065-9.451-6.984-8,1.084c1.207,6.715,9.736,10.967,10.488,1.673
		c0.21-2.589-0.383-5.556-2.623-7.128c-2.122-1.488-4.236-0.922-5.085,1.617c-1.585,4.739,4.769,14.313,9.501,8.921
		c1.808-2.061,1.809-6.772,0.684-9.117c-0.805-1.679-3.664-5.039-5.83-4.617c-5.872,1.145-0.59,12.393,2.585,13.897
		c5.871,2.781,6.814-5.432,5.797-9.282c-1.052-3.986-8.285-11.182-9.626-3.585c-0.755,4.279,3.454,17.668,9.689,13.522
		c4.591-3.052,2.647-18.816-4.087-16.856c-5.934,1.728-1.458,17.866,5.437,15.828c7.066-2.089,3.135-18.415-1.183-21.529
		c-0.589-0.425-1.46-0.201-1.95,0.252c-4.009,3.704-0.701,19.063,4.907,20.733c7.082,2.109,4.226-13.814,2.687-16.544
		c-1.105-1.96-2.984-4.571-5.435-2.884c-2.472,1.701-1.655,6.61-1.384,9.033c0.37,3.304,3.6,16.259,8.651,10.065
		c2.727-3.344,3.475-21.657-2.73-21.372c-6.56,0.3-1.88,17.49-0.397,19.881c8.081,13.032,11.657-25.509,2.673-19.924
		c-4.061,2.525-2.925,20.803,1.742,21.712c3.427,0.668,3.396-4.443,3.416-6.528c0.029-3.087-0.16-6.176-0.075-9.266
		c0.055-2.003,0.517-3.879-0.709-5.609c-0.735-1.036-2.041-1.022-2.779,0c-1.435,1.986-0.685,5.133-0.708,7.43
		c-0.033,3.239-0.653,6.348,0.843,9.326c0.663,1.32,2.525,0.836,2.941-0.384c1.775-5.208,0.554-12.936,0.391-18.404
		c-1.054,0.143-2.107,0.285-3.161,0.428c0.557,3.192,0.237,6.995,1.389,9.987c0.664,1.726,2.965,1.406,3.161-0.428
		c0.539-5.042,0.257-10.46,0.098-15.537c-0.065-2.065-3.256-2.078-3.219,0c0.092,5.033,0.91,10.067,0.993,15.096
		c0.034,2.078,3.126,2.065,3.219,0c0.075-1.683,0.107-1.566-0.438-3.131c-0.517-1.482-2.621-1.572-3.104,0
		c-0.765,2.493-0.311,5.507-0.71,8.097c-0.416,2.703-0.711,5.131-0.297,7.859c0.166,1.091,1.541,1.384,2.364,0.962
		c2.51-1.288,3.295-6.385,0.529-7.917c-3.529-1.956-4.882,2.756-4.477,5.257c0.442,2.73,2.8,7.128,6.153,4.887
		c2.701-1.806,4.533-9.483,1.366-11.653c-6.874-4.712-6.664,15.369,1.16,12.675c3.55-1.222,3.645-8.18,1.665-10.61
		c-1.871-2.297-5.322-2.037-5.842,1.104c-0.512,3.099,2.641,9.803,6.581,8.518c4.779-1.559,2.758-9.428-0.557-11.352
		c-0.501-0.291-1.123-0.288-1.624,0c-4.221,2.428-0.496,12.095,4.572,10.3c5.075-1.798,3.052-13.069-2.508-12.198
		c-6.069,0.95-1.456,11.996,4.113,11.435c5.961-0.6,4.722-10.145-0.763-10.261c-6.136-0.131-2.286,9.77,1.06,11.297
		c5.558,2.538,8.523-6.654,4.286-9.742c-5.304-3.866-5.887,6.085-1.645,8.54c5.278,3.055,8.338-5.022,4.573-8.099
		c-4.594-3.755-5.787,5.86-0.803,7.927c5.025,2.084,7.963-7.515,3.29-9.184c-0.614-0.219-1.535,0.135-1.817,0.74
		c-3.041,6.516,7.359,11.856,7.431,2.052c-1.054,0.143-2.107,0.285-3.161,0.428c0.042,0.229,0.085,0.457,0.127,0.686
		c0.343,1.855,3.081,1.308,3.161-0.428c-0.011-1.459,0.243-2.881,0.761-4.266c-0.926,0-1.853,0-2.779,0
		c0.404,0.807,0.808,1.613,1.211,2.42c0.491,1.481,2.652,1.577,3.104,0c0.473-1.651,0.558-3.004,0.539-4.739
		c-0.022-2.07-3.241-2.075-3.219,0c0.12,1.318-0.021,2.612-0.424,3.883c1.035,0,2.069,0,3.104,0
		c-0.57-1.719-0.528-1.687-1.536-3.189c-0.661-0.984-2.142-1.094-2.779,0c-1.129,1.937-1.098,3.669-1.201,5.89
		c1.054-0.143,2.107-0.285,3.161-0.428c-0.042-0.229-0.085-0.457-0.127-0.686c-0.337-1.819-3.148-1.343-3.161,0.428
		c0.226,1.577-0.252,1.434-1.433-0.428c-0.606,0.247-1.212,0.493-1.817,0.74c0.302,1.842-0.49,2.381-2.374,1.617
		c-1.289-0.632-1.619-0.186-0.99,1.338c-1.247-0.822-2.581-1.042-4.003-0.659c-1.572,0.733-2.387,0.282-2.446-1.352
		c-2.549-2.825-3.761-2.423-3.637,1.207c-1.144-2.011-1.416-2.407-0.814-1.186c0.698,1.155,0.537,2.396-0.484,3.723
		c-0.338-0.526-0.638-1.074-0.901-1.642c-2.876-0.811,1.268-2.601-0.241,0.366c-1.299,2.554-1.36,2.291-2.413-0.691
		c-0.939-2.661,0.747-1.137-0.628,0.544c-1.716,1.128-2.457,0.711-2.222-1.249c-0.287-0.714-0.536-0.32-0.747,1.179
		c0.788,0.321,1.576,0.641,2.364,0.962c-0.466-3.065,0.422-5.925,0.78-8.931c0.195-1.643-0.253-3.751,0.227-5.314
		c-1.035,0-2.069,0-3.104,0c0.108,0.758,0.215,1.517,0.323,2.275c1.073,0,2.146,0,3.219,0c-0.082-5.034-0.901-10.055-0.992-15.096
		c-1.073,0-2.146,0-3.219,0c0.159,5.074,0.441,10.492-0.098,15.537c1.054-0.143,2.107-0.285,3.161-0.428
		c-1.057-2.746-0.875-7.041-1.389-9.987c-0.313-1.797-3.215-1.365-3.161,0.428c0.152,5.094,1.373,12.711-0.276,17.548
		c0.98-0.128,1.961-0.256,2.941-0.384c-1.133-2.256-0.4-6.077-0.405-8.528c-0.003-1.259-0.525-3.878,0.27-4.978
		c-0.926,0-1.853,0-2.779,0c1.466,2.067,0.234,8.303,0.27,10.582c0.023,1.463-0.282,3.308,0.009,4.698
		c0.533,2.544,0.325,0.645,0.373-0.557c0.066-1.64-0.888-4.2-0.993-5.703c-0.169-2.4,0.203-4.605,0.319-6.97
		c0.056-1.133-0.488-1.305-0.338-0.399c0.164,0.985,0.339,1.945,0.444,2.941c0.229,2.175,0.274,4.408,0.145,6.591
		c-0.083,1.404-0.054,6.088-1.718,5.182c-1.97-1.072-2.326-8.623-2.357-10.437c-0.015-0.879,0.008-1.778,0.118-2.65
		c0.232-1.85,0.021-1.63,0.411,0.29c0.613,3.023,0.807,6.035,0.601,9.106c-0.075,1.122,0.237,4.629-1.952,3.752
		c-0.623-0.249-1.207-3.331-1.357-3.935c-0.42-1.694-0.662-3.458-0.744-5.199c-0.045-0.945-0.412-3.037,0.117-3.766
		c0.652-0.899,2.964,12.484,2.056,5.932c0.203,1.462,0.453,3.469,0.171,4.887c-0.475,2.381-0.287,2.547-1.765,0.257
		c-0.639-0.99-1.114-2.2-1.503-3.3c-0.569-1.609-2.472-8.216-0.598-9.947c-0.65,0.084-1.3,0.168-1.95,0.252
		c2.621,1.89,2.822,6.71,2.978,9.616c0.132,2.464,1.037,4.295-1.887,4.18c-2.38-0.094-3.662-3.651-2.933-5.842
		c1.179-3.541,2.6,3.804,2.573,4.71c-0.066,2.158,0.213,3.365-2.031,2.984c-2.302-0.391-3.482-3.959-3.59-6.237
		c-0.243-5.144,2.951,0.018,3.343,2.336c0.092,0.543,0.422,2.889-0.026,3.314c-2.5,2.37-4.334-2.976-4.466-4.21
		c-0.151-1.408-0.252-1.181,0.383-1.379c-0.364,0.114,5.47,8.054-0.141,5.745c-1.177-0.484-3.074-1.923-2.487-3.622
		c0.081-0.235,4.28,8.865-1.696,4.359c-0.377-1.204-0.754-2.408-1.13-3.611c2.462,2.473,2.607,3.411,0.434,2.812
		c-1.773-0.496-2.211-1.466-2.741-3.321c-2.111-7.382,3.128,1.88,0.789,2.524c-1.059,0.291-1.209-2.031-1.349-2.58
		c-0.516-2.023-1.9-5.393-1.243-7.528c0.348-1.133,0.691,3.799,0.702,3.387c-0.03,1.118-0.097,5.389-1.324,5.664
		c-1.892,0.424-3.226-17.328-3.082-19.44c0.014-0.199,0.365-2.945,0.368-2.943c0.62,0.275,0.979,6.087,1.038,7.017
		c0.202,3.175,1.04,9.15-0.733,11.881c0.843-0.109,1.685-0.217,2.528-0.326c-2.916-2.412-2.849-9.885-3.335-13.371
		c-0.496-3.549-1.934-9.962-0.364-13.364c-0.843,0.109-1.685,0.217-2.528,0.326c1.244,1.466,1.27,5.508,1.501,7.09
		c0.49,3.364,1.441,7.447,0.933,10.79c1.035,0,2.069,0,3.104,0c-1.788-5.227-2.592-11.654-3.329-17.128
		C19.074,58.851,15.972,59.721,16.245,61.75L16.245,61.75z"/>
	<path class="st0" d="M53.5,58.78c0.176-0.102,0.352-0.204,0.528-0.306c-0.807-0.463-1.614-0.926-2.422-1.39
		c-0.41,7.993-2.089,15.739-2.505,23.742c-0.093,1.796,2.784,2.211,3.161,0.428c0.853-4.04,2.024-8.085,2.713-12.174
		c0.651-3.864,0.179-7.923,0.822-11.737c-0.66,0.375-1.32,0.749-1.98,1.124c0.37,0.081-0.767,15.079-0.792,16.115
		c-0.069,2.778,0.201,5.56,0.136,8.334c-0.01,0.415-0.353,7.663-0.795,7.975c-1.678,1.186-0.072,3.979,1.624,2.779
		c2.38-1.683,1.711-3.993,2.003-6.699c0.512-4.753,0.017-9.462,0.334-14.226c0.294-4.407,0.717-8.896,0.497-13.323
		c-0.087-1.762-0.128-3.615-2.152-4.059c-0.782-0.172-1.829,0.23-1.98,1.124c-0.617,3.66-0.394,7.432-0.837,11.13
		c-0.512,4.277-1.811,8.583-2.698,12.781c1.054,0.143,2.107,0.285,3.161,0.428c0.417-8.004,2.095-15.736,2.505-23.742
		c0.064-1.241-1.408-1.977-2.422-1.39c-0.176,0.102-0.352,0.204-0.528,0.306C50.084,57.039,51.703,59.822,53.5,58.78L53.5,58.78z"/>
	<path class="st0" d="M75.92,63.288c0-0.111,0-0.222,0-0.333c0-2.071-3.219-2.074-3.219,0c0,6.617,0,13.234,0,19.851
		c1.073,0,2.146,0,3.219,0c-0.284-7.728-0.8-15.562-1.476-23.253c-0.179-2.03-3.219-2.105-3.219,0
		c0.001,4.79-0.577,9.486-1.042,14.242c-0.443,4.534,0.005,9.542-0.974,13.96c1.035,0,2.069,0,3.104,0
		c-1.854-7.592-0.812-16.577-0.816-24.324c-0.001-2.071-3.212-2.074-3.219,0c-0.02,6.256-0.172,12.473,0.332,18.713
		c0.189,2.34-0.677,5.765,1.024,7.641c0.746,0.823,2.523,0.495,2.69-0.71c1.116-8.082-4.807-17.987-1.169-25.886
		c-0.926,0-1.853,0-2.779,0c1.734,3.675,1.882,9.107,2.439,13.063c0.25,1.777,3.352,1.378,3.161-0.428
		c-0.327-3.098-2.348-8.559-1.072-11.56c1.18-2.776,6.008-1.905,8.516-2.899c1.572-0.624,1.529-3.216-0.428-3.161
		c-2.718,0.076-5.873,0.415-8.575-0.004c0.128,0.98,0.256,1.961,0.384,2.941c1.275-0.969,2.837-1.288,4.161-2.176
		c1.44-0.966,0.587-3.535-1.24-2.941c-2.126,0.691-3.807,1.108-6.104,1.233c-2.054,0.112-2.087,3.219,0,3.219
		c3.834,0,7.689,0.535,11.264-0.98c-0.734-0.734-1.468-1.468-2.202-2.202c-3.474,7.427-6.596,15.642-6.985,23.972
		c1.073,0,2.146,0,3.219,0c0.115-4.12,1.509-7.946,2.38-11.934c0.72-3.298,1.247-6.696,2.521-9.833
		c-1.054-0.143-2.107-0.285-3.161-0.428c-0.212,10.367-3.372,20.351-3.987,30.684c-0.112,1.886,2.61,2.08,3.161,0.428
		c3.707-11.111,5.56-22.903,8.409-34.27c-1.054-0.143-2.107-0.285-3.161-0.428c-0.273,5.814-2.181,11.641-2.965,17.43
		c-0.713,5.26-1.238,10.529-1.503,15.831c-0.091,1.828,2.698,2.164,3.161,0.428c2.93-10.996,3.47-22.662,6.434-33.738
		c-1.054-0.143-2.107-0.285-3.161-0.428c-0.283,12.444-3.385,24.764-3.988,37.223c-0.089,1.84,2.673,2.147,3.161,0.428
		c1.421-5.007,1.87-10.333,2.517-15.489c0.79-6.293,2.007-12.497,2.936-18.762c-1.054-0.143-2.107-0.285-3.161-0.428
		c-0.142,10.108-1.893,20.068-1.977,30.213c1.073,0,2.146,0,3.219,0c-0.108-10.98,3.517-21.677,3.438-32.597
		c-0.015-2.07-3.221-2.075-3.219,0c0.013,11.426-1.296,22.783-1.469,34.176c1.073,0,2.146,0,3.219,0
		c0.04-9.665,0.972-21.08,3.403-30.428c-1.054-0.143-2.107-0.285-3.161-0.428c-0.257,7.989-0.047,15.977-0.024,23.968
		c0.006,2.071,3.218,2.075,3.219,0c0.002-8.369,0.672-16.554,0.994-24.867c0.08-2.071-3.138-2.068-3.219,0
		c-0.283,7.258-0.042,14.513-0.011,21.774c0.009,2.071,3.219,2.075,3.219,0c0-1.371,0-2.742,0-4.114c-1.073,0-2.146,0-3.219,0
		c0.043,2.485,0.447,6.398-0.871,8.539c-1.117,1.816-0.882,1.196-2.617,1.551c-4.831,0.989-9.893-1.513-14.729-0.92
		c-1.382,0.17-2.439,2.242-0.812,2.999c2.541,1.182,10.919,4.647,12.491,0.162c1.498-4.274-7.358-7.871-10.093-8.335
		c-0.895-0.152-2.187,0.413-2.037,1.552c0.599,4.546,7.704,10.064,12.294,7.155c4.744-3.007-1.065-6.428-3.926-7.372
		c-3.474-1.146-10.544-1.774-8.711,4.217c1.636,5.345,9.162,7.589,13.564,4.54c0.784-0.543,0.943-1.346,0.577-2.202
		c-1.321-3.097-7.884-4.036-10.259-1.86c-0.516,0.472-0.609,1.361-0.252,1.95c1.934,3.187,9.064,5.498,12.101,2.829
		c0.694-0.61,0.528-1.644,0-2.276c-1.887-2.26-9.791-2.69-11.733-0.354c-4.053,4.872,7.398,5.316,9.395,5.066
		c6.537-0.818,6.955-8.112,7.473-13.546c1.152-12.081-0.745-23.609-1.094-35.601c-0.06-2.066-3.212-2.078-3.219,0
		c-0.021,6.22,0.262,12.292,0.986,18.474c0.371,3.17,0.016,7.027,1.702,9.842c0.771,1.288,2.443,0.85,2.941-0.384
		c0.915-2.263,0.593-4.501,0.537-6.892c-0.096-4.03,0.173-8.063-0.036-12.093c-0.2-3.856-1.012-7.679-0.922-11.545
		c0.045-1.917,0.346-3.423-0.624-5.136c-0.664-1.174-2.627-0.973-2.941,0.384c-0.789,3.407,0.411,7.209,0.747,10.629
		c0.506,5.156,1.328,10.38,1.54,15.555c0.084,2.063,3.187,2.081,3.219,0c0.16-10.422,0.29-20.649,0.003-31.053
		c-0.057-2.066-3.242-2.078-3.219,0c0.095,8.375,1.919,16.646,2.005,25.055c0.085,8.296-2.848,16.015-3.504,24.17
		c-0.167,2.075,3.021,2.038,3.219,0c1.019-10.531,3.731-20.688,2.747-31.406c-0.728-7.935-1.405-17.718-4.935-24.902
		c-0.723-1.472-3.001-0.714-2.999,0.812c0.005,3.852-1.364,11.794,1.873,14.858c1.077,1.02,2.616,0.224,2.747-1.138
		c0.322-3.349,0.559-21.003-5.05-21.936c-0.898-0.149-1.676,0.228-1.98,1.124c-1.716,5.062-0.068,11.769,0.573,16.953
		c0.564,4.56,0.511,10.294,2.597,14.449c0.724,1.442,3.035,0.738,2.999-0.812c-0.133-5.705-0.88-11.183-1.855-16.795
		c-0.61-3.514-0.492-8.488-3.098-11.21c-0.806-0.842-2.437-0.476-2.69,0.71c-1.39,6.525-0.412,13.633,0.04,20.231
		c0.458,6.685-0.123,13.962,1.494,20.474c0.433,1.741,3.238,1.403,3.161-0.428c-0.282-6.765-0.798-13.44-1.453-20.176
		c-0.496-5.094-0.092-11.047-1.699-15.933c-0.49-1.488-2.647-1.569-3.104,0c-1.565,5.372-0.424,12.087-0.427,17.639
		c-0.003,5.657-1.286,12.842,0.166,18.324c0.406,1.534,2.694,1.53,3.104,0c1.139-4.249,0.521-9.235,0.457-13.598
		c-0.07-4.766-0.239-9.727-1.415-14.365c-0.28-1.105-1.446-1.358-2.364-0.962c-2.498,1.079-2.182,7.675-2.37,9.743
		c-0.607,6.696-0.56,13.363-0.528,20.084c0.01,2.071,3.228,2.075,3.219,0c-0.023-5.124-0.135-10.241,0.025-15.364
		c0.057-1.824-2.691-2.172-3.161-0.428c-0.964,3.574-1.473,7.485-2.002,11.107c1.054,0.143,2.107,0.285,3.161,0.428
		c0.082-3.885,2.417-16.546-2.965-18.901c-4.425-1.936-3.812,4.719-3.682,7.021c0.117,2.064,3.126,2.079,3.219,0
		c0.151-3.409,0.768-7.635-3.457-8.477c-0.675-0.135-1.476,0.081-1.817,0.74c-1.083,2.089-1.183,3.959-0.726,6.249
		c0.272,1.362,2.305,1.557,2.941,0.384c1.305-2.405,0.558-4.41-1.695-5.871c-0.56-0.363-1.503-0.266-1.95,0.252
		c-1.918,2.219-2.383,6.408,1.32,6.808c0.542,0.059,1.133-0.346,1.39-0.797c1.426-2.501,1.569-5.578-0.909-7.261
		c-0.628-0.427-1.422-0.187-1.95,0.252c-2.213,1.839-2.996,7.562,0.027,9.244c4.641,2.583,6.09-5.288,6.434-7.969
		c-1,0.271-1.999,0.541-2.999,0.812c1.344,1.759,2.164,4.756,4.951,4.185c2.832-0.581,2.489-3.841,2.903-6.029
		c-1.035,0-2.069,0-3.104,0c0.524,1.528,0.808,2.544,1.802,3.776c0.511,0.634,1.765,0.62,2.276,0
		c1.407-1.709,1.251-4.205,0.808-6.279c-0.319-1.496-2.187-1.393-2.941-0.384c-1.033,1.381-1.482,2.988-2.066,4.593
		c1.054,0.143,2.107,0.285,3.161,0.428c0.02-7.346,1.87-14.518,2.015-21.895c0.035-1.791-2.751-2.217-3.161-0.428
		c-1.265,5.524-0.107,11.662-1.88,17.049c1.035,0,2.069,0,3.104,0c-0.637-3.362,0.191-8.477,1.252-11.792
		c-1.054-0.143-2.107-0.285-3.161-0.428c0.436,4.278,0.889,8.768,0.755,13.09c-0.086,2.774,0.298,5.389-2.627,6.851
		c-0.849,0.424-2.08,0.146-3.124,0.69c-0.589,0.307-0.968,1.177-0.74,1.817c1.577,4.42,9.388,4.312,11.767,0.647
		c2.068-3.186,1.602-8.631,1.687-12.166c0.109-4.589,0.627-11.19-2.063-15.171c-0.942-1.394-2.817-0.761-2.999,0.812
		c-0.329,2.842,0.361,6.141,1.496,8.762c0.552,1.274,2.665,0.892,2.941-0.384c1.085-5.004-0.553-9.818-3.154-14.081
		c-0.757-1.241-2.483-0.899-2.941,0.384c-1.292,3.617,2.998,10.708,6.717,11.468c0.633,0.129,1.525-0.07,1.817-0.74
		c1.242-2.85,0.459-4.677-1.612-6.959c-0.759,0.759-1.517,1.517-2.276,2.276c1.806,1.779,3.147,3.892,4.718,5.873
		c1.067,1.345,3.022-0.141,2.69-1.566c-0.806-3.458-2.569-5.74-5.989-6.654c-2.003-0.535-2.858,2.569-0.856,3.104
		c2.336,0.624,3.244,2.269,3.741,4.406c0.897-0.522,1.793-1.044,2.69-1.566c-1.667-2.101-2.801-3.984-4.718-5.873
		c-1.485-1.463-3.663,0.747-2.276,2.276c0.37,1.02,0.739,2.039,1.109,3.059c0.606-0.247,1.212-0.493,1.817-0.74
		c-1.826-0.373-5.043-5.903-4.469-7.509c-0.98,0.128-1.961,0.256-2.941,0.384c2.112,3.462,3.722,7.481,2.829,11.601
		c0.98-0.128,1.961-0.256,2.941-0.384c-0.833-1.924-1.291-5.11-1.056-7.137c-1,0.271-1.999,0.541-2.999,0.812
		c2.67,3.951,1.761,10.893,1.568,15.522c-0.074,1.779,0.072,5.2-0.596,6.775c-0.241,0.569-5.277,5.283-6.479,1.913
		c-0.247,0.606-0.493,1.212-0.74,1.817c1.633-0.85,3.215,0.021,4.816-1.194c1.307-0.992,1.77-2.467,2.103-4.003
		c1.25-5.757,0.261-12.426-0.329-18.213c-0.179-1.758-2.58-2.242-3.161-0.428c-1.261,3.939-2.034,9.377-1.252,13.503
		c0.315,1.662,2.645,1.393,3.104,0c1.773-5.385,0.613-11.519,1.88-17.049c-1.054-0.143-2.107-0.285-3.161-0.428
		c-0.145,7.38-1.995,14.535-2.015,21.895c-0.005,1.895,2.56,2.08,3.161,0.428c0.49-1.347,0.879-2.672,1.741-3.824
		c-0.98-0.128-1.961-0.256-2.941-0.384c0.118,0.554,0.424,2.656,0.019,3.148c0.759,0,1.517,0,2.276,0
		c-0.412-0.75-0.736-1.535-0.974-2.356c-0.472-1.376-2.786-1.678-3.104,0c-0.395,2.088-0.219,3.369-1.971,1.076
		c-1.004-1.315-2.789-0.822-2.999,0.812c-0.737,5.743-2.462,2.243-0.967,1.001c-0.65,0.084-1.3,0.168-1.95,0.252
		c0.934,0.635-1.79,5.246,2.099,0.746c-0.65,0.084-1.3,0.168-1.95,0.252c0.18,0.489,0.36,0.978,0.54,1.467
		c0.98,0.128,1.961,0.256,2.941,0.384c0.134-1.256,0.268-2.513,0.402-3.769c-0.606,0.247-1.212,0.493-1.817,0.74
		c1.909,0.381,1.148,4.16,1.094,5.374c1.073,0,2.146,0,3.219,0c-0.134-2.371-0.137-4.224,0.248-0.352
		c0.395,3.968,0.046,8.248-0.038,12.232c-0.037,1.763,2.894,2.257,3.161,0.428c0.52-3.557,1.075-7.666,2.002-11.107
		c-1.054-0.143-2.107-0.285-3.161-0.428c-0.16,5.123-0.048,10.24-0.025,15.364c1.073,0,2.146,0,3.219,0
		c-0.027-5.503-0.145-10.994,0.24-16.488c0.114-1.624,0.315-10.238,1.063-10.561c-0.788-0.321-1.576-0.641-2.364-0.962
		c1.104,4.357,1.24,9.035,1.3,13.51c0.052,3.967,0.696,8.869-0.342,12.743c1.035,0,2.069,0,3.104,0
		c-0.619-2.338-0.052-5.262-0.053-7.653c0-3.272,0-6.543,0.002-9.815c0.003-5.207-1.147-11.773,0.312-16.783
		c-1.035,0-2.069,0-3.104,0c1.71,5.197,1.212,11.686,1.79,17.118c0.643,6.046,0.994,12.058,1.247,18.134
		c1.054-0.143,2.107-0.285,3.161-0.428c-1.539-6.194-0.944-13.269-1.379-19.618c-0.428-6.248-1.471-13.197-0.155-19.375
		c-0.897,0.237-1.793,0.473-2.69,0.71c1.972,2.06,1.992,8.208,2.449,10.835c0.861,4.957,1.445,9.858,1.562,14.894
		c1-0.271,1.999-0.541,2.999-0.812c-1.953-3.89-1.922-10.637-2.387-14.763c-0.483-4.285-1.872-9.989-0.458-14.159
		c-0.66,0.375-1.32,0.749-1.98,1.124c2.909,0.484,2.764,18.032,2.687,18.832c0.916-0.379,1.831-0.759,2.747-1.138
		c-2.166-2.05-0.927-10.021-0.93-12.582c-1,0.271-1.999,0.541-2.999,0.812c3.651,7.428,4.451,18.479,4.675,26.593
		c0.264,9.558-2.016,18.693-2.926,28.092c1.073,0,2.146,0,3.219,0c0.658-8.174,3.589-15.86,3.504-24.17
		c-0.086-8.407-1.91-16.681-2.005-25.055c-1.073,0-2.146,0-3.219,0c0.286,10.404,0.157,20.631-0.003,31.053c1.073,0,2.146,0,3.219,0
		c-0.183-4.472-0.903-8.953-1.332-13.412c-0.308-3.209-1.822-8.671-1.07-11.917c-0.98,0.128-1.961,0.256-2.941,0.384
		c0.804,1.421,0.153,3.887,0.203,5.508c0.107,3.528,0.801,7.022,0.936,10.554c0.115,3.024,0.017,6.05,0.015,9.075
		c-0.002,2.635,0.576,5.553-0.433,8.05c0.98-0.128,1.961-0.256,2.941-0.384c-1.735-2.898-1.402-9.223-1.726-12.399
		c-0.487-4.777-0.539-9.494-0.523-14.292c-1.073,0-2.146,0-3.219,0c0.332,11.404,2.2,22.419,1.236,33.906
		c-0.482,5.742-0.4,12.539-7.767,12.132c-7.67-0.424,2.79-0.095,3.433,0.674c0-0.759,0-1.517,0-2.276
		c-1.262,1.11-6.499-1.276-7.046-2.178c-0.084,0.65-0.168,1.3-0.252,1.95c0.807-0.739,4.776,0.206,5.204,1.209
		c0.192-0.734,0.385-1.468,0.577-2.202c-1.381,0.956-7.327,1.703-7.915-1.227c-0.475-2.365,1.778-1.997,2.909-1.93
		c0.549,0.032,3.037,1.078,3.037,1.071c-1.009-0.001-2.018-0.002-3.027-0.003c-1.57-0.809-2.698-2.032-3.382-3.671
		c-0.679,0.517-1.358,1.035-2.037,1.552c1.429,0.242,5.59,1.66,6.512,3.137c1.465,2.346-5.893-0.597-6.43-0.847
		c-0.271,1-0.541,1.999-0.812,2.999c3.757-0.461,7.695,0.718,11.474,0.903c1.784,0.088,5.682,0.895,7.407-0.012
		c3.02-1.588,2.601-10.599,2.555-13.281c-0.036-2.069-3.219-2.076-3.219,0c0,1.371,0,2.742,0,4.114c1.073,0,2.146,0,3.219,0
		c-0.03-7.26-0.271-14.515,0.011-21.774c-1.073,0-2.146,0-3.219,0c-0.322,8.31-0.992,16.5-0.994,24.867c1.073,0,2.146,0,3.219,0
		c-0.023-7.991-0.233-15.978,0.024-23.968c0.058-1.817-2.705-2.181-3.161-0.428c-2.533,9.74-3.476,21.229-3.518,31.283
		c-0.009,2.072,3.187,2.072,3.219,0c0.173-11.394,1.482-22.75,1.469-34.176c-1.073,0-2.146,0-3.219,0
		c0.079,10.898-3.546,21.621-3.438,32.597c0.02,2.071,3.201,2.074,3.219,0c0.084-10.146,1.835-20.095,1.977-30.213
		c0.025-1.759-2.889-2.261-3.161-0.428c-0.767,5.174-1.824,10.302-2.526,15.492c-0.843,6.233-1.204,12.69-2.926,18.758
		c1.054,0.143,2.107,0.285,3.161,0.428c0.604-12.473,3.705-24.761,3.988-37.223c0.041-1.818-2.692-2.18-3.161-0.428
		c-2.963,11.072-3.505,22.747-6.434,33.738c1.054,0.143,2.107,0.285,3.161,0.428c0.306-6.12,0.934-12.212,1.86-18.27
		c0.766-5.013,2.37-9.92,2.609-14.991c0.085-1.816-2.722-2.181-3.161-0.428c-2.849,11.366-4.703,23.16-8.409,34.27
		c1.054,0.143,2.107,0.285,3.161,0.428c0.615-10.336,3.775-20.304,3.987-30.684c0.04-1.948-2.52-2.006-3.161-0.428
		c-1.517,3.737-2.009,7.828-2.943,11.733c-0.878,3.672-1.967,7.092-2.074,10.89c-0.058,2.077,3.122,2.062,3.219,0
		c0.358-7.657,3.36-15.536,6.546-22.348c0.718-1.534-0.711-2.834-2.202-2.202c-2.772,1.175-6.67,0.54-9.639,0.54
		c0,1.073,0,2.146,0,3.219c2.441-0.133,4.629-0.591,6.96-1.348c-0.413-0.98-0.827-1.961-1.24-2.941
		c-1.363,0.915-2.867,1.192-4.161,2.176c-0.947,0.72-1.151,2.704,0.384,2.941c3.06,0.474,6.343,0.205,9.43,0.119
		c-0.143-1.054-0.285-2.107-0.428-3.161c-3.002,1.191-8.665-0.349-10.536,2.944c-0.686,1.207-0.319,2.85-0.275,4.14
		c0.124,3.587,0.629,6.927,1.004,10.479c1.054-0.143,2.107-0.285,3.161-0.428c-0.61-4.332-0.872-9.822-2.764-13.832
		c-0.493-1.045-2.291-1.06-2.779,0c-1.595,3.462-1.205,7.378-0.93,11.101c0.345,4.667,2.411,10.945,1.774,15.554
		c0.897-0.237,1.793-0.473,2.69-0.71c-0.223-0.246,0.018-4.21,0.005-4.448c-0.1-1.841-0.371-3.666-0.444-5.511
		c-0.185-4.697,0.01-9.419,0.025-14.118c-1.073,0-2.146,0-3.219,0c0.004,8.108-1.005,17.253,0.931,25.18
		c0.369,1.513,2.759,1.555,3.104,0c0.903-4.075,0.538-8.618,0.891-12.79c0.461-5.437,1.24-10.799,1.24-16.268
		c-1.073,0-2.146,0-3.219,0c0.676,7.684,1.193,15.534,1.476,23.253c0.076,2.063,3.219,2.081,3.219,0c0-6.617,0-13.234,0-19.851
		c0-2.071-3.219-2.074-3.219,0c0,0.111,0,0.222,0,0.333C72.701,65.359,75.92,65.362,75.92,63.288L75.92,63.288z"/>
	<path class="st0" d="M16.891,16.047c1.328-7.238,14.292-6.24,19.903-6.199c5.634,0.041,11.332-1.114,16.876-0.974
		c2.072,0.052,2.071-3.166,0-3.219c-4.456-0.112-8.827,1.017-13.318,0.998c-3.628-0.015-7.255-0.17-10.87,0.168
		c-6.097,0.571-14.3,0.765-15.695,8.369C13.416,17.217,16.518,18.085,16.891,16.047L16.891,16.047z"/>
	<path class="st0" d="M19.207,14.223c4.039-0.91,7.563-2.099,11.807-2.357c4.227-0.257,8.456-0.061,12.687-0.044
		c2.086,0.008,2.054-3.094,0-3.219c-6.838-0.414-14.619-1.175-21.081,1.719c-1.503,0.673-0.691,3.017,0.812,2.999
		c7.01-0.083,14.098-0.627,20.665-3.349c1.861-0.771,1.131-3.819-0.856-3.104c-3.757,1.354-8.158,2.396-12.17,1.695
		c0,1.035,0,2.069,0,3.104c2.941-1.236,6.716-1.185,9.904-1.598c3.564-0.461,7.137-1.05,10.729-1.219
		c3.507-0.164,7.044,0.018,10.554,0.024c4.436,0.007,9.577-1.117,12.718,2.896c0.379-0.916,0.759-1.831,1.138-2.747
		c-6.141,0.666-12.212-2.147-18.372-2.385c-2.073-0.08-2.065,3.127,0,3.219c8.177,0.362,22.503-0.338,25.786,9.565
		c0.517-0.679,1.035-1.358,1.552-2.037c-1.476,0.098-11.037-5.56-10.27-7.702c-0.66,0.375-1.32,0.749-1.98,1.124
		c4.163,0.728,11.002,4.374,11.588,9.095c1-0.271,1.999-0.541,2.999-0.812c-1.143-1.61-2.298-3.363-2.634-5.356
		c-0.897,0.522-1.793,1.044-2.69,1.566c1.085,1.239,2.213,4.199,2.401,5.724c0.25,2.029,3.472,2.054,3.219,0
		c-0.343-2.787-1.465-5.855-3.344-8c-1.163-1.327-2.932,0.135-2.69,1.566c0.375,2.22,1.682,4.325,2.959,6.124
		c0.808,1.139,3.217,0.941,2.999-0.812c-0.783-6.302-8.057-11.169-13.951-12.199c-0.908-0.159-1.662,0.238-1.98,1.124
		c-0.998,2.784,1.361,4.755,3.374,6.344c2.582,2.039,6.561,5.661,10,5.432c0.985-0.066,1.901-0.983,1.552-2.037
		C82.71,6.733,67.644,7.077,57.743,6.639c0,1.073,0,2.146,0,3.219c6.181,0.239,12.159,3.058,18.372,2.385
		c1.461-0.158,2.027-1.611,1.138-2.747c-4.789-6.118-14.36-3.867-21.258-3.886c-4.543-0.013-8.906,0.452-13.398,1.03
		c-4.035,0.519-8.619,0.345-12.38,1.925c-1.269,0.533-1.767,2.795,0,3.104c4.604,0.804,9.531-0.128,13.882-1.695
		c-0.285-1.035-0.57-2.069-0.856-3.104c-6.239,2.586-13.141,3.155-19.809,3.234c0.271,1,0.541,1.999,0.812,2.999
		c5.893-2.64,13.295-1.653,19.456-1.28c0-1.073,0-2.146,0-3.219c-4.833-0.019-9.627-0.174-14.453,0.173
		c-4.011,0.289-7.063,1.479-10.897,2.343C16.332,11.574,17.187,14.678,19.207,14.223L19.207,14.223z"/>
	<path class="st0" d="M25.246,24.401c0.755-2.909,0.525-5.611,0.559-8.628c0.02-1.756-2.906-2.264-3.161-0.428
		c-0.354,2.543-2.15,7.622-3.677,9.652c1,0.271,1.999,0.541,2.999,0.812c-0.44-3.34,1.379-8.199,2.332-11.402
		c-1.054-0.143-2.107-0.285-3.161-0.428c-0.278,7.44-2.987,14.621-3.67,22.047c-0.143,1.552,2.352,2.249,2.999,0.812
		c1.889-4.193,3.114-8.522,4.258-12.969c0.969-3.764,1.953-9.985,4.431-13.057c-0.897-0.237-1.793-0.473-2.69-0.71
		c0.802,5.315-1.659,11.458-2.564,16.658c-0.755,4.335-1.426,8.765-1.848,13.138c-0.173,1.787,2.872,2.221,3.161,0.428
		c0.752-4.661,2.035-9.225,2.804-13.9c0.703-4.274,1.165-10.061,3.6-13.79c-0.98-0.128-1.961-0.256-2.941-0.384
		c1.023,4.126-0.178,8.412-0.895,12.483c-0.579,3.282-0.473,6.864-1.765,9.941c1.035,0.285,2.069,0.57,3.104,0.856
		c0.909-4.217,1.984-8.372,2.762-12.622c0.457-2.498,0.567-7.386,2.679-9.183c-0.897-0.237-1.793-0.473-2.69-0.71
		c1.211,3.788,0.041,8.085-0.326,11.936c-0.364,3.828-0.925,7.665-1.116,11.502c1.073,0,2.146,0,3.219,0
		c-0.017-4.466,0.733-8.617,1.598-12.978c0.466-2.35,0.436-7.219,2.375-9.007c-0.897-0.237-1.793-0.473-2.69-0.71
		c1.286,3.326,0.213,7.677-0.167,11.109c-0.364,3.292-0.298,8.829-2.049,11.903c1,0.271,1.999,0.541,2.999,0.812
		c-0.158-4.277,1.122-8.808,1.927-12.986c0.466-2.416,0.903-8.267,3.154-9.956c-0.788-0.321-1.576-0.641-2.364-0.962
		c1.299,4.201-0.738,11.715-1.569,15.625c-0.583,2.745-0.826,8.27-2.305,10.798c1,0.271,1.999,0.541,2.999,0.812
		c0.129-4.824,1.007-9.442,2.189-14.11c0.445-1.758,1.255-9.406,2.991-10.662c-0.788-0.321-1.576-0.641-2.364-0.962
		c1.589,3.824-1.101,11.54-1.812,15.462c-0.951,5.245-1.529,10.555-2.677,15.762c1.054,0.143,2.107,0.285,3.161,0.428
		c0.178-5.797,1.501-11.357,2.709-17.002c0.946-4.423,1.423-10.349,4.007-14.182c-0.926,0-1.853,0-2.779,0
		c1.138,2.346,0.246,6.329-0.007,8.835c-0.393,3.885-1.014,7.729-1.663,11.577c-0.951,5.638-2.28,11.505-2.526,17.221
		c1.073,0,2.146,0,3.219,0c0.02-11.705,2.466-23.914,5.502-35.212c-0.98,0.128-1.961,0.256-2.941,0.384
		c0.949,2.07,0.189,5.169-0.02,7.398c-0.373,3.984-0.918,7.934-1.5,11.892c-0.863,5.868-0.814,12.446-2.251,18.144
		c1.054,0.143,2.107,0.285,3.161,0.428c0.054-3.912-0.188-7.695,0.475-11.583c0.324-1.902,0.493-6.311,2.063-7.617
		c-0.897-0.237-1.793-0.473-2.69-0.71c1.725,7.072-0.788,14.263-0.557,21.327c1.054-0.143,2.107-0.285,3.161-0.428
		c-0.403-2.573-1.578-9.641,0.444-12.085c-0.897-0.237-1.793-0.473-2.69-0.71c0.577,3.581,0.04,7.574,0.04,11.202
		c0,2.071,3.217,2.074,3.219,0c0.003-4.762-1.034-10.811,0.529-15.371c-0.98,0.128-1.961,0.256-2.941,0.384
		c0.946,1.795,1.054,3.751,1.992,5.556c0.533,1.025,2.261,1.075,2.779,0c0.817-1.695,1.064-3.084,1.07-4.958
		c-1.054,0.143-2.107,0.285-3.161,0.428c0.175,0.836,0.351,1.671,0.528,2.506c0.179,1.533,2.084,2.256,2.999,0.812
		c0.976-1.54,0.897-1.276,1.145-3.096c-0.517,0.394-1.035,0.788-1.552,1.181c-0.55-0.021,0.15,1.648,0.194,1.758
		c0.487,1.224,2.194,1.679,2.941,0.384c0.186-0.321,0.371-0.643,0.557-0.964c-0.98-0.413-1.961-0.827-2.941-1.24
		c-0.157,0.496-0.314,0.992-0.471,1.487c1.035,0.285,2.069,0.57,3.104,0.856c1.453-5.493-0.324-11.154-0.644-16.713
		c-0.365-6.348,0.264-12.173,0.765-18.446c-1.073,0-2.146,0-3.219,0c-0.176,5.426,0.149,10.85-0.02,16.274
		c-0.107,3.447,0.121,8.124-1.026,11.459c1.035,0,2.069,0,3.104,0c-1.43-5.391-0.812-11.442-0.817-16.974
		c-0.002-2.854,0.917-7.04-0.577-9.613c-0.556-0.957-2.276-1.139-2.779,0c-1.689,3.821-1.329,8.542-1.653,12.629
		c-0.402,5.063-0.007,12.358-1.971,17.067c1.054,0.143,2.107,0.285,3.161,0.428c-0.82-9.328-0.312-19.218-0.1-28.591
		c-1.073,0-2.146,0-3.219,0c-0.074,7.564-0.567,15.141-0.994,22.676c1.073,0,2.146,0,3.219,0c-0.213-7.991-1.95-17.153,0.054-25.011
		c-0.897,0.237-1.793,0.473-2.69,0.71c2.081,2.053,1.313,9.699,1.407,12.185c0.219,5.799,0.44,11.595,0.468,17.399
		c1.073,0,2.146,0,3.219,0c-0.036-5.062-0.284-10.131,0.169-15.181c0.381-4.254,0.525-11.309,2.928-15.134
		c-0.98-0.128-1.961-0.256-2.941-0.384c1.587,4.013,1.075,9.05,1.055,13.272c-0.022,4.63-0.008,9.261-0.006,13.891
		c0.001,2.072,3.195,2.073,3.219,0c0.059-5.221,0.492-10.293,1.343-15.454c0.265-1.607,0.356-8.152,1.528-9.452
		c-0.916-0.379-1.831-0.759-2.747-1.138c0.727,6.895,0.223,14.286,0.073,21.227c-0.039,1.791,2.756,2.218,3.161,0.428
		c0.712-3.15,0.836-6.276,1.109-9.488c0.238-2.798-0.066-7.254,1.1-9.798c-1-0.271-1.999-0.541-2.999-0.812
		c0.445,5.076-1.207,11.497,0.389,16.318c0.433,1.307,2.199,1.601,2.941,0.384c1.016-1.666,0.939-3.185,1.103-5.078
		c0.398-4.589,1.075-9.182,1.811-13.726c-1.054-0.143-2.107-0.285-3.161-0.428c-0.163,4.834-0.035,9.709,0.579,14.5
		c0.23,1.792,2.488,2.197,3.161,0.428c1.461-3.843,1.104-8.611,1.869-12.647c-1.054-0.143-2.107-0.285-3.161-0.428
		c0.317,4.138,1.005,8.443,0.942,12.598c-0.027,1.759,2.913,2.262,3.161,0.428c0.62-4.593,1.121-9.223,1.545-13.836
		c-1.073,0-2.146,0-3.219,0c0.634,5.006-0.252,11.293,1.681,15.985c0.462,1.122,2.288,1.786,2.941,0.384
		c1.988-4.268,0.771-10.378,1.598-15.011c-1.035,0-2.069,0-3.104,0c1.148,4.006,0.139,8.538,2.057,12.301
		c0.738,1.448,3.011,0.732,2.999-0.812c-0.033-4.182-0.186-9.368,0.9-13.427c-1.054-0.143-2.107-0.285-3.161-0.428
		c0.212,4.873-0.565,11.781,1.583,16.26c0.583,1.215,2.687,0.944,2.941-0.384c0.733-3.826,0.629-8.038,0.66-11.936
		c-1.073,0-2.146,0-3.219,0c0.114,3.782-0.659,10.529,1.836,13.731c0.74,0.95,2.455,0.389,2.69-0.71
		c0.786-3.683-0.616-7.473,0.22-11.105c-1.035,0-2.069,0-3.104,0c1.124,3.446,0.933,7.584,1.413,11.203
		c0.156,1.173,1.773,2.384,2.747,1.138c2.316-2.961-0.496-6.995,1.006-10.099c-0.98-0.128-1.961-0.256-2.941-0.384
		c0.634,2.94,0.26,6.189,1.646,8.91c0.785,1.541,2.873,0.648,2.999-0.812c0.161-1.873,0.009-3.653,0.211-5.522
		c-1,0.271-1.999,0.541-2.999,0.812c0.357,0.485,1.051,1.157,0.973,1.82c0.394-0.517,0.788-1.035,1.181-1.552
		c-0.267,0.055-0.534,0.111-0.801,0.166c-2.027,0.42-1.169,3.524,0.856,3.104c0.267-0.055,0.534-0.111,0.801-0.166
		c0.75-0.156,1.101-0.872,1.181-1.552c0.162-1.371-0.62-2.367-1.413-3.444c-0.974-1.323-2.823-0.818-2.999,0.812
		c-0.202,1.869-0.05,3.649-0.211,5.522c1-0.271,1.999-0.541,2.999-0.812c-1.156-2.27-0.776-5.611-1.322-8.141
		c-0.282-1.306-2.343-1.62-2.941-0.384c-1.212,2.505,0.918,7.631-0.503,9.447c0.916,0.379,1.831,0.759,2.747,1.138
		c-0.528-3.975-0.278-8.226-1.528-12.059c-0.467-1.432-2.729-1.627-3.104,0c-0.845,3.671,0.565,7.42-0.22,11.105
		c0.897-0.237,1.793-0.473,2.69-0.71c-1.459-1.872-0.83-9.357-0.894-11.455c-0.062-2.066-3.202-2.078-3.219,0
		c-0.028,3.524,0.113,7.647-0.545,11.081c0.98-0.128,1.961-0.256,2.941-0.384c-1.693-3.529-0.971-10.667-1.144-14.636
		c-0.077-1.772-2.677-2.236-3.161-0.428c-1.189,4.446-1.052,9.697-1.015,14.283c1-0.271,1.999-0.541,2.999-0.812
		c-1.684-3.304-0.707-7.951-1.733-11.532c-0.41-1.432-2.812-1.631-3.104,0c-0.402,2.255-0.449,4.502-0.632,6.789
		c-0.16,2.001,0.193,5.663-0.641,7.454c0.98,0.128,1.961,0.256,2.941,0.384c-1.772-4.301-0.977-10.482-1.566-15.13
		c-0.258-2.034-3.026-2.1-3.219,0c-0.395,4.303-0.853,8.707-1.43,12.98c1.054,0.143,2.107,0.285,3.161,0.428
		c0.064-4.187-0.622-8.418-0.942-12.598c-0.129-1.686-2.801-2.329-3.161-0.428c-0.776,4.094-0.385,8.745-1.869,12.647
		c1.054,0.143,2.107,0.285,3.161,0.428c-0.614-4.791-0.742-9.666-0.579-14.5c0.06-1.773-2.867-2.245-3.161-0.428
		c-0.503,3.103-0.941,6.206-1.309,9.327c-0.29,2.463,0.024,6.568-1.281,8.708c0.98,0.128,1.961,0.256,2.941,0.384
		c-1.489-4.498,0.143-10.707-0.274-15.462c-0.124-1.416-2.267-2.408-2.999-0.812c-0.902,1.968-0.723,4.055-0.946,6.198
		c-0.477,4.567-0.574,9.379-1.587,13.857c1.054,0.143,2.107,0.285,3.161,0.428c0.151-6.94,0.654-14.333-0.073-21.227
		c-0.134-1.269-1.726-2.271-2.747-1.138c-2.072,2.299-1.73,7.127-2.185,9.891c-0.946,5.757-1.562,11.445-1.629,17.291
		c1.073,0,2.146,0,3.219,0c-0.002-5.379,0.017-10.758,0.021-16.137c0.003-3.884,0.269-8.205-1.185-11.882
		c-0.5-1.265-2.156-1.634-2.941-0.384c-2.294,3.651-2.437,9.257-2.979,13.411c-0.807,6.182-0.602,12.313-0.557,18.528
		c0.015,2.07,3.228,2.075,3.219,0c-0.035-7.43-0.15-14.931-0.684-22.344c-0.188-2.61-0.084-7.494-2.133-9.515
		c-0.848-0.836-2.387-0.476-2.69,0.71c-2.097,8.223-0.391,17.505-0.169,25.866c0.055,2.081,3.102,2.061,3.219,0
		c0.428-7.539,0.92-15.11,0.994-22.676c0.02-2.074-3.172-2.071-3.219,0c-0.212,9.375-0.721,19.264,0.1,28.591
		c0.165,1.878,2.464,2.099,3.161,0.428c1.421-3.407,1.116-8.196,1.512-11.829c0.556-5.097-0.306-12.361,1.788-17.098
		c-0.926,0-1.853,0-2.779,0c0.655,1.127,0.177,2.708,0.137,3.934c-0.099,3.017,0.011,6.055-0.005,9.073
		c-0.022,4.241-0.159,8.678,0.937,12.811c0.427,1.608,2.606,1.448,3.104,0c0.998-2.902,0.871-7.175,1.044-10.124
		c0.362-6.148-0.083-12.311,0.117-18.464c0.068-2.091-3.056-2.04-3.219,0c-0.44,5.513-1.168,10.599-0.891,16.209
		c0.281,5.693,2.337,12.599,0.884,18.094c-0.532,2.011,2.479,2.825,3.104,0.856c0.157-0.496,0.314-0.992,0.471-1.487
		c0.555-1.752-2.036-2.808-2.941-1.24c-0.186,0.321-0.371,0.643-0.557,0.964c0.98,0.128,1.961,0.256,2.941,0.384
		c-0.805-2.025-0.697-4.021-3.297-4.121c-0.625-0.024-1.46,0.512-1.552,1.181c-0.274,0.776-0.547,1.552-0.821,2.327
		c1,0.271,1.999,0.541,2.999,0.812c-0.148-1.262-0.392-2.167-0.642-3.362c-0.378-1.802-3.156-1.357-3.161,0.428
		c-0.21,1.111-0.42,2.222-0.63,3.334c0.926,0,1.853,0,2.779,0c-0.942-1.811-1.039-3.748-1.992-5.556
		c-0.685-1.3-2.518-0.852-2.941,0.384c-1.682,4.907-0.641,11.114-0.644,16.226c1.073,0,2.146,0,3.219,0
		c0-3.998,0.481-8.106-0.155-12.057c-0.186-1.155-1.957-1.596-2.69-0.71c-3.102,3.749-1.952,10.87-1.272,15.216
		c0.282,1.801,3.22,1.362,3.161-0.428c-0.241-7.373,2.243-14.795,0.442-22.182c-0.309-1.266-1.806-1.445-2.69-0.71
		c-2.134,1.776-2.236,5.569-2.721,8.115c-0.856,4.491-0.696,8.813-0.759,13.361c-0.025,1.803,2.714,2.201,3.161,0.428
		c0.801-3.179,0.659-6.453,1.042-9.704c0.542-4.604,1.348-9.182,1.978-13.775c0.658-4.795,2.551-11.797,0.426-16.434
		c-0.594-1.297-2.605-0.867-2.941,0.384c-3.109,11.57-5.596,24.062-5.617,36.067c-0.004,2.079,3.13,2.063,3.219,0
		c0.35-8.138,2.58-16.289,3.668-24.353c0.605-4.482,2.168-10.62,0.088-14.905c-0.564-1.162-2.157-0.922-2.779,0
		c-2.782,4.126-3.315,10.176-4.331,14.95c-1.263,5.939-2.637,11.766-2.824,17.858c-0.055,1.792,2.767,2.216,3.161,0.428
		c1.443-6.545,2.348-13.297,3.386-19.92c0.596-3.801,2.653-9.286,1.103-13.015c-0.357-0.858-1.427-1.64-2.364-0.962
		c-2.725,1.972-2.867,6.425-3.658,9.442C35.879,28.8,34.501,34.7,34.335,40.916c-0.043,1.614,2.207,2.165,2.999,0.812
		c0.604-1.032,0.669-1.959,0.878-3.098c0.652-3.549,1.536-7.054,2.174-10.606c0.828-4.614,2.545-10.673,1.146-15.199
		c-0.276-0.893-1.495-1.614-2.364-0.962c-2.77,2.079-3.301,5.695-4.042,8.926c-1.212,5.282-2.834,11.363-2.634,16.795
		c0.057,1.555,2.184,2.242,2.999,0.812c1.841-3.232,1.836-7.951,2.276-11.615c0.514-4.278,1.855-9.763,0.264-13.877
		c-0.438-1.133-1.74-1.586-2.69-0.71c-2.265,2.089-2.479,6.622-3.008,9.363c-0.981,5.087-1.927,9.703-1.908,14.897
		c0.008,2.082,3.116,2.06,3.219,0c0.375-7.517,3.656-17.006,1.327-24.293c-0.387-1.211-1.759-1.502-2.69-0.71
		c-2.213,1.883-2.508,5.297-3.039,8.014c-0.996,5.101-2.136,10.136-3.23,15.211c-0.448,2.08,2.319,2.724,3.104,0.856
		c1.686-4.015,1.748-9.256,2.465-13.529c0.589-3.51,1.06-7.115,0.195-10.606c-0.348-1.406-2.214-1.499-2.941-0.384
		c-2.23,3.417-2.891,8.545-3.577,12.451c-0.941,5.353-2.289,10.659-3.151,16.008c1.054,0.143,2.107,0.285,3.161,0.428
		c0.578-5.988,1.647-11.986,2.86-17.874c0.864-4.197,2.085-8.491,1.438-12.778c-0.174-1.15-1.97-1.602-2.69-0.71
		c-2.056,2.548-2.88,6.495-3.89,9.561c-1.881,5.711-2.815,11.593-5.303,17.116c1,0.271,1.999,0.541,2.999,0.812
		c0.684-7.445,3.39-14.569,3.67-22.047c0.069-1.848-2.653-2.139-3.161-0.428c-1.094,3.682-2.959,8.365-2.447,12.257
		c0.213,1.619,1.996,2.145,2.999,0.812c1.966-2.613,3.549-7.165,4.002-10.421c-1.054-0.143-2.107-0.285-3.161-0.428
		c-0.029,2.623,0.22,5.215-0.444,7.773C21.622,25.552,24.725,26.408,25.246,24.401L25.246,24.401z"/>
	<path class="st0" d="M75.785,21.873c-7.821-0.155-13.519,0.007-19.699,5.312c-2.053,1.762-4.682,4.131-6.118,6.488
		c-0.667,1.094-1.732,3.395-1.695,4.639c-0.051,0.331-0.087,0.663-0.109,0.998c-0.321,1.024,0.092,1.266,1.238,0.726
		c-1.552-1.36-3.837,0.908-2.276,2.276c4.283,3.753,4.066-3.482,5.129-5.782c1.633-3.533,5.943-6.787,9.132-8.817
		c4.963-3.159,8.789-2.732,14.397-2.621C77.857,25.133,77.857,21.914,75.785,21.873L75.785,21.873z"/>
	<path class="st0" d="M33.387,36.751c-0.029,6.842-0.167,13.649,0.519,20.468c0.418,4.153,0.165,9.407,2.058,13.207
		c0.583,1.17,2.729,0.982,2.941-0.384c0.532-3.422-0.612-6.724-0.793-10.177c-0.231-4.422-0.254-8.816-0.532-13.243
		c-0.129-2.052-3.313-2.081-3.219,0c0.228,4.996,1.342,10.032,2.277,14.941c0.678,3.562,1.109,7.517,2.754,10.784
		c0.611,1.214,2.656,0.943,2.941-0.384c0.963-4.48,1.336-10.145,0.567-14.703c-0.299-1.773-3.323-1.38-3.161,0.428
		c0.39,4.347,1.254,8.63,1.66,12.973c0.308,3.297,0.195,6.461,1.403,9.586c0.611,1.58,3.23,1.521,3.161-0.428
		c-0.124-3.495-0.606-7.212-1.554-10.568c-0.562-1.99-3.668-1.145-3.104,0.856c0.873,3.092,1.325,6.503,1.439,9.712
		c1.054-0.143,2.107-0.285,3.161-0.428c-1.309-3.384-1.076-7.162-1.518-10.733c-0.453-3.663-1.1-7.29-1.43-10.969
		c-1.054,0.143-2.107,0.285-3.161,0.428c0.634,3.762,0.201,9.418-0.567,12.991c0.98-0.128,1.961-0.256,2.941-0.384
		c-1.498-2.974-1.809-6.778-2.43-10.015c-0.88-4.584-1.949-9.418-2.162-14.085c-1.073,0-2.146,0-3.219,0
		c0.236,3.76,0.429,7.428,0.474,11.196c0.042,3.517,1.494,7.976,0.966,11.369c0.98-0.128,1.961-0.256,2.941-0.384
		c-2.022-4.059-1.676-11.233-1.969-15.697c-0.357-5.444-0.192-10.902-0.169-16.353C36.615,34.679,33.396,34.677,33.387,36.751
		L33.387,36.751z"/>
	<path class="st0" d="M73.328,7.892c3.885,0.002,6.048,1.497,8.791,4.052c1.076,1.002,1.783,1.844,2.582,3.075
		c0.856,1.32,0.481,2.373,0.954,3.782c0.391,1.163,2.349,1.757,2.941,0.384c1.283-2.972-0.789-5.708-3.079-7.588
		c-2.81-2.308-6.136-3.348-9.733-3.483c-2.071-0.077-2.068,3.141,0,3.219c2.23,0.083,4.21,0.532,6.151,1.684
		c0.95,0.564,4.538,3.024,3.882,4.544c0.98,0.128,1.961,0.256,2.941,0.384c-0.306-0.91,0.047-1.868-0.219-2.79
		c-0.28-0.972-1.013-1.606-1.551-2.421c-1.023-1.55-2.074-2.605-3.433-3.905c-2.964-2.835-6.136-4.154-10.228-4.156
		C71.257,4.672,71.253,7.891,73.328,7.892L73.328,7.892z"/>
	<path class="st0" d="M76.354,9.167c0.019-0.136,0.038-0.272,0.057-0.407c-0.375,0.375-0.749,0.749-1.124,1.124
		c3.546-0.73,7.993,1.313,10.744,3.601c1.73,1.439,1.888,3.156,2.67,5.09c0.33,0.816,1.617,2.349,1.725,3.175
		c1-0.271,1.999-0.541,2.999-0.812c-2.801-4.847-5.607-9.454-10.343-12.758c-3.65-2.546-8.801-3.187-11.635,0.73
		c-1.216,1.681,1.575,3.289,2.779,1.624c1.448-2.001,4.575-1.137,6.329-0.159c1.765,0.984,3.109,2.649,4.546,4.037
		c2.483,2.399,3.85,5.217,5.546,8.15c0.739,1.279,3.215,0.84,2.999-0.812c-0.295-2.253-1.687-4.346-2.55-6.447
		c-0.784-1.91-1.492-3.272-3.229-4.537C84.041,7.98,79.182,5.801,74.431,6.78c-0.486,0.1-1.053,0.615-1.124,1.124
		c-0.019,0.136-0.038,0.272-0.057,0.407C72.968,10.337,76.069,11.213,76.354,9.167L76.354,9.167z"/>
	<path class="st0" d="M18.864,17.756c-1.31,1.782-1.323,4.747-1.81,6.852c-0.431,1.866-0.763,3.735-1.056,5.627
		c-0.341,2.204-1.9,7.056-0.136,8.932c0.591,0.628,1.682,0.608,2.276,0c1.94-1.985,2.738-5.008,3.677-7.562
		c0.483-1.315,2.39-9.542,3.335-9.765c-0.66-0.375-1.32-0.749-1.98-1.124c1.308,5.205-1.157,10.765-1.59,15.919
		c1.073,0,2.146,0,3.219,0c0.02-0.781,0.024-1.561,0.011-2.342c-0.012-2.07-3.231-2.075-3.219,0
		c0.013,0.781,0.009,1.561-0.011,2.342c-0.033,2.098,3.048,2.036,3.219,0c0.462-5.512,2.881-11.178,1.475-16.775
		c-0.218-0.866-1.147-1.32-1.98-1.124c-2.498,0.589-2.761,3.757-3.463,5.847c-1.217,3.623-2.254,9.529-4.969,12.307
		c0.759,0,1.517,0,2.276,0c0.698,0.742,0.178-0.057,0.318-0.617c0.157-0.626,0.133-1.46,0.208-2.101
		c0.189-1.596,0.445-3.185,0.708-4.771c0.22-1.325,0.486-2.629,0.785-3.94c0.375-1.646,0.488-4.727,1.485-6.083
		C22.871,17.71,20.08,16.102,18.864,17.756L18.864,17.756z"/>
	<path class="st0" d="M16.493,8.333c-4.308,2.38-7.04,3.24-9.224,8.005c-2.032,4.434-2.976,9.589-3.313,14.434
		C3.558,36.487,3.45,42.145,3.4,47.874c-0.055,6.262,0.634,11.421,1.591,17.542c1.398,8.936-0.247,21.355,7.664,27.54
		c8.766,6.853,22.705,5.853,33.153,5.85c2.071-0.001,2.074-3.219,0-3.219c-9.56,0.003-23.748,1.382-31.483-5.376
		c-6.46-5.644-4.967-17.885-6.23-25.651c-1.537-9.455-2.002-18.903-1.214-28.514c0.396-4.829,0.563-9.601,1.902-14.305
		c1.662-5.835,4.272-7.832,9.335-10.629C19.931,10.11,18.309,7.329,16.493,8.333L16.493,8.333z"/>
	<path class="st0" d="M13.95,6.944c-0.079,0.139-0.157,0.278-0.236,0.417c-0.642,1.134,0.195,2.312,1.39,2.422
		c3.928,0.36,9.047-1.85,12.885-2.727c6.77-1.549,13.427-2.539,20.379-2.652c6.419-0.105,12.781,0.121,19.123,1.191
		c5.758,0.971,14.971,2.162,19.443,6.249c1.526,1.395,3.809-0.875,2.276-2.276c-3.756-3.433-9.956-4.665-14.744-5.81
		C67.879,2.181,61.197,1.305,54.426,1.18C48.193,1.066,41.868,1.157,35.701,2.15c-3.885,0.625-7.694,1.63-11.532,2.48
		c-2.715,0.601-6.314,2.187-9.066,1.935c0.463,0.807,0.926,1.614,1.39,2.422c0.079-0.139,0.157-0.278,0.236-0.417
		C17.751,6.764,14.972,5.14,13.95,6.944L13.95,6.944z"/>
	<path class="st0" d="M15.831,5.656c-1.718-0.036-3.093-0.007-4.441,1.177c-1.135,0.997-1.969,2.351-2.082,3.873
		c-0.154,2.066,3.065,2.056,3.219,0c0.042-0.57,0.712-1.272,1.14-1.597c0.609-0.463,1.447-0.249,2.165-0.234
		C17.903,8.918,17.903,5.699,15.831,5.656L15.831,5.656z"/>
	<path class="st0" d="M87.088,14.772c3.508-0.072,4.228,9.933,4.407,11.909c0.381,4.218,0.13,8.418-0.553,12.591
		c-0.332,2.026,2.769,2.898,3.104,0.856c1.106-6.758,1.193-13.629-0.446-20.316c-0.957-3.905-1.72-8.357-6.511-8.259
		C85.019,11.595,85.012,14.814,87.088,14.772L87.088,14.772z"/>
	<path class="st0" d="M47.346,59.925c0.132,0.028,0.264,0.056,0.396,0.084c-0.375-0.375-0.749-0.749-1.124-1.124
		c0.097,0.359,0.585,1.142,0.5,1.467c0.66-0.375,1.32-0.749,1.98-1.124c0.362,0.105-0.228-0.307-0.334-0.39
		c-0.298-0.232-0.595-0.372-0.956-0.49c-0.821-0.269-1.764,0.314-1.98,1.124c-0.33,1.239-0.37,2.729,0.502,3.765
		c0.423,0.502,0.921,0.673,1.449,1.016c0.13,0.098,0.153,0.083,0.07-0.044c0.071,0.106,0.147,0.209,0.228,0.308
		c0.266,0.27,0.489,0.495,0.85,0.651c0.803,0.349,1.718,0.231,2.202-0.577c0.406-0.677,0.219-1.856-0.577-2.202
		c0.118,0.249,0.103,0.26-0.044,0.032c-0.121-0.198-0.273-0.367-0.456-0.508c-0.261-0.232-0.568-0.421-0.887-0.56
		c-0.471-0.205-0.409-0.362-0.232-1.026c-0.66,0.375-1.32,0.749-1.98,1.124c-0.38-0.125,0.239,0.333,0.328,0.402
		c0.298,0.23,0.597,0.372,0.962,0.478c0.827,0.241,1.761-0.291,1.98-1.124c0.315-1.202-0.197-2.056-0.5-3.178
		c-0.139-0.516-0.587-1.01-1.124-1.124c-0.132-0.028-0.264-0.056-0.396-0.084C46.181,56.393,45.317,59.495,47.346,59.925
		L47.346,59.925z"/>
	<path class="st0" d="M37.319,66.236c0,2.074-0.057,4.157,0.009,6.23c0.055,1.718,0.47,3.499-0.062,5.174
		c0.788-0.321,1.576-0.641,2.364-0.962c0.707,0.54,0.202-0.313,0.111-0.954c-0.093-0.659-0.139-1.332-0.178-1.996
		c-0.117-1.985-0.023-3.975-0.008-5.961c0.016-2.072-3.193-2.073-3.219,0c-0.023,1.836-0.168,3.632-0.327,5.46
		c-0.055,0.625-0.069,2.685-0.064,2.68c0.897,0.237,1.793,0.473,2.69,0.71c-0.278-1.167-0.495-2.3-0.555-3.501
		c-0.102-2.061-3.322-2.074-3.219,0c0.074,1.49,0.324,2.905,0.67,4.357c0.297,1.248,1.822,1.47,2.69,0.71
		c1.067-0.934,0.9-2.407,0.928-3.69c0.05-2.243,0.377-4.472,0.405-6.726c-1.073,0-2.146,0-3.219,0
		c-0.019,2.493-0.133,4.983,0.131,7.468c0.163,1.53,0.231,3.224,1.538,4.222c0.87,0.664,2.084-0.079,2.364-0.962
		c0.567-1.783,0.312-3.583,0.208-5.416c-0.129-2.271-0.039-4.568-0.039-6.843C40.537,64.165,37.319,64.162,37.319,66.236
		L37.319,66.236z"/>
	<path class="st0" d="M87.258,14.552c1.532,0.818,1.417,7.875,1.475,9.378c0.17,4.352-0.258,8.638-1.232,12.884
		c-0.463,2.016,2.64,2.877,3.104,0.856c1.369-5.963,1.575-11.812,1.003-17.892c-0.263-2.792,0.121-6.486-2.725-8.005
		C87.056,10.798,85.428,13.575,87.258,14.552L87.258,14.552z"/>
</g>
<g>
</g>
<g>
</g>
<g>
</g>
<g>
</g>
<g>
</g>
<g>
</g>
</svg>
