<?xml version="1.0" encoding="utf-8"?>
<!-- Generator: Adobe Illustrator 23.0.4, SVG Export Plug-In . SVG Version: 6.00 Build 0)  -->
<svg version="1.1" id="Capa_1" xmlns="http://www.w3.org/2000/svg" xmlns:xlink="http://www.w3.org/1999/xlink" x="0px" y="0px"
	 viewBox="0 0 100 100" style="enable-background:new 0 0 100 100;" xml:space="preserve">
<style type="text/css">
	.st0{fill:#E54850;}
</style>
<g>
	<path class="st0" d="M49.593,28.008c12.076-2.57,13.084-10.082,12.007-18.741c-0.542-4.356,1.368-7.7,6.383-7.704
		c5.054-0.005,6.633,3.425,6.46,7.74c-0.063,1.578,0.168,3.18-0.039,4.736c-0.763,5.747,0.642,9.514,7.043,12.529
		c10.621,5.002,13.239,19.978,6.333,30.195c-1.455,2.153-3.02,4.498-5.16,5.942c-7.317,4.937-9.385,11.481-8.269,19.53
		c0.484,3.493,0.889,7.36-0.248,10.566c-0.834,2.354-4.06,5.084-6.554,5.411c-1.686,0.221-4.646-3.151-5.753-5.456
		c-0.986-2.053-0.207-4.849-0.207-7.818c-11.78,7.594-11.78,7.594-21.697-0.27c-0.174,2.97,0.428,5.719-0.642,7.659
		c-1.349,2.446-3.769,5.511-6.256,6.014c-4.095,0.829-6.468-2.306-6.616-6.173c-0.196-5.129-0.466-10.301,0.028-15.393
		c0.452-4.664-1.809-7.52-4.87-10.809c-4.475-4.808-9.249-9.934-11.667-15.738c-4.291-10.3,1.069-20.379,12.021-24.605
		c3.655-1.41,4.662-3.312,4.453-6.659c-0.222-3.542-0.106-7.108-0.01-10.661c0.104-3.835,1.964-6.681,6.294-6.776
		c4.653-0.102,6.653,2.78,6.852,6.896c0.048,0.986,0.029,1.974,0.036,2.962C39.598,22.756,39.598,22.756,49.593,28.008z
		 M50.585,76.829c9.476-9.732,18.494-18.567,26.83-27.934c1.556-1.749,1.511-6.22,0.222-8.413c-2.693-4.582-7.661-6.823-13.42-5.761
		c-5.198,0.958-6.777,4.936-7.151,9.312c-0.329,3.859-2.424,5.764-6.449,5.763c-4.057-0.001-6.109-2.096-6.537-5.807
		c-0.157-1.357-0.097-3.196-0.977-3.933c-2.495-2.09-5.235-4.848-8.226-5.292c-5.344-0.794-10.198,1.884-12.283,6.537
		c-1.054,2.352-0.676,6.64,1.012,8.465C31.985,58.823,41.016,67.353,50.585,76.829z"/>
</g>
<g>
</g>
<g>
</g>
<g>
</g>
<g>
</g>
<g>
</g>
<g>
</g>
</svg>
