<?xml version="1.0" encoding="utf-8"?>
<!-- Generator: Adobe Illustrator 23.0.4, SVG Export Plug-In . SVG Version: 6.00 Build 0)  -->
<svg version="1.1" id="Capa_1" xmlns="http://www.w3.org/2000/svg" xmlns:xlink="http://www.w3.org/1999/xlink" x="0px" y="0px"
	 viewBox="0 0 100 100" style="enable-background:new 0 0 100 100;" xml:space="preserve">
<style type="text/css">
	.st0{fill:#FFFFFF;}
	.st1{fill:#C24B4F;}
	.st2{fill:none;}
</style>
<g>
	<path class="st0" d="M12.965,6.049c-0.072,0.301-0.145,0.602-0.217,0.904c0.552-0.552,1.104-1.104,1.656-1.656
		C2.884,7.726,2.384,21.59,1.615,30.78c-0.593,7.093-1.052,13.873-1.063,21.042C0.541,59.386,0.553,66.95,0.537,74.514
		C0.525,79.962,0.49,86.06,3.344,90.952c2.309,3.958,6.913,4.181,11.041,5.178c6.953,1.679,13.451,0.875,20.444,1.643
		c7.014,0.771,14.031,1.341,21.07,1.893c11.448,0.897,25.629,0.351,35.574-6.302c9.748-6.522,6.87-20.344,6.87-30.282
		c0-8.045-0.016-16.089,0-24.134c0.013-6.634,0.643-13.471-0.884-19.991c-1.082-4.62-3.021-11.149-6.924-14.258
		c-4.386-3.494-10.47-2.602-15.697-2.574C58.999,2.214,42.112,0.254,26.51,3.135c-5.107,0.943-17.907,0.511-18.115,8.03
		c-0.084,3.052,4.657,3.05,4.741,0c0.065-2.362,13.885-3.414,16.077-3.778c11.311-1.878,23.651-0.537,35.105-0.509
		c5.597,0.014,11.238-0.247,16.829-0.065c2.782,0.09,4.887,0.312,6.97,2.352c2.196,2.152,3.374,6.226,4.263,9.194
		c1.608,5.364,1.296,10.914,1.236,16.44c-0.066,6.136-0.016,12.276-0.016,18.412c0,5.511-0.117,11.038,0.048,16.547
		c0.151,5.041,1.036,10.93-1.259,15.623c-2.478,5.069-8.126,6.108-12.991,7.588c-5.411,1.647-9.997,1.991-15.622,2.06
		c-10.689,0.131-21.208-1.76-31.847-2.251c-6.015-0.278-11.365-0.014-17.316-1.496c-1.593-0.397-3.733-0.491-5.23-1.184
		c-3.419-1.584-3.822-6.964-4.057-10.227C4.464,67.832,5.322,55.452,5.303,43.382c-0.009-5.636,0.765-11.175,1.062-16.794
		c0.317-5.98,2.35-15.254,9.298-16.719c0.774-0.163,1.473-0.897,1.656-1.656c0.072-0.301,0.145-0.602,0.217-0.904
		C18.25,4.345,13.679,3.079,12.965,6.049L12.965,6.049z"/>
	<path class="st1" d="M20.584,22.103c-4.237,4.943-4.409,14.024-4.459,20.212c-0.038,4.663-0.021,9.302-0.199,13.965
		c-0.184,4.838-0.849,10.493,0.811,15.147c2.401,6.733,9.764,11.322,16.496,12.302c9.917,1.444,19.606,2.197,29.652,1.602
		c6.893-0.408,14.057-2.558,18.544-8.114c5.462-6.763,4.87-16.477,5.553-24.677c0.762-9.162,0.84-20.07-3.383-28.486
		c-3.699-7.371-12.679-7.19-19.988-8.168c-5.349-0.716-10.781-0.387-16.164-0.38c-5.229,0.006-10.945-0.691-16.114,0.208
		c-3.584,0.623-6.48,2.511-8.053,5.851c-0.995,2.112-0.855,7.992-3.098,8.951c-4.196,1.794-0.576,7.923,3.59,6.141
		c5.989-2.561,2.906-11.754,8.12-13.84c3.573-1.43,9.781-0.199,13.501-0.197c4.681,0.002,9.433-0.272,14.11-0.028
		c4.175,0.217,8.199,1.314,12.321,1.895c2.974,0.42,4.124,0.373,5.635,3.158c1.444,2.662,1.989,6.198,2.302,9.162
		c0.975,9.221-0.186,18.516-0.899,27.703c-0.755,9.732-8.592,13.449-17.453,13.756C52.017,78.591,41.11,79.187,32,76.338
		c-4.334-1.355-8.377-5.168-8.977-9.741c-0.617-4.706,0.039-9.732,0.184-14.452c0.139-4.546-0.217-9.133,0.148-13.669
		c0.234-2.902,0.284-9.043,2.257-11.345C28.577,23.675,23.569,18.621,20.584,22.103L20.584,22.103z"/>
	<path class="st1" d="M63.267,30.224c-0.027,1.046-0.152,1.995,0.034,3.043c0.259,1.452,1.239,2.656,2.505,3.373
		c3.111,1.761,6.563,0.257,7.816-2.932c0.889-2.262,0.368-5.091-1.892-6.334c-2.085-1.147-4.759-0.438-6.366,1.208
		c-3.381,3.462-1.815,9.527,2.994,10.643c2.543,0.59,5.045-0.459,6.501-2.598c1.304-1.915,1.837-4.791,0.706-6.901
		c-2.34-4.369-8.56-2.993-11.256,0.226c-1.193,1.424-1.5,3.652,0,5.029c1.316,1.208,3.754,1.523,5.029,0
		c0.163-0.195,0.344-0.366,0.517-0.551c0.553-0.59-0.51,0.197,0.049-0.035c0.161-0.067,0.41-0.217,0.556-0.313
		c0.551-0.363-0.682,0.13-0.086,0.05c0.126-0.04,0.253-0.075,0.382-0.104c0.379-0.074,0.25-0.062-0.386,0.036
		c0.01,0.016,0.52-0.003,0.531-0.008c-0.398,0.185-0.875-0.2-0.309-0.003c-0.603-0.283-0.751-0.336-0.445-0.158
		c-0.165-0.123-0.329-0.246-0.494-0.369c-0.38-0.543-0.477-0.661-0.293-0.355c-0.23-0.613-0.297-0.74-0.2-0.381
		c-0.029-0.191-0.058-0.382-0.087-0.573c-0.013,0.372,0.013,0.274,0.077-0.294c0.037,0.012-0.19,0.745-0.196,0.767
		c-0.233,0.866,0.162-0.528-0.097,0.149c0.328-0.39,0.367-0.45,0.117-0.18c0.452-0.318,0.525-0.378,0.217-0.181
		c0.36-0.174,0.683-0.2,0.116-0.096c0.599-0.061,0.756-0.092,0.471-0.091c-0.286-0.009-0.128,0.017,0.472,0.077
		c-0.125-0.025-0.248-0.059-0.369-0.101c0.517,0.237,0.654,0.291,0.411,0.161c-0.73-0.368,0.496,0.477,0.026,0.031
		c-0.452-0.429,0.399,0.687,0.094,0.091c0.432,0.843,0.147,0.418,0.093,0.098c0.064,0.605,0.093,0.711,0.086,0.318
		c-0.092,0.536-0.105,0.669-0.04,0.397c0.075-0.265,0.015-0.15-0.179,0.345c0.059-0.124,0.126-0.244,0.202-0.358
		c-0.258,0.327-0.464,0.475-0.039,0.132c-0.795,0.641-0.361,0.279-0.114,0.156c-0.595,0.229-0.721,0.293-0.381,0.192
		c-0.669,0.06-0.859,0.087-0.57,0.084c-0.693,0.004-1.724-0.486-2.212-1.34c-0.139-0.243-0.285-1.482-0.316-1.003
		c0.084-1.327-0.099-0.056-0.082,0.01c-0.166-0.631,0.979-1.049,1.344-1.145c0.66-0.174,1.001-0.171,1.483,0.333
		c0.139,0.145,0.81,1.281,0.587,1.326c0.049-0.01,0.104-1.777,0.106-1.869c0.048-1.861-1.67-3.641-3.556-3.556
		C64.856,26.756,63.318,28.23,63.267,30.224L63.267,30.224z"/>
	<g>
		<path class="st2" d="M40.105,54.163c0.846,5.977,6.94,6.721,11.988,5.322c8.573-2.377,12.137-10.897,4.033-16.897
			c-4.848-3.59-8.524-1.953-13.322,0.805c-0.948,0.545-1.775,1.09-2.508,1.672C39.608,48.007,39.919,52.852,40.105,54.163z"/>
		<path class="st1" d="M61.002,37.431c-6.14-4.839-11.827-5.434-18.734-1.874c-0.05,0.026-0.097,0.051-0.147,0.077
			c0.013,0.001,0.024,0.001,0.037,0.002c4.497,0.532,4.536,7.649,0,7.112c-0.95-0.112-1.525,0.875-1.862,2.315
			c0.733-0.582,1.56-1.127,2.508-1.672c4.798-2.757,8.474-4.395,13.322-0.805c8.104,6,4.54,14.521-4.033,16.897
			c-5.048,1.4-11.142,0.656-11.988-5.322c-0.186-1.311-0.497-6.157,0.191-9.099c-1.925,1.529-3.132,3.343-3.678,6.285
			c-0.389,2.099-2.086,2.789-3.703,2.488c0.112,1.13,0.269,2.155,0.454,3.002c2.369,10.855,15.132,12.064,23.818,8.344
			C69.374,59.965,71.638,45.815,61.002,37.431z"/>
		<path class="st1" d="M36.618,51.35c0.546-2.942,1.754-4.756,3.678-6.285c0.337-1.441,0.912-2.428,1.862-2.315
			c4.536,0.537,4.497-6.58,0-7.112c-0.013-0.002-0.024-0.001-0.037-0.002c-3.027,1.567-5.744,3.197-7.882,5.304
			c-1.542,3.849-1.708,9.017-1.324,12.899C34.532,54.138,36.229,53.448,36.618,51.35z"/>
	</g>
</g>
</svg>
