<?xml version="1.0" encoding="utf-8"?>
<!-- Generator: Adobe Illustrator 23.0.4, SVG Export Plug-In . SVG Version: 6.00 Build 0)  -->
<svg version="1.1" id="Capa_1" xmlns="http://www.w3.org/2000/svg" xmlns:xlink="http://www.w3.org/1999/xlink" x="0px" y="0px"
	 viewBox="0 0 405.412 86.775" style="enable-background:new 0 0 405.412 86.775;" xml:space="preserve">
<style type="text/css">
	.st0{clip-path:url(#SVGID_2_);fill:#3C3D3D;}
	.st1{clip-path:url(#SVGID_2_);}
	.st2{fill:#E54850;}
	.st3{clip-path:url(#SVGID_2_);fill:#E54850;}
</style>
<g>
	<defs>
		<rect id="SVGID_1_" y="2.73" width="402.436" height="84.045"/>
	</defs>
	<clipPath id="SVGID_2_">
		<use xlink:href="#SVGID_1_"  style="overflow:visible;"/>
	</clipPath>
	<path class="st0" d="M162.852,15.543c-0.435-0.275-1.161-0.45-1.61-0.286c-1.684,0.608-2.371,3.034-1.43,4.554
		c0.19,0.306,0.273,0.723,0.281,1.091c0.238,14.223,0.46,28.443,0.691,42.663c0.032,1.919,0.556,3.576,2.498,4.426h1.424
		c0.62-0.637,1.346-1.201,1.848-1.922c2.804-4.024,4.657-8.49,5.914-13.206c2.007-7.517,2.522-15.097,0.508-22.693
		C171.367,24.099,168.267,18.993,162.852,15.543 M168.644,48.298c-0.734,3.022-1.648,6-2.489,8.995
		c-0.056,0.203-0.177,0.395-0.267,0.591c-0.065-0.012-0.13-0.025-0.199-0.037V25.85c0.381,0.694,0.64,1.141,0.874,1.602
		C169.937,34.134,170.388,41.122,168.644,48.298"/>
	<path class="st0" d="M52.485,20.274c-1.87-2.725-5.798-3.633-8.119-1.831c-2.602,2.023-4.554,4.561-5.79,7.64
		c-2.281,5.691-2.945,11.679-3.097,17.73c-0.122,4.698,0.685,9.279,2.683,13.571c0.896,1.922,2.119,3.605,4.322,4.284
		c0.297,0.091,0.529,0.542,0.695,0.873c0.633,1.267,1.203,2.564,1.844,3.828c0.763,1.502,1.637,1.757,3.185,1.01
		c1.687-0.814,2.189-1.931,1.51-3.385c-0.597-1.287-1.211-2.564-1.827-3.863c3.543-4.103,4.885-6.542,6.086-11.076
		c1.852-7.005,2.07-14.11,1.124-21.252C54.748,25.142,54.04,22.544,52.485,20.274 M47.579,50.928
		c-0.629,1.436-1.43,2.809-2.298,4.113c-0.375,0.566-1.255,1.324-1.679,1.206c-0.587-0.169-1.153-1.015-1.395-1.689
		c-1.219-3.419-1.76-6.975-1.435-10.591c0.339-3.765,0.79-7.527,1.391-11.258c0.419-2.609,1.311-5.116,2.872-7.308
		c0.454-0.635,1.056-1.162,1.571-1.752c0.749-0.863,1.473-0.593,1.875,0.23c0.529,1.082,1.023,2.247,1.192,3.424
		c0.379,2.61,0.54,5.249,0.793,7.88C50.32,40.601,49.775,45.918,47.579,50.928"/>
	<path class="st0" d="M130.323,51.499c-1.223-1.38-2.417-2.784-3.616-4.169c0.434-0.625,0.799-1.137,1.153-1.659
		c2.294-3.374,4.279-6.89,5.238-10.914c1.267-5.315-0.255-8.996-5.064-11.426c-1.733-0.877-3.706-1.272-5.578-1.865
		c-2.754-0.873-4.478,0.775-4.32,3.675c0.138,2.521,0.178,5.05,0.311,7.573c0.55,10.369,1.109,20.736,1.714,31.103
		c0.032,0.546,0.385,1.27,0.824,1.559c1.06,0.701,2.26,0.556,3.385,0.005c1.059-0.517,1.017-1.485,0.946-2.453
		c-0.034-0.431-0.07-0.865-0.091-1.299c-0.131-2.63-0.255-5.262-0.397-8.201c2.087,2.25,3.964,4.223,5.782,6.247
		c1.823,2.024,3.598,4.093,5.375,6.157c1.069,1.24,2.11,1.272,3.543,0.059c1.412-1.194,1.582-2.284,0.489-3.515
		C136.792,58.744,133.548,55.129,130.323,51.499 M124.517,41.175c-0.2-4.664-0.399-9.331-0.6-14.009
		c2.695,0.348,4.403,2.52,4.13,5.113C127.7,35.548,126.421,38.46,124.517,41.175"/>
	<path class="st0" d="M80.558,28.132c-0.841,0.314-1.311,0.833-1.234,1.769c0.125,1.574,0.255,3.147,0.358,4.723
		c0.348,5.243,0.725,10.502-0.368,15.693c-0.331,1.578-0.958,3.201-1.865,4.515c-1.227,1.777-3.646,1.532-4.73-0.348
		c-0.559-0.971-1.042-2.093-1.165-3.189c-0.521-4.62-0.363-9.283-0.788-13.914c0-2.919-0.015-5.841,0.005-8.76
		c0.011-1.674-0.662-2.781-1.961-3.11c-1.835-0.463-3.282,0.808-3.371,3.056c-0.25,6.392-0.447,12.787,0.401,19.159
		c0.419,3.137,1.017,6.218,2.539,9.054c1.68,3.135,4.515,4.779,7.706,4.331c2.196-0.311,3.831-1.571,5.171-3.26
		c2.495-3.149,3.687-6.818,3.737-10.757c0.07-5.445-0.112-10.889-0.249-16.333C84.683,28.377,82.836,27.279,80.558,28.132"/>
	<path class="st0" d="M106.919,57.994c-2.234,0.11-4.477,0.024-6.745,0.024c-0.279-5.836-0.552-11.576-0.836-17.519
		c1.238,0,2.415-0.017,3.588,0.004c0.917,0.018,1.576-0.396,1.769-1.252c0.179-0.788,0.275-1.646,0.158-2.435
		c-0.151-1.042-0.805-1.638-1.988-1.566c-1.217,0.072-2.44,0.015-3.831,0.015c-0.121-1.784-0.246-3.581-0.379-5.538
		c2.005-0.108,3.886-0.234,5.767-0.306c0.942-0.038,1.814-0.096,2.255-1.136c0.516-1.212,0.544-2.402-0.218-3.485
		c-0.233-0.336-0.792-0.654-1.183-0.632c-3.349,0.167-6.698,0.355-10.035,0.667c-1.205,0.113-1.873,1.088-1.87,2.234
		c0,0.784,0.024,1.571,0.061,2.353c0.279,5.796,0.578,11.592,0.842,17.388c0.195,4.338,0.325,8.679,0.518,13.014
		c0.122,2.74,1.208,3.747,3.926,3.679c2.765-0.066,5.524-0.172,8.289-0.26c1.828-0.059,2.681-0.929,2.564-2.75
		C109.473,58.974,109.073,57.888,106.919,57.994"/>
	<path class="st0" d="M193.501,29.242c-6.179,3.845-9.825,12.022-8.37,19.093c0.679,3.311,2.482,5.914,5.867,6.966
		c3.31,1.024,6.159-0.093,8.523-2.436c3.746-3.718,4.957-8.468,5.256-13.358c-0.088-2.99-0.488-5.684-2.191-8.035
		C200.775,28.972,195.893,27.755,193.501,29.242 M196.187,48.754c-0.312,0.353-0.671,0.679-1.054,0.946
		c-1.986,1.395-4.175,0.723-4.669-1.647c-0.958-4.613-0.007-8.847,3.176-12.438c0.458-0.515,1.096-0.899,1.703-1.25
		c1.414-0.816,3.033-0.341,3.647,1.167c0.391,0.962,0.5,2.039,0.662,2.746C199.214,42.271,198.741,45.864,196.187,48.754"/>
	<path class="st0" d="M148.91,38.511c-0.054-1.828-1.08-2.836-2.79-2.792c-1.652,0.042-2.61,1.04-2.537,2.882
		c0.279,6.816,0.598,13.632,0.942,20.446c0.077,1.549,1.141,2.211,3.062,2.076c1.63-0.115,2.24-0.787,2.202-1.804
		c-0.195-2.721-0.409-4.841-0.487-6.968C149.136,47.739,149.046,43.124,148.91,38.511"/>
	<path class="st0" d="M146.35,31.965c1.52,0.021,2.636-1.049,2.654-2.544c0.017-1.504-1.104-2.691-2.539-2.691
		c-1.495,0-2.517,1.059-2.559,2.646C143.866,30.864,144.886,31.943,146.35,31.965"/>
	<path class="st0" d="M284.935,46.06c-0.341-4.346-0.605-8.701-1.076-13.032c-0.605-5.542-1.382-11.065-2.076-16.598
		c-0.233-1.876-1.003-2.511-2.855-2.105c-1.613,0.355-2.88,1.053-2.522,3.279c0.539,3.355,1.012,6.725,1.372,10.103
		c0.632,5.907,1.174,11.827,1.725,17.742c0.191,2.069,0.302,4.147,0.466,6.463c-0.201-0.331-0.282-0.431-0.331-0.547
		c-4.252-10.35-7.769-20.946-10.742-31.725c-0.561-2.032-1.985-2.837-4.024-2.222c-1.218,0.366-1.62,0.923-1.529,2.178
		c0.137,1.846,0.311,3.686,0.441,5.532c0.586,8.336,1.147,16.67,1.74,25.004c0.341,4.809,0.711,9.617,1.098,14.424
		c0.118,1.427,0.664,1.98,2.091,2.149c0.608,0.071,1.26,0.015,1.858-0.125c1.132-0.265,1.556-0.926,1.466-2.11
		c-0.363-4.61-0.745-9.216-1.086-13.826c-0.191-2.583-0.321-5.169-0.478-7.753c0.051-0.011,0.105-0.023,0.157-0.036
		c0.078,0.167,0.169,0.331,0.23,0.505c2.846,7.877,6.093,15.588,9.804,23.098c0.289,0.581,0.664,1.14,1.098,1.618
		c0.833,0.909,2.395,1.147,3.483,0.618c0.963-0.463,1.345-1.409,1.235-2.784C285.957,59.295,285.454,52.678,284.935,46.06"/>
	<path class="st0" d="M329.877,48.619c-1.065-1.199-1.049-1.199-0.154-2.495c2.544-3.684,4.77-7.516,5.664-11.98
		c0.684-3.407,0.319-6.549-2.402-9c-2.806-2.524-6.255-3.603-9.929-3.973c-1.37-0.14-2.547,1.009-2.775,2.446
		c-0.074,0.455-0.103,0.924-0.078,1.382c0.667,13.025,1.346,26.053,2.012,39.075c0.051,0.995,0.517,1.706,1.497,1.777
		c0.887,0.066,1.821-0.029,2.686-0.26c0.706-0.186,1.076-0.824,1.039-1.62c-0.056-1.054-0.092-2.113-0.143-3.169
		c-0.112-2.333-0.232-4.666-0.349-7.002c0.091-0.037,0.184-0.076,0.274-0.11c3.701,4.169,7.396,8.345,11.113,12.502
		c0.294,0.328,0.686,0.659,1.091,0.779c0.934,0.27,2.551-0.757,3.216-1.939c0.554-0.985,0.468-1.507-0.466-2.559
		C338.078,57.854,333.973,53.239,329.877,48.619 M326.956,41.195c-0.044,0.074-0.142,0.113-0.321,0.245
		c-0.206-4.848-0.412-9.603-0.615-14.365c2.912,0.37,4.605,2.77,4.099,5.881C329.642,35.913,328.493,38.634,326.956,41.195"/>
	<path class="st0" d="M233.779,26.419c-1.622-1.174-3.367-2.181-5.076-3.236c-0.951-0.586-2.88-0.529-3.58,0.06
		c-0.89,0.745-1.151,2.157-0.692,3.466c0.135,0.392,0.194,0.833,0.191,1.25c-0.056,10.189,0.728,20.33,1.561,30.472
		c0.091,1.093,0.355,1.963,1.162,2.806c1.495,1.569,2.868,1.804,4.364,0.245c1.891-1.973,3.825-3.944,5.43-6.142
		c3.049-4.167,4.782-8.863,4.885-14.115c-0.147-1.174-0.218-2.366-0.449-3.523C240.602,32.828,237.693,29.252,233.779,26.419
		 M233.201,51.648c-0.559,0.843-1.186,1.645-1.782,2.466c-0.113-0.022-0.226-0.044-0.337-0.064
		c-0.42-7.904-0.842-15.807-1.261-23.71c0.105-0.032,0.213-0.06,0.321-0.088c2.453,1.566,4.392,3.61,5.429,6.387
		C237.598,42.073,236.269,47.009,233.201,51.648"/>
	<path class="st0" d="M308.662,58.133c-2.206,0.012-4.414,0.002-6.667,0.002c-0.272-5.779-0.549-11.573-0.831-17.598
		c1.279,0,2.431-0.01,3.581,0.001c1,0.011,1.689-0.462,1.863-1.42c0.14-0.793,0.196-1.647,0.059-2.434
		c-0.184-1.074-0.806-1.431-1.924-1.422c-1.279,0.012-2.559,0.002-3.904,0.002c-0.118-1.774-0.243-3.603-0.377-5.598
		c2.14-0.107,4.174-0.211,6.211-0.304c1.196-0.059,1.782-0.445,2.051-1.605c0.14-0.624,0.157-1.316,0.059-1.948
		c-0.206-1.326-0.855-1.836-2.169-1.761c-3.032,0.17-6.064,0.354-9.091,0.581c-1.603,0.119-2.434,1.152-2.338,2.716
		c0.034,0.589,0.022,1.185,0.052,1.778c0.363,7.72,0.733,15.438,1.086,23.159c0.118,2.608,0.071,5.225,0.324,7.818
		c0.27,2.752,1.157,3.669,3.243,3.608c3.137-0.093,6.274-0.159,9.407-0.329c0.581-0.034,1.345-0.377,1.667-0.833
		c0.755-1.066,0.689-2.321,0.115-3.485C310.579,58.048,309.598,58.126,308.662,58.133"/>
	<path class="st0" d="M365.801,34.933c-0.475-1.87-1.323-3.595-2.939-4.798c-2.387-1.781-6.77-2.605-10.279,0.817
		c-5.029,4.904-7.171,10.845-5.906,17.772c0.565,3.074,2.359,5.522,5.494,6.622c3.475,1.218,7.451-0.206,9.97-3.475
		c2.87-3.725,4.059-8.002,4.208-13.268C366.233,37.791,366.151,36.33,365.801,34.933 M358.886,47.215
		c-0.64,1.091-1.632,2.088-2.689,2.799c-1.681,1.13-3.48,0.377-4.203-1.529c-0.103-0.274-0.184-0.564-0.223-0.855
		c-0.091-0.718-0.154-1.439-0.203-1.907c0.11-3.553,0.777-6.689,2.899-9.311c0.664-0.823,1.561-1.505,2.468-2.076
		c1.323-0.833,2.946-0.355,3.539,1.103c0.392,0.977,0.593,2.1,0.593,3.158C361.063,41.635,360.433,44.585,358.886,47.215"/>
	<path class="st0" d="M256.004,38.524c-0.049-1.743-1.115-2.86-2.746-2.828c-1.705,0.032-2.67,1.059-2.636,2.877
		c0.064,3.603,0.103,7.203,0.252,10.799c0.135,3.132,0.382,6.26,0.637,9.387c0.054,0.625,0.229,1.333,0.597,1.816
		c0.631,0.828,2.55,0.956,3.717,0.446c1.125-0.493,1.135-1.414,0.777-2.407C256.401,51.915,256.195,45.22,256.004,38.524"/>
	<path class="st0" d="M250.989,29.35c0,1.596,0.946,2.593,2.456,2.593c1.564-0.001,2.605-1.034,2.605-2.588
		c0.002-1.554-1.093-2.713-2.539-2.692C251.982,26.688,250.989,27.746,250.989,29.35"/>
	<g class="st1">
		<path class="st2" d="M13.612,60.682c-4.039,1.9-7.208,5.007-11.036,7.216c-1.528,0.88-3.451,2.583-2.14,4.468
			c1.183,1.703,4.511,1.451,6.064,0.556c3.796-2.191,7.075-5.35,11.036-7.216c1.61-0.757,3.392-2.669,2.14-4.47
			C18.428,59.442,15.248,59.913,13.612,60.682"/>
		<path class="st2" d="M20.732,37.732c-3.165-2.026-6.696-3.029-10.383-3.592c-2.053-0.312-4.901,0.773-5.834,2.723
			c-0.988,2.06,0.906,3.312,2.701,3.587c2.359,0.36,4.581,1.064,6.598,2.355c1.882,1.203,4.7,0.659,6.41-0.613
			C21.669,41.117,22.615,38.935,20.732,37.732"/>
		<path class="st2" d="M30.922,14.382c-4.528-4.053-9.521-7.483-14.435-11.039C13.409,1.114,5.501,5.472,9.568,8.416
			c4.914,3.556,9.907,6.986,14.435,11.039C26.831,21.986,34.705,17.767,30.922,14.382"/>
	</g>
	<path class="st3" d="M380.949,33.864c6.279-3.296,12.824-6.045,19.105-9.339c5.414-2.841,0.512-7.352-3.924-5.026
		c-6.281,3.295-12.824,6.044-19.105,9.34C371.611,31.681,376.512,36.193,380.949,33.864"/>
	<path class="st3" d="M375.538,52.548c4.706,1.993,9.831,2.748,14.918,2.343c1.896-0.152,4.708-1.377,4.946-3.554
		c0.243-2.221-2.414-2.902-4.111-2.767c-3.684,0.294-7.172-0.471-10.557-1.904C377.113,45.132,370.346,50.349,375.538,52.548"/>
	<path class="st3" d="M372.813,69.93c1.685,6.61,5.883,12.039,11.204,16.179c3.002,2.333,10.902-1.976,6.919-5.073
		c-4.43-3.446-7.78-8.073-9.173-13.541C380.75,63.518,371.791,65.913,372.813,69.93"/>
	<g class="st1">
		<path class="st2" d="M299.724,238.874c-4.039,1.899-7.208,5.007-11.036,7.216c-1.528,0.88-3.451,2.583-2.14,4.468
			c1.183,1.703,4.511,1.451,6.064,0.556c3.796-2.191,7.075-5.35,11.036-7.216c1.61-0.757,3.392-2.669,2.14-4.47
			C304.54,237.634,301.36,238.105,299.724,238.874"/>
		<path class="st2" d="M306.844,215.924c-3.165-2.026-6.696-3.029-10.383-3.592c-2.053-0.312-4.901,0.773-5.834,2.723
			c-0.988,2.06,0.906,3.312,2.701,3.587c2.359,0.36,4.581,1.064,6.598,2.355c1.882,1.203,4.7,0.659,6.41-0.613
			C307.78,219.309,308.726,217.127,306.844,215.924"/>
		<path class="st2" d="M317.033,192.574c-4.528-4.053-9.521-7.483-14.435-11.039c-3.078-2.229-10.986,2.129-6.919,5.073
			c4.914,3.556,9.907,6.986,14.435,11.039C312.943,200.178,320.816,195.959,317.033,192.574"/>
	</g>
</g>
<g>
</g>
<g>
</g>
<g>
</g>
<g>
</g>
<g>
</g>
<g>
</g>
</svg>
