<?xml version="1.0" encoding="utf-8"?>
<!-- Generator: Adobe Illustrator 23.0.4, SVG Export Plug-In . SVG Version: 6.00 Build 0)  -->
<svg version="1.1" id="Capa_1" xmlns="http://www.w3.org/2000/svg" xmlns:xlink="http://www.w3.org/1999/xlink" x="0px" y="0px"
	 viewBox="0 0 212.155 203.44" style="enable-background:new 0 0 212.155 203.44;" xml:space="preserve">
<style type="text/css">
	.st0{fill:#3A3939;}
	.st1{fill:#EE6564;}
</style>
<g>
	<path class="st0" d="M158.891,73.021c7.065-2.222,12.521,1.352,13.324,8.728c0.81,7.44-4.922,16.659-11.937,19.199
		c-2.423,0.878-4.878,1.056-7.317,0.152c-0.907-0.337-1.354-0.256-1.806,0.686c-6.965,14.479-18.793,23.201-33.697,28.154
		c-1.482,0.493-1.237,1.53-1.666,2.417c-0.522,1.078,0.616,0.938,0.965,1.372c0.378,0.47,0.808,0.898,1.176,1.374
		c0.231,0.298,0.412,0.635,0.862,0.445c1.977-0.833,4.001-0.162,5.906,0.096c12.033,1.627,20.509,8.199,25.214,19.315
		c4.379,10.345,5.123,21.325,4.756,32.418c-0.054,1.641-0.137,3.282-0.27,4.918c-0.053,0.656-0.203,1.328-0.448,1.937
		c-0.259,0.644-0.799,1.209-1.546,1.002c-0.796-0.221-0.503-0.974-0.451-1.558c0.765-8.646,0.532-17.248-0.957-25.817
		c-0.248-1.427-0.855-2.104-2.212-2.404c-6.312-1.399-12.432-0.888-18.362,1.719c-1.383,0.608-1.94,1.416-1.562,3.115
		c1.684,7.579,1.489,15.219,0.325,22.855c-0.191,1.25-0.535,2.421-2.113,2.542c-0.446-0.587-0.344-1.213-0.255-1.901
		c0.742-5.717,1.399-11.441,0.385-17.199c0.14-0.7-0.157-1.341-0.275-2.006c-0.194-3.263-1.037-6.365-2.312-9.361
		c-0.227-1.106-1.171-1.999-0.965-3.234c0.504-0.561,1.056-1.05,1.819-1.228c0.245,0.219,0.491,0.438,0.736,0.656
		c-0.019,0.298,0.027,0.544,0.413,0.521l-0.012-0.007c-0.261,1.24,0.725,2.125,0.92,3.237c0.172,0.979,0.553,1.151,1.429,0.524
		c1.795-1.284,3.866-1.971,5.998-2.484c4.402-1.06,8.837-1.319,13.324-0.633c0.54,0.083,1.62,0.538,1.266-0.706
		c-0.722-2.533-1.391-5.114-2.988-7.299c0.001-0.808-0.57-1.327-0.977-1.928c-0.004-0.274-0.097-0.484-0.396-0.542l-0.007,0.049
		c0.108-0.838-0.531-1.331-0.943-1.891c-2.892-3.935-6.511-7.023-10.879-9.231c-2.178-1.101-4.402-2.059-6.823-2.483
		c-0.991-0.174-1.562-0.031-1.055,1.197c0.47,1.138,0.458,2.372,0.512,3.59c0.286,6.421-2.187,11.837-6.021,16.78
		c-0.614,0.791-1.547,1.443-1.419,2.645c-0.326,0.478-0.367,1.023-0.369,1.577c-1.224,3.864-2.458,7.725-3.989,11.482l0.021-0.018
		c-0.967,0.867-1.296,2.127-1.913,3.202c-1.961,3.42-4.653,6.265-7.117,9.29c-1.283,1.235-2.565,2.471-3.848,3.706
		c-0.317,0.161-0.681,0.268-0.945,0.493c-3.417,2.907-7.175,5.242-11.374,6.847c-6.292,2.017-12.706,2.72-19.263,1.729
		c-13.738-2.076-20.977-10.334-23.391-22.895c-2.994-15.584,4.501-33.236,21.184-41.493c5.782-2.862,11.786-3.665,17.979-1.074
		c2.112,0.883,3.757-0.424,3.743-2.629c-0.006-1.032-0.42-1.297-1.354-1.477c-4.643-0.895-8.963-2.609-12.966-5.163
		c-6.247-3.986-9.577-10.032-11.938-16.752c-0.487-1.387-0.953-1.931-2.635-1.704c-7.107,0.956-13.911-4.695-15.409-12.574
		c-1.249-6.572,2.283-12.809,8.274-14.617c1.157-0.349,2.359-0.439,3.636-0.526c-1.279-4.215-2.211-8.358-2.209-12.652
		c0.001-1.332,0.005-2.692,0.658-3.915c0.324-0.607,0.822-1.206,1.568-1.002c0.858,0.235,0.443,1.015,0.362,1.556
		c-0.61,4.053,0.244,7.935,1.57,11.806c0-0.736,0.025-1.474-0.004-2.209c-0.144-3.592,0.086-7.175,0.246-10.76
		c0.058-1.292,0.388-2.488,1.084-3.58l-0.022,0.033c1.303-0.356,1.816,0.051,1.512,1.443c-0.231,1.058-0.332,2.146-0.186,3.252
		c0.765-0.06,0.675-0.682,0.864-1.068c0.531-1.09,0.974-2.226,1.539-3.298c0.467-0.887,1.056-2.223,2.201-1.578
		c1.003,0.566-0.041,1.616-0.38,2.394c-2.271,5.207-3.586,10.599-4.328,16.274c-1.263,9.664,0.513,18.901,2.947,28.079
		c1.501,5.663,3.723,11.116,7.921,15.415c5.514,5.648,12.472,8.268,20.182,9.141c2.906,0.329,5.813,0.392,8.739,0.169
		c1.241-0.095,1.936-0.467,2.426-1.669c1.009-2.477,2.214-4.884,4.114-6.828c1.524-1.56,3.21-2.956,5.606-2.077
		c1.615,0.593,2.215,2.799,1.84,5.651c-0.154,1.177-1.164,2.879-0.482,3.359c0.983,0.692,2.508-0.313,3.738-0.747
		c19.565-6.9,31.917-20.015,35.157-40.943c0.046-0.3,0.081-0.604,0.089-0.906c0.007-0.24-0.035-0.482-0.059-0.759
		c-0.708-0.016-1.213,1.084-1.934,0.423c-0.574-0.527-0.179-1.264-0.1-1.903c0.411-3.29,0.248-6.575-0.349-9.81
		c-1.799-9.759-5.807-18.397-13.21-25.23c-0.725-0.669-1.151-1.278-0.408-2.148c0.789-0.924,1.562-0.679,2.339,0.056
		c5.08,4.804,8.889,10.439,11.177,17.071c0.348,1.01,0.715,2.013,1.087,3.058c0.538-0.314,0.476-0.696,0.407-1.016
		c-1.288-6.003-3.182-11.739-7.309-16.485c-1.084-1.246-2.25-2.401-3.706-3.204c-0.709-0.391-1.292-0.793-0.784-1.686
		c0.479-0.842,1.203-1.237,2.141-0.778c1.212,0.593,2.235,1.461,3.186,2.41c3.711,3.706,5.949,8.246,7.481,13.19
		c1.101,3.555,1.828,7.186,2.237,10.878c0,1.028,0,2.061,0,3.462c0.692-1.221,0.784-2.153,0.709-3.117
		c0.921-8.303-0.54-15.99-5.851-22.687c-1.101-1.389-2.335-2.637-3.729-3.734c-0.835-0.658-2.067-1.25-0.929-2.574
		c1.093-1.271,1.964-0.238,2.777,0.436c5.908,4.896,9.125,11.252,10.109,18.798c0.548,4.199,0.137,8.37-0.404,12.536
		c-0.007,0.145-0.016,0.291-0.024,0.436C158.619,73.083,158.755,73.052,158.891,73.021z M156.554,83.456
		c1.428-1.108,2.715-2.421,4.453-3.083c0.411-0.157,0.841-0.305,1.183,0.075c0.403,0.449,0.176,0.905-0.105,1.325
		c-0.352,0.527-0.899,0.8-1.432,1.093c-1.242,0.683-2.202,1.678-3.171,2.701c-1.214,1.282-0.947,1.825,0.714,2.04
		c0.532,0.069,1.036,0.339,1.558,0.501c0.738,0.229,1.481,0.509,1.142,1.485c-0.315,0.907-1.005,1.357-2.004,1.105
		c-0.47-0.119-0.923-0.301-1.386-0.449c-2.264-0.722-2.251-0.717-2.832,1.504c-0.291,1.115-0.628,2.219-0.965,3.321
		c-1.003,3.275-0.603,3.847,2.915,4.098c0.853,0.061,1.698-0.002,2.527-0.245c5.512-1.614,8.396-5.712,10.112-10.836
		c0.889-2.656,0.963-5.375-0.088-8.041c-2.041-5.18-8.049-7.749-12.754-2.62c-1.018,1.11-3.148,2.04-2.225,4.332
		c0.634-0.267,1.028-1.276,1.84-0.881c0.86,0.417,0.359,1.28,0.354,1.971c-0.001,0.215,0.123,0.43,0.189,0.643
		c-0.084-0.005-0.169-0.01-0.253-0.015c0,0.055-0.001,0.109-0.001,0.164C156.401,83.582,156.478,83.519,156.554,83.456z
		 M87.724,174.81c0.355-0.242,0.71-0.485,1.065-0.727c1.194-0.476,2.098-1.317,2.887-2.301c0.335-0.342,0.669-0.685,1.004-1.027
		c1.318-1.239,2.376-2.661,3.055-4.349c0.484-0.533,0.878-1.114,1-1.843c1.001-1.035,0.949-2.075,0.148-3.235
		c-1.067-1.547-2.038-3.16-3.054-4.742c-2.161-3.364-3.9-6.874-3.692-11.025c0.033-0.659-0.211-0.951-0.818-1.19
		c-2.036-0.801-3.247-2.288-3.432-4.509c-0.061-0.733-0.326-1.227-1.046-1.529c-3.666-1.538-7.411-2.176-11.372-1.341
		c-5.266,1.11-9.704,3.713-13.616,7.312c-5.169,4.756-8.929,10.356-10.327,17.358c-0.196,0.586-0.392,1.173-0.588,1.759
		c-0.72,3.709-1.177,7.425-0.489,11.46c1.639-1.542,2.87-3.05,4.458-4.163c1.645-1.154,3.42-2.046,5.32-2.711
		c3.251-1.138,6.625-1.316,10.021-1.358c2.693,0.232,2.973,0.031,3.467-2.482c0.73-1.582,1.46-3.164,2.19-4.746
		c0.283-0.359,0.565-0.717,0.848-1.076c0.233-0.188,0.461-0.384,0.701-0.563c0.701-0.524,1.517-1.508,2.303-0.584
		c0.703,0.826-0.333,1.491-0.933,2.043c-1.386,1.277-2.174,2.908-2.705,4.657c-1.272,4.194,0.077,8.552,3.309,10.913
		C80.657,177.168,84.15,177.167,87.724,174.81z M100.396,136.16c-5.952,1.609-8.925,6.661-7.468,12.254
		c0.559,2.146,1.608,4.06,2.772,5.921c1.257,2.009,2.509,4.021,3.785,6.017c0.563,0.881,0.766,1.793,0.327,2.765
		c-2.709,6-6.335,11.232-12.381,14.333c-7.112,3.648-13.573,0.903-15.875-6.762c-0.291-0.968-0.74-1.17-1.627-1.267
		c-2.8-0.308-5.584-0.288-8.365,0.139c-4.775,0.733-8.73,2.877-11.624,6.818c-0.537,0.731-1.162,1.456-0.855,2.473
		c1.87,6.181,4.587,11.853,10.265,15.451c8.715,5.523,18.319,6.188,27.738,3.067c14.461-4.792,23.356-15.375,27.803-29.807
		c0.375-1.217,1.221-2.66,0.872-3.655c-0.782-2.224,0.875-2.919,1.866-4.078c3.931-4.598,6.313-9.768,5.997-15.96
		c-0.088-1.736-0.463-3.375-1.548-4.779c-0.661-0.856-1.483-1.479-2.638-1.318c-1.247,0.173-0.621,1.244-0.838,1.907
		c-0.263,0.801-0.665,1.548-1.584,1.509c-1.003-0.043-0.677-0.954-0.754-1.564c-0.045-0.361-0.045-0.728-0.076-1.091
		c-0.115-1.356-0.512-2.616-2.023-2.882c-1.464-0.257-2.368,0.545-2.837,1.956c-0.255,0.767-0.85,1.566-1.734,1.206
		c-0.92-0.373-0.371-1.262-0.176-1.924c1.027-3.494,2.095-6.977,3.104-10.476c0.32-1.109,0.52-2.26,0.237-3.421
		c-0.42-1.721-1.523-2.149-2.963-1.113c-1.161,0.835-1.92,2.018-2.588,3.255c-2.908,5.388-4.836,11.124-6.011,17.119
		c-0.19,0.97-0.502,1.856-1.541,2.011c-1.213,0.182-0.572-1.201-1.09-1.672c-0.358,0.14-0.632,0.264-0.917,0.356
		c-0.589,0.19-1.304,0.853-1.741-0.017c-0.386-0.767,0.23-1.36,0.839-1.816c0.193-0.145,0.402-0.326,0.625-0.364
		C99.919,140.31,99.82,138.174,100.396,136.16z M58.473,87.514c0-1.162-0.017-2.303,0.007-3.444c0.014-0.66-0.268-0.917-0.913-1.098
		c-3.681-1.035-7.833,0.89-9.444,4.365c-1.363,2.941-1.249,5.889-0.245,8.877c1.851,5.513,7.051,9.425,12.264,9.267
		c1.007-0.03,1.561-0.113,1.199-1.425c-0.613-2.223-1.034-4.503-1.451-6.774c-0.148-0.807-0.479-1.18-1.247-1.533
		c-2.112-0.97-4.013-0.587-5.901,0.512c-0.514,0.299-1.15,0.8-1.617,0.175c-0.471-0.632,0-1.29,0.517-1.744
		c0.451-0.396,0.972-0.725,1.496-1.024c1.342-0.767,2.86-0.941,4.412-1.147c-0.407-1.585-1.018-2.953-2.298-3.908
		c-0.817-0.61-0.875-1.269-0.242-2.004c0.622-0.721,1.308-0.732,2.089-0.178C57.58,86.774,57.84,87.409,58.473,87.514z
		 M101.677,132.297c-2.231,0-4.346,0.024-6.46-0.005c-3.622-0.051-3.641-0.064-3.568,3.697c0.012,0.597-0.395,1.434,0.43,1.762
		c0.823,0.328,1.553,0.147,2.276-0.559c1.71-1.671,3.742-2.901,6.092-3.432C101.374,133.55,101.586,133.035,101.677,132.297z
		 M91.569,140.449c-0.979-0.196-1.91-0.383-3.07-0.616c0.531,1.173,1.242,1.88,2.18,2.007
		C91.289,141.923,91.41,141.084,91.569,140.449z"/>
	<path class="st1" d="M165.573,19.434c2.009-7.877,6.707-13.447,14.192-16.683c1.525-0.659,2.801,0.045,4.169,0.387
		c-0.447,0.627-1.198,0.495-1.805,0.685c-6.361,1.989-11.495,5.447-14.251,11.782c-0.251,0.578-0.866,1.389-0.133,1.778
		c0.735,0.391,1.054-0.542,1.383-1.104c0.061-0.105,0.114-0.215,0.161-0.327c2.598-6.26,7.904-9.025,13.982-10.693
		c4.052-1.112,8.182-0.805,12.302-0.299c5.796,0.712,11.647,5.68,11.945,10.186c-0.272,2.825-0.308,5.678-0.961,8.46l0.025-0.036
		c-0.391,0.107-0.326,0.436-0.352,0.721c-1.129,2.865-2.858,5.312-5.281,7.209c-3.696,2.893-7.571,5.502-12.041,7.095
		c-2.48,0.884-4.021,2.605-4.627,5.197c-0.386,1.654-0.91,3.277-1.345,4.92c-0.21,0.792-0.575,1.297-1.501,1.243
		c-3.645-0.212-7.258-0.623-10.791-1.591c-0.978-0.268-1.243-0.812-0.825-1.765c0.83-1.891,1.777-3.754,2.37-5.721
		c0.967-3.208,2.698-4.992,6.141-6.093c5.398-1.727,9.748-5.257,11.5-11.052c1.072-3.546-1.103-5.761-4.687-5.013
		c-3.306,0.69-6.272,2.021-8.466,4.646c-1.144,1.369-2.074,1.337-3.513,0.408C170.718,22.194,168.112,20.867,165.573,19.434z
		 M189.038,33.426l-0.044-0.04l0.056,0.045c-0.082,0.757,0.796,1.172,0.682,1.958c-0.057,0.394,0.114,0.806,0.592,0.651
		c0.917-0.297,1.807-0.682,2.696-1.061c0.32-0.137,0.425-0.443,0.238-0.75c-0.119-0.195-0.32-0.459-0.502-0.474
		c-0.451-0.036-0.271,0.432-0.401,0.664c-0.64,1.142-1.393,1.257-2.268,0.259C189.728,34.267,189.387,33.842,189.038,33.426z
		 M196.077,28.991c0.643,1.006,1.899,1.307,1.987,2.76c0.807-0.7,1.413-1.183,1.971-1.717c1.683-1.61,1.57-2.031-0.711-2.729
		c-0.158-0.048-0.35,0.018-0.659,0.042c0.636,0.627,1.999,0.948,1.208,2.037C198.552,31.203,197.511,28.989,196.077,28.991z
		 M199.795,24.414c-0.053,0.094-0.106,0.188-0.159,0.282c0.821,0.473,1.649,0.934,2.461,1.423c0.551,0.331,0.947,0.157,1.158-0.375
		c0.309-0.779-0.388-0.745-0.802-0.839C201.574,24.706,200.681,24.574,199.795,24.414z M193.916,31.363
		c0.508,0.578,0.985,1.076,1.409,1.617c0.369,0.471,0.732,0.348,1.049,0.019c0.413-0.428-0.018-0.605-0.317-0.772
		C195.413,31.867,194.908,31.166,193.916,31.363z"/>
	<path class="st1" d="M118.55,162.751c-0.128-1.202,0.805-1.853,1.419-2.645c3.834-4.942,6.308-10.358,6.021-16.78
		c-0.054-1.219-0.042-2.453-0.512-3.59c-0.507-1.228,0.064-1.371,1.055-1.197c2.42,0.425,4.645,1.382,6.823,2.483
		c4.368,2.208,7.987,5.296,10.879,9.231c0.412,0.56,1.05,1.053,0.942,1.891c-0.897,0.009-1.989-0.478-2.214,1.051
		c-0.132,0.897-0.667,0.371-1.018,0.146c-0.503-0.322-0.898-0.823-1.54-0.91c-0.455-0.062-0.839,0.063-1.107,0.453
		c-0.231,0.336-0.28,0.699,0.063,0.968c1.378,1.079,2.762,2.15,4.167,3.192c0.445,0.33,0.926,0.268,1.269-0.207
		c0.334-0.462,0.274-0.881-0.164-1.275c-0.488-0.439-1.192-0.723-1.347-1.613c1.231,0.003,1.956,2.01,3.271,0.616
		c1.597,2.185,2.266,4.766,2.988,7.299c0.354,1.244-0.726,0.788-1.266,0.706c-4.487-0.686-8.922-0.427-13.324,0.633
		c-2.132,0.514-4.204,1.2-5.998,2.484c-0.876,0.627-1.257,0.455-1.429-0.524c-0.195-1.112-1.181-1.997-0.92-3.237
		c0.626-0.433,1.886-0.612,1.125-1.745c-0.623-0.928-1.554-1.661-2.403-2.42c-0.398-0.356-0.906-0.294-1.298,0.111
		c-0.508,0.525-0.259,0.96,0.177,1.387c0.467,0.458,1.035,0.835,1.263,1.497c-0.763,0.178-1.315,0.666-1.819,1.227
		c-0.44-0.408-0.872-0.825-1.322-1.22c-0.367-0.321-0.765-0.334-1.138-0.006c-0.355,0.312-0.545,0.769-0.21,1.114
		c1.149,1.18,1.908,2.795,3.635,3.347c1.275,2.996,2.118,6.098,2.311,9.359c-0.593-0.36-1.121-0.38-1.493,0.306
		c-0.255,0.47-0.134,0.91,0.131,1.34c0.426,0.689,0.964,0.818,1.637,0.362c1.015,5.758,0.358,11.482-0.385,17.199
		c-0.089,0.688-0.191,1.314,0.255,1.901c-0.854,0.79-2.062,1.146-2.45,2.514c-0.218,0.769-1.253,0.851-2.054,0.915
		c-1.754,0.139-3.51,0.251-5.262,0.411c-0.606,0.055-1.674-0.274-1.013,1.089c0.253,0.522-0.202,0.985-0.704,1.069
		c-1.087,0.182-2.404,0.326-3.137-0.46c-1.187-1.272-2.493-0.976-3.831-0.8c-2.706,0.358-5.381,1.001-8.136,0.895
		c-0.963-0.037-1.854-0.085-2.569-1.029c-0.674-0.89-1.811-0.407-2.727-0.286c-1.622,0.214-3.213,0.66-4.875,0.565
		c-0.81-0.046-1.493-0.169-1.302-1.24c4.199-1.604,7.957-3.94,11.374-6.847c0.264-0.224,0.628-0.331,0.942-0.49
		c-0.049,0.459-0.52,0.996-0.031,1.347c0.457,0.328,0.938-0.057,1.26-0.421c0.92-1.043,1.818-2.105,2.697-3.182
		c0.389-0.477,0.417-0.992-0.075-1.452c2.465-3.025,5.156-5.869,7.117-9.29c0.617-1.075,0.945-2.334,1.913-3.202
		c-0.157,1.36,0.715,2.228,1.501,3.135c0.298,0.344,0.644,0.568,1.096,0.252c0.371-0.26,0.574-0.585,0.471-1.075
		c-0.241-1.143-1.923-2.406-3.089-2.293c1.531-3.758,2.765-7.618,3.989-11.48c0.66,0.612,1.305,1.24,1.985,1.826
		c0.358,0.308,0.793,0.293,1.158-0.009c0.291-0.24,0.536-0.66,0.272-0.945C120.706,164.241,120.225,162.74,118.55,162.751z
		 M129.896,145.517c-0.489-0.356,0.262-1.165-0.464-1.384c-0.701-0.211-1.085,0.371-1.485,0.8c-0.327,0.35-0.63,0.73-0.89,1.132
		c-0.286,0.443-0.738,1.018-0.189,1.437c0.585,0.447,0.907-0.234,1.282-0.597c0.542-0.524,0.639-1.618,1.766-1.409
		c-0.121,0.458-0.264,0.912-0.356,1.376c-0.099,0.5-0.498,1.165,0.187,1.431c0.645,0.25,0.907-0.426,1.135-0.902
		c0.597-1.246,1.162-2.507,1.741-3.762c0.179-0.388,0.418-0.863-0.037-1.127c-0.418-0.243-0.825,0.118-1.064,0.464
		C130.952,143.803,130.435,144.667,129.896,145.517z M121.134,176.524c1.112,0.32,1.457,1.461,2.259,2.119
		c0.47,0.385,0.891,0.658,1.418,0.16c0.434-0.41,0.382-0.857,0.026-1.288c-0.77-0.934-1.517-1.889-2.332-2.783
		c-0.631-0.693-1.122-0.258-1.334,0.393c-0.141,0.431-0.018,0.947-0.013,1.425c-0.788-0.105-0.953-0.825-1.308-1.347
		c-0.308-0.453-0.535-1.026-1.235-0.563c-0.534,0.354-0.685,0.872-0.364,1.408c0.523,0.874,1.104,1.715,1.695,2.545
		c0.236,0.331,0.595,0.364,0.963,0.153c0.34-0.195,0.527-0.472,0.544-0.868C121.472,177.395,120.908,177.052,121.134,176.524z
		 M136.63,153.027c-0.529-0.015-0.86,0.214-1.08,0.611c-0.269,0.486,0.019,0.771,0.373,1.056c0.937,0.755,1.82,1.585,2.803,2.274
		c0.74,0.518,1.432,2.117,2.448,0.963c1.112-1.264-0.657-1.779-1.312-2.412C138.88,154.571,137.856,153.607,136.63,153.027z
		 M132.99,153.919c-0.617-0.045-0.963,0.185-1.157,0.6c-0.177,0.379-0.015,0.701,0.287,0.965c1.324,1.16,2.645,2.324,3.97,3.483
		c0.515,0.451,1.012,0.37,1.424-0.127c0.381-0.459,0.257-0.9-0.168-1.277c-1.18-1.049-2.353-2.107-3.547-3.141
		C133.533,154.193,133.195,154.045,132.99,153.919z M131.96,159.776c0.576,0.042,0.899-0.089,1.102-0.433
		c0.257-0.436,0.141-0.846-0.233-1.123c-1.162-0.861-2.329-1.718-3.532-2.52c-0.667-0.444-1.32-0.218-1.72,0.423
		c-0.556,0.892,0.338,0.904,0.797,1.206c0.755,0.497,1.466,1.061,2.21,1.575C131.074,159.243,131.591,159.544,131.96,159.776z
		 M117.395,186.753c-0.132,0.046-0.267,0.058-0.356,0.128c-1.612,1.274-2.659,2.966-3.486,4.807
		c-0.122,0.273-0.071,0.618,0.26,0.779c0.327,0.158,0.63-0.014,0.803-0.253c1.095-1.52,2.186-3.045,3.224-4.604
		C118.095,187.225,118.045,186.765,117.395,186.753z M119.276,191.068c0.139-0.12,0.452-0.267,0.568-0.51
		c0.755-1.58,1.251-3.285,2.348-4.699c0.188-0.242,0.137-0.634-0.152-0.811c-0.281-0.172-0.593-0.019-0.826,0.192
		c-1.511,1.372-2.101,3.225-2.619,5.104C118.496,190.702,118.602,191.092,119.276,191.068z M109.751,193.293
		c0.138-0.067,0.354-0.103,0.448-0.23c1.071-1.449,2.134-2.905,3.169-4.38c0.177-0.252,0.135-0.608-0.197-0.765
		c-0.303-0.144-0.6,0.001-0.822,0.215c-1.274,1.223-2.224,2.684-3.048,4.229C109.077,192.782,109.103,193.192,109.751,193.293z
		 M125.861,185.154c0.166-0.583,0.122-0.815-0.144-0.916c-0.395-0.149-0.706,0.068-0.967,0.32c-1.223,1.179-1.635,2.769-2.128,4.309
		c-0.089,0.279-0.038,0.617,0.318,0.74c0.325,0.113,0.622-0.03,0.788-0.287C124.64,187.91,124.832,186.137,125.861,185.154z
		 M109.251,189.372c-0.009-0.353-0.097-0.636-0.356-0.633c-0.27,0.003-0.603,0.109-0.797,0.29c-1.102,1.03-2.053,2.19-2.755,3.534
		c-0.189,0.362-0.443,0.818,0.072,1.095c0.446,0.24,0.797-0.073,1.065-0.425c0.835-1.097,1.667-2.197,2.488-3.305
		C109.106,189.742,109.183,189.509,109.251,189.372z M133.789,146.97c1.082-0.385,1.161-1.712,1.983-2.4
		c0.278-0.233,0.45-0.619,0.257-0.983c-0.169-0.318-0.513-0.308-0.787-0.129c-1.054,0.686-1.788,1.616-2.029,2.872
		C133.15,146.658,133.334,146.904,133.789,146.97z"/>
	<path class="st1" d="M25.063,21.727c0.284-0.707,0.708-1.296,1.4-1.656c0.576,0.296,1.189,0.159,1.792,0.163
		c2.689,0.016,5.324,0.447,7.904,1.171c1.101,0.309,2.166,0.883,1.705,2.312c-1.156,3.582-2.378,7.143-3.619,10.697
		c-0.258,0.738-0.664,1.085-1.708,1.169c-3.591,0.287-7.058,1.213-9.991,3.484c-3.683,2.851-4.153,7.402-1.11,10.415
		c0.229,1.475,1.296,1.802,2.518,1.664c0.798-0.09,1.564-0.469,2.344-0.719c2.284-0.56,4.419-1.474,5.993-3.255
		c1.074-1.216,2.052-0.894,3.125-0.216c1.456,0.92,2.599,2.195,3.726,3.469c2.436,2.754,2.582,3.676,0.03,6.313
		c-2.842,2.937-5.583,6.285-10.341,6.072c-0.064-0.003-0.099,0.368-0.22,0.437c-4.332,2.475-8.855,3.026-13.594,1.315
		c0.771-0.416,0.556-1.209,0.555-2.001c-0.459,0.583-0.918,1.165-1.377,1.748c-9.954-4.049-13.619-10.84-8.452-19.971
		c1.009,0.167,1.923,0.815,3.144,0.631c-0.658-0.971-1.669-1.254-2.48-1.802c0.506-1.706,2.24-2.439,3.077-3.884
		c0.771,0.337,1.543,0.675,2.397,1.048c0.196-1.032-1.067-1.459-0.756-2.381c0.41-0.382,0.793-0.805,1.387-0.904
		c1.011,0.774,2.023,1.549,3.034,2.323c0.042-0.055,0.083-0.111,0.125-0.166c-0.687-0.961-1.374-1.923-2.061-2.884
		c0.525-0.616,1.173-1.051,1.939-1.312c0.518,0.694,1.035,1.387,1.551,2.081c-0.732-2.093-0.397-2.585,1.721-2.365
		c0.43,0.045,0.19-0.218,0.234-0.292c0.675-1.141-0.726-0.464-0.834-0.938c0.044-0.871,0.872-0.894,1.383-1.215
		c1.703-1.07,3.317-2.253,4.018-4.21C24.353,26.024,25.687,24.088,25.063,21.727z"/>
	<path class="st0" d="M122.001,66.126c-1.631-1.021-3.296-1.929-4.368-3.547c-0.508-0.767-1.009-1.558-0.788-2.532
		c0.155-0.684,0.574-1.244,1.285-1.409c0.899-0.209,0.898,0.586,1.106,1.119c0.51,1.306,1.481,2.226,2.623,2.945
		c2.951,1.86,6.12,2.939,9.676,2.503c0.52-0.064,1.133-0.352,1.522,0.195c0.381,0.535,0.1,1.083-0.316,1.467
		c-0.81,0.75-0.099,0.944,0.393,1.269c6.588,4.359,7.819,12.136,2.936,18.504c-4.737,6.179-13.85,7.25-19.398,2.259
		c-3.503-3.152-4.624-7.068-3.369-11.569C114.66,72.471,117.396,68.599,122.001,66.126z M120.208,69.967
		c-4.426,2.867-6.306,10.021-3.759,14.304c2.911,4.896,9.874,6.744,14.877,3.949c4.052-2.263,6.481-8.112,4.757-11.455
		c-2.285,3.255-5.104,4.382-8.587,3.436C122.988,78.976,120.745,75.825,120.208,69.967z"/>
	<path class="st0" d="M21.436,49.48c-3.043-3.013-2.573-7.564,1.11-10.415c2.933-2.271,6.4-3.197,9.991-3.484
		c1.044-0.083,1.45-0.43,1.708-1.169c1.241-3.554,2.463-7.115,3.619-10.697c0.461-1.429-0.604-2.003-1.705-2.312
		c-2.58-0.724-5.215-1.155-7.904-1.171c-0.604-0.004-1.217,0.133-1.792-0.163c0.264-1.142,1.063-1.543,2.142-1.551
		c2.922-0.021,5.794,0.357,8.577,1.244c1.019,0.325,2.094,0.745,2.245,2.078c-0.021,0.225,0.062,0.344,0.306,0.299
		c0,0-0.027-0.013-0.027-0.013c-0.171,0.819-0.265,1.664-0.525,2.454c-1.255,3.812-2.556,7.608-3.84,11.41
		c0,0,0.012-0.012,0.012-0.012c-0.263-0.005-0.367,0.142-0.368,0.386c0,0,0.017-0.018,0.017-0.018
		c-0.259,0.025-0.39,0.183-0.441,0.424c-0.319,0.206-0.639,0.413-0.959,0.62c-3.566,0.084-7.023,0.588-10.023,2.726
		c-2.059,1.467-2.742,3.242-2.173,5.453c0.367,2.16,1.849,3.381,4.082,3.21c2.881-0.22,5.314-1.425,6.899-3.876
		c0.989-1.529,2.032-1.519,3.345-0.653c1.623,1.071,3.256,2.13,4.833,3.266c2.69,1.936,3.281,5.177,1.395,7.955
		c-0.987,1.454-2.165,2.778-3.257,4.161c-0.264,0.037-0.446,0.153-0.443,0.451c0,0,0.013-0.015,0.013-0.015
		c-0.261-0.003-0.394,0.116-0.371,0.386c0,0,0.014-0.014,0.014-0.014c-0.272-0.017-0.413,0.093-0.375,0.381l0.012-0.011
		c-1.751,1.032-3.492,2.084-5.256,3.093c-2.591,1.481-5.529,2.047-8.285,3.095c0,0,0.035-0.006,0.035-0.006
		c-0.812-0.122-1.604-0.105-2.337,0.33c-3.639,0.294-7.136-0.305-10.526-1.633C3.214,62.568-0.324,55.059,2.318,46.898
		c1.609-4.971,4.916-8.592,9.139-11.453c1.806-1.223,3.653-2.439,5.62-3.362c3.642-1.709,5.856-4.386,6.502-8.37
		c0.143-0.883,0.265-1.869,1.485-1.986c0.623,2.362-0.71,4.297-1.443,6.341c-0.701,1.956-2.315,3.139-4.018,4.21
		c-0.511,0.321-1.338,0.344-1.382,1.215c0,0-0.012-0.04-0.012-0.04c-0.443-0.173-0.704,0.053-0.904,0.412
		c-0.586,0.38-1.171,0.761-1.757,1.141c-0.766,0.26-1.414,0.695-1.937,1.312c-0.456,0.105-0.827,0.342-1.1,0.727
		c-0.594,0.099-0.977,0.522-1.387,0.904c-0.547,0.444-1.094,0.888-1.641,1.332c-0.836,1.444-2.571,2.178-3.076,3.884
		c-0.351,0.316-0.6,0.692-0.665,1.171c-5.166,9.131-1.501,15.922,8.451,19.97c0.274,0.084,0.549,0.169,0.824,0.254
		c4.739,1.711,9.262,1.161,13.594-1.315c0.121-0.069,0.156-0.44,0.22-0.437c4.758,0.213,7.499-3.135,10.341-6.072
		c2.551-2.637,2.406-3.558-0.03-6.313c-1.127-1.274-2.27-2.549-3.726-3.469c-1.073-0.678-2.051-1-3.125,0.216
		c-1.574,1.782-3.709,2.695-5.991,3.255C24.57,50.676,22.925,50.481,21.436,49.48z"/>
	<path class="st0" d="M165.573,19.434c2.538,1.433,5.145,2.761,7.589,4.34c1.439,0.93,2.369,0.961,3.513-0.408
		c2.193-2.625,5.16-3.956,8.466-4.646c3.584-0.748,5.758,1.467,4.687,5.013c-1.752,5.796-6.102,9.325-11.5,11.052
		c-3.442,1.101-5.174,2.885-6.141,6.093c-0.593,1.967-1.54,3.83-2.37,5.721c-0.418,0.953-0.153,1.497,0.825,1.765
		c3.533,0.969,7.146,1.379,10.791,1.591c0.926,0.054,1.291-0.451,1.501-1.243c0.435-1.644,0.959-3.266,1.345-4.92
		c0.605-2.592,2.147-4.313,4.627-5.197c4.47-1.594,8.345-4.202,12.041-7.095c2.422-1.896,4.152-4.343,5.281-7.209
		c0.338-0.132,0.355-0.421,0.352-0.721l-0.025,0.036c1.419-2.695,1.766-5.512,0.961-8.46c-0.298-4.505-6.149-9.474-11.945-10.186
		c-4.12-0.506-8.25-0.813-12.302,0.299c-6.079,1.668-11.384,4.433-13.982,10.693c-0.046,0.112-0.1,0.222-0.161,0.327
		c-0.329,0.561-0.648,1.494-1.383,1.104c-0.733-0.39-0.118-1.2,0.133-1.778c2.756-6.335,7.89-9.793,14.251-11.782
		c0.608-0.19,1.358-0.058,1.805-0.685c0,0-0.02,0.003-0.02,0.003c2.586-0.145,5.172-0.289,7.758-0.434
		c2.073,0.065,4.114,0.371,6.128,0.845c9.539,2.247,14.134,11.227,10.358,20.283c-1.523,3.651-3.772,6.801-6.924,9.224
		c-3.667,2.819-7.469,5.446-11.895,6.964c-1.969,0.675-3.113,1.938-3.576,3.966c-0.418,1.831-0.941,3.644-1.528,5.428
		c-0.561,1.706-1.736,2.458-3.631,2.289c-3.576-0.318-7.146-0.629-10.612-1.613c-2.332-0.662-2.612-1.321-1.712-3.562
		c1.447-3.604,2.885-7.211,4.328-10.817c0.239-0.068,0.362-0.225,0.365-0.474c0,0-0.019,0.023-0.019,0.023
		c0.236-0.028,0.365-0.154,0.368-0.398c0,0-0.015,0.014-0.015,0.014c0.232-0.015,0.404-0.093,0.385-0.37c0,0-0.01,0.006-0.01,0.006
		c2.481-0.332,4.867-1.034,7.021-2.288c2.746-1.599,5.248-3.559,6.778-6.427c0.808-1.516,1.696-3.18,0.189-4.855
		c-0.74-0.942-1.729-0.703-2.686-0.546c-3.393,0.557-6.094,2.294-8.308,4.874c-1.48,1.725-2.004,1.729-4.018,0.591
		c-2.845-1.608-5.383-3.763-8.563-4.783c-0.984-0.316-0.579-0.895-0.094-1.354C164.442,19.314,165.036,19.467,165.573,19.434z"/>
	<path class="st0" d="M69.398,87.847c0.09-7.51,6.209-14.614,12.503-14.515c7.846,0.124,13.694,5.257,13.651,11.983
		c-0.049,7.749-6.325,14.129-13.811,14.041C74.799,99.275,69.322,94.168,69.398,87.847z M93.048,86.366
		c-2.915,2.13-4.942,2.257-8.403,0.428c-4.249-2.245-6.304-5.72-5.561-10.622C75.2,76.834,71.26,83.292,71.8,87.968
		c0.611,5.287,5.672,9.144,11.566,8.814C88.995,96.468,93.016,92.21,93.048,86.366z"/>
	<path class="st0" d="M128.207,42.851c-0.003,0.641-0.046,1.183-0.447,1.621c-0.339,0.37-0.731,0.713-1.258,0.578
		c-0.465-0.12-0.59-0.574-0.654-1.008c-0.8-5.436-4.43-7.779-9.426-8.654c-6.344-1.111-12.717-0.802-19.099-0.497
		c-6.771,0.323-13.17-1.131-19.119-4.407c-2.202-1.213-4.094-2.833-5.677-4.799c-0.586-0.727-0.873-1.499-0.189-2.302
		c0.582-0.684,1.202-1.007,1.935-0.094c5.374,6.686,12.926,8.454,20.911,9.082c2.348,0.185,4.738-0.07,7.104-0.203
		c5.548-0.311,11.075-0.166,16.52,0.989c4.784,1.015,8.118,3.72,9.238,8.698C128.124,42.21,128.163,42.574,128.207,42.851z"/>
	<path class="st0" d="M102.203,45.737c-5.953,0.038-11.443-1.454-16.762-3.66c-3.67-1.523-7.4-2.873-11.401-2.99
		c-4.406-0.128-8.741,0.302-12.47,3.063c-0.394,0.292-0.865,0.634-1.32,0.265c-0.538-0.436-0.273-1.031,0.017-1.49
		c0.93-1.468,2.409-2.175,3.974-2.738c6.903-2.482,13.722-2.125,20.468,0.619c2.984,1.214,5.975,2.401,9.107,3.203
		c6.258,1.603,12.502,1.643,18.744-0.073c1.054-0.29,2.107-0.588,3.173-0.828c0.498-0.112,1.14-0.393,1.406,0.347
		c0.209,0.579-0.088,1.09-0.534,1.448c-0.324,0.26-0.71,0.491-1.106,0.604C111.107,44.756,106.696,45.907,102.203,45.737z"/>
	<path class="st0" d="M92.622,13.174c0.026-0.96,0.456-1.593,1.285-1.871c0.732-0.245,0.892,0.318,1.094,0.869
		c3.181,8.703,9.616,13.451,18.523,15.139c3.712,0.703,7.482,0.887,11.248,1.061c2.149,0.099,4.222,0.515,6.186,1.4
		c2.661,1.198,3.98,3.474,4.77,6.121c0.284,0.953-0.174,1.708-1.101,2.014c-1.064,0.352-1.187-0.591-1.401-1.242
		c-1.124-3.418-3.652-5.085-7.05-5.474c-4.043-0.462-8.123-0.612-12.156-1.135c-9.013-1.17-16.01-5.437-20.254-13.705
		C93.238,15.327,92.735,14.282,92.622,13.174z"/>
	<path class="st0" d="M99.43,11.977c0.413-0.022,0.681,0.226,0.914,0.514c4.457,5.527,10.812,7.386,17.319,8.912
		c3.37,0.79,6.819,1.213,10.155,2.186c6.205,1.809,10.442,5.752,12.899,11.683c0.26,0.628,0.537,1.237,0.153,1.91
		c-0.288,0.504-0.708,0.883-1.289,0.897c-0.564,0.013-0.813-0.458-0.998-0.928c-0.535-1.362-1.206-2.647-2.006-3.878
		c-2.99-4.602-7.468-6.793-12.634-7.898c-4.454-0.953-8.984-1.565-13.316-3.06c-4.539-1.566-8.785-3.582-11.933-7.39
		c-0.491-0.594-0.885-1.185-0.513-1.973C98.428,12.428,98.863,12.109,99.43,11.977z"/>
	<path class="st0" d="M99.675,49.987c0.033,1.138-1.226,1.796-2.585,1.273c-3.194-1.229-6.494-2.012-9.864-2.571
		c-7.609-1.261-15.028-0.074-22.412,1.642c-4.137,0.962-8.356,1.633-12.249,3.466c-0.438,0.206-0.999,0.418-1.349-0.045
		c-0.395-0.522-0.08-1.08,0.315-1.472c0.38-0.378,0.824-0.786,1.316-0.944c14.071-4.52,28.217-8.196,43.026-3.409
		c0.983,0.318,1.953,0.675,2.919,1.042C99.252,49.144,99.692,49.379,99.675,49.987z"/>
	<path class="st0" d="M144.618,33.543c-0.042,1.409-0.033,2.583-0.831,3.54c-0.353,0.424-0.798,0.838-1.402,0.573
		c-0.568-0.248-0.433-0.807-0.36-1.284c0.711-4.641-1.379-7.926-5.221-10.129c-2.891-1.658-5.953-3.03-8.983-4.432
		c-4.662-2.157-7.804-5.677-9.665-10.414c-0.225-0.573-0.505-1.132-0.265-1.75c0.231-0.595,0.644-1.042,1.32-1.109
		c0.615-0.062,0.857,0.408,1.015,0.872c2.115,6.197,6.958,9.386,12.68,11.709c2.129,0.864,4.181,1.976,6.142,3.18
		C142.552,26.45,144.395,29.668,144.618,33.543z"/>
	<path class="st0" d="M35.454,3.374c3.568-0.019,7.082,3.43,7.092,6.96c0.008,2.797-2.663,5.934-4.919,6.119
		c-2.344,0.192-4.644,0.825-6.568-1.25c-1.186-1.279-1.701-2.724-1.81-4.422C29.051,7.703,32.057,3.003,35.454,3.374z M32.434,6.75
		c-0.475-0.285-0.569,0.091-0.7,0.403c-1.79,3.785-0.035,6.988,4.005,7.209c2.01,0.11,3.71-0.716,4.791-2.391
		c0.932-1.442,0.013-2.802-0.687-4.066c-0.644-1.162-1.766-1.795-2.927-2.347c-2.481-0.904-3.419-0.651-4.52,1.221L32.434,6.75z"/>
	<path class="st0" d="M99.644,30.787c-6.952-1.445-13.725-3.88-18.581-9.954c-0.736-0.921-0.689-1.807,0.28-2.522
		c0.953-0.703,1.382,0.094,1.886,0.717c4.201,5.207,10.014,7.502,16.274,8.981c0.295,0.07,0.609,0.074,0.895,0.166
		c0.633,0.205,1.595-0.015,1.576,1.099C101.96,30.08,101.014,30.777,99.644,30.787z"/>
	<path class="st0" d="M98.815,94.885c0.477-4.358,0.951-8.709,1.43-13.059c0.111-1.006,0.594-1.931,1.645-1.823
		c1.146,0.118,0.723,1.242,0.651,1.947c-0.357,3.508-0.786,7.008-1.18,10.511c-0.075,0.664-0.132,1.332-0.143,1.999
		c-0.008,0.481-0.008,1.055,0.534,1.248c0.429,0.153,0.816-0.188,1.119-0.475c0.969-0.918,1.895-1.882,2.873-2.791
		c0.435-0.404,0.987-0.926,1.586-0.412c0.61,0.524,0.171,1.169-0.189,1.624c-1.097,1.383-2.291,2.69-3.755,3.698
		c-1.001,0.689-2.077,1.457-3.35,0.749C98.78,97.406,98.818,96.112,98.815,94.885z"/>
	<path class="st0" d="M178.103,62.314c-1.512,1.732-3.406,2.464-5.678,2.077c-2.43-0.414-4.328-2.03-4.587-4.085
		c-0.318-2.518,0.561-4.664,2.519-6.303c0.933-0.781,2.064-0.541,3.152-0.416c0.098,0.605,0.216,1.021,0.999,1.257
		c3.73,1.123,4.548,2.41,4.299,6.341l0.012-0.015c-0.428,0.085-0.478,0.372-0.393,0.732c0,0,0.013-0.013,0.013-0.013
		C178.149,61.891,178.067,62.056,178.103,62.314z M174.33,62.572c1.532-0.118,2.519-0.86,2.878-2.22
		c0.34-1.283-0.465-2.119-1.373-2.917c-0.944-0.829-2.595-0.436-3.175-2.034c-0.144-0.396-1.661-0.451-2.012,0.388
		c-0.571,1.366-1.348,2.799-0.424,4.372C171.179,61.783,172.7,62.346,174.33,62.572z"/>
	<path class="st0" d="M60.15,59.397c-1.347-0.452-2.01,0.854-3.051,1.195c-0.84,0.275-1.758,1.637-2.48,0.537
		c-0.689-1.05,0.573-1.792,1.445-2.31c5.618-3.337,11.519-5.93,18.089-6.698c0.539-0.063,1.095-0.061,1.635-0.007
		c0.718,0.072,1.826-0.273,1.807,0.919c-0.017,1.034-0.846,1.612-1.883,1.566c-5.213-0.229-9.834,1.784-14.45,3.791
		c-0.424,0.184-1.333,0.077-1.133,1.037C60.128,59.43,60.15,59.397,60.15,59.397z"/>
	<path class="st0" d="M109.856,103.513c1.766,0.839,2.775-0.056,3.43-1.865c0.234-0.647,0.913-1.368,1.71-0.948
		c0.768,0.404,0.281,1.17,0.034,1.769c-0.95,2.303-1.669,4.565,0.107,6.865c0.583,0.755,0.115,1.527-0.604,2.019
		c-0.837,0.572-1.34-0.013-1.795-0.627c-0.63-0.852-1.048-1.822-1.041-2.865c0.008-1.111-0.588-1.471-1.512-1.651
		c-2.045-0.398-3.839,0.008-5.33,1.541c-0.493,0.507-1.118,1.332-1.812,0.761c-0.784-0.645-0.087-1.453,0.391-2.055
		C105.018,104.465,107.195,103.699,109.856,103.513z"/>
	<path class="st0" d="M87.751,61.012c-5.43-1.126-9.643,0.553-12.476,5.428c-0.091,0.156-0.199,0.309-0.326,0.436
		c-0.434,0.434-0.934,0.957-1.564,0.568c-0.712-0.439-0.294-1.123-0.012-1.617c2.275-3.99,5.474-6.748,10.144-7.545
		c1.58-0.269,3.144-0.27,4.702,0.068c0.76,0.165,1.722,0.31,1.463,1.427C89.467,60.697,88.76,61.165,87.751,61.012z"/>
	<path class="st1" d="M187.67,20.947c1.507,1.675,0.619,3.339-0.189,4.855c-1.529,2.868-4.032,4.828-6.778,6.427
		c-2.153,1.254-4.54,1.956-7.021,2.288c0.602-1.614,2.099-2.057,3.491-2.537c2.366-0.817,4.634-1.797,6.664-3.281
		C186.459,26.779,187.993,24.322,187.67,20.947z"/>
	<path class="st1" d="M21.405,45.571c-0.569-2.211,0.114-3.986,2.173-5.453c3-2.137,6.457-2.642,10.023-2.726
		c-1.556,1.134-3.508,1.277-5.21,2.084C25.465,40.865,22.883,42.562,21.405,45.571z"/>
	<path class="st1" d="M24.01,66.999c2.756-1.047,5.694-1.614,8.285-3.095c1.765-1.009,3.505-2.06,5.256-3.093
		c-2.59,3.806-6.405,5.765-10.685,6.934C25.9,68.009,25.123,66.681,24.01,66.999z"/>
	<path class="st1" d="M35.34,35.992c1.284-3.802,2.584-7.599,3.84-11.41c0.26-0.79,0.355-1.634,0.525-2.454
		c1.134,0.277,1.2,1.293,0.977,2.015c-1.212,3.921-2.235,7.933-4.621,11.38C35.889,35.772,35.689,36.003,35.34,35.992z"/>
	<path class="st1" d="M178.805,61.184c0.249-3.931-0.569-5.217-4.299-6.341c-0.783-0.236-0.902-0.652-0.999-1.257
		c1.925-0.35,3.649,0.023,5.153,1.342C180.478,56.522,180.566,59.597,178.805,61.184z"/>
	<path class="st1" d="M191.672,2.706c-2.586,0.145-5.172,0.289-7.758,0.434C186.449,2.084,189.052,2.24,191.672,2.706z"/>
	<path class="st1" d="M156.533,69.904c0.075,0.965-0.017,1.897-0.709,3.117c0-1.401,0-2.433,0-3.462
		C156.06,69.677,156.296,69.791,156.533,69.904z"/>
	<path class="st1" d="M21.708,67.322c0.733-0.435,1.525-0.452,2.337-0.33C23.315,67.449,22.514,67.407,21.708,67.322z"/>
	<path class="st1" d="M178.424,61.902c-0.085-0.36-0.036-0.648,0.393-0.732C178.873,61.514,178.855,61.818,178.424,61.902z"/>
	<path class="st1" d="M39.733,22.141c-0.244,0.045-0.328-0.074-0.306-0.299C39.529,21.942,39.631,22.042,39.733,22.141z"/>
	<path class="st1" d="M178.103,62.314c-0.036-0.258,0.046-0.422,0.334-0.425C178.326,62.03,178.214,62.172,178.103,62.314z"/>
	<path class="st1" d="M37.539,60.823c-0.038-0.288,0.104-0.398,0.375-0.381C37.935,60.712,37.825,60.854,37.539,60.823z"/>
	<path class="st1" d="M37.901,60.456c-0.023-0.27,0.11-0.389,0.371-0.386C38.282,60.327,38.171,60.468,37.901,60.456z"/>
	<path class="st1" d="M38.259,60.085c-0.003-0.298,0.179-0.414,0.443-0.451C38.65,59.877,38.537,60.062,38.259,60.085z"/>
	<path class="st1" d="M34.56,36.773c0.052-0.241,0.183-0.399,0.441-0.424C34.979,36.62,34.803,36.731,34.56,36.773z"/>
	<path class="st1" d="M34.985,36.366c0.001-0.245,0.105-0.391,0.368-0.386C35.364,36.236,35.234,36.358,34.985,36.366z"/>
	<path class="st1" d="M172.973,35.24c-0.003,0.249-0.126,0.406-0.365,0.474C172.623,35.474,172.715,35.293,172.973,35.24z"/>
	<path class="st1" d="M173.322,34.866c-0.003,0.243-0.132,0.37-0.368,0.398C172.954,35.017,173.046,34.857,173.322,34.866z"/>
	<path class="st1" d="M173.692,34.51c0.019,0.276-0.152,0.355-0.385,0.37C173.297,34.613,173.388,34.451,173.692,34.51z"/>
	<path class="st1" d="M91.676,171.782c-0.789,0.984-1.693,1.825-2.885,2.299c-0.117-1.585-1.38-2.47-2.217-3.61
		c-0.354-0.481-0.843-0.408-1.26-0.032c-0.432,0.389-0.425,0.859-0.085,1.29c0.818,1.038,1.662,2.056,2.495,3.082
		c-3.575,2.357-7.067,2.357-10.293,0.001c-3.233-2.362-4.582-6.719-3.309-10.913c0.531-1.749,1.318-3.38,2.705-4.657
		c0.6-0.553,1.636-1.217,0.933-2.043c-0.786-0.924-1.602,0.061-2.303,0.584c-0.24,0.179-0.468,0.375-0.701,0.563
		c-0.82-1.621-1.635-3.244-2.466-4.859c-0.236-0.459-0.583-0.837-1.156-0.572c-0.489,0.225-0.809,0.703-0.525,1.189
		c1.053,1.8,1.469,4.002,3.298,5.318c-0.73,1.582-1.46,3.164-2.191,4.745c-1.376,0.52-2.75,1.042-3.467,2.483
		c-3.396,0.042-6.77,0.22-10.021,1.358c-1.9,0.665-3.675,1.557-5.32,2.711c-1.588,1.113-2.819,2.621-4.458,4.163
		c-0.688-4.036-0.232-7.752,0.488-11.461c1.476-0.591,2.96-1.162,4.423-1.782c0.504-0.214,1.041-0.601,0.755-1.222
		c-0.255-0.555-0.849-0.307-1.28-0.139c-1.113,0.437-2.208,0.92-3.311,1.385c1.398-7.002,5.158-12.602,10.327-17.358
		c3.911-3.599,8.35-6.202,13.616-7.312c3.961-0.835,7.705-0.197,11.372,1.341c0.72,0.302,0.985,0.796,1.046,1.529
		c0.185,2.221,1.397,3.708,3.432,4.509c0.607,0.239,0.851,0.531,0.818,1.19c-0.207,4.151,1.532,7.66,3.692,11.025
		c1.016,1.582,1.987,3.196,3.054,4.742c0.801,1.16,0.853,2.2-0.148,3.235c-0.55-0.56-1.105-1.114-1.647-1.681
		c-0.39-0.408-0.802-0.873-1.378-0.39c-0.566,0.476-0.475,1.097-0.037,1.619c0.661,0.787,1.372,1.533,2.061,2.296
		c-0.679,1.688-1.737,3.11-3.055,4.349c-0.274-0.706-0.892-1.119-1.4-1.62c-0.398-0.392-0.863-0.438-1.269-0.017
		c-0.401,0.415-0.334,0.882,0.022,1.293C90.504,170.954,90.984,171.498,91.676,171.782z M53.439,164.298
		c0.07,0.089,0.146,0.171,0.23,0.248c-0.185,1.245,0.462,1.416,1.388,0.976c1.316-0.626,2.542-1.408,3.7-2.309
		c0.591-0.46,1.79-0.805,1.303-1.578c-0.5-0.795-1.319,0.404-2.022,0.442c-0.713,0.039-1.631,2.363-2.199-0.125
		c-0.055-0.24-0.393-0.27-0.635-0.175c-1.807,0.71-3.62,1.407-5.408,2.163c-0.386,0.163-0.684,0.58-0.432,1.058
		c0.262,0.497,0.726,0.333,1.13,0.213C51.479,164.917,52.458,164.603,53.439,164.298z M65.631,150.692
		c-0.769,0.289-0.887,0.913-0.622,1.603c0.562,1.463,1.172,2.908,1.79,4.348c0.235,0.547,0.491,1.236,1.29,0.869
		c0.705-0.324,0.607-0.997,0.371-1.576c-0.638-1.563-1.317-3.109-1.991-4.657C66.322,150.943,66.124,150.631,65.631,150.692z
		 M63.965,154.666c-0.48-1.302-1.015-2.784-1.574-4.257c-0.182-0.479-0.252-1.213-1.034-0.951c-0.786,0.263-0.885,0.911-0.622,1.639
		c0.516,1.425,1.025,2.852,1.548,4.275c0.174,0.474,0.395,0.942,1.04,0.693C63.861,155.858,63.945,155.375,63.965,154.666z
		 M59.898,152.356c-0.352-1.03-0.75-2.243-1.186-3.441c-0.168-0.462-0.425-0.956-1.046-0.75c-0.61,0.202-0.831,0.708-0.638,1.314
		c0.369,1.158,0.768,2.306,1.179,3.449c0.157,0.438,0.265,1.053,0.925,0.893C59.737,153.675,59.966,153.167,59.898,152.356z
		 M86.419,164.6c-0.617-0.97-1.29-2.034-1.968-3.094c-0.266-0.416-0.556-0.86-1.144-0.58c-0.578,0.275-0.801,0.839-0.505,1.36
		c0.624,1.094,1.354,2.13,2.068,3.17c0.214,0.312,0.556,0.478,0.947,0.289C86.234,165.541,86.444,165.197,86.419,164.6z
		 M88.405,163.205c0.688,1.168,1.453,2.465,2.674,3.401c0.324,0.249,0.697,0.055,0.958-0.242c0.327-0.371,0.316-0.779,0.043-1.162
		c-0.701-0.982-1.417-1.954-2.136-2.923c-0.242-0.326-0.583-0.445-0.956-0.268C88.573,162.208,88.355,162.553,88.405,163.205z
		 M64.088,161.217c-1.553,0.903-3.22,1.86-4.863,2.858c-0.114,0.069-0.117,0.473-0.04,0.669c0.13,0.328,0.472,0.372,0.772,0.264
		c1.725-0.623,3.338-1.462,4.661-2.746C65.021,161.871,65.005,161.36,64.088,161.217z M83.581,172.376
		c-0.53-1.031-0.687-2.412-1.729-3.333c-0.081-0.072-0.616,0.161-0.731,0.368c-0.719,1.296,0.364,2.262,0.687,3.371
		c0.033,0.113,0.111,0.214,0.176,0.315c0.244,0.383,0.557,0.671,1.041,0.475C83.473,173.391,83.607,172.994,83.581,172.376z
		 M69.665,162.217c-0.074-0.744-0.525-0.788-0.915-0.561c-1.248,0.726-2.467,1.504-3.671,2.3c-0.298,0.197-0.527,0.583-0.316,0.945
		c0.277,0.475,0.745,0.345,1.112,0.12c1.128-0.694,2.243-1.411,3.337-2.157C69.437,162.71,69.548,162.39,69.665,162.217z
		 M76.025,148.378c0.576,0.029,3.901-3.42,3.842-3.97c-0.076-0.707-0.586-0.577-0.923-0.339c-1.292,0.915-2.423,2.011-3.261,3.366
		C75.437,147.833,75.432,148.263,76.025,148.378z M78.289,169.281c-0.52,0.13-0.902,0.386-0.906,0.846
		c-0.01,1.334,0.689,2.385,1.556,3.31c0.285,0.304,0.679,0.075,0.935-0.216c0.429-0.486,0.349-1.026,0.011-1.489
		C79.308,170.937,79.251,169.783,78.289,169.281z M79.333,161.324c-0.468,0.061-0.852,0.314-0.869,0.778
		c-0.049,1.41,0.924,2.313,1.803,3.203c0.362,0.366,0.795,0.014,1.02-0.39C81.643,164.277,80.056,161.38,79.333,161.324z
		 M64.079,145.259c0.633,0.013,3.673-2.143,3.898-2.8c0.069-0.203,0.1-0.498,0.001-0.661c-0.188-0.311-0.541-0.256-0.797-0.08
		c-1.138,0.784-2.267,1.581-3.38,2.4c-0.242,0.178-0.352,0.484-0.272,0.81C63.602,145.219,63.82,145.275,64.079,145.259z
		 M72.257,141.552c0.003-0.565-0.454-0.61-0.843-0.353c-1.319,0.87-2.499,1.919-3.471,3.167c-0.256,0.329-0.281,0.858,0.384,0.92
		C68.94,145.343,72.222,142.288,72.257,141.552z M71.98,146.729c0.668,0.028,3.5-2.664,3.502-3.275
		c0.002-0.648-0.398-0.721-0.832-0.45c-1.183,0.737-2.211,1.666-2.994,2.824C71.406,146.197,71.403,146.654,71.98,146.729z
		 M83.754,144.942c-0.074-0.28-0.293-0.671-0.807-0.319c-1.321,0.905-2.412,2.049-3.009,3.561c-0.179,0.453,0.012,0.867,0.657,0.698
		C80.894,148.803,83.7,145.465,83.754,144.942z M84.373,149.505c0.114-0.036,0.268-0.036,0.336-0.113
		c1.042-1.17,1.972-2.432,2.505-3.907c0.187-0.517-0.312-0.828-0.762-0.455c-1.229,1.019-2.081,2.325-2.551,3.855
		C83.806,149.197,83.996,149.464,84.373,149.505z"/>
	<path class="st1" d="M145.581,152.637c-0.264-0.084-0.476-0.206-0.396-0.542C145.484,152.154,145.576,152.363,145.581,152.637z"/>
	<path class="st1" d="M126.207,161.414c0.232,0.098,0.47,0.193,0.413,0.521C126.234,161.958,126.188,161.712,126.207,161.414z"/>
	<path class="st1" d="M18.209,33.453c-0.062,0.661-0.47,0.565-0.904,0.412C17.505,33.506,17.766,33.28,18.209,33.453z"/>
	<path class="st1" d="M36.916,5.559c1.161,0.553,2.283,1.185,2.927,2.347c0.7,1.264,1.619,2.623,0.687,4.066
		c-1.082,1.674-2.781,2.501-4.791,2.391c-4.04-0.222-5.794-3.424-4.005-7.209c0.302-0.015,0.615-0.011,0.7-0.403
		c0,0-0.038,0.03-0.038,0.03C33.907,6.389,35.307,5.589,36.916,5.559z"/>
	<path class="st1" d="M174.33,62.572c-1.63-0.226-3.151-0.79-4.105-2.412c-0.925-1.573-0.147-3.005,0.424-4.372
		c0.35-0.839,1.868-0.784,2.012-0.388c0.579,1.599,2.23,1.205,3.175,2.034c0.908,0.797,1.712,1.633,1.373,2.917
		C176.849,61.712,175.862,62.454,174.33,62.572z"/>
	<path class="st1" d="M55.757,163.229c-0.022,0.034-0.044,0.068-0.066,0.102c-0.051-0.042-0.102-0.083-0.153-0.125
		c0.04-0.032,0.083-0.092,0.12-0.089C55.694,163.121,55.724,163.189,55.757,163.229z"/>
	<path class="st1" d="M53.439,164.298c0.132-0.025,0.263-0.051,0.395-0.076c-0.055,0.108-0.11,0.216-0.165,0.324
		C53.586,164.469,53.509,164.386,53.439,164.298z"/>
</g>
</svg>
