<?xml version="1.0" encoding="utf-8"?>
<!-- Generator: Adobe Illustrator 23.0.4, SVG Export Plug-In . SVG Version: 6.00 Build 0)  -->
<svg version="1.1" id="Capa_1" xmlns="http://www.w3.org/2000/svg" xmlns:xlink="http://www.w3.org/1999/xlink" x="0px" y="0px"
	 viewBox="0 0 100 100" style="enable-background:new 0 0 100 100;" xml:space="preserve">
<style type="text/css">
	.st0{fill:#FFFFFF;}
	.st1{fill:#C24B4F;}
</style>
<g>
	<path class="st0" d="M47.163,38.692c-0.009,0.11-0.018,0.22-0.028,0.33c-0.096,1.14,1.768,1.694,2.23,0.604
		c1.264-2.98,1.18-6.065,3.519-8.591c3.517-3.798,10.885-4.868,15.282-2.347c2.569,1.473,1.986,1.369,4.901,1.036
		c0.653-0.075,1.721-1.417,2.244-0.132c-0.037-0.09-2.654,2.467-2.979,2.915c-0.596,0.818,0.239,1.707,1.033,1.801
		c1.877,0.22,3.717-0.156,5.596,0.097c-0.176-0.667-0.352-1.333-0.528-2c-2.278,2.543-5.213,3.841-7.081,6.685
		c-0.848,1.291,1.223,2.491,2.067,1.208c1.63-2.48,4.712-3.974,6.707-6.201c0.527-0.588,0.433-1.871-0.528-2
		c-2.102-0.283-4.133,0.064-6.232-0.182c0.344,0.6,0.689,1.2,1.033,1.801c1.674-2.297,5.088-3.718,4.245-7.078
		c-0.118-0.47-0.646-0.925-1.154-0.879c-1.134,0.104-1.94,0.395-3.029,0.695c-1.24,0.341-2.668,1.246-4.031,0.959
		c-0.717-0.151-1.701-1.194-2.425-1.516c-2.993-1.332-6.527-1.183-9.62-0.35c-2.975,0.801-5.524,2.015-7.586,4.295
		c-2.464,2.725-2.105,5.288-3.501,8.577c0.743,0.201,1.487,0.403,2.23,0.604c0.009-0.11,0.018-0.22,0.028-0.33
		C49.685,37.158,47.291,37.166,47.163,38.692L47.163,38.692z"/>
	<path class="st0" d="M47.163,38.192c0,0.834,0,1.668,0,2.503c0,1.54,2.393,1.543,2.393,0c0-0.834,0-1.668,0-2.503
		C49.557,36.652,47.163,36.649,47.163,38.192L47.163,38.192z"/>
	<path class="st0" d="M49.862,40.198c-2.52,0.082-4.571-0.78-6.959-1.336c-2.844-0.662-5.177-0.705-7.9-2.07
		c-4.362-2.187-6.716-5.813-10.388-8.69c-0.706-0.553-1.607-0.196-1.702,0.705c-0.276,2.621-0.421,5.868,0.064,8.467
		c0.557,2.986,2.799,5.263,3.4,8.191c0.258,1.256,2.18,0.725,1.923-0.53c-0.454-2.214-1.917-3.88-2.687-5.989
		c-1.11-3.043-1.047-6.895-0.706-10.138c-0.567,0.235-1.135,0.47-1.702,0.705c4.375,3.428,6.99,7.582,12.433,9.796
		c2.203,0.896,4.448,0.962,6.736,1.477c2.75,0.619,4.618,1.501,7.489,1.407C51.142,42.151,51.148,40.156,49.862,40.198
		L49.862,40.198z"/>
	<path class="st0" d="M25.875,43.433c0.007-0.035-3.105-1.757-4.291-2.147c-0.456-0.15-0.866,0.113-1.126,0.458
		c-1.76,2.34,0.653,6.043,1.98,8.05c2.655,4.017,6.453,5.645,10.64,7.678c0.079-0.608,0.159-1.215,0.238-1.823
		c-2.598,0.544-5.401-0.95-8.013-1.175c-0.641-0.055-1.141,0.682-0.962,1.262c0.744,2.408,3.185,3.701,5.056,5.225
		c2.732,2.225,5.478,4.071,8.948,4.829c0-0.641,0-1.282,0-1.923c-3.983,1.101-8.43,1.41-12.542,1.208
		c-1.889-0.093-4.42-0.5-5.942,0.88c-0.398,0.361-0.368,1.045,0,1.41c9.903,9.832,24.244,12.406,36.456,5.052
		c6.006-3.617,9.779-7.104,13.425-13.201c3.576-5.979,4.589-12.11,4.641-19.023c0.01-1.284-1.985-1.285-1.994,0
		c-0.068,8.998-2.384,16.498-8.072,23.567c-5.405,6.717-15.304,11.396-23.861,10.841c-4.196-0.272-8.096-0.919-11.86-2.907
		c-1.601-0.846-4-2.12-5.012-3.527c-0.968-1.348-1.798-0.674-0.032-1.175c1.845-0.523,4.487,0.272,6.437,0.146
		c2.897-0.186,6.11-0.58,8.886-1.347c0.915-0.253,0.984-1.708,0-1.923c-3.413-0.746-5.989-2.749-8.69-4.866
		c-1.332-1.044-3.416-2.161-3.921-3.794c-0.321,0.421-0.641,0.842-0.962,1.262c3.137,0.27,5.406,1.761,8.543,1.104
		c0.813-0.17,1-1.452,0.238-1.823c-4.721-2.294-8.533-4.167-11.115-9.086c-0.491-1.042-0.984-2.083-1.482-3.123
		c0.491,0.395,1.032,0.715,1.623,0.961c0.875-0.064,2.558,0.654,3.64,0.607c0.416-0.018,0.871-0.295,0.962-0.732
		c0.028-0.138,0.057-0.277,0.085-0.415C28.057,42.71,26.135,42.174,25.875,43.433L25.875,43.433z"/>
	<path class="st0" d="M49.357,39.694c-0.032-1.657-0.191-3.114,0.729-4.578c0.667-1.06,1.899-2.817,3.279-2.934
		c1.27-0.107,1.281-2.103,0-1.994c-1.974,0.167-3.418,1.692-4.523,3.22c-1.472,2.037-1.527,3.836-1.48,6.286
		C47.388,40.975,49.382,40.98,49.357,39.694L49.357,39.694z"/>
	<path class="st0" d="M51.867,30.824c0.142-0.084,0.283-0.168,0.425-0.253c-0.5-0.287-1-0.574-1.501-0.861
		c-0.277,2.197-2.113,5.47-2.914,7.576c0.653,0.088,1.306,0.177,1.959,0.265c0.205-1.962,2.296-6.318,3.647-8.036
		c-0.567-0.235-1.135-0.47-1.702-0.705c0.275,2.403-1.956,8.667-3.581,10.837c0.608,0.256,1.215,0.512,1.823,0.768
		c0.706-1.986,1.767-3.741,2.701-5.615c0.711-1.426,1.221-3.506,2.384-4.636c-0.567-0.235-1.135-0.47-1.702-0.705
		c-0.264,3.362-2.419,8.641-4.075,11.642c0.608,0.079,1.215,0.159,1.823,0.238c-0.126-0.902,4.842-12.174,5.266-12.064
		c-0.685-0.177-5.281,11.383-5.557,11.694c0.556,0.323,1.111,0.647,1.667,0.97c0.747-2.788,2.004-5.417,3.363-7.959
		c0.419-0.784,0.848-1.581,1.326-2.331c0.428-0.672,1.465-3.04,0.343-1.536c-2.682,3.597-3.023,9.089-5.238,12.925
		c0.619,0.168,1.239,0.336,1.858,0.503c-0.257-2.771,2.268-6.997,3.413-9.35c0.971-1.996,2.204-5.706,4.22-6.897
		c-0.488-0.199-0.977-0.397-1.465-0.596c0.375,2.097-1.342,4.579-2.189,6.454c-1.14,2.524-2.129,5.117-2.872,7.784
		c0.556-0.147,1.111-0.293,1.667-0.44c-1.309-1.297,6.004-13.239,6.859-13.741c-0.5-0.287-1-0.574-1.501-0.861
		c0.14,2.005-1.746,5.61-2.445,7.631c-0.817,2.361-1.53,5.854-3.112,7.833c0.567,0.235,1.135,0.47,1.702,0.705
		c-0.02-1.737,1.457-4.025,2.112-5.641c0.925-2.281,2.301-6.107,4.37-7.625c-0.488-0.375-0.977-0.751-1.465-1.126
		c-1.081,4.6-2.756,10.315-5.388,14.317c0.619,0.168,1.239,0.336,1.858,0.503c-0.02-3.441,2.692-10.174,5.17-12.501
		c-0.47,0-0.94,0-1.41,0c1.119,1.038-2.724,10.182-3.09,10.994c0.608,0.079,1.215,0.159,1.823,0.238
		c-0.638-2.951,1.786-8.874,3.654-11.206c-0.47,0-0.94,0-1.41,0c0.776,0.837-0.32,7.516-1.172,8.279
		c0.567,0.235,1.135,0.47,1.702,0.705c-0.191-2.247,0.502-7.935,2.409-9.535c-0.47,0-0.94,0-1.41,0
		c1.522,1.816-0.839,7.663-1.317,9.381c0.653,0.088,1.306,0.177,1.959,0.265c0.114-2.62,0.547-8.152,2.743-10.113
		c-0.47,0-0.94,0-1.41,0c1.081,1.314,0.268,4.511,0.199,6.057c0.665,0,1.33,0,1.994,0c-0.06-1.23-0.755-4.083,0.171-5.046
		c-0.47,0-0.94,0-1.41,0c0.56,0.536,1.063,1.121,1.509,1.755c0.63,0.809,1.935-0.074,1.667-0.97
		c-0.641-2.145-3.502-3.61-5.558-3.988c-1.267-0.233-1.736,1.473-0.53,1.923c0.303,0.113,2.296,0.639,2.426,0.71
		c0.168-0.619,0.336-1.239,0.503-1.858c-1.317,0.153-2.968-0.561-3.838-1.545c-0.235,0.567-0.47,1.135-0.705,1.702
		c1.332,0.163,2.48,1.049,3.794,1.355c1.088,0.253,1.76-1.229,0.768-1.823c-0.745-0.47-1.511-0.905-2.296-1.304
		c-0.894-0.48-1.828,0.477-1.364,1.364c0.335,0.595,0.625,1.211,0.868,1.85c0.159,1.256,2.155,1.272,1.994,0
		c-0.159-1.262-0.544-1.716-1.14-2.856c-0.455,0.455-0.91,0.91-1.364,1.364c0.786,0.399,1.551,0.834,2.296,1.304
		c0.256-0.608,0.512-1.215,0.768-1.823c-1.573-0.366-2.718-1.23-4.324-1.426c-0.932-0.114-1.214,1.127-0.705,1.702
		c1.216,1.374,3.407,2.344,5.248,2.13c0.905-0.105,1.454-1.337,0.503-1.858c-1.204-0.66-1.458-0.372-2.902-0.911
		c-0.177,0.641-0.353,1.282-0.53,1.923c1.181,0.217,3.762,1.247,4.165,2.595c0.556-0.323,1.111-0.647,1.667-0.97
		c-0.446-0.634-0.949-1.219-1.509-1.755c-0.365-0.385-1.044-0.381-1.41,0c-1.562,1.625-0.854,4.436-0.755,6.456
		c0.062,1.281,1.936,1.286,1.994,0c0.109-2.424,0.889-5.434-0.783-7.467c-0.356-0.432-1.04-0.33-1.41,0
		c-2.776,2.479-3.177,8.056-3.327,11.523c-0.049,1.137,1.661,1.336,1.959,0.265c0.804-2.886,3.146-8.528,0.804-11.322
		c-0.367-0.438-1.028-0.321-1.41,0c-2.576,2.16-3.257,7.839-2.994,10.945c0.074,0.868,1.032,1.306,1.702,0.705
		c1.958-1.754,3.027-9.101,1.172-11.1c-0.338-0.364-1.081-0.41-1.41,0c-2.37,2.958-4.989,9.349-4.167,13.146
		c0.172,0.793,1.47,1.022,1.823,0.238c1.289-2.861,2.068-5.939,3.022-8.924c0.481-1.504,1.062-3.275-0.245-4.487
		c-0.404-0.375-1.005-0.381-1.41,0c-2.842,2.669-5.777,10.005-5.754,13.911c0.006,1.023,1.326,1.313,1.858,0.503
		c1.411-2.145,2.157-4.879,3.219-7.232c1.098-2.433,1.76-4.968,2.369-7.561c0.18-0.767-0.718-1.675-1.465-1.126
		c-2.179,1.599-3.402,4.43-4.498,6.853c-1.1,2.432-3.002,5.426-2.972,8.135c0.009,0.79,1.137,1.413,1.702,0.705
		c1.602-2.004,2.29-4.972,3.132-7.325c1.074-3.001,3.235-6.324,3.009-9.549c-0.052-0.737-0.812-1.265-1.501-0.861
		c-2.204,1.292-10.053,14.11-7.263,16.873c0.534,0.529,1.465,0.285,1.667-0.44c1.019-3.661,2.648-6.952,4.174-10.403
		c0.728-1.648,1.212-3.081,0.887-4.896c-0.115-0.642-0.952-0.899-1.465-0.596c-2.688,1.588-3.965,5.581-5.255,8.277
		c-1.388,2.899-3.671,6.405-3.366,9.693c0.087,0.935,1.329,1.42,1.858,0.503c1.97-3.411,3.024-7.57,4.605-11.216
		c0.47-1.085,1.95-3.857,0.372-4.8c-3.243-1.938-7.972,11.724-8.416,13.381c-0.247,0.922,0.986,1.738,1.667,0.97
		c2.152-2.428,2.88-6.183,4.32-9.062c0.943-1.887,2.111-3.802,1.199-5.885c-0.172-0.393-0.739-0.571-1.126-0.458
		c-2.387,0.693-3.224,3.279-4.038,5.394c-1.089,2.828-3.827,6.41-3.396,9.501c0.122,0.873,1.44,0.932,1.823,0.238
		c1.955-3.542,4.03-8.62,4.347-12.648c0.07-0.895-1.12-1.271-1.702-0.705c-1.364,1.325-1.861,3.353-2.696,5.04
		c-1.008,2.034-2.14,3.948-2.902,6.092c-0.41,1.152,1.2,1.599,1.823,0.768c1.353-1.806,2.012-4.573,2.856-6.626
		c0.739-1.797,1.221-3.262,0.997-5.217c-0.084-0.738-1.104-1.466-1.702-0.705c-1.96,2.492-3.898,6.25-4.231,9.446
		c-0.125,1.198,1.59,1.235,1.959,0.265c1.009-2.653,2.63-5.286,2.986-8.106c0.098-0.776-0.911-1.209-1.501-0.861
		c-1.577,0.93-2.057,2.624-0.425,3.697C51.936,33.253,52.936,31.527,51.867,30.824L51.867,30.824z"/>
	<path class="st0" d="M69.743,31.688c0.582-1.062,2.423-1.453,3.504-1.518c0-0.665,0-1.33,0-1.994
		c-1.282,0.113-2.196,0.35-3.253,1.085c-0.968,0.673-0.341,1.981,0.768,1.823c1.764-0.252,2.826-2.141,4.487-2.339
		c-0.235-0.567-0.47-1.135-0.705-1.702c-1.175,1.122-2.478,1.836-3.827,2.688c-0.675,0.426-0.646,1.647,0.238,1.823
		c0.941,0.187,1.679,0.287,2.596-0.129c0.77-0.35,1.338-1.561,2.061-1.725c-0.375-0.488-0.751-0.977-1.126-1.465
		c-0.796,1.263-2.578,1.612-3.605,2.733c-0.662,0.722-0.019,1.931,0.97,1.667c2.033-0.543,3.527-1.758,4.784-3.406
		c0.598-0.783-0.388-1.576-1.126-1.465c-1.872,0.281-3.399,1.785-4.63,3.19c-0.503,0.574-0.228,1.812,0.705,1.702
		c2.051-0.241,2.933-1.126,4.394-2.615c0.779-0.794-0.227-2.176-1.208-1.566c-2.132,1.326-4.907,1.744-5.997,4.221
		c-0.172,0.391-0.197,0.893,0.156,1.208c1.468,1.31,3.038,1.972,4.691,0.516c0.824-0.725,0.743-1.744,1.273-2.547
		c0.764-1.157,1.794-1.485,2.408-2.792c-0.608-0.256-1.215-0.512-1.823-0.768c-0.111,0.311-0.223,0.621-0.334,0.932
		c-0.415,1.158,1.197,1.587,1.823,0.768c0.167-0.218,0.334-0.437,0.5-0.655c0.631-0.826-0.566-1.837-1.364-1.364
		c-1.89,1.118-4.517,3.173-5.136,5.355c-0.192,0.678,0.333,1.195,0.962,1.262c0.85,0.107,1.701,0.213,2.551,0.32
		c1.274,0.185,1.728-1.434,0.53-1.923c-0.238-0.097-0.476-0.195-0.714-0.292c-0.088,0.653-0.177,1.306-0.265,1.959
		c0.741,0.008,1.482,0.012,2.223,0.014c0-0.665,0-1.33,0-1.994c-0.418,0-0.837,0-1.255,0c-1.284,0-1.285,1.98,0,1.994
		c1.06,0.035,2.119,0.023,3.178-0.036c-0.088-0.653-0.177-1.306-0.265-1.959c-2.476,0.633-5.818,2.433-7.543,4.256
		c-0.567,0.598-0.19,1.743,0.705,1.702c2.276-0.104,3.834-1.539,5.391-3.102c0.911-0.914-0.467-2.275-1.41-1.41
		c-1.625,1.49-3.514,2.623-5.137,4.115c0.47,0.47,0.94,0.94,1.41,1.41c1.542-1.556,2.972-3.121,4.282-4.871
		c-0.574-0.336-1.148-0.671-1.722-1.007c-0.672,0.648-1.345,1.295-2.017,1.943c0.455,0.455,0.91,0.91,1.364,1.364
		c0.354-0.968,0.928-1.796,1.72-2.485c-0.522-0.403-1.044-0.806-1.566-1.208c-0.893,1.46-2.043,2.671-2.911,4.138
		c0.608,0.256,1.215,0.512,1.823,0.768c0.173-1.237,0.707-2.289,1.602-3.158c-0.556-0.323-1.111-0.647-1.667-0.97
		c-0.359,1.395-0.839,2.711-1.982,3.672c0.567,0.235,1.135,0.47,1.702,0.705c-0.078-0.777,0.612-2.42,0.94-3.335
		c0.377-1.054-1.339-1.793-1.823-0.768c-0.604,1.279-0.641,1.357-1.038,2.726c0.641,0,1.282,0,1.923,0
		c-0.287-1.039-0.198-2.053,0.268-3.044c-0.556-0.147-1.111-0.293-1.667-0.44c0.43,1.09,0.761,2.843,0.075,3.893
		c0.608,0.079,1.215,0.159,1.823,0.238c-0.221-1.605-0.42-3.778-0.549-5.422c-0.081-1.043-1.737-1.445-1.959-0.265
		c-0.467,2.489-0.343,4.949-0.675,7.429c0.619-0.168,1.239-0.336,1.858-0.503c-0.871-1.796-0.343-4.132-0.253-6.037
		c-0.665,0-1.33,0-1.994,0c0.076,1.607,0.26,3.141-0.076,4.749c0.641,0,1.282,0,1.923,0c-0.487-1.245-0.659-3.414-0.901-4.748
		c-0.2-1.102-2.023-0.854-1.959,0.265c0.07,1.226,0.779,5.162-0.197,5.971c0.522,0.067,1.044,0.135,1.566,0.202
		c-1.239-2.456,0.535-5.113-0.89-7.589c-0.388-0.675-1.7-0.647-1.823,0.238c-0.409,2.957-0.183,6.016-0.121,9
		c0.653-0.088,1.306-0.177,1.959-0.265c-0.76-2.842-0.547-5.656-0.491-8.555c-0.665,0-1.33,0-1.994,0
		c0.037,2.075,0.445,5.109-0.487,7.079c0.608,0.079,1.215,0.159,1.823,0.238c-0.691-2.889,0.239-5.821-0.741-8.593
		c-0.261-0.737-1.42-1.07-1.823-0.238c-0.384,0.792-0.497,1.065-0.753,1.909c0.653,0.088,1.306,0.177,1.959,0.265
		c-0.193-5.619-8.309-4.916-10.752-1.21c-0.302,0.459-0.08,1.092,0.358,1.364c2.569,1.597,6.732-0.293,7.379-3.222
		c0.101-0.456-0.073-0.871-0.458-1.126c-2.09-1.383-4.117-0.332-6.415-0.053c-1.247,0.151-1.293,2.113,0,1.994
		c2.688-0.246,4.905-1.678,7.552-2.095c-0.177-0.641-0.353-1.282-0.53-1.923c-2.973,0.889-5.894,1.357-8.996,1.513
		c0.088,0.653,0.177,1.306,0.265,1.959c3.081-0.502,5.872-2.193,8.984-2.514c-0.088-0.653-0.177-1.306-0.265-1.959
		c-4.347,1.302-7.218,2.153-9.501,6.347c0.619,0.168,1.239,0.336,1.858,0.503c0.111-1.845,1.55-5.286,4.041-5.229
		c-0.321-0.421-0.641-0.842-0.962-1.262c-0.819,2.63-3.982,4.349-5.644,6.438c-0.695,0.873,0.148,2.09,1.208,1.566
		c1.267-0.625,1.81-1.467,2.868-2.382c2.045-1.771,6.866-3.318,8.552,0.338c0.119-0.455,0.238-0.91,0.358-1.364
		c-2.741-0.126-3.335-0.356-1.782-0.689c0.552-0.145,1.113-0.243,1.682-0.294c0.673-0.085,3.409-0.587,3.714,0.183
		c0.232-0.409,0.464-0.818,0.696-1.227c-0.151,0.037-0.302,0.074-0.452,0.111c-1.246,0.307-0.718,2.23,0.53,1.923
		c0.151-0.037,0.302-0.074,0.452-0.111c0.482-0.119,0.892-0.734,0.696-1.227c-1.209-3.041-7.589-1.999-9.697-0.509
		c-0.343,0.243-0.612,0.689-0.458,1.126c0.824,2.347,3.364,3.504,5.625,2.435c0.519-0.245,0.567-0.911,0.358-1.364
		c-0.983-2.132-3.713-3.154-5.955-3.271c-4.23-0.222-4.902,2.974-8.194,4.599c0.403,0.522,0.806,1.044,1.208,1.566
		c2.009-2.523,5.169-4.145,6.157-7.318c0.197-0.634-0.334-1.248-0.962-1.262c-3.826-0.087-5.839,3.981-6.035,7.224
		c-0.06,0.993,1.397,1.351,1.858,0.503c1.907-3.505,4.827-4.388,8.309-5.431c1.029-0.308,0.897-2.079-0.265-1.959
		c-3.312,0.342-6.241,2.052-9.515,2.586c-1.109,0.181-0.85,2.015,0.265,1.959c3.28-0.165,6.37-0.64,9.526-1.585
		c1.257-0.376,0.712-2.119-0.53-1.923c-2.444,0.385-4.548,1.797-7.021,2.024c0,0.665,0,1.33,0,1.994
		c0.521-0.063,1.736-0.357,2.212-0.389c0.647-0.113,1.295-0.226,1.942-0.339c-0.881,1.607-2.099,2.077-3.654,1.412
		c0.119,0.455,0.238,0.91,0.358,1.364c0.536-0.814,6.905-3.604,7.036,0.203c0.039,1.121,1.628,1.357,1.959,0.265
		c0.184-0.478,0.368-0.955,0.552-1.433c-0.608-0.079-1.215-0.159-1.823-0.238c0.956,2.706,0.069,5.783,0.741,8.593
		c0.19,0.793,1.452,1.021,1.823,0.238c1.156-2.441,0.806-5.473,0.76-8.086c-0.023-1.283-1.969-1.285-1.994,0
		c-0.061,3.114-0.248,6.056,0.562,9.085c0.288,1.077,1.982,0.872,1.959-0.265c-0.056-2.737-0.324-5.767,0.05-8.47
		c-0.608,0.079-1.215,0.159-1.823,0.238c1.327,2.306-0.364,5.103,0.89,7.589c0.313,0.62,1.106,0.584,1.566,0.202
		c1.776-1.473,0.894-5.421,0.781-7.382c-0.653,0.088-1.306,0.177-1.959,0.265c0.295,1.626,0.298,3.207,0.901,4.748
		c0.324,0.828,1.702,1.06,1.923,0c0.372-1.786,0.232-3.462,0.147-5.28c-0.06-1.283-1.934-1.285-1.994,0
		c-0.115,2.444-0.572,4.78,0.525,7.043c0.485,1.001,1.743,0.356,1.858-0.503c0.312-2.328,0.162-4.543,0.604-6.899
		c-0.653-0.088-1.306-0.177-1.959-0.265c0.156,1.994,0.347,3.977,0.62,5.952c0.127,0.918,1.406,0.876,1.823,0.238
		c1.005-1.539,0.778-3.777,0.126-5.43c-0.263-0.667-1.1-1.025-1.667-0.44c-1.289,1.332-1.122,3.263-0.781,4.984
		c0.198,1.002,1.663,0.895,1.923,0c0.279-0.75,0.558-1.5,0.837-2.249c-0.608-0.256-1.215-0.512-1.823-0.768
		c-0.492,1.375-1.159,2.392-1.011,3.865c0.089,0.884,1.014,1.285,1.702,0.705c1.4-1.178,2.047-2.812,2.495-4.552
		c0.245-0.953-0.956-1.689-1.667-0.97c-1.122,1.136-1.804,2.473-2.115,4.038c-0.214,1.075,1.222,1.783,1.823,0.768
		c0.867-1.466,2.024-2.689,2.911-4.138c0.587-0.959-0.784-2.038-1.566-1.208c-0.854,0.906-1.497,1.746-2.032,2.889
		c-0.4,0.854,0.447,1.915,1.364,1.364c1.217-0.73,1.944-1.489,2.732-2.659c0.73-1.083-0.971-2.011-1.722-1.007
		c-1.23,1.643-2.54,3.024-3.971,4.467c-0.908,0.916,0.467,2.276,1.41,1.41c1.624-1.492,3.512-2.625,5.137-4.115
		c-0.47-0.47-0.94-0.94-1.41-1.41c-1.079,1.083-2.342,2.443-3.981,2.518c0.235,0.567,0.47,1.135,0.705,1.702
		c0.815-0.861,6.804-3.78,6.663-3.744c1.078-0.276,0.87-1.997-0.265-1.959c-1.059,0.059-2.118,0.071-3.178,0.036
		c0,0.665,0,1.33,0,1.994c0.418,0,0.837,0,1.255,0c1.283,0,1.285-1.989,0-1.994c-0.741-0.002-1.482-0.007-2.223-0.014
		c-1.205-0.01-1.247,1.557-0.265,1.959c0.238,0.097,0.476,0.195,0.714,0.292c0.177-0.641,0.353-1.282,0.53-1.923
		c-1.083-0.157-1.994-0.275-3.081-0.391c0.321,0.421,0.641,0.842,0.962,1.262c0.386-1.36,3.119-3.512,4.22-4.163
		c-0.455-0.455-0.91-0.91-1.364-1.364c-0.167,0.218-0.334,0.437-0.5,0.655c0.608,0.256,1.215,0.512,1.823,0.768
		c0.111-0.311,0.223-0.621,0.334-0.932c0.378-1.053-1.341-1.793-1.823-0.768c-0.543,1.154-1.775,1.904-2.512,2.899
		c-0.6,0.811-2.014,1.263,0.003,0.571c0.948-0.325,1.862-0.822,2.707-1.348c-0.403-0.522-0.806-1.044-1.208-1.566
		c-0.786,0.95-1.781,1.627-2.984,2.031c0.235,0.567,0.47,1.135,0.705,1.702c0.725-0.828,2.516-2.491,3.75-2.677
		c-0.375-0.488-0.751-0.977-1.126-1.465c-0.906,1.29-2.103,2.119-3.592,2.489c0.323,0.556,0.647,1.111,0.97,1.667
		c1.244-1.358,2.92-1.554,3.917-3.137c0.486-0.771-0.314-1.649-1.126-1.465c-1.335,0.303-2.157,2.14-3.596,1.854
		c0.079,0.608,0.159,1.215,0.238,1.823c1.501-0.948,2.947-1.775,4.23-3c0.577-0.551,0.177-1.807-0.705-1.702
		c-2.014,0.24-3.033,2.127-5.017,2.41c0.256,0.608,0.512,1.215,0.768,1.823c0.749-0.271,1.498-0.542,2.246-0.812
		c1.261-0.111,1.293-2.072,0-1.994c-1.897,0.114-4.256,0.735-5.226,2.506C67.404,31.807,69.126,32.815,69.743,31.688L69.743,31.688z
		"/>
	<path class="st0" d="M55.879,46.26c-3.753-2.884-10.512,0.09-9.151,5.245c1.531,5.798,9.058,4.629,11.741,0.553
		c2.692-4.09,2.381-11.213-3.576-11.806c-5.012-0.499-7.904,6.657-5.959,10.672c2.74,5.656,8.723,1.699,10.959-1.915
		c1.752-2.832,4.087-7.068,3.26-10.517c-1.366-5.698-7.822-3.894-10.279-0.177c-2.641,3.996-4.765,10.677-2.935,15.286
		c1.053,2.651,3.467,4.334,6.345,3.883c3.189-0.5,5.013-3.227,6.616-5.765c2.789-4.417,7.255-11.539,4.732-16.932
		c-0.905-1.934-3.745-2.466-5.457-1.431c-4.344,2.625-4.824,9.149-5.628,13.684c-0.681,3.835-2.154,9.34,2.046,11.748
		c9.05,5.188,10.992-14.874,11.286-19.401c-2.659,0-5.318,0-7.978,0c-0.065,3.872,0.088,7.742-0.037,11.612
		c-0.145,4.448,6.848,5.485,7.835,1.06c0.829-3.717,1.132-7.518,2.139-11.197c-2.43,0.318-4.86,0.635-7.291,0.953
		c0.974,1.549,0.393,4.026,0.345,5.769c2.659,0,5.318,0,7.978,0c0-1.457,0.059-2.942,0-4.398c-0.031-0.773,0.401-2.286-0.679-1.067
		c-1.88,0-3.761,0-5.641,0c-0.194-0.245,0.425,2.424,0.388,2.898c-0.121,1.529-1.283,3.188-2.035,4.477
		c2.478,0.671,4.955,1.342,7.433,2.013c0.068-4.049,2.189-7.797,1.82-11.948c-0.335-3.77-2.575-6.829-5.922-8.507
		c-5.675-2.845-14.012,0.641-14.249,7.643c-0.107,3.165,2.91,5.659,5.989,4.915c2.43-0.587,4.516-3.38,4.966-5.756
		c0.683-3.605-2.121-6.436-5.623-6.527c-4.047-0.106-5.533,2.336-7.771,5.047c-3.244,3.93,2.369,9.605,5.641,5.641
		c0.574-0.695,1.612-1.664,1.854-2.553c0.994-1.054,0.421-2.278-1.719-3.67c-0.75,1.004-0.378,0.978,1.114-0.079
		c0.94,0.389,1.88,0.779,2.821,1.168c-0.134-0.155-0.269-0.31-0.403-0.464c0.389,0.94,0.779,1.88,1.168,2.821
		c-0.03-0.276,0.922-1.286,1.441-1.387c1.688-0.327,2.67,1.645,2.775,2.899c0.296,3.539-1.819,7.161-1.88,10.756
		c-0.067,3.982,5.461,5.395,7.433,2.013c3.124-5.357,4.551-11.795,0.4-17.042c-1.285-1.624-4.335-1.474-5.641,0
		c-2.649,2.99-1.658,7.4-1.657,11.106c0.001,5.142,7.838,5.13,7.978,0c0.092-3.386,0.453-6.796-1.434-9.795
		c-1.801-2.862-6.363-2.436-7.291,0.953c-1.007,3.68-1.31,7.48-2.139,11.197c2.612,0.353,5.223,0.707,7.835,1.06
		c0.126-3.871-0.027-7.741,0.037-11.612c0.086-5.173-7.647-5.082-7.978,0c-0.159,2.437-0.679,5.113-1.143,7.519
		c-0.187,0.967-0.42,1.93-0.694,2.876c-0.153,0.526-1.115,2.178-1.067,2.66c3.179,2.083,4.74,2.191,4.683,0.323
		c0.006-0.494,0.054-0.984,0.144-1.469c0.119-0.873,0.336-1.74,0.496-2.606c0.318-1.721,0.625-3.417,1.057-5.115
		c0.066-0.261,0.586-3.186,0.824-3.33c-1.819-0.477-3.638-0.954-5.457-1.431c-0.715-1.528-0.609,0.459-0.985,1.607
		c-0.767,2.344-1.995,4.406-3.275,6.5c-0.169,0.276-1.701,2.396-1.665,2.577c0.82,0.185,1.64,0.369,2.46,0.554
		c0.051-0.487,0.102-0.974,0.153-1.461c0.543-1.322,1.42-3.616,1.626-5.037c0.135-0.281,0.288-0.551,0.46-0.811
		c1.196-1.653-0.182-2.703-4.135-3.15c-0.293,0.349-0.346,1.269-0.509,1.705c-0.381,1.022-0.894,2.011-1.436,2.956
		c-0.138,0.241-0.441,0.592-0.514,0.853c-0.146,0.22-0.291,0.441-0.437,0.661c2.327,3.508,3.666,4.328,4.016,2.46
		c0.103-0.375,0.178-0.756,0.226-1.143c-1.525-0.318-3.05-0.636-4.575-0.953c-1.517,0.634,2.363,6.244,2.421,3.778
		c-0.389,0.94-0.779,1.88-1.168,2.821c-0.518,0.14-1.037,0.28-1.555,0.421C55.922,56.275,59.899,49.348,55.879,46.26L55.879,46.26z"
		/>
	<path class="st0" d="M55.185,56.342c-2.296,5.06-11.782,7.469-16.634,9.687c-3.611,1.651-1.856,7.302,2.038,7.125
		c7.028-0.319,11.732-2.492,16.72-7.188c2.578-2.428,5.174-4.873,7.514-7.51c1.913-2.156,3.964-5.556,6.776-6.741
		c-1.977-1.439-3.954-2.879-5.93-4.318c-1.144,3.589-23.075,17.57-10.542,20.969c4.229,1.147,9.664-2.94,12.36-5.552
		c1.761-1.706,2.9-3.653,3.976-5.786c0.538-1.067,2.097-5.13,2.12-5.15c-2.249-0.562-4.498-1.125-6.748-1.687
		c0.157,0.917-2.632,4.508-3.382,5.341c-1.996,2.214-4.649,4.282-6.956,6.203c-2.572,2.141-5.349,4.424-8.694,5.286
		c-3.253,0.839-6.947,0.329-10.304,0.406c0.358,2.504,0.715,5.007,1.073,7.511c8.592-2.147,15.638-3.733,21.723-10.326
		c3.175-3.439,11.969-11.246,6.42-15.933c-5.208-4.398-12.921,1.184-15.785,5.326c-2.354,3.404-6.378,9.462-2.769,13.113
		c1.534,1.552,4.146,1.364,5.709,0c3.523-3.072,5.275-8.734,6.922-12.889c1.183-2.985,1.978-7.016-2.185-8.266
		c-6.733-2.021-11.266,10.597-12.16,14.738c-0.481,2.23,0.687,3.853,2.82,4.704c7.651,3.051,18.089-16.625,11.402-21.076
		c-5.844-3.89-11.629,5.441-13.186,9.567c-1.363,3.612-4.407,13.345,2.816,13.468c5.049,0.086,6.073-6.292,7.095-9.701
		c1.404-4.682,3.142-11.68-4.006-12.944c-6.047-1.069-8.86,4.943-10.164,9.436c-1.235,4.251-3.477,11.297,1.61,14.066
		c1.226,0.667,2.854,0.723,4.075,0c5.362-3.172,9.204-16.644,5.474-21.537c-2.23-2.925-6.651-2.883-9.318-0.464
		c-2.735,2.481-2.886,6.459-3.244,9.785c-0.363,3.375-1.696,8.128,1.692,10.478c2.859,1.983,6.12,0.605,7.767-2.034
		c2.31-3.7,2.696-9.793,2.542-13.926c-0.148-3.959-1.454-7.863-5.297-9.852c-1.601-0.829-3.575-0.609-4.892,0.598
		c-3.994,3.66-6.713,20.102,1.183,21.926c5.117,1.182,7.367-4.798,7.937-8.413c0.813-5.154,0.151-9.928-4.969-12.725
		c-4.575-2.5-8.257,3.805-4.075,6.603c2.81,1.881,6.011,2.324,9.334,1.678c3.19-0.62,4.164-5.695,0.964-6.989
		c-1.883-0.761-3.288-1.01-5.335-0.884c0.358,2.504,0.715,5.007,1.073,7.511c2.778-0.423,5.489-1.638,7.599-3.403
		c1.575-1.317,1.549-4.089,0-5.407c-2.259-1.924-4.418-1.523-7.244-1.652c1.298,1.613,2.595,3.227,3.893,4.84
		c0.134-0.693,0.911-1.382,1.509-1.754c-1.977-1.439-3.954-2.879-5.93-4.318c-0.25,0.583-0.611,1.12-0.916,1.677
		c-0.499,0.913-1.395,1.168-0.136,0.867c1.703,1.229,3.407,2.458,5.11,3.687c0.091-1.524,1.219-3.053,2.002-4.338
		c-2.324-1.287-4.648-2.573-6.972-3.86c-0.743,1.527-1.582,3.131-2.501,4.573c2.508,0.643,5.015,1.287,7.523,1.93
		c-0.211-1.668,2.063-4.545,2.915-5.789c1.563-2.282,4.008-5.564,6.654-2.587c1.903-1.802,3.806-3.605,5.709-5.407
		c-0.722-0.671-1.473-1.312-2.251-1.925c-0.272,2.002-0.545,4.004-0.817,6.005c-1.643,0.998-2.417-0.696-0.58,1.385
		c0.552,0.626,1.273,1.093,2.006,1.504c2.436,1.363,5.002-0.035,5.93-2.285c0.137-0.333,0.275-0.665,0.412-0.998
		c1.058-2.563-2.224-5.777-4.966-4.704c-0.153,0.06-0.305,0.119-0.458,0.179c-4.735,1.853-2.66,9.255,2.146,7.374
		c0.153-0.06,0.305-0.119,0.458-0.179c-1.655-1.568-3.311-3.136-4.966-4.704c-0.137,0.333-0.275,0.665-0.412,0.998
		c1.977-0.762,3.954-1.523,5.93-2.285c-3.424-1.916-4.913-5.721-9.577-2.888c-2.043,1.241-2.871,4.321-0.817,6.005
		c0.778,0.612,1.529,1.254,2.251,1.925c3.839,3.421,9.02-1.681,5.709-5.407c-4.193-4.719-9.384-5.753-14.449-1.479
		c-3.834,3.236-9.558,10.075-8.903,15.262c0.451,3.575,5.284,5.443,7.523,1.93c0.931-1.462,1.746-3.021,2.501-4.573
		c2.136-4.39-4.326-8.203-6.972-3.86c-1.627,2.671-2.919,5.089-3.104,8.198c-0.152,2.546,2.696,4.265,5.11,3.687
		c3.643-0.872,5.408-4.893,6.691-7.885c1.331-3.107-3.152-6.051-5.93-4.318c-2.282,1.423-4.709,3.682-5.22,6.324
		c-0.485,2.509,1.106,4.714,3.893,4.84c0.398,0.018,2.649,0.361,1.535-0.588c0-1.802,0-3.605,0-5.407
		c-1.072,0.896-2.697,1.232-4.036,1.436c-4.474,0.682-3.45,7.789,1.073,7.511c0.498,0.156,0.918,0.102,1.26-0.16
		c0.321-2.33,0.643-4.659,0.964-6.989c-1.208,0.182-2.245-0.12-3.112-0.907c-1.358,2.201-2.717,4.402-4.075,6.603
		c1.669,0.912,1.373,2.208,1.25,3.742c-0.042,0.532-0.845,3.581-0.143,3.418c1.037,0.128,2.074,0.257,3.111,0.385
		c1.321,0.6,0.204,0.805,0.303-0.662c0.029-0.429-0.101-0.92-0.127-1.349c-0.097-1.601-0.158-6.239,1.239-7.519
		c-1.631,0.199-3.262,0.399-4.892,0.598c2.092,1.083,1.247,5.199,1.068,6.781c-0.158,1.397-0.333,2.797-0.599,4.18
		c-0.288,1.496-0.916,2.014,0.331,1.73c1.037,0.128,2.074,0.257,3.111,0.385c-0.258-0.157-0.515-0.313-0.773-0.47
		c0.618,0.762,1.237,1.523,1.855,2.285c-0.31-1.063,0.047-10.029,1.653-10.286c-1.037-0.128-2.074-0.257-3.111-0.385
		c-0.215-0.104-1.889,9.377-3.152,10.124c1.358,0,2.717,0,4.075,0c1.499,0.816,0.754,0.666,1.072-1.31
		c0.174-1.08,0.486-2.17,0.774-3.227c0.379-1.39,1.856-4.116,0.811-4.806c-1.214-0.801-1.744,2.701-2.123,3.987
		c-0.249,0.843-0.614,1.756-0.742,2.612c-0.233,1.547-1.62,1.506,0.524,0.98c1.037,0.128,2.074,0.257,3.111,0.385
		c-0.149-0.073-0.298-0.146-0.447-0.218c0.618,0.762,1.237,1.523,1.855,2.285c-1.069-2.828,3.444-10.813,5.083-11.416
		c-1.037-0.128-2.074-0.257-3.111-0.385c-0.473-1.949-0.816-2.138-1.032-0.565c-0.163,0.41-0.327,0.82-0.49,1.231
		c-0.428,0.989-0.981,1.952-1.506,2.899c-0.336,0.606-0.657,1.215-1.032,1.801c-0.267,0.437-0.55,0.863-0.85,1.28
		c-1.146,0.926-0.944,1.221,0.606,0.883c0.94,1.568,1.88,3.136,2.82,4.704c0.471-2.183,1.398-4.393,2.465-6.377
		c0.34-0.633,0.837-1.241,1.131-1.887c0.762-1.67,1.82-0.77-0.295-0.996c-0.952-0.373-1.903-0.747-2.855-1.12
		c0.116,0.131,0.233,0.263,0.349,0.394c-0.394-0.901-0.788-1.802-1.182-2.704c-0.205,1.855-1.695,4.166-2.441,5.761
		c-0.857,1.832-1.647,4.512-3.245,5.906c1.903,0,3.806,0,5.709,0c-0.098-0.099-0.196-0.198-0.293-0.297
		c0.394,0.901,0.788,1.802,1.182,2.704c-0.079-1.237,0.992-2.601,1.589-3.673c0.806-1.446,1.631-3.167,2.958-4.243
		c0.636-0.516,2.641-1.065,2.256-1.494c-0.394-0.901-0.788-1.802-1.182-2.704c0.032,0.876-2.337,3.107-3.024,3.942
		c-1.744,2.12-3.509,4.29-5.641,6.081c-4.357,3.661-9.899,4.19-15.29,5.537c-4.361,1.09-3.527,7.617,1.073,7.511
		c4.603-0.106,9.422,0.545,13.824-0.997c4.306-1.508,8.188-4.598,11.556-7.49c5.284-4.539,13.031-10.916,11.742-18.429
		c-0.512-2.985-4.744-3.484-6.748-1.687c-1.888,1.693-2.311,4.511-3.383,6.698c-1.39,2.838-4.473,7.592-8.29,7.687
		c0.952,0.373,1.903,0.747,2.855,1.12c-0.192-0.142-0.384-0.284-0.576-0.427c0.394,0.901,0.788,1.802,1.182,2.704
		c0.028-0.948,2.905-2.473,3.615-3.062c1.473-1.221,2.839-2.566,4.161-3.931c2.364-2.441,4.984-4.59,6.016-7.83
		c1.112-3.489-2.921-5.587-5.93-4.318c-4.597,1.938-7.706,7.337-11.001,10.678c-4.699,4.765-8.664,9.387-15.934,9.717
		c0.679,2.375,1.358,4.75,2.038,7.125c6.169-2.82,16.557-5.878,19.531-12.43C64.187,55.728,57.234,51.828,55.185,56.342
		L55.185,56.342z"/>
	<path class="st0" d="M23.015,39.511c1.605,1.551,3.235,3.125,4.474,4.992c1.272,1.916,2.43,3.849,4.035,5.519
		c3.564,3.709,9.2-1.937,5.641-5.641c-1.451-1.51-2.365-3.404-3.612-5.076c-1.469-1.969-3.133-3.731-4.897-5.435
		C24.963,30.3,19.315,35.935,23.015,39.511L23.015,39.511z"/>
	<path class="st0" d="M36.665,42.879c-1.064-1.124-3.69-3.218-3.951-4.707c-1.636,1.636-3.271,3.271-4.907,4.907
		c1.594,0.224,4.135,2.82,5.44,3.655c2.247,1.437,4.527,2.794,6.94,3.934c0.671-2.478,1.342-4.955,2.013-7.433
		c-2.071-0.174-5.847-3.121-6.808-4.899c-1.148,2.001-2.296,4.001-3.444,6.002c0.724-0.071,3.963,2.122,4.644,2.433
		c2.687,1.227,5.206,2.365,8,3.325c0.707-2.564,1.414-5.128,2.121-7.693c-1.853-0.416-6.627-1.283-7.745-2.765
		c-0.477,1.819-0.954,3.638-1.431,5.457c0.053-0.025,3.868,1.725,4.266,1.868c1.658,0.598,3.151,1.023,4.902,1.248
		c4.421,0.567,5.486-7.074,1.06-7.835c-1.028-0.032-1.943-0.382-2.745-1.049c-1.025,2.43-2.049,4.86-3.074,7.291
		c1.634,0.544,3.088,0.899,4.798,1.093c4.469,0.507,5.414-6.875,1.06-7.835c-7.031-1.55-15.824-2.578-19.55-9.575
		c-1.839-3.454-7.602-1.916-7.433,2.013c0.235,5.465,2.621,10.33,6.397,14.287c1.926,2.018,4.137,3.956,6.31,5.699
		c2.272,1.823,5.242,2.735,7.39,4.607c3.84,3.347,9.452-2.141,5.641-5.641c-3.521-3.234-7.86-5.398-11.266-8.746
		c-1.611,2.088-3.222,4.176-4.834,6.265c2.7,1.929,5.483,3.862,7.943,6.093c1.611-2.088,3.222-4.176,4.834-6.265
		c-3.869-2.552-8.689-6.567-13.309-7.509c-3.178-0.648-5.4,1.838-4.907,4.907c0.339,2.108,1.457,3.461,2.887,4.984
		c0.94-2.27,1.88-4.54,2.821-6.809c-0.695-0.041-2-1.087-2.834-1.299c-1.017-0.258-2.102-0.237-3.137-0.491
		c-3.802-0.932-6.778,3.802-3.881,6.667c3.422,3.384,7.194,5.416,11.123,8.07c2.483,1.677,5.083,4.188,8.308,3.907
		c2.056-0.179,4.115-1.684,3.989-3.989c-0.316-5.766-7.419-7.911-11.752-10.175c-4.227-2.209-7.556,2.795-4.834,6.265
		c3.838,4.894,12.098,8.514,18.177,8.997c4.032,0.32,5.309-5.569,2.013-7.433c-3.983-2.252-8.267-3.926-12.25-6.201
		c-4.53-2.588-8.164,3.971-4.026,6.888c2.15,1.516,4.274,3.103,6.52,4.476c0.34,0.208,3.228,1.793,3.267,1.861
		c2.558,4.45,9.454,0.437,6.888-4.026c-1.013-1.762-2.338-2.495-4.036-3.5c-2.974-1.759-5.787-3.707-8.612-5.699
		c-1.342,2.296-2.684,4.592-4.026,6.888c3.983,2.275,8.267,3.948,12.25,6.201c0.671-2.478,1.342-4.955,2.013-7.433
		c-4.024-0.32-10.035-3.471-12.536-6.661c-1.611,2.088-3.222,4.176-4.834,6.265c0.926,0.484,7.855,4.292,7.8,3.286
		c1.33-1.33,2.659-2.659,3.989-3.989c-1.445,0.126-4.57-3.025-5.703-3.724c-2.976-1.837-5.575-3.433-8.087-5.917
		c-1.294,2.222-2.587,4.445-3.881,6.667c2.72,0.667,5.306,1.909,8.092,2.075c3.605,0.214,5.056-4.428,2.821-6.809
		c-0.279-0.488-0.557-0.976-0.836-1.464c-1.636,1.636-3.271,3.271-4.907,4.907c3.806,0.776,8.174,4.576,11.403,6.705
		c3.762,2.481,8.193-3.218,4.834-6.265c-2.96-2.684-6.311-5.022-9.557-7.34c-3.736-2.668-8.003,3.149-4.834,6.265
		c3.423,3.366,7.747,5.515,11.266,8.746c1.88-1.88,3.761-3.761,5.641-5.641c-6.286-5.479-17.33-8.947-17.761-18.952
		c-2.478,0.671-4.955,1.342-7.433,2.013c4.981,9.353,14.814,11.146,24.318,13.241c0.353-2.612,0.707-5.223,1.06-7.835
		c-0.907-0.223-1.799-0.492-2.677-0.808c-4.482-1.493-6.668,4.88-3.074,7.291c1.458,0.978,2.914,1.554,4.651,1.853
		c0.353-2.612,0.707-5.223,1.06-7.835c-4.918-0.631-8.076-4.404-13.194-2.027c-1.801,0.837-2.643,3.85-1.431,5.457
		c2.806,3.72,8.127,5.447,12.512,6.432c5.034,1.13,6.968-6.029,2.121-7.693c-3.236-1.111-6.436-2.533-9.453-4.134
		c-1.774-0.941-3.192-2.115-5.312-1.908c-3.001,0.293-4.979,3.163-3.444,6.002c2.431,4.496,8.714,8.433,13.697,8.851
		c3.873,0.325,5.538-5.768,2.013-7.433c-2.913-1.376-5.79-3.018-8.425-4.879c-1.926-1.36-3.426-3.173-5.861-3.514
		c-3.13-0.439-5.473,1.684-4.907,4.907c0.56,3.187,3.863,5.968,6.003,8.227C34.561,52.256,40.196,46.608,36.665,42.879
		L36.665,42.879z"/>
	<path class="st0" d="M21.32,49.144c-0.29-0.165,0.54,0.667,0.736,0.89c0.474,0.539,1.002,1.027,1.51,1.535
		c0.999,1.001,1.968,1.986,3.077,2.866c2.057,1.63,4.419,2.856,6.383,4.597c3.83,3.395,9.493-2.227,5.641-5.641
		c-2.18-1.933-4.745-3.272-7.001-5.086c-2.228-1.792-3.847-4.642-6.32-6.049C20.877,39.713,16.853,46.603,21.32,49.144L21.32,49.144
		z"/>
	<path class="st0" d="M22.49,49.263c1.219,3.433,4.545,5.184,7.277,7.395c3.33,2.695,7.38,4.588,10.616,7.315
		c1.611-2.088,3.222-4.176,4.834-6.265c-2.579-1.107-4.276-3.518-7.081-4.486c0.795,0.611,1.589,1.222,2.384,1.833
		c-0.153-0.198-0.306-0.396-0.459-0.594c-2.088,1.611-4.176,3.222-6.265,4.834c1.658,1.581,3.38,3.079,5.11,4.58
		c1.611-2.088,3.222-4.176,4.834-6.265c-3.561-1.926-7.951-5.336-12.231-4.331c-2.795,0.656-4.021,4.72-1.76,6.667
		c1.011,0.87,2.235,1.532,3.077,2.562c0.94-2.27,1.88-4.54,2.821-6.809c0.05-0.089,0.1-0.178,0.15-0.267
		c-1.294,2.222-2.587,4.445-3.881,6.667c1.879,0.425,3.333,2.306,4.908,3.332c1.384,0.902,4.035,1.59,5,2.585
		c1.294-2.222,2.587-4.445,3.881-6.667c-0.145-0.039-2.265-1.61-3.077-2.009c-4.568-2.247-8.479,4.222-4.026,6.888
		c0.753,0.539,1.477,1.115,2.171,1.728c0.269-2.088,0.538-4.176,0.807-6.265c-2.684,1.312-5.071,1.343-7.999,1.604
		c-3.065,0.273-4.897,3.162-3.444,6.002c1.988,3.886,6.131,4.009,10.002,3.916c5.142-0.123,5.129-7.781,0-7.978
		c-2.481-0.095-4.776-0.258-7.229,0.242c-2.743,0.559-4.096,4.841-1.76,6.667c1.648,1.288,3.298,2.085,5.291,2.743
		c4.979,1.643,6.753-5.813,2.121-7.693c-0.301-0.122-1.415-0.325-1.633-0.606c-1.294,2.222-2.587,4.445-3.881,6.667
		c1.634,0.449,3.113,0.79,4.802,0.958c5.104,0.51,5.069-7.471,0-7.978c-0.903-0.187-1.797-0.411-2.681-0.673
		c-4.19-1.151-6.166,3.724-3.881,6.667c1.303,1.679,3.302,1.906,5.154,2.657c0.707-2.564,1.414-5.128,2.121-7.693
		c-0.613-0.171-1.203-0.401-1.771-0.691c-0.587,2.222-1.173,4.445-1.76,6.667c1.66-0.339,3.434-0.021,5.108,0.043
		c0-2.659,0-5.318,0-7.978c-0.382,0.009-2.981,0.294-3.114,0.035c-1.148,2.001-2.296,4.001-3.444,6.002
		c4.472-0.399,7.952-0.703,12.025-2.694c2.188-1.07,2.691-4.678,0.807-6.265c-1.258-1.059-2.37-2.127-3.786-2.975
		c-1.342,2.296-2.684,4.592-4.026,6.888c1.811,0.891,2.978,2.272,4.982,2.813c3.878,1.047,6.644-3.817,3.881-6.667
		c-1.946-2.007-4.897-2.692-7.193-4.294c-2.006-1.4-3.769-3.118-6.235-3.675c-4.109-0.929-6.327,3.624-3.881,6.667
		c1.476,1.836,3.207,2.376,5.491,2.603c3.811,0.379,4.757-4.44,2.821-6.809c-0.889-1.088-2.029-1.659-3.077-2.562
		c-0.587,2.222-1.173,4.445-1.76,6.667c-1.23,0.289,0.842,0.701,1.542,1.095c1.511,0.851,3.014,1.605,4.542,2.432
		c3.821,2.067,8.391-3.179,4.834-6.265c-1.73-1.501-3.452-2.999-5.11-4.58c-3.124-2.978-9.136,1.114-6.265,4.834
		c1.187,1.538,2.174,1.93,3.74,2.942c1.514,0.979,2.592,2.444,4.278,3.168c3.751,1.61,8.635-3.06,4.834-6.265
		c-2.653-2.237-5.845-3.78-8.665-5.811c-1.619-1.167-3.046-2.527-4.585-3.784c-0.25-0.204-2.7-1.901-2.591-1.595
		C28.477,42.338,20.766,44.408,22.49,49.263L22.49,49.263z"/>
	<path class="st0" d="M32.844,64.231c-3.48,0-7.259-0.526-10.681,0.181c-1.64,0.339-2.419,2.185-2.089,3.68
		c0.766,3.471,4.563,3.166,6.785,5.042c1.331,1.124,2.621,2.027,4.354,2.433c0.851,0.199,1.701,0.065,2.535,0.204
		c0.883,0.147,1.527,0.468,2.46,0.362c2.31-0.262,4.281-3.229,2.115-5.107c-2.086-1.809-4.875-2.721-7.322-3.943
		c-3.421-1.709-6.436,3.334-3.02,5.166c2.004,1.075,3.76,2.63,5.944,3.354c2.404,0.798,4.835-2.253,3.378-4.395
		c-1.213-1.783-2.545-3.281-4.821-3.409c-3.176-0.179-3.779,4.022-1.51,5.575c0.959,0.657,1.719,0.812,2.872,0.845
		c3.851,0.111,3.848-5.872,0-5.983c0.049-0.009,0.099-0.019,0.148-0.028c-0.503,1.858-1.007,3.716-1.51,5.575
		c-1.124-0.063-0.875-0.332-0.346,0.446c1.126-1.465,2.252-2.93,3.378-4.395c-1.596-0.53-3.044-1.962-4.514-2.751
		c-1.007,1.722-2.013,3.444-3.02,5.166c1.871,0.935,4.519,1.627,6.111,3.008c0.705-1.702,1.41-3.405,2.115-5.107
		c-0.845,0.096-2.328-0.213-3.175-0.341c-1.249-0.189-1.781-0.827-2.679-1.619c-0.853-0.752-1.757-1.339-2.834-1.718
		c-0.418-0.147-0.859-0.322-1.303-0.378c-1.126-0.144-0.628-0.748-0.373,0.408c-0.696,1.227-1.393,2.453-2.089,3.68
		c2.764-0.571,6.269,0.033,9.09,0.033C36.693,70.215,36.7,64.231,32.844,64.231L32.844,64.231z"/>
	<path class="st0" d="M33.845,55.222c-2.015,0.076-3.893,0.383-5.605-0.916c-2.697-2.046-6.161,2.465-3.625,4.699
		c1.246,1.097,2.66,1.852,3.978,2.838c1.263,0.945,2.226,2.213,3.492,3.165c1.948,1.465,4.751,3.253,7.266,3.205
		c3.845-0.073,3.858-6.057,0-5.983c-1.412,0.027-3.829-2.046-4.782-2.979c-1.773-1.734-3.885-2.859-5.723-4.477
		c-1.208,1.566-2.417,3.132-3.625,4.699c2.531,1.92,5.626,1.846,8.624,1.733C37.683,61.06,37.702,55.076,33.845,55.222
		L33.845,55.222z"/>
	<path class="st1" d="M3.854,7.205c-1.661,12.166-2.932,24.4-3.1,36.727c-0.09,6.565-0.026,13.134-0.03,19.699
		C0.721,70.203-0.05,77.3,1.246,83.769c0.737,3.683,1.347,8.978,4.753,11.21c4.025,2.637,10.455,1.992,15.023,2.32
		c12.878,0.926,26.056-0.06,38.971,0.1c5.832,0.072,11.605-0.752,17.4-1.326c4.833-0.479,10.054-0.757,14.213-3.529
		c3.878-2.585,4.85-6.509,5.652-10.863c1.295-7.028,1.418-14.49,1.283-21.618c-0.113-5.975,0.962-11.804,0.966-17.775
		c0.003-5.522-0.593-10.957-1.427-16.396c-0.832-5.424-2.579-10.892-4.695-15.961c-1.443-3.457-3.367-5.49-7.025-6.487
		c-6.901-1.88-14.875-0.875-21.943-0.875c-7.303,0-14.981,1.014-22.217,0.284c-6.329-0.639-12.387,0.19-18.64,1.016
		c-3.546,0.468-7.07-0.016-10.613,0.085C9.81,4.042,8.207,5.716,5.361,6.7c-4.34,1.501-2.475,8.439,1.909,6.923
		c1.913-0.662,3.71-2.142,5.677-2.491c1.94-0.344,4.375,0.131,6.354,0.112c4.902-0.047,9.768-0.919,14.649-1.366
		c5.156-0.472,10.207,0.497,15.378,0.119c5.364-0.392,10.752-0.25,16.128-0.25c5.356,0,10.913-0.441,16.24,0.139
		c3.229,0.352,4.194,0.654,5.413,3.591c1.01,2.434,1.686,5.058,2.497,7.563c2.738,8.459,3.415,18.852,2.495,27.652
		c-1.169,11.171,0.524,23.177-2.38,34.105c-1.348,5.074-5.711,5.308-10.326,5.848c-5.198,0.608-10.659,1.414-15.878,1.603
		c-10.431,0.378-20.947-0.195-31.39-0.073c-5.002,0.058-9.849-0.133-14.831-0.449c-1.616-0.102-5.733,0.504-6.991-0.643
		c-1.361-1.241-1.826-5.475-2.136-7.223c-1.033-5.82-0.268-12.328-0.264-18.229c0.004-6.212-0.05-12.426,0.015-18.637
		c0.127-12.031,1.236-24.001,2.858-35.88C11.395,4.596,4.478,2.641,3.854,7.205L3.854,7.205z"/>
</g>
</svg>
