<?xml version="1.0" encoding="utf-8"?>
<!-- Generator: Adobe Illustrator 23.0.4, SVG Export Plug-In . SVG Version: 6.00 Build 0)  -->
<svg version="1.1" id="Capa_1" xmlns="http://www.w3.org/2000/svg" xmlns:xlink="http://www.w3.org/1999/xlink" x="0px" y="0px"
	 viewBox="0 0 100 100" style="enable-background:new 0 0 100 100;" xml:space="preserve">
<style type="text/css">
	.st0{fill:#C04B4F;}
	.st1{fill:#FFFFFF;}
</style>
<g>
	<path class="st0" d="M18.037,15.24c-4.469,0.122-9.199,0.648-12.537,3.957c-3.408,3.379-3.467,8.471-3.926,12.942
		C0.323,44.338,1.679,57.653,4.426,69.572c0.866,3.758,1.74,9.175,4.86,11.833c3.146,2.681,9.136,2.928,13.005,3.604
		c12.232,2.137,24.615-0.284,36.859,1.395c5.152,0.707,10.69,0.618,15.828-0.151c3.05-0.457,5.85-1.549,8.833-2.238
		c1.892-0.437,3.91-0.589,5.636-1.565c8.068-4.565,8.701-19.364,8.974-27.363c0.18-5.273,0.743-10.931,0.321-16.184
		c-0.195-2.431-1.097-4.743-1.18-7.18c-0.082-2.428,0.627-4.863-0.224-7.243c-2.804-7.845-11.527-10.507-18.834-11.464
		c-14.52-1.902-29.125,0.46-43.646,0.294c-6.74-0.077-13.238,0.211-19.901,1.005c-4.082,0.486-6.831,2.194-7.673,6.429
		c-0.593,2.978,3.974,4.253,4.569,1.26c0.759-3.813,7.089-3.34,10.333-3.758c5.095-0.656,10.434-0.207,15.564-0.164
		c9.506,0.08,18.957-0.925,28.495-0.925c8.176,0,18.819-0.612,24.725,6.102c2.722,3.095,1.582,6.293,1.949,9.994
		c0.45,4.531,1.12,8.415,0.92,13.036c-0.376,8.686,0.166,17.476-2.923,25.79c-1.858,5.001-3.451,6.234-8.366,7.368
		c-4.975,1.148-9.438,2.477-14.623,2.575c-4.496,0.085-8.723-0.649-13.176-0.966c-4.538-0.323-9.212,0.001-13.758,0.105
		c-4.788,0.11-9.559,0.347-14.326-0.25c-3.843-0.481-9.215-0.818-12.754-2.433c-4.194-1.915-4.905-9.822-5.709-13.947
		c-1.09-5.589-1.676-11.243-1.91-16.93c-0.236-5.741-0.623-11.881,0.521-17.503c0.398-1.956,0.13-4.673,1.067-6.377
		c1.889-3.436,6.792-3.651,10.155-3.743C21.081,19.895,21.093,15.156,18.037,15.24L18.037,15.24z"/>
	<path class="st0" d="M6.729,24.195c-0.37,3.163-2.435,6.025-2.832,9.264c1.58,0,3.159,0,4.739,0
		c0.139-2.254,1.921-4.555,2.945-6.496c1.09-2.067,1.947-4.207,2.993-6.29c-1.24,0.16-2.481,0.32-3.721,0.48
		c0.161,0.174-2.945,6.628-3.496,8.024c-1.909,4.843-2.595,10.086-4.361,14.927c1.523,0.42,3.046,0.84,4.569,1.26
		c1.073-4.365,3.56-8.866,5.386-12.98c1.591-3.584,2.963-7.367,4.915-10.769c-1.24,0.16-2.481,0.32-3.721,0.48
		c-0.363-0.444-1.797,4.529-1.99,5.166c-0.937,3.083-1.917,6.154-2.919,9.217C7.764,40.97,5.683,45.62,4.981,50.312
		c-0.397,2.653,2.705,4.088,4.331,1.826c2.883-4.012,3.542-10.09,5.331-14.664c2.257-5.771,4.994-11.547,7.696-17.132
		c-1.472-0.399-2.944-0.797-4.415-1.196c0.355,2.715-1.625,6.621-2.37,9.248c-0.946,3.336-2.116,6.591-3.178,9.89
		c-2.076,6.447-2.955,13.13-4.9,19.572c1.523,0.42,3.046,0.84,4.569,1.26c4.016-13.86,8.659-27.517,14.55-40.714
		c-1.472-0.399-2.944-0.797-4.415-1.196c-0.844,8.655-5.058,17.136-7.905,25.256c-2.709,7.726-4.985,15.777-6.472,23.829
		c-0.385,2.084,2.299,4.301,3.96,2.305c2.04-2.451,2.484-5.786,3.416-8.781c1.522-4.888,3.198-9.731,5.047-14.506
		c3.122-8.062,6.169-16.444,10.237-24.05c-1.472-0.399-2.944-0.797-4.415-1.196c-0.502,6.11-3.727,12.694-5.622,18.492
		c-2.097,6.415-4.463,12.722-6.346,19.207c-1.248,4.297-2.522,8.566-3.829,12.838c-0.776,2.536-1.697,5.776,0.424,7.887
		c1.375,1.369,3.312,0.554,3.96-1.046c3.638-8.978,5.612-18.489,9.064-27.517c3.573-9.342,6.22-19.726,10.869-28.585
		c-1.444-0.189-2.887-0.377-4.331-0.566c0.395,2.725-1.298,6.782-2.043,9.38c-0.845,2.945-1.833,5.847-2.823,8.745
		c-1.918,5.615-3.752,11.244-5.439,16.934c-1.496,5.045-2.779,10.161-4.351,15.18c-0.846,2.701-2.004,5.721-0.469,8.373
		c0.861,1.488,3.257,1.593,4.092,0c2.319-4.427,3.073-9.185,4.318-13.972c1.444-5.554,3.41-10.994,5.245-16.428
		c1.823-5.398,3.487-10.861,5.417-16.221c0.95-2.637,2.165-5.179,3.078-7.826c0.757-2.195,0.868-4.923,2.723-6.507
		c-1.117,0-2.234,0-3.351,0c-0.091-0.101-3.3,9.06-3.385,9.331c-1.771,5.622-3.669,11.202-5.263,16.879
		c-1.619,5.766-3.144,11.561-4.618,17.365c-1.253,4.934-3.093,10.575-2.933,15.689c0.067,2.156,3.397,3.476,4.415,1.196
		c1.98-4.432,2.899-9.403,4.252-14.064c1.649-5.679,3.433-11.314,5.423-16.883c1.902-5.321,4.065-10.515,6.233-15.73
		c2.039-4.904,3.399-9.951,5.703-14.744c-1.472-0.399-2.944-0.797-4.415-1.196c-0.052,5.665-2.534,11.236-4.464,16.463
		c-2.042,5.531-3.77,11.192-5.484,16.831c-1.64,5.397-3.187,10.821-4.742,16.243c-1.257,4.381-3.302,8.796-3.64,13.362
		c-0.15,2.035,2.706,3.145,4.045,1.675c2.65-2.909,3.151-7.942,4.432-11.555c2.204-6.215,4.36-12.439,6.752-18.585
		c2.246-5.77,4.681-11.464,6.926-17.233c1.197-3.078,2.321-6.184,3.315-9.333c0.176-0.558,1.374-5.7,1.894-5.818
		c-1-0.762-1.999-1.523-2.999-2.285c-0.403,5.316-2.748,11.049-4.563,16.028c-1.995,5.471-4.105,10.883-5.988,16.396
		c-3.603,10.55-7.635,20.933-9.378,31.998c-0.338,2.148,1.512,3.527,3.481,2.676c2.388-1.032,3.124-6.038,3.74-8.169
		c1.617-5.587,3.567-11.053,5.587-16.509c2.868-7.747,5.903-15.411,9.424-22.887c1.383-2.936,2.653-5.871,3.899-8.865
		c0.723-1.736,1.716-3.399,2.404-5.141c0.152-0.385,0.416-2.35,0.67-2.615c-1.32-0.349-2.64-0.697-3.96-1.046
		c1.63,4.045-2.613,11.932-3.892,15.734c-1.815,5.399-3.604,10.809-5.514,16.176c-1.718,4.825-3.655,9.566-5.448,14.362
		c-1.758,4.704-2.877,9.71-4.745,14.345c-1.017,2.522,3.031,4.11,4.331,1.826c2.376-4.177,3.603-8.997,5.381-13.449
		c2.395-5.996,4.95-11.928,7.624-17.804C53.453,44,55.967,38.995,58.28,33.896c0.971-2.14,1.924-4.3,2.747-6.502
		c0.906-2.424,1.224-5.701,2.941-7.699c-0.957,0.123-1.914,0.247-2.871,0.37c-0.885-0.606-1.189,2.178-1.605,3.369
		c-0.755,2.164-1.576,4.306-2.339,6.468c-2.033,5.759-3.973,11.55-5.935,17.333c-1.905,5.614-3.859,11.211-5.739,16.833
		c-1.73,5.175-2.733,10.791-4.624,15.84c1.523,0.42,3.046,0.84,4.569,1.26c3.599-11.087,7.287-21.853,11.619-32.685
		c2.228-5.571,5.112-10.788,7.492-16.282c1.039-2.398,1.913-4.863,2.887-7.287c0.964-2.4,1.888-6.251,3.484-8.253
		c-1.32-0.349-2.64-0.697-3.96-1.046c0.39,2.374-1.14,5.521-1.839,7.78c-0.809,2.617-1.68,5.213-2.595,7.795
		c-1.942,5.477-4.028,10.903-6.035,16.357c-1.96,5.327-3.989,10.625-6.066,15.907c-1.992,5.065-2.799,10.542-4.827,15.515
		c-1.006,2.468,3.192,4.251,4.331,1.826c4.871-10.371,8.64-21.324,13.386-31.783c5.152-11.356,11.236-22.295,16.654-33.528
		c-1.081,0.283-2.161,0.567-3.242,0.85c-0.999-0.629-1.594,2.232-1.92,3.101c-0.937,2.491-1.785,5.014-2.746,7.498
		c-2.257,5.834-4.785,11.558-7.144,17.351c-4.365,10.721-9.242,22.039-11.805,33.278c-0.632,2.774,2.744,3.883,4.331,1.826
		c2.967-3.847,4.341-8.876,6.442-13.224c2.643-5.469,5.456-10.853,8.133-16.305c2.179-4.438,4.751-8.712,6.733-13.241
		c1.946-4.446,3.2-10.581,6.195-14.463c-1.444-0.189-2.887-0.377-4.331-0.566c0.419,1.883-0.963,4.07-1.576,5.765
		c-0.801,2.216-1.497,4.47-2.303,6.685c-1.929,5.305-4.103,10.513-6.273,15.723c-3.945,9.473-7.49,19.137-11.247,28.655
		c1.523,0.42,3.046,0.84,4.569,1.26c3.931-10.144,8.678-20.245,13.377-30.06c2.136-4.462,4.368-8.874,6.433-13.37
		c1.986-4.325,3.542-9.066,6.042-13.117c-1.444-0.189-2.887-0.377-4.331-0.566c0.294,1.708-0.81,3.793-1.321,5.392
		c-0.84,2.631-1.58,5.289-2.464,7.908c-1.671,4.95-3.534,9.833-5.374,14.722c-3.909,10.384-7.652,20.774-11.297,31.241
		c-0.96,2.757,2.84,3.778,4.331,1.826c5.383-7.05,7.988-16.934,11.685-24.961c1.999-4.341,4.002-8.679,5.969-13.035
		c1.746-3.867,3.162-8.653,5.639-12.108c-1.472-0.399-2.943-0.797-4.415-1.196c-0.05,8.961-4.502,18.493-7.404,26.842
		c-1.527,4.394-3.165,8.748-4.825,13.092c-1.583,4.143-3.815,8.399-4.578,12.782c-0.441,2.534,2.88,4.269,4.331,1.826
		c3.966-6.677,6.519-14.348,9.628-21.45c3.208-7.327,6.847-14.591,9.592-22.098c-1.551-0.21-3.103-0.42-4.654-0.63
		c0.364,3.109-1.016,6.634-1.593,9.718c-0.588,3.144-1.18,6.275-1.952,9.382c-1.41,5.679-3.331,11.493-3.857,17.335
		c-0.211,2.343,3.377,3.226,4.415,1.196c3.074-6.011,4.197-13.125,7.683-18.93c-1.472-0.399-2.944-0.797-4.415-1.196
		c0.209,3.486-0.564,6.705-2.114,9.829c1.364,0,2.728,0,4.092,0c-0.11-0.159-0.22-0.318-0.331-0.477
		c-1.725-2.49-5.834-0.124-4.092,2.392c0.11,0.159,0.22,0.318,0.331,0.477c0.936,1.351,3.241,1.714,4.092,0
		c1.911-3.85,3.02-7.9,2.761-12.22c-0.138-2.296-3.159-3.287-4.415-1.196c-3.494,5.818-4.608,12.916-7.683,18.93
		c1.472,0.399,2.943,0.797,4.415,1.196c0.59-6.557,3.1-13.055,4.482-19.474c0.672-3.121,1.16-6.278,1.805-9.405
		c0.52-2.52,1.419-4.964,1.115-7.555c-0.308-2.634-3.698-3.244-4.654-0.63c-2.812,7.69-6.581,15.185-9.871,22.693
		c-2.86,6.526-5.23,13.593-8.871,19.723c1.444,0.609,2.887,1.217,4.331,1.826c0.763-4.381,2.994-8.64,4.578-12.782
		c1.882-4.924,3.723-9.862,5.43-14.85c2.844-8.31,6.918-17.427,6.969-26.344c0.014-2.51-3.115-3.01-4.415-1.196
		c-2.468,3.444-3.889,8.233-5.639,12.108c-1.967,4.356-3.97,8.694-5.969,13.035c-3.697,8.026-6.302,17.911-11.685,24.961
		c1.444,0.609,2.887,1.217,4.331,1.826c4.048-11.625,8.264-23.151,12.595-34.687c1.944-5.179,3.868-10.37,5.499-15.658
		c1.124-3.644,3.027-7.579,2.362-11.439c-0.364-2.113-3.343-2.166-4.331-0.566c-2.509,4.065-4.05,8.778-6.042,13.117
		c-2.336,5.086-4.897,10.061-7.265,15.132c-4.513,9.663-9.17,19.489-13.023,29.431c-1.105,2.851,3.463,4.063,4.569,1.26
		c4.219-10.69,8.289-21.493,12.698-32.136c2.281-5.506,4.442-11.046,6.375-16.684c1.168-3.408,3.144-6.851,2.325-10.527
		c-0.493-2.214-3.198-2.035-4.331-0.566c-2.517,3.263-3.79,8.304-5.317,12.195c-2.107,5.37-5.071,10.337-7.611,15.509
		c-2.536,5.165-5.193,10.27-7.713,15.443c-2.205,4.527-3.788,10.101-6.863,14.086c1.444,0.609,2.887,1.217,4.331,1.826
		c1.487-6.524,4.134-12.596,6.416-18.919c2.591-7.176,5.334-14.257,8.28-21.294c2.573-6.145,4.971-12.337,7.275-18.585
		c0.958-2.598,2.38-5.947-0.535-7.782c-1.021-0.643-2.698-0.278-3.242,0.85C70.445,24.327,64.36,35.266,59.208,46.621
		c-4.742,10.453-8.518,21.421-13.386,31.783c1.444,0.609,2.887,1.217,4.331,1.826c2.14-5.249,3.052-11.018,5.165-16.364
		c2.433-6.155,4.723-12.362,7.016-18.57c2.108-5.708,4.326-11.379,6.233-17.159c1.421-4.309,3.705-9.171,2.948-13.781
		c-0.275-1.676-2.896-2.38-3.96-1.046c-3.034,3.806-4.258,9.278-6.036,13.77c-2.261,5.712-5.269,11.064-7.65,16.725
		c-5.004,11.897-9.037,23.849-13.015,36.104c-0.953,2.937,3.517,4.072,4.569,1.26c1.03-2.751,1.38-5.842,2.273-8.675
		c1.13-3.587,2.339-7.151,3.548-10.713c2.328-6.861,4.678-13.714,7.01-20.574c1.965-5.781,4.261-11.49,6.09-17.311
		c0.854-2.717,1.908-6.03-0.856-7.923c-0.806-0.552-2.227-0.379-2.871,0.37c-2.772,3.227-3.263,7.636-4.834,11.501
		c-2.369,5.827-5.319,11.417-7.947,17.129c-2.34,5.084-4.581,10.213-6.732,15.379c-2.383,5.723-4.005,12.225-7.066,17.606
		c1.444,0.609,2.887,1.217,4.331,1.826c1.981-4.914,3.184-10.21,5.062-15.191c2.148-5.697,4.392-11.346,6.381-17.102
		c1.964-5.683,3.852-11.393,5.78-17.088c1.352-3.994,4.082-9.522,2.376-13.756c-0.632-1.568-2.614-2.454-3.96-1.046
		c-1.352,1.414-1.316,3.22-2.112,4.975c-1.368,3.015-2.588,6.095-3.949,9.115c-3.019,6.7-6.093,13.295-8.763,20.15
		c-2.643,6.785-5.319,13.639-7.462,20.602c-0.432,1.404-0.782,2.834-1.202,4.242c-0.291,0.975-0.567,1.961-0.919,2.917
		c-0.37,1.005-1.262,1.834-0.359,1.444c1.16,0.892,2.32,1.784,3.481,2.676c1.835-11.65,6.186-22.587,9.955-33.701
		c3.488-10.285,9.314-21.029,10.144-31.98c0.122-1.609-1.606-2.602-2.999-2.285c-2.819,0.642-3.637,4.166-4.42,6.555
		c-2.177,6.639-4.571,13.103-7.204,19.578c-2.586,6.359-5.126,12.738-7.43,19.205c-1.167,3.275-2.301,6.561-3.462,9.838
		c-0.752,2.124-1.385,6.908-2.895,8.566c1.348,0.558,2.697,1.117,4.045,1.675c0.358-4.854,2.904-10.134,4.247-14.813
		c1.642-5.72,3.297-11.437,5.07-17.118c3.072-9.844,8.916-20.524,9.012-30.967c0.021-2.242-3.37-3.37-4.415-1.196
		c-4.319,8.984-7.635,18.737-11.134,28.103c-1.957,5.24-3.744,10.543-5.374,15.894c-1.719,5.647-2.7,12.04-5.103,17.423
		c1.472,0.399,2.944,0.797,4.415,1.196c-0.207-6.609,2.608-13.921,4.263-20.23c1.722-6.563,3.477-13.118,5.534-19.585
		c1.601-5.035,3.197-10.077,4.863-15.089c0.818-2.46,2.129-5.504,0.152-7.71c-0.901-1.006-2.421-0.794-3.351,0
		c-2.942,2.511-3.2,6.706-4.53,10.136c-2.215,5.71-4.193,11.439-6.134,17.25c-1.953,5.849-3.987,11.672-5.808,17.564
		c-1.729,5.596-2.313,11.739-5.05,16.963c1.364,0,2.728,0,4.092,0c-1.079-1.865,2.413-9.828,2.919-11.636
		c1.624-5.813,3.32-11.612,5.17-17.358c1.691-5.25,3.639-10.416,5.209-15.705c1.229-4.142,2.937-8.431,2.306-12.781
		c-0.296-2.04-3.444-2.255-4.331-0.566c-4.564,8.696-7.139,18.791-10.666,27.959c-3.698,9.615-5.871,19.717-9.745,29.276
		c1.32-0.349,2.64-0.697,3.96-1.046c-0.672-0.669,1.711-5.823,2.016-6.785c1.851-5.845,3.218-11.827,5.196-17.64
		c1.854-5.447,3.755-10.869,5.513-16.35c1.499-4.676,3.631-9.374,4.036-14.299c0.194-2.363-3.344-3.199-4.415-1.196
		c-3.573,6.68-6.216,13.919-9.03,20.97c-1.803,4.516-3.542,9.043-5.092,13.654c-1.094,3.253-1.646,9.121-3.837,11.753
		c1.32,0.768,2.64,1.537,3.96,2.305c1.598-8.651,4.089-17.297,7.093-25.565c2.902-7.99,6.621-16.245,7.453-24.779
		c0.223-2.285-3.471-3.311-4.415-1.196c-6.06,13.575-10.896,27.587-15.028,41.846c-0.851,2.937,3.689,4.175,4.569,1.26
		c2.117-7.014,3.128-14.262,5.454-21.266c1.083-3.262,2.137-6.509,3.071-9.818c0.771-2.729,2.464-6.034,2.092-8.886
		c-0.267-2.044-3.263-3.577-4.415-1.196c-2.435,5.033-4.764,10.207-6.984,15.341c-1.171,2.71-2.124,5.49-3.077,8.282
		c-0.875,2.562-1.381,5.967-2.966,8.173c1.444,0.609,2.887,1.217,4.331,1.826c0.976-6.525,4.049-13.085,6.028-19.36
		c1.119-3.547,4.731-10.024,1.918-13.47c-0.977-1.197-3.022-0.739-3.721,0.48c-2.229,3.886-3.816,8.222-5.608,12.323
		c-1.782,4.077-4.107,8.237-5.17,12.558c-0.738,3,3.535,4.095,4.569,1.26c2.102-5.76,3.083-11.828,5.527-17.526
		c1.198-2.793,3.624-7.309,1.112-10.035c-0.99-1.074-3.05-0.857-3.721,0.48c-2.264,4.508-6.268,10.024-6.585,15.178
		c-0.191,3.102,4.378,2.948,4.739,0c0.399-3.261,2.448-5.979,2.832-9.264C11.821,21.172,7.08,21.197,6.729,24.195L6.729,24.195z"/>
	<path class="st1" d="M39.191,37.838c0,5.108,0.236,10.28-0.012,15.383c-0.128,2.636-1.908,6.759-0.26,9.18
		c0.832,1.222,2.607,1.649,3.721,0.48c1.162-1.219-1.42,0.61,0.072-0.093c0.36-0.17,0.811-0.129,1.196-0.323
		c2.237-1.131,3.944-3.285,6.143-4.586c2.164-1.281,4.403-2.438,6.478-3.865c2.541-1.748,4.611-3.92,7.773-4.48
		c2.998-0.532,1.727-5.099-1.26-4.569c-5.401,0.958-10.067,5.718-14.737,8.445c-2.279,1.33-4.045,3.33-6.121,4.67
		c-1.021,0.659-1.878,0.386-2.895,1.453c1.24,0.16,2.481,0.32,3.721,0.48c-0.325-0.478,0.523-2.682,0.606-3.327
		c0.26-2.02,0.32-4.022,0.327-6.055c0.014-4.263-0.014-8.526-0.013-12.789C43.93,34.789,39.191,34.784,39.191,37.838L39.191,37.838z
		"/>
	<path class="st1" d="M39.885,38.103c6.959,5.44,16.884,3.677,23.884,8.84c-0.16-1.24-0.32-2.481-0.48-3.721
		c-0.428,0.346-0.856,0.693-1.284,1.039c-2.42,1.799-0.06,5.914,2.392,4.092c0.787-0.585,1.502-1.14,2.243-1.78
		c1.265-1.091,0.65-2.888-0.48-3.721c-6.649-4.904-16.535-3.103-22.925-8.099C40.86,32.895,37.483,36.225,39.885,38.103
		L39.885,38.103z"/>
	<path class="st1" d="M43.283,42.475c0.13,0.024,0.26,0.047,0.39,0.071c-0.58-0.762-1.16-1.523-1.739-2.285
		c0.698,5.544-1.401,10.826-1.811,16.262c-0.198,2.629,4.236,3.279,4.654,0.63c0.44-2.785,0.727-5.618,1.432-8.347
		c0.218-0.843,0.632-5.141,1.19-5.755c-1.348-0.558-2.697-1.117-4.045-1.675c-0.265,4.917-2.672,10.104-1.629,15.008
		c0.434,2.041,3.34,2.248,4.331,0.566c1.073-1.822,1.751-3.913,2.574-5.865c0.919-2.178,0.86-4.553,1.695-6.65
		c-1.551-0.21-3.103-0.42-4.654-0.63c0.137,2.739-0.179,5.38,0.285,8.1c0.425,2.491,3.88,2,4.569,0
		c0.897-2.602,0.972-5.639,2.147-8.124c-1.444-0.189-2.887-0.377-4.331-0.566c0.924,2.293,0.08,4.8,0.34,7.199
		c0.227,2.091,2.4,3.062,4.045,1.675c1.689-1.424,1.008-4.363,2.272-5.411c-1.24-0.16-2.481-0.32-3.721-0.48
		c1.425,2.579,5.904,6.352,7.767,1.577c2.013-5.158-5.764-5.822-8.474-7.218c-0.399,1.472-0.797,2.944-1.196,4.415
		c2.021,0.085,3.717,1.566,5.551,2.228c1.828,0.66,3.676,0.867,5.593,1.035c2.792,0.244,3.026-3.834,0.63-4.654
		c-0.931-0.477-1.847-0.98-2.749-1.508c-2.655-1.516-4.997,2.507-2.392,4.092c0.546,0.425,1.093,0.85,1.639,1.275
		c0.558-1.348,1.117-2.697,1.675-4.045c-0.484,0.057-0.968,0.115-1.452,0.172c-2.027,0.241-3.603,3.325-1.196,4.415
		c2.392,1.084,4.672,0.945,7.037-0.137c2.621-1.199,0.615-4.741-1.826-4.331c-4.19,0.705-7.02,5.312-10.703,7.352
		c-1.899,1.052-4.049,1.473-5.865,2.712c-1.953,1.333-3.007,3.229-4.631,4.927c1.32,0.349,2.64,0.697,3.96,1.046
		c-0.772-2.093-0.248-4.705-0.248-6.9c0-3.334-0.05-6.667,0.011-10.001c0.056-3.06-4.602-3.036-4.739,0
		c-0.289,6.443-2.287,12.727-1.291,19.276c0.16,1.053,1.331,1.688,2.285,1.739c2.895,0.156,4.344-1.327,6.789-2.631
		c2.423-1.292,4.958-2.147,7.242-3.713c2.983-2.045,10.452-4.357,11.218-8.499c0.811-4.384-4.643-6.12-7.613-7.717
		c-5.019-2.7-11.512-5.048-17.167-5.589c-0.953-0.091-2.108,0.795-2.285,1.739c-0.901,4.808-0.412,10.67-0.027,15.519
		c0.233,2.933-0.662,8.05,2.548,9.622c3.663,1.794,8.406-2.822,11.662-4.046c4.794-1.802,9.034-3.565,12.906-7.095
		c1.935-1.764,4.071-5.187,1.736-7.614c-0.989-1.027-2.38-0.924-3.634-1.256c-3.399-0.9-6.664-2.33-10.09-3.186
		c-3.268-0.817-6.182-2.282-9.405-3.151c-2.168-0.584-5.272-0.772-5.743,2.099c-0.489,2.983,4.076,4.267,4.569,1.26
		c-0.322,1.963-0.198,0.803,1.277,1.672c0.815,0.48,1.848,0.815,2.741,1.162c1.746,0.678,3.476,1.073,5.3,1.529
		c3,0.75,7.521,1.5,10.09,3.186c0.495,0.107,0.995,0.189,1.498,0.246c-0.77,0.353-1.539,0.706-2.309,1.059
		c-1.337,0.777-2.416,1.92-3.711,2.758c-2.825,1.828-6.273,2.528-9.37,3.855c-1.133,0.486-2.278,0.928-3.261,1.692
		c-0.501,0.358-0.995,0.726-1.482,1.105c-0.248,0.848-0.327,0.884-0.239,0.109c-0.906-1.609-0.485-7.564-0.469-9.222
		c0.03-3.121-0.595-6.97-0.02-10.042c-0.762,0.58-1.523,1.16-2.285,1.739c1.25,0.12,2.888,1.029,4.158,1.301
		c2.752,0.589,5.119,1.193,7.717,2.32c0.65,0.282,7.901,3.206,8.05,3.914c0.218,1.036-7.761,4.727-8.672,5.35
		c-1.911,1.307-3.792,2.201-5.88,3.185c-1.581,0.745-4.079,2.699-5.844,2.604c0.762,0.58,1.523,1.16,2.285,1.739
		c-0.922-6.062,1.192-12.059,1.46-18.016c-1.58,0-3.159,0-4.739,0c-0.07,3.8,0.05,7.599-0.011,11.398
		c-0.036,2.295-0.394,4.563,0.417,6.762c0.591,1.602,2.641,2.425,3.96,1.046c1.416-1.481,2.527-3.453,4.259-4.59
		c1.617-1.061,3.608-1.363,5.278-2.308c1.512-0.856,3.122-2.03,4.507-3.06c1.49-1.109,3.174-3.496,5.064-3.814
		c-0.609-1.444-1.217-2.887-1.826-4.331c-0.751,0.046-1.502,0.091-2.254,0.137c-0.399,1.472-0.797,2.944-1.196,4.415
		c0.484-0.057,0.968-0.115,1.452-0.172c1.924-0.229,3.27-2.479,1.675-4.045c-0.98-0.962-1.422-1.301-2.598-2.016
		c-0.797,1.364-1.594,2.728-2.392,4.092c1.347,0.769,2.411,1.483,3.881,1.986c0.21-1.551,0.42-3.103,0.63-4.654
		c-4.069-0.356-7.135-3.095-11.144-3.263c-2.312-0.097-3.277,3.343-1.196,4.415c1.425,0.734,9.819,3.913,7.19-0.843
		c-0.794-1.438-2.589-1.419-3.721-0.48c-1.705,1.415-0.876,4.235-2.272,5.411c1.348,0.558,2.697,1.117,4.045,1.675
		c-0.316-2.909,0.618-5.659-0.51-8.459c-0.674-1.673-3.364-2.611-4.331-0.566c-1.386,2.93-1.573,6.204-2.625,9.256
		c1.523,0,3.046,0,4.569,0c-0.385-2.257-0.002-4.567-0.115-6.84c-0.139-2.787-3.683-3.068-4.654-0.63
		c-1.466,3.681-1.688,7.811-3.792,11.383c1.444,0.189,2.887,0.377,4.331,0.566c-0.892-4.196,1.567-9.451,1.798-13.748
		c0.109-2.021-2.688-3.167-4.045-1.675c-1.506,1.656-1.294,3.659-1.766,5.722c-0.808,3.525-1.507,6.879-2.074,10.471
		c1.551,0.21,3.103,0.42,4.654,0.63c0.412-5.459,2.512-10.695,1.811-16.262c-0.122-0.971-0.643-2.085-1.739-2.285
		c-0.13-0.024-0.26-0.047-0.39-0.071C41.561,37.362,40.282,41.928,43.283,42.475L43.283,42.475z"/>
</g>
<g>
</g>
<g>
</g>
<g>
</g>
<g>
</g>
<g>
</g>
<g>
</g>
</svg>
