<?xml version="1.0" encoding="utf-8"?>
<!-- Generator: Adobe Illustrator 24.3.0, SVG Export Plug-In . SVG Version: 6.00 Build 0)  -->
<svg version="1.1" id="Capa_1" xmlns="http://www.w3.org/2000/svg" xmlns:xlink="http://www.w3.org/1999/xlink" x="0px" y="0px"
	 viewBox="0 0 100 100" style="enable-background:new 0 0 100 100;" xml:space="preserve">
<style type="text/css">
	.st0{fill:none;stroke:#F16362;stroke-width:7.44;stroke-linecap:round;stroke-linejoin:round;}
</style>
<polyline class="st0" points="57.9,84.6 6.5,84.6 6.5,6.3 93.5,6.3 93.5,84.6 81.6,84.6 "/>
<path class="st0" d="M81.6,62.7c0,1.2-2.4,2-2.8,3.1s1,3.2,0.3,4.1S76,70,75,70.7s-1,3.2-2.2,3.5s-2.6-1.7-3.8-1.7s-2.7,2-3.8,1.7
	S64,71.3,63,70.7s-3.4,0.1-4.1-0.8s0.7-3,0.3-4.1s-2.8-1.9-2.8-3.1s2.4-2,2.8-3.1s-1-3.2-0.3-4.1s3.1-0.1,4.1-0.8s1-3.2,2.2-3.5
	c1.2-0.3,2.6,1.7,3.8,1.7s2.7-2,3.8-1.7s1.2,2.9,2.2,3.5s3.4-0.1,4.1,0.8s-0.7,3-0.3,4.1S81.6,61.5,81.6,62.7z"/>
<polyline class="st0" points="76.3,70.9 76.3,95.7 69.2,90.2 62.1,95.7 62.1,70.9 "/>
</svg>
