<svg id="Capa_1" data-name="Capa 1" xmlns="http://www.w3.org/2000/svg" viewBox="0 0 100 100"><defs><style>.cls-1{fill:#dd4751;}.cls-2,.cls-3{fill:none;stroke:#dd4751;stroke-linecap:round;stroke-linejoin:round;}.cls-2{stroke-width:7.2px;}.cls-3{stroke-width:7.44px;}</style></defs><title>iconos seccion taller</title><g id="_14CRFB.tif" data-name="14CRFB.tif"><path class="cls-1" d="M50.19,24.44a20,20,0,0,1,10.5,2.47c2.64,1.52,3.6,3.8,2.74,6.34a4.76,4.76,0,0,1-6.11,3.29,47.37,47.37,0,0,0-6.09-1.66,10.85,10.85,0,0,0-4.6.61,3.24,3.24,0,0,0-2.09,3.2,2.9,2.9,0,0,0,2,3c2.46,1,5,1.76,7.48,2.56,3.15,1,6.25,2.11,8.78,4.34,7,6.1,5.72,18.23-2.41,23.49a20,20,0,0,1-14.34,3,74.89,74.89,0,0,1-8.38-1.82,8.7,8.7,0,0,1-3-1.77,5.28,5.28,0,0,1-1.41-6.68c1.07-2.06,3.29-3,5.91-2.33,1.59.39,3.13,1,4.69,1.51a12.91,12.91,0,0,0,8.12.43,5.09,5.09,0,0,0,3.69-4.66c.11-2.35-1.33-3.58-3.27-4.27-3.21-1.13-6.52-2-9.68-3.22a21.86,21.86,0,0,1-6-3.25c-5.19-4.29-5.27-13.06-.37-18.74C39.7,26.38,44.35,24.43,50.19,24.44Z"/></g><line class="cls-2" x1="50" y1="18.37" x2="50" y2="81.63"/><circle class="cls-3" cx="50" cy="50" r="45.11"/></svg>