<svg id="Capa_1" data-name="Capa 1" xmlns="http://www.w3.org/2000/svg" viewBox="0 0 100 100"><defs><style>.cls-1{fill:none;stroke:#dd4751;stroke-linecap:round;stroke-linejoin:round;stroke-width:7.44px;}</style></defs><title>iconos seccion taller</title><polyline class="cls-1" points="57.92 84.61 6.5 84.61 6.5 6.35 93.5 6.35 93.5 84.61 81.62 84.61"/><path class="cls-1" d="M81.63,62.65c0,1.2-2.4,2-2.77,3.08s1,3.2.34,4.12-3.1.14-4.06.81-1,3.19-2.15,3.54-2.59-1.68-3.79-1.68-2.7,2-3.79,1.68-1.2-2.88-2.15-3.54-3.36.12-4.06-.81.71-3,.33-4.12-2.76-1.88-2.76-3.08,2.39-2,2.76-3.08-1-3.2-.33-4.13,3.1-.13,4.06-.81,1-3.19,2.15-3.54S68,52.78,69.2,52.78s2.7-2,3.79-1.69,1.2,2.88,2.15,3.54,3.36-.12,4.06.81-.71,3-.34,4.13S81.63,61.45,81.63,62.65Z"/><polyline class="cls-1" points="76.26 70.9 76.26 95.65 69.2 90.15 62.13 95.65 62.13 70.9"/></svg>