<?xml version="1.0" encoding="utf-8"?>
<!-- Generator: Adobe Illustrator 24.3.0, SVG Export Plug-In . SVG Version: 6.00 Build 0)  -->
<svg version="1.1" id="Capa_1" xmlns="http://www.w3.org/2000/svg" xmlns:xlink="http://www.w3.org/1999/xlink" x="0px" y="0px"
	 viewBox="0 0 100 100" style="enable-background:new 0 0 100 100;" xml:space="preserve">
<style type="text/css">
	.st0{fill:#F16362;}
	.st1{fill:none;stroke:#F16362;stroke-width:6.8784;stroke-linecap:round;stroke-linejoin:round;}
	.st2{fill:none;stroke:#F16362;stroke-width:7.0552;stroke-linecap:round;stroke-linejoin:round;}
</style>
<path class="st0" d="M39.6,88.4c0,4.4-3.9,8.2-8.3,8.2c-4.7,0-8.4-3.9-8.3-8.6c0.1-4.5,3.9-8,8.4-7.9S39.6,84,39.6,88.4z"/>
<path class="st1" d="M39.6,54.4c0-9.5,0-18.2,0-27.7c7,4.6,13.7,9,20.9,13.8C53.4,45.2,46.8,49.6,39.6,54.4z"/>
<path class="st2" d="M82.8,75.2H17.2c-5.3,0-9.5-4.3-9.5-9.5v-50c0-5.3,4.3-9.5,9.5-9.5h65.5c5.3,0,9.5,4.3,9.5,9.5v50
	C92.3,70.9,88,75.2,82.8,75.2z"/>
<line class="st1" x1="8.7" y1="88.3" x2="91.3" y2="88.3"/>
</svg>
