<?xml version="1.0" encoding="utf-8"?>
<!-- Generator: Adobe Illustrator 28.0.0, SVG Export Plug-In . SVG Version: 6.00 Build 0)  -->
<svg version="1.1" id="Layer_1" xmlns="http://www.w3.org/2000/svg" xmlns:xlink="http://www.w3.org/1999/xlink" x="0px" y="0px"
	 viewBox="0 0 200 200" style="enable-background:new 0 0 200 200;" xml:space="preserve">
<g>
	<path d="M155.7,194.4c-3,0.2-5.2-1.7-7.6-2.9c-9.1-4.7-18.1-9.5-27.2-14.3c-5-2.6-10-5.3-15-7.9c-4.2-2.1-8.4-2.1-12.7,0.3
		c-5.8,3.3-11.9,6.2-17.9,9.3c-9.3,4.8-18.6,9.7-27.8,14.6c-3.4,1.8-6.6,1-9.2-1.3c-2.3-2.1-3.1-4.9-2.6-8.2
		c1-5.7,1.7-11.5,2.9-17.1c0.9-4,1.6-8.1,2.2-12.1c0.9-6.3,2.6-12.5,3.2-18.8c0.3-2.5,1.1-4.9,0.5-7.6c-0.4-2.1-1.1-3.8-2.7-5.3
		c-11.5-11.3-23-22.6-34.5-33.9C6.3,88.1,5,87.2,3.9,86c-4.7-5.1-3-11.8,2.6-14.3c1.1-0.5,2.2-0.2,3.3-0.4c5-0.8,10-1.6,15-2.4
		c5.2-0.8,10.3-1.6,15.5-2.4c6.3-0.9,12.7-1.7,19-2.6c4.7-0.7,8.2-3,10.3-7.4c5.2-10.8,10.5-21.5,15.8-32.2
		c2.4-4.9,4.8-9.7,7.3-14.6c1.5-3,4.2-4.2,7.4-4.3c3.4,0,6,1.8,7.6,4.8c6.4,12.7,12.7,25.5,19,38.3c1.5,3,3,6,4.5,9
		c2,4.2,5.5,6,10,6.5c4.9,0.5,9.7,1.4,14.6,2.2c3.9,0.6,7.8,1.2,11.7,1.7c3.9,0.5,7.8,1,11.7,1.8c3.9,0.8,7.9,1.2,11.9,1.6
		c3.4,0.3,5.8,1.8,7.1,4.9c1.4,3.3,0.7,6.9-1.8,9.3c-10.3,10.2-20.7,20.3-31,30.4c-2,2-4.2,3.9-6.2,5.9c-3.6,3.4-4.5,7.5-3.5,12.4
		c1.4,7.4,2.4,14.8,3.7,22.2c1,5.8,2.2,11.5,3,17.3c0.7,4.5,2.4,8.8,1.8,13.5C163.5,191.5,160.1,194.4,155.7,194.4z"/>
</g>
</svg>
