<?xml version="1.0" encoding="utf-8"?>
<!-- Generator: Adobe Illustrator 28.0.0, SVG Export Plug-In . SVG Version: 6.00 Build 0)  -->
<svg version="1.1" id="Layer_1" xmlns="http://www.w3.org/2000/svg" xmlns:xlink="http://www.w3.org/1999/xlink" x="0px" y="0px"
	 viewBox="0 0 200 200" style="enable-background:new 0 0 200 200;" xml:space="preserve">
<g>
	<path d="M120.1,161.7H3.1c-1.8,0-3.2-1.4-3.2-3.2v-117c0-1.8,1.4-3.2,3.2-3.2h117c1.8,0,3.2,1.4,3.2,3.2v117
		C123.3,160.3,121.9,161.7,120.1,161.7z"/>
	<path d="M143.3,66.6c-1.1,0.5-1.8,1.7-1.8,2.9V100v30.6c0,1.2,0.7,2.3,1.8,2.9l52.2,26c2.1,1.1,4.6-0.5,4.6-2.9V100V43.5
		c0-2.4-2.5-3.9-4.6-2.9L143.3,66.6z"/>
</g>
</svg>
