<?xml version="1.0" encoding="utf-8"?>
<!-- Generator: Adobe Illustrator 26.4.1, SVG Export Plug-In . SVG Version: 6.00 Build 0)  -->
<svg version="1.1" id="Capa_1" xmlns="http://www.w3.org/2000/svg" xmlns:xlink="http://www.w3.org/1999/xlink" x="0px" y="0px"
	 viewBox="0 0 117.102 100" style="enable-background:new 0 0 117.102 100;" xml:space="preserve">
<style type="text/css">
	.st0{fill:#F16362;}
	.st1{fill:#FFFFFF;}
</style>
<path class="st0" d="M92.791,69.593c-0.666-4.074-2.702-7.574-6.057-10.406c-0.424-0.357-0.833-0.846-1.105-1.183
	c-1.593-1.973-2.744-4.444-3.733-8.013c-1.363-4.923-2.056-10.253-2.119-16.295c-0.036-3.438-0.658-6.672-1.85-9.613
	c-2.735-6.747-7.698-11.671-15.166-15.048c-1.29-3.025-3.609-5.286-6.718-6.546c-0.651-0.264-1.299-0.456-1.87-0.625
	c-0.227-0.067-0.453-0.134-0.679-0.206l-0.422-0.134l-0.443,0L49.59,1.526l-0.682,0L48.3,1.835
	c-0.015,0.007-0.029,0.015-0.044,0.023c-4.062,0.985-6.986,3.373-8.707,7.108c-0.5,0.272-1.026,0.532-1.581,0.807
	c-1.217,0.603-2.476,1.226-3.682,2.081c-7.511,5.324-11.491,13.034-11.829,22.914c-0.194,5.644-0.593,10.347-1.911,14.953
	c-1.415,4.941-3.259,8.211-5.978,10.602c-1.26,1.107-2.389,2.632-3.179,4.294C10.731,66,10.278,67.404,9.84,68.762
	c-0.211,0.654-0.411,1.273-0.629,1.876L9.062,71.05l-0.018,0.438l-0.019,0.456l-0.019,0.474l-0.019,0.457l0.125,0.44
	c0.098,0.345,0.211,0.686,0.324,1.027c0.085,0.254,0.17,0.507,0.244,0.764c1.384,4.851,4.271,7.872,8.581,8.982
	c1.766,0.455,3.543,0.457,5.111,0.459c3.397,0.004,6.792,0.003,10.188,0.005c-0.12,0.62-0.13,1.27,0.018,1.924
	c0.163,0.721,0.434,1.357,0.677,1.885c1.989,4.324,5.501,7.376,10.438,9.068c0.936,0.321,1.845,0.523,2.724,0.719
	c0.352,0.079,0.704,0.157,1.053,0.243l0.337,0.083h0.348h3.91h0.567l0.524-0.217c0.038-0.016,0.075-0.032,0.113-0.049
	c3.492-0.509,6.63-1.908,9.338-4.164c2.318-1.93,3.95-4.29,4.85-7.016c0.27-0.819,0.304-1.663,0.149-2.472
	c3.89-0.001,7.779-0.001,11.669-0.003c5.903-0.002,10.435-3.131,12.124-8.369c0.146-0.451,0.274-0.91,0.401-1.368
	c0.052-0.189,0.105-0.378,0.159-0.567l0.111-0.386v-0.401v-2.607v-0.821L92.791,69.593z M11.894,71.607
	c-0.013,0.319-0.025,0.613-0.038,0.931C11.869,72.22,11.881,71.925,11.894,71.607c0.173-0.48,0.335-0.966,0.494-1.453
	C12.229,70.641,12.067,71.127,11.894,71.607z M81.352,56.62c0.383,0.741,0.811,1.461,1.293,2.155
	C82.163,58.081,81.735,57.361,81.352,56.62c-0.575-1.111-1.051-2.27-1.462-3.457C80.301,54.35,80.777,55.509,81.352,56.62z
	 M76.925,33.726c0.008,0.721,0.024,1.441,0.049,2.159C76.948,35.167,76.932,34.447,76.925,33.726
	c-0.008-0.737-0.044-1.469-0.113-2.196C76.88,32.257,76.917,32.989,76.925,33.726z M60.199,10.303
	c0.057,0.14,0.127,0.273,0.209,0.397C60.326,10.576,60.256,10.443,60.199,10.303C59.949,9.69,59.65,9.122,59.305,8.6
	C59.65,9.122,59.949,9.69,60.199,10.303z M54.971,5.133c-0.758-0.307-1.559-0.507-2.34-0.755
	C53.413,4.626,54.213,4.826,54.971,5.133z M45.29,12.505c-0.128,0.549-0.346,0.958-0.673,1.263
	C44.944,13.464,45.162,13.054,45.29,12.505z M28.759,21.934c-0.73,1.263-1.339,2.588-1.831,3.972
	C27.42,24.522,28.029,23.197,28.759,21.934z M15.957,70.827c-0.088,0.357-0.133,0.734-0.138,1.12
	C15.824,71.561,15.869,71.184,15.957,70.827c0.14-0.568,0.307-1.118,0.504-1.65C16.264,69.709,16.097,70.259,15.957,70.827z
	 M17.145,67.638c0.26-0.494,0.553-0.969,0.882-1.424C17.697,66.668,17.405,67.143,17.145,67.638z M35.379,81.7
	c-4.001-0.002-8.002-0.001-12.004-0.006c4.003,0.004,8.007-0.001,12.01,0.002C35.383,81.697,35.381,81.698,35.379,81.7z
	 M40.623,81.696c7.007,0.003,14.015,0.004,21.022,0.003c-0.003,0.002-0.005,0.005-0.008,0.007c-3.106,0.001-6.212,0.002-9.318,0.002
	c-3.896,0-7.793-0.004-11.689-0.006C40.628,81.7,40.626,81.698,40.623,81.696z M48.453,91.807c-1.03-0.22-2.007-0.509-2.916-0.883
	C46.447,91.299,47.423,91.587,48.453,91.807c0.392,0.084,0.789,0.141,1.187,0.187C49.242,91.949,48.845,91.891,48.453,91.807z
	 M59.284,85.299c-1.501,2.352-4.782,3.932-8.165,3.932c-0.71,0-1.406-0.072-2.07-0.214c-3.338-0.714-5.378-2.112-6.518-4.462
	c3.262,0.001,6.525,0.005,9.788,0.005c2.45,0,4.9-0.001,7.35-0.002C59.543,84.835,59.416,85.092,59.284,85.299z M61.689,86.835
	c-0.232,0.363-0.5,0.706-0.784,1.037C61.189,87.541,61.457,87.198,61.689,86.835c0.183-0.287,0.342-0.59,0.489-0.9
	C62.031,86.245,61.872,86.548,61.689,86.835z M66.834,81.704c-0.002-0.002-0.005-0.003-0.007-0.005
	c4.482-0.001,8.965,0.003,13.447,0.002C75.794,81.703,71.314,81.703,66.834,81.704z M83.468,73.123
	c-0.304,1.768-1.367,2.016-2.259,2.034c-4.188,0.086-8.408,0.093-12.372,0.093l-1.61,0l-1.611,0l-1.386,0
	c-5.801,0.004-11.602,0.005-17.403,0.006c-8.064,0.001-16.128,0.003-24.192,0.012c-0.369,0-0.614,0.014-0.869,0.055
	c-0.231-0.034-0.497-0.064-0.807-0.087c-0.716-0.056-1.239-0.58-1.55-1.01c-0.662-0.916-0.845-2.06-0.683-2.717
	c0.54-2.195,1.493-3.828,2.999-5.139c3.907-3.403,5.838-7.907,7.084-11.451c1.992-5.669,2.966-11.991,3.066-19.896
	c0.086-6.753,3.455-15.029,12.65-18.001c1.867-0.605,3.092-1.942,3.542-3.867c0.328-1.404,1.532-2.311,3.067-2.311
	c1.587,0.008,2.73,0.859,3.079,2.277c0.469,1.91,1.652,3.21,3.615,3.974c5.868,2.281,9.639,5.872,11.527,10.977
	c0.849,2.295,0.939,4.837,1.034,7.528l0.016,0.45c0.326,8.995,1.79,16.106,4.608,22.38c1.414,3.148,3.434,5.925,6.004,8.256
	C83.089,68.563,83.891,70.669,83.468,73.123z M89.683,75.31c-0.165,0.511-0.362,0.994-0.589,1.448
	C89.322,76.303,89.519,75.82,89.683,75.31c0.098-0.305,0.187-0.612,0.274-0.921C89.871,74.697,89.782,75.005,89.683,75.31z
	 M90.053,70.587c-0.12-0.942-0.323-1.837-0.604-2.688C89.731,68.75,89.933,69.645,90.053,70.587
	c0.006,0.048,0.033,0.093,0.065,0.137C90.086,70.68,90.059,70.635,90.053,70.587z"/>
<circle class="st1" cx="88.783" cy="33.23" r="26.068"/>
</svg>
