<svg id="Capa_1" data-name="Capa 1" xmlns="http://www.w3.org/2000/svg" viewBox="0 0 100 100"><defs><style>.cls-1{fill:#ffffff;}</style></defs><path class="cls-1" d="M92.19,69.45a17,17,0,0,0-6.06-10.4A9.94,9.94,0,0,1,85,57.86a21.36,21.36,0,0,1-3.73-8,63.35,63.35,0,0,1-2.12-16.3,26.14,26.14,0,0,0-1.85-9.61c-2.73-6.75-7.7-11.67-15.16-15a12.06,12.06,0,0,0-6.72-6.54,18.73,18.73,0,0,0-1.87-.63l-.68-.2-.42-.14H48.3l-.6.31-.05,0a12.36,12.36,0,0,0-8.71,7.1c-.5.28-1,.54-1.58.81a27.4,27.4,0,0,0-3.68,2.08c-7.51,5.33-11.49,13-11.83,22.92a60.62,60.62,0,0,1-1.91,14.95c-1.41,4.94-3.26,8.21-6,10.6a13.61,13.61,0,0,0-3.18,4.29,35.15,35.15,0,0,0-1.55,4.15c-.21.65-.41,1.27-.62,1.88l-.15.41,0,.44,0,.46,0,.47,0,.45.13.44c.09.35.21.69.32,1s.17.51.24.76c1.39,4.86,4.28,7.88,8.59,9a20.89,20.89,0,0,0,5.11.46H33a4.61,4.61,0,0,0,0,1.92,9.63,9.63,0,0,0,.68,1.89,17,17,0,0,0,10.44,9.07,25.58,25.58,0,0,0,2.72.72q.52.1,1,.24l.34.08H53l.52-.22.11,0A18.56,18.56,0,0,0,63,93.9a15.28,15.28,0,0,0,4.85-7A5,5,0,0,0,68,84.42H79.67c5.9,0,10.43-3.13,12.12-8.37.15-.45.28-.91.4-1.36.06-.19.11-.38.16-.57l.11-.39V69.89ZM50.53,7.85Zm8.15,77.31c-1.5,2.35-4.78,3.93-8.17,3.93a9.44,9.44,0,0,1-2.07-.22c-3.33-.71-5.37-2.11-6.51-4.45H59.06A6.35,6.35,0,0,1,58.68,85.16ZM82.86,73a2.09,2.09,0,0,1-2.25,2c-4.19.08-8.41.09-12.38.09H22a5.44,5.44,0,0,0-.87.05l-.8-.09a2.2,2.2,0,0,1-1.55-1,3.61,3.61,0,0,1-.69-2.71,9.47,9.47,0,0,1,3-5.14C25,62.82,27,58.32,28.21,54.78c2-5.67,3-12,3.06-19.9.09-6.75,3.46-15,12.65-18A5.09,5.09,0,0,0,47.46,13a3,3,0,0,1,3.07-2.31A3,3,0,0,1,53.61,13a5.47,5.47,0,0,0,3.61,4c5.87,2.28,9.64,5.87,11.53,11a24.28,24.28,0,0,1,1,7.53v.45c.33,9,1.79,16.1,4.61,22.38a24.69,24.69,0,0,0,6,8.25A6.68,6.68,0,0,1,82.86,73Z"/></svg>
