<?xml version="1.0" encoding="utf-8"?>
<!-- Generator: Adobe Illustrator 26.4.1, SVG Export Plug-In . SVG Version: 6.00 Build 0)  -->
<svg version="1.1" id="Capa_1" xmlns="http://www.w3.org/2000/svg" xmlns:xlink="http://www.w3.org/1999/xlink" x="0px" y="0px"
	 viewBox="0 0 100 100" style="enable-background:new 0 0 100 100;" xml:space="preserve">
<style type="text/css">
	.st0{fill:#FFFFFF;}
</style>
<g id="YC22rK_00000176742933511786386150000014033133370114356643_">
	<g>
		<g>
			<path class="st0" d="M51.678,2.027c0.822,0.261,1.664,0.471,2.461,0.794c2.581,1.046,4.445,2.857,5.497,5.436
				c0.24,0.588,0.698,1.061,1.279,1.32c6.625,2.957,11.795,7.421,14.583,14.298c1.171,2.888,1.694,5.914,1.726,9.012
				c0.063,6.065,0.716,12.051,2.337,17.905c0.947,3.418,2.218,6.705,4.481,9.508c0.475,0.589,0.986,1.167,1.562,1.653
				c3.028,2.556,4.92,5.733,5.425,9.695c0.013,0.1,0.112,0.189,0.171,0.283v2.741c-0.186,0.648-0.353,1.301-0.56,1.942
				c-1.385,4.297-4.938,6.719-9.894,6.721c-19.944,0.007-39.887,0.014-59.831-0.008c-1.547-0.002-3.151-0.007-4.631-0.388
				c-3.793-0.976-5.849-3.726-6.886-7.361c-0.18-0.632-0.417-1.247-0.596-1.879c0.014-0.334,0.026-0.644,0.04-0.979
				c0.729-2.019,1.261-4.133,2.179-6.062c0.623-1.309,1.531-2.598,2.615-3.551c3.857-3.39,5.824-7.805,7.19-12.576
				c1.537-5.372,1.932-10.882,2.123-16.446c0.306-8.954,3.706-16.456,11.175-21.75c1.655-1.173,3.594-1.943,5.384-2.932
				c0.365-0.202,0.794-0.493,0.942-0.847c1.444-3.459,4-5.538,7.639-6.334c0.139-0.03,0.263-0.128,0.393-0.194L51.678,2.027z
				 M19.239,79.698c0.475-0.124,0.483-0.128,0.902-0.128c14.579-0.017,29.158-0.009,43.737-0.019
				c5.971-0.004,11.944,0.024,17.913-0.098c2.87-0.059,4.784-1.805,5.27-4.629c0.656-3.808-0.737-6.98-3.518-9.502
				c-2.415-2.19-4.268-4.741-5.592-7.688c-3.2-7.125-4.304-14.693-4.584-22.412c-0.114-3.16-0.172-6.306-1.288-9.322
				c-2.468-6.672-7.401-10.792-13.848-13.298c-1.065-0.414-1.7-0.979-1.975-2.099c-0.701-2.849-3.118-4.661-6.113-4.677
				c-2.986-0.016-5.511,1.868-6.184,4.747c-0.24,1.026-0.778,1.588-1.726,1.895c-10.393,3.359-15.264,12.735-15.379,21.745
				c-0.086,6.801-0.786,13.507-3.055,19.964c-1.424,4.051-3.272,7.885-6.589,10.774c-2.155,1.877-3.424,4.22-4.096,6.949
				c-0.739,3.003,1.385,7.343,5.041,7.628C18.44,79.549,19.116,79.626,19.239,79.698z"/>
			<path class="st0" d="M48.023,97.973c-1.241-0.307-2.514-0.525-3.719-0.938c-4.125-1.414-7.36-3.901-9.224-7.953
				c-0.206-0.447-0.402-0.91-0.51-1.387c-0.217-0.961,0.325-1.901,1.203-2.199c0.814-0.276,1.765,0.14,2.116,1.082
				c1.634,4.385,5.063,6.457,9.396,7.384c5.286,1.131,11.296-1.12,13.918-5.229c0.385-0.603,0.669-1.276,0.952-1.936
				c0.459-1.071,1.315-1.606,2.19-1.32c0.97,0.318,1.49,1.42,1.127,2.52c-0.796,2.411-2.232,4.399-4.171,6.013
				c-2.513,2.093-5.405,3.346-8.657,3.759c-0.176,0.022-0.34,0.134-0.509,0.204C50.764,97.973,49.394,97.973,48.023,97.973z"/>
		</g>
	</g>
</g>
</svg>
