<?xml version="1.0" encoding="utf-8"?>
<!-- Generator: Adobe Illustrator 25.4.7, SVG Export Plug-In . SVG Version: 6.00 Build 0)  -->
<svg version="1.1" id="Capa_1" xmlns="http://www.w3.org/2000/svg" xmlns:xlink="http://www.w3.org/1999/xlink" x="0px" y="0px"
	 viewBox="0 0 100 100" style="enable-background:new 0 0 100 100;" xml:space="preserve">
<style type="text/css">
	.st0{fill:#F16362;}
	.st1{fill:#FFFFFF;}
</style>
<path class="st0" d="M92.2,69.4c-0.7-4.1-2.8-7.8-6.1-10.4c-0.4-0.4-0.8-0.8-1.1-1.2c-1.8-2.4-3.1-5.1-3.7-8
	c-1.4-5.3-2.1-10.8-2.1-16.3c0-3.3-0.6-6.6-1.8-9.6c-2.7-6.8-7.7-11.7-15.2-15c-1.3-3-3.7-5.4-6.7-6.5c-0.6-0.2-1.2-0.5-1.9-0.6
	l-0.7-0.2l-0.4-0.1h-4.1l-0.6,0.3h0c-3.9,0.8-7.1,3.5-8.7,7.1c-0.5,0.3-1,0.5-1.6,0.8c-1.3,0.6-2.5,1.3-3.7,2.1
	c-7.5,5.3-11.5,13-11.8,22.9c0,5-0.7,10.1-1.9,15c-1.4,4.9-3.3,8.2-6,10.6c-1.3,1.2-2.4,2.7-3.2,4.3c-0.6,1.3-1.1,2.7-1.6,4.2
	c-0.2,0.7-0.4,1.3-0.6,1.9l-0.1,0.4v0.4v0.5v0.5v0.4l0.1,0.4c0.1,0.3,0.2,0.7,0.3,1s0.2,0.5,0.2,0.8c1.4,4.9,4.3,7.9,8.6,9
	c1.7,0.4,3.4,0.5,5.1,0.5H33c-0.1,0.6-0.1,1.3,0,1.9c0.2,0.7,0.4,1.3,0.7,1.9c2,4.4,5.8,7.7,10.4,9.1c0.9,0.3,1.8,0.5,2.7,0.7
	c0.3,0.1,0.7,0.1,1,0.2l0.3,0.1H53l0.5-0.2h0.1c3.5-0.5,6.7-2,9.4-4.2c2.2-1.8,3.9-4.3,4.8-7c0.3-0.8,0.3-1.7,0.2-2.5h11.7
	c5.9,0,10.4-3.1,12.1-8.4c0.2-0.4,0.3-0.9,0.4-1.4c0.1-0.2,0.1-0.4,0.2-0.6l0.1-0.4v-3.8L92.2,69.4z M58.7,85.2
	c-1.5,2.3-4.8,3.9-8.2,3.9c-0.7,0-1.4-0.1-2.1-0.2c-3.3-0.7-5.4-2.1-6.5-4.4h17.1C58.9,84.7,58.8,84.9,58.7,85.2z M82.9,73
	c0,1.2-1,2.1-2.2,2c0,0-0.1,0-0.1,0c-4.2,0.1-8.4,0.1-12.4,0.1H22c-0.3,0-0.6,0-0.9,0.1l-0.8-0.1c-0.6-0.1-1.2-0.5-1.5-1
	c-0.6-0.8-0.8-1.8-0.7-2.7c0.4-2,1.5-3.8,3-5.1c3.9-3.4,5.9-7.9,7.1-11.4c2-5.7,3-12,3.1-19.9c0.1-6.8,3.5-15,12.6-18
	c1.8-0.5,3.2-2,3.5-3.9c0.3-1.4,1.6-2.4,3.1-2.3c1.5-0.1,2.7,0.9,3.1,2.3c0.4,1.9,1.8,3.4,3.6,4c5.9,2.3,9.6,5.9,11.5,11
	c0.7,2.4,1.1,5,1,7.5V36c0.3,9,1.8,16.1,4.6,22.4c1.4,3.1,3.4,5.9,6,8.2C82.3,68.1,83.3,70.6,82.9,73z"/>
<circle class="st1" cx="74" cy="32.9" r="18.6"/>
</svg>
