<svg id="Capa_1" data-name="Capa 1" xmlns="http://www.w3.org/2000/svg" viewBox="0 0 100 100"><defs><style>.cls-1{fill:#f16362;}</style></defs><path class="cls-1" d="M51.76,82.88V77.22A16.28,16.28,0,0,0,56.29,76a11.39,11.39,0,0,0,5.06-4.16A10.4,10.4,0,0,0,63,66.13a9.47,9.47,0,0,0-1.39-5.29,10.05,10.05,0,0,0-3.51-3.25,20.5,20.5,0,0,0-4.38-1.79c-.67-.19-1.33-.38-2-.55V47.06c.51.09,1,.2,1.55.34a14.25,14.25,0,0,1,4.13,1.89l1.68,1.12,2.87-7-1.1-.76a18.47,18.47,0,0,0-5.56-2.46,24.42,24.42,0,0,0-3.57-.68V33.93H45.34v5.69A15.94,15.94,0,0,0,41,40.85,11.34,11.34,0,0,0,36,45a10.59,10.59,0,0,0-1.64,5.71,9.69,9.69,0,0,0,1.39,5.35,9.87,9.87,0,0,0,3.51,3.28,21,21,0,0,0,4.37,1.82q.85.26,1.71.48v8.1A16.35,16.35,0,0,1,42.52,69a14,14,0,0,1-4.44-2.51L36.43,65,33.18,71.9l.89.82a16.94,16.94,0,0,0,6.18,3.45,25,25,0,0,0,5.09,1.12v5.59ZM42.43,50.54A3,3,0,0,1,43,48.77a4.18,4.18,0,0,1,2-1.35c.13-.06.27-.1.41-.15v6.24A6.6,6.6,0,0,1,43,52.19,2,2,0,0,1,42.43,50.54ZM55,66.42a2.83,2.83,0,0,1-.55,1.72,4.14,4.14,0,0,1-2,1.29,6,6,0,0,1-.68.21V63.37l.18.07a6.74,6.74,0,0,1,2.39,1.37A2,2,0,0,1,55,66.42Z"/><path class="cls-1" d="M86.42,27V25.16a3.5,3.5,0,0,0-1-2.48L64.53,1.82a3.5,3.5,0,0,0-6,2.48v23a3.5,3.5,0,0,0,3.5,3.5H79.42v61.1H18.1V8.06H48.77a3.5,3.5,0,0,0,0-7H14.6a3.5,3.5,0,0,0-3.5,3.5V95.43a3.5,3.5,0,0,0,3.5,3.5H82.92a3.5,3.5,0,0,0,3.5-3.5V27.66c0-.11,0-.22,0-.33S86.43,27.12,86.42,27ZM65.56,23.83V12.75L76.65,23.83Z"/></svg>