<?xml version="1.0" encoding="utf-8"?>
<!-- Generator: Adobe Illustrator 26.4.1, SVG Export Plug-In . SVG Version: 6.00 Build 0)  -->
<svg version="1.1" id="Capa_1" xmlns="http://www.w3.org/2000/svg" xmlns:xlink="http://www.w3.org/1999/xlink" x="0px" y="0px"
	 viewBox="0 0 100 100" style="enable-background:new 0 0 100 100;" xml:space="preserve">
<style type="text/css">
	.st0{fill:none;stroke:#FF6161;stroke-width:3.4685;stroke-miterlimit:10;}
	.st1{fill:#FF6161;stroke:#FF6161;stroke-width:1.3874;stroke-miterlimit:10;}
	.st2{fill:none;stroke:#FF6161;stroke-width:3.4685;stroke-linecap:round;stroke-linejoin:round;stroke-miterlimit:10;}
</style>
<g>
	<line class="st0" x1="22.652" y1="50.13" x2="77.348" y2="50.13"/>
	<line class="st0" x1="22.652" y1="38.741" x2="77.348" y2="38.741"/>
	<g>
		<path class="st1" d="M50.098,82.593c-1.565,0-3.061-0.241-4.489-0.72s-2.554-1.101-3.375-1.864l1.085-2.287
			c0.784,0.685,1.78,1.253,2.992,1.702c1.215,0.451,2.475,0.675,3.786,0.675c1.192,0,2.161-0.137,2.904-0.411
			c0.743-0.274,1.291-0.649,1.643-1.129c0.353-0.479,0.527-1.022,0.527-1.628c0-0.705-0.231-1.273-0.69-1.702
			c-0.459-0.431-1.055-0.779-1.788-1.042c-0.735-0.264-1.542-0.495-2.422-0.69c-0.88-0.195-1.765-0.426-2.655-0.69
			s-1.702-0.601-2.435-1.012c-0.733-0.411-1.326-0.964-1.775-1.656c-0.449-0.695-0.675-1.59-0.675-2.686
			c0-1.058,0.279-2.029,0.837-2.919c0.558-0.89,1.418-1.603,2.582-2.143c1.164-0.538,2.645-0.806,4.443-0.806
			c1.194,0,2.379,0.157,3.55,0.469c1.174,0.314,2.191,0.763,3.051,1.349l-0.966,2.348c-0.88-0.586-1.811-1.012-2.787-1.276
			c-0.979-0.264-1.927-0.396-2.848-0.396c-1.154,0-2.102,0.145-2.845,0.439c-0.743,0.294-1.286,0.685-1.628,1.174
			c-0.342,0.489-0.512,1.037-0.512,1.643c0,0.723,0.228,1.301,0.69,1.73c0.459,0.431,1.055,0.773,1.788,1.027
			c0.735,0.254,1.542,0.484,2.422,0.69c0.88,0.205,1.765,0.436,2.655,0.69s1.702,0.586,2.435,0.997
			c0.733,0.411,1.324,0.959,1.775,1.643c0.449,0.685,0.675,1.565,0.675,2.64c0,1.037-0.284,2.001-0.852,2.891
			c-0.566,0.89-1.44,1.603-2.625,2.14C53.387,82.324,51.896,82.593,50.098,82.593z M49.365,85.877V58.298h1.877v27.579H49.365z"/>
	</g>
	<polyline class="st2" points="84.167,27.472 63.291,27.472 63.291,4.434 84.153,25.296 84.153,95.566 15.833,95.566 15.833,4.694
		50,4.694 	"/>
</g>
</svg>
