<?xml version="1.0" encoding="utf-8"?>
<!-- Generator: Adobe Illustrator 26.4.1, SVG Export Plug-In . SVG Version: 6.00 Build 0)  -->
<svg version="1.1" id="Capa_1" xmlns="http://www.w3.org/2000/svg" xmlns:xlink="http://www.w3.org/1999/xlink" x="0px" y="0px"
	 viewBox="0 0 117.102 100" style="enable-background:new 0 0 117.102 100;" xml:space="preserve">
<style type="text/css">
	.st0{fill:#F16362;}
	.st1{fill:#FFFFFF;}
</style>
<g>
	<g>
		<rect x="25.576" y="46.63" class="st0" width="54.696" height="7"/>
	</g>
	<g>
		<rect x="25.576" y="35.242" class="st0" width="54.696" height="7"/>
	</g>
	<g>
		<path class="st0" d="M55.165,88.877v-3.424c1.033-0.144,1.95-0.397,2.742-0.759c1.358-0.616,2.387-1.462,3.055-2.513
			c0.67-1.049,1.01-2.203,1.01-3.429c0-1.265-0.282-2.338-0.84-3.191c-0.54-0.817-1.254-1.478-2.121-1.964
			c-0.795-0.446-1.686-0.812-2.649-1.086c-0.401-0.115-0.801-0.225-1.196-0.329V67.23c0.311,0.055,0.623,0.125,0.938,0.21
			c0.868,0.234,1.707,0.619,2.493,1.143l1.016,0.676l1.738-4.226l-0.67-0.457c-0.946-0.645-2.075-1.146-3.356-1.489
			c-0.713-0.19-1.435-0.326-2.159-0.409v-3.381h-3.876v3.439c-0.993,0.146-1.874,0.395-2.636,0.747
			c-1.337,0.621-2.349,1.468-3.008,2.519c-0.657,1.047-0.99,2.208-0.99,3.45c0,1.285,0.281,2.371,0.836,3.23
			c0.537,0.826,1.251,1.494,2.125,1.983c0.792,0.444,1.68,0.814,2.64,1.099c0.346,0.102,0.69,0.2,1.033,0.292v4.891
			c-0.582-0.102-1.152-0.257-1.707-0.463c-1.088-0.403-1.99-0.913-2.681-1.517l-0.995-0.87l-1.966,4.143l0.537,0.499
			c0.923,0.857,2.18,1.558,3.738,2.08c0.99,0.332,2.019,0.558,3.074,0.676v3.38H55.165z M49.532,69.335
			c0-0.401,0.108-0.751,0.331-1.069c0.226-0.323,0.622-0.598,1.176-0.818c0.08-0.031,0.163-0.061,0.25-0.088v3.771
			c-0.574-0.205-1.039-0.471-1.387-0.798C49.743,70.185,49.532,69.921,49.532,69.335z M57.095,78.931
			c0,0.393-0.108,0.731-0.334,1.037c-0.23,0.314-0.628,0.577-1.182,0.781c-0.128,0.047-0.267,0.09-0.414,0.128v-3.79
			c0.038,0.014,0.076,0.027,0.113,0.041c0.6,0.215,1.084,0.494,1.443,0.831C56.882,78.11,57.095,78.373,57.095,78.931z"/>
	</g>
	<g>
		<path class="st0" d="M90.576,27.15v-1.854c0-0.928-0.369-1.818-1.025-2.475L68.69,1.96c-0.999-1.001-2.504-1.302-3.814-0.759
			c-1.308,0.542-2.16,1.818-2.16,3.233v23.038c0,1.933,1.567,3.5,3.5,3.5h17.361v61.094H22.257V8.194h30.667
			c1.933,0,3.5-1.567,3.5-3.5s-1.567-3.5-3.5-3.5H18.757c-1.933,0-3.5,1.567-3.5,3.5v90.872c0,1.933,1.567,3.5,3.5,3.5h68.319
			c1.933,0,3.5-1.567,3.5-3.5V27.795c0.01-0.106,0.015-0.213,0.015-0.322S90.586,27.256,90.576,27.15z M69.715,23.972V12.884
			l11.088,11.088H69.715z"/>
	</g>
</g>
<circle class="st1" cx="88.783" cy="33.23" r="26.068"/>
</svg>
