<svg width="25" height="26" viewBox="0 0 25 26" fill="none" xmlns="http://www.w3.org/2000/svg">
<path d="M3.3335 6.58939C5.17453 6.58939 6.66698 5.1143 6.66698 3.29469C6.66698 1.47508 5.17453 0 3.3335 0C1.49246 0 0 1.47508 0 3.29469C0 5.1143 1.49246 6.58939 3.3335 6.58939Z" fill="white"/>
<path d="M5.86401 8.78428H0.80582C0.668408 8.78428 0.557009 8.89437 0.557009 9.03018V25.0106C0.557009 25.1464 0.668408 25.2565 0.80582 25.2565H5.86401C6.00142 25.2565 6.11282 25.1464 6.11282 25.0106V9.03018C6.11282 8.89437 6.00142 8.78428 5.86401 8.78428Z" fill="white"/>
<path d="M25 14.8253V24.1596C25 24.7635 24.4998 25.2579 23.8888 25.2579H20.5554C19.9444 25.2579 19.4442 24.7635 19.4442 24.1596V16.472C19.4442 14.9566 18.2002 13.7271 16.6669 13.7271C15.1337 13.7271 13.8897 14.9566 13.8897 16.472V24.1596C13.8897 24.7635 13.3895 25.2579 12.7785 25.2579H9.44503C8.83408 25.2579 8.33388 24.7635 8.33388 24.1596V9.88264C8.33388 9.27881 8.83408 8.78441 9.44503 8.78441H12.7785C13.3895 8.78441 13.8897 9.27881 13.8897 9.88264V10.5856C15.0008 9.16293 16.8402 8.23593 18.8893 8.23593C21.9557 8.23593 25 10.4324 25 14.8253Z" fill="white"/>
</svg>
