<svg width="18" height="34" viewBox="0 0 18 34" fill="none" xmlns="http://www.w3.org/2000/svg">
<path d="M17.9899 14.8618L17.5581 18.2885C17.4851 18.8609 16.9946 19.2915 16.4129 19.2915H10.7976V33.6182C10.2054 33.6711 9.60538 33.6982 8.99885 33.6982C7.6423 33.6982 6.31837 33.5641 5.03878 33.3088V19.2915H0.720012C0.323483 19.2915 0 18.9704 0 18.5772V14.2894C0 13.8962 0.323483 13.5752 0.720012 13.5752H5.03878V7.1447C5.03878 3.19848 8.26188 0 12.2389 0H17.2777C17.6742 0 17.9977 0.321008 17.9977 0.714211V5.00206C17.9977 5.39526 17.6742 5.71627 17.2777 5.71627H13.6776C12.0876 5.71627 10.7989 6.99515 10.7989 8.57441V13.5765H16.8459C17.5399 13.5765 18.076 14.1798 17.9912 14.8631L17.9899 14.8618Z" fill="white"/>
</svg>
