<svg width="25" height="30" viewBox="0 0 25 30" fill="none" xmlns="http://www.w3.org/2000/svg">
<path d="M17.7078 21.622V8.75259C17.7078 8.75259 19.176 11.1712 24.4828 11.3189C24.7659 11.3267 25 11.0966 25 10.8169V7.17988C25 6.90926 24.7817 6.69485 24.5079 6.67916C20.3916 6.44907 18.4366 3.32846 18.2448 0.466711C18.2276 0.201322 17.9922 0 17.7237 0H13.5267C13.2476 0 13.0201 0.223548 13.0201 0.500703V20.9592C13.0201 23.1816 11.3018 25.1152 9.05586 25.2198C6.48845 25.34 4.40118 23.162 4.71864 20.5879C4.9435 18.7694 6.41967 17.2803 8.25561 17.028C8.62069 16.9783 8.9765 16.9744 9.32173 17.0123C9.62728 17.0463 9.89579 16.8215 9.89579 16.5182V12.872C9.89579 12.6131 9.69606 12.3883 9.43416 12.3726C8.90771 12.3386 8.36804 12.3504 7.82043 12.4118C3.77157 12.8655 0.504433 16.1037 0.0560285 20.1068C-0.53523 25.3871 3.63136 29.8569 8.8548 29.8569C13.7449 29.8569 17.7091 25.9388 17.7091 21.1056" fill="white"/>
</svg>
