<svg width="28" height="27" viewBox="0 0 28 27" fill="none" xmlns="http://www.w3.org/2000/svg">
<path d="M20.724 0H6.59387C2.9529 0 0 2.91853 0 6.51713V20.4828C0 24.0814 2.9529 26.9999 6.59387 26.9999H20.724C24.3649 26.9999 27.3178 24.0814 27.3178 20.4828V6.51713C27.3178 2.91853 24.3649 0 20.724 0ZM24.9626 20.0177C24.9626 22.5878 22.8524 24.6734 20.2521 24.6734H7.06439C4.46407 24.6734 2.35393 22.5878 2.35393 20.0177V6.98347C2.35393 4.41341 4.46407 2.32783 7.06439 2.32783H20.2521C22.8524 2.32783 24.9626 4.41341 24.9626 6.98347V20.0177Z" fill="white"/>
<path d="M13.6717 6.51677C9.77248 6.51677 6.60727 9.64515 6.60727 13.499C6.60727 17.3528 9.77248 20.4811 13.6717 20.4811C17.5708 20.4811 20.736 17.3528 20.736 13.499C20.736 9.64515 17.5708 6.51677 13.6717 6.51677ZM13.6717 18.1546C11.0766 18.1546 8.96118 16.0638 8.96118 13.499C8.96118 10.9341 11.0766 8.8433 13.6717 8.8433C16.2667 8.8433 18.3821 10.9341 18.3821 13.499C18.3821 16.0638 16.2667 18.1546 13.6717 18.1546Z" fill="white"/>
<path d="M21.2084 7.44852C21.9887 7.44852 22.6213 6.82331 22.6213 6.05208C22.6213 5.28085 21.9887 4.65565 21.2084 4.65565C20.4281 4.65565 19.7955 5.28085 19.7955 6.05208C19.7955 6.82331 20.4281 7.44852 21.2084 7.44852Z" fill="white"/>
</svg>
