<svg width="200" height="43" viewBox="0 0 200 43" fill="none" xmlns="http://www.w3.org/2000/svg">
<g clip-path="url(#clip0_2_1097)">
<path d="M6.76647 29.1735C4.76014 30.1299 3.18261 31.6959 1.28249 32.8077C0.523234 33.2501 -0.432725 34.1068 0.220317 35.0552C0.806481 35.912 2.46269 35.7845 3.23375 35.3342C5.12207 34.2303 6.75074 32.6404 8.71773 31.6999C9.51633 31.3174 10.4054 30.357 9.77991 29.4485C9.15834 28.5439 7.58081 28.783 6.76647 29.1695" fill="white"/>
<path d="M10.3031 17.6212C8.7295 16.6011 6.97494 16.095 5.1417 15.8121C4.1228 15.6567 2.70657 16.2026 2.24236 17.1829C1.75061 18.219 2.69083 18.8486 3.58384 18.9881C4.75617 19.1714 5.86162 19.522 6.86086 20.1756C7.79715 20.7813 9.19764 20.5063 10.0474 19.8687C10.7673 19.3268 11.2354 18.2309 10.2992 17.6212" fill="white"/>
<path d="M15.3661 5.8657C13.1159 3.82543 10.6336 2.09997 8.19055 0.306765C6.66023 -0.816977 2.73018 1.3787 4.75225 2.86109C7.19526 4.65031 9.67367 6.37975 11.9278 8.42002C13.3323 9.69519 17.2466 7.57124 15.3661 5.8657Z" fill="white"/>
<path d="M80.9339 6.4476C80.7175 6.30813 80.3556 6.22046 80.1353 6.30415C79.2973 6.61098 78.9551 7.83036 79.4232 8.59546C79.5176 8.75087 79.5609 8.95809 79.5609 9.14538C79.6789 16.3062 79.7891 23.4631 79.9032 30.624C79.9189 31.5883 80.1786 32.4252 81.1463 32.8516H81.8544C82.1613 32.5288 82.5232 32.2458 82.771 31.8832C84.1637 29.8589 85.0842 27.6074 85.7097 25.2364C86.709 21.4508 86.9647 17.6372 85.9615 13.8117C85.1629 10.7553 83.6208 8.18502 80.9299 6.4476M83.8096 22.9371C83.4438 24.4594 82.9914 25.9577 82.5743 27.464C82.5468 27.5676 82.4878 27.6632 82.4406 27.7628C82.4091 27.7549 82.3777 27.7509 82.3422 27.7429V11.6399C82.5311 11.9906 82.6609 12.2138 82.775 12.4449C84.4509 15.8081 84.6751 19.3268 83.8096 22.9371Z" fill="white"/>
<path d="M26.0823 8.83067C25.1539 7.45986 23.2026 7.0016 22.046 7.91015C20.7518 8.93029 19.784 10.2055 19.1703 11.7556C18.0373 14.6207 17.7069 17.6333 17.6321 20.6818C17.5731 23.0488 17.9744 25.3521 18.9657 27.5119C19.4103 28.4802 20.02 29.325 21.1137 29.6677C21.2592 29.7115 21.3773 29.9387 21.4599 30.1061C21.7746 30.7436 22.0578 31.3972 22.3765 32.0347C22.7542 32.7919 23.1908 32.9194 23.958 32.5448C24.7959 32.1344 25.0437 31.5725 24.7093 30.8393C24.4143 30.1897 24.1074 29.5482 23.8006 28.8946C25.563 26.8305 26.2279 25.6031 26.8258 23.3198C27.7464 19.7931 27.8526 16.2187 27.3845 12.6203C27.2074 11.2814 26.8573 9.97433 26.0862 8.83067M23.6432 24.2642C23.3325 24.9855 22.9312 25.6788 22.5024 26.3363C22.3175 26.6232 21.8769 27.0018 21.6684 26.942C21.3773 26.8584 21.094 26.432 20.976 26.0933C20.3702 24.3718 20.1026 22.5826 20.2639 20.7615C20.4331 18.8646 20.6573 16.9718 20.9563 15.0949C21.1648 13.7799 21.6094 12.5207 22.3844 11.4169C22.6086 11.0981 22.9076 10.8311 23.1633 10.5362C23.537 10.1019 23.895 10.2373 24.0956 10.6518C24.3592 11.1977 24.6031 11.7835 24.6897 12.3772C24.8785 13.6922 24.9572 15.0192 25.0831 16.3422C25.0083 19.0679 24.7408 21.7457 23.6472 24.2682" fill="white"/>
<path d="M64.7652 24.551C64.1594 23.8576 63.5654 23.1483 62.9674 22.4509C63.1838 22.1361 63.3647 21.8771 63.5418 21.6141C64.6826 19.9166 65.6701 18.1473 66.1461 16.1189C66.7755 13.4451 66.0202 11.5921 63.6283 10.3687C62.7668 9.9264 61.7872 9.72716 60.8549 9.42829C59.4858 8.98995 58.6282 9.81881 58.7069 11.2773C58.7738 12.5445 58.7934 13.8197 58.8603 15.0908C59.1357 20.3111 59.4111 25.5313 59.714 30.7475C59.7297 31.0225 59.9068 31.3851 60.1231 31.5325C60.6503 31.8872 61.2443 31.8115 61.8069 31.5325C62.334 31.2735 62.3144 30.7834 62.279 30.2972C62.2632 30.082 62.2436 29.8629 62.2357 29.6437C62.1688 28.3207 62.1098 26.9937 62.039 25.5153C63.0776 26.647 64.0099 27.6393 64.9108 28.6594C65.8156 29.6796 66.7008 30.7196 67.582 31.7597C68.1131 32.3853 68.6323 32.4012 69.3444 31.7876C70.0447 31.1858 70.1312 30.6359 69.5883 30.0183C67.9872 28.1892 66.3742 26.3681 64.7692 24.543M61.8816 19.3547C61.7833 17.0076 61.6849 14.6565 61.5826 12.3014C62.9202 12.4767 63.7699 13.5686 63.6362 14.8757C63.4631 16.5214 62.8297 17.9879 61.8816 19.3547Z" fill="white"/>
<path d="M40.0362 12.7877C39.6192 12.9471 39.3831 13.2061 39.4225 13.6803C39.4854 14.4733 39.5484 15.2663 39.5995 16.0593C39.7726 18.6973 39.9614 21.3472 39.4185 23.9613C39.2533 24.7543 38.9425 25.5712 38.4901 26.2327C37.8803 27.1253 36.6765 27.0058 36.1376 26.0574C35.8583 25.5673 35.6183 25.0054 35.5593 24.4515C35.2997 22.1243 35.3783 19.7772 35.1659 17.446C35.1659 15.9756 35.158 14.5052 35.1659 13.0347C35.1698 12.1939 34.8354 11.636 34.1903 11.4687C33.2776 11.2336 32.5577 11.8751 32.5144 13.0068C32.3885 16.2227 32.2941 19.4425 32.715 22.6503C32.9235 24.2283 33.2186 25.7824 33.9778 27.209C34.8118 28.7871 36.2202 29.6159 37.8056 29.3888C38.8953 29.2334 39.7097 28.5998 40.3745 27.747C41.6137 26.161 42.2077 24.316 42.2313 22.3315C42.2667 19.5899 42.1763 16.8483 42.1094 14.1107C42.0779 12.9112 41.1613 12.3573 40.0283 12.7877" fill="white"/>
<path d="M53.1364 27.8185C52.027 27.8743 50.9097 27.8305 49.7846 27.8305C49.6469 24.8936 49.5092 22.0046 49.3676 19.0119C49.9813 19.0119 50.5675 19.0039 51.1497 19.0119C51.606 19.0199 51.9326 18.8127 52.0309 18.3823C52.1214 17.9838 52.1686 17.5534 52.1096 17.1549C52.0348 16.6289 51.7083 16.3301 51.1222 16.3659C50.5163 16.4018 49.9105 16.3739 49.2181 16.3739C49.1591 15.4773 49.0962 14.5727 49.0293 13.5845C50.0246 13.5287 50.9609 13.4649 51.8972 13.4291C52.3653 13.4091 52.798 13.3812 53.0183 12.8552C53.2741 12.2455 53.2898 11.6478 52.9082 11.1019C52.7941 10.9345 52.5148 10.7711 52.322 10.7831C50.6579 10.8668 48.9939 10.9624 47.3337 11.1178C46.7358 11.1736 46.4014 11.6638 46.4053 12.2416C46.4053 12.6361 46.4171 13.0306 46.4368 13.4251C46.5745 16.342 46.724 19.259 46.8538 22.1799C46.9521 24.3636 47.0151 26.5474 47.1095 28.7311C47.1685 30.1099 47.7114 30.6159 49.0607 30.5841C50.4337 30.5522 51.8067 30.4964 53.1796 30.4526C54.0884 30.4247 54.5133 29.9863 54.4542 29.0698C54.4031 28.3047 54.2064 27.7588 53.1364 27.8146" fill="white"/>
<path d="M96.1624 13.3454C93.0899 15.282 91.2803 19.3984 92.0041 22.957C92.3424 24.6227 93.2355 25.9337 94.9192 26.4637C96.5636 26.9777 97.9799 26.4159 99.1561 25.2363C101.017 23.3634 101.619 20.9725 101.768 18.5138C101.725 17.0075 101.524 15.6526 100.679 14.4691C99.7777 13.2099 97.3504 12.6002 96.1624 13.3454ZM97.4999 23.1682C97.3465 23.3475 97.1655 23.5109 96.9767 23.6464C95.9893 24.3477 94.9035 24.009 94.6556 22.8175C94.1796 20.4943 94.6556 18.3624 96.2332 16.5572C96.4613 16.2982 96.7761 16.1029 97.079 15.9276C97.7832 15.5172 98.5857 15.7562 98.8925 16.5134C99.0853 16.9995 99.1404 17.5415 99.223 17.8961C99.0066 19.9085 98.7706 21.7137 97.4999 23.1682Z" fill="white"/>
<path d="M74.0022 18.0117C73.9747 17.0912 73.4672 16.5851 72.6175 16.6051C71.7953 16.625 71.3192 17.1271 71.3586 18.0556C71.4963 21.4866 71.6576 24.9176 71.8267 28.3486C71.8661 29.1296 72.3932 29.4604 73.3492 29.3926C74.1596 29.3328 74.4625 28.9981 74.4428 28.4841C74.3445 27.1132 74.2383 26.0493 74.2029 24.9773C74.1202 22.6541 74.073 20.3309 74.0062 18.0117" fill="white"/>
<path d="M72.7315 14.7163C73.4869 14.7283 74.0416 14.1863 74.0494 13.4371C74.0573 12.68 73.5026 12.0823 72.7866 12.0823C72.0706 12.0823 71.5356 12.6163 71.5159 13.4132C71.4963 14.1624 72.0038 14.7043 72.7315 14.7163Z" fill="white"/>
<path d="M141.604 21.8134C141.435 19.6257 141.305 17.434 141.069 15.2542C140.77 12.4648 140.38 9.68332 140.038 6.89788C139.924 5.95346 139.539 5.63466 138.618 5.83789C137.815 6.01721 137.186 6.36789 137.363 7.48764C137.631 9.17724 137.867 10.8748 138.044 12.5724C138.358 15.5451 138.626 18.5258 138.901 21.5025C138.996 22.5426 139.051 23.5906 139.133 24.7542C139.035 24.5869 138.992 24.535 138.968 24.4793C136.856 19.267 135.109 13.9352 133.63 8.50778C133.35 7.48366 132.642 7.08118 131.631 7.38802C131.025 7.57133 130.825 7.85425 130.872 8.48387C130.939 9.41235 131.025 10.3408 131.092 11.2693C131.383 15.4654 131.663 19.6615 131.958 23.8576C132.127 26.2764 132.312 28.6993 132.505 31.1181C132.564 31.8354 132.835 32.1143 133.543 32.202C133.846 32.2379 134.169 32.21 134.468 32.1382C135.03 32.0067 135.243 31.672 135.195 31.0743C135.014 28.7551 134.826 26.4358 134.656 24.1126C134.562 22.8136 134.495 21.5105 134.42 20.2114C134.444 20.2074 134.472 20.1995 134.499 20.1955C134.538 20.2792 134.582 20.3629 134.613 20.4505C136.025 24.4155 137.642 28.2968 139.483 32.0785C139.629 32.3694 139.814 32.6523 140.03 32.8914C140.443 33.3496 141.218 33.4692 141.761 33.2022C142.241 32.9671 142.43 32.4929 142.375 31.7995C142.115 28.4681 141.867 25.1368 141.608 21.8054" fill="white"/>
<path d="M163.941 23.1005C163.41 22.4988 163.418 22.4988 163.866 21.8452C165.129 19.9923 166.238 18.0636 166.683 15.8161C167.021 14.1026 166.84 12.5206 165.491 11.2853C164.094 10.0141 162.383 9.47213 160.558 9.28484C159.877 9.21311 159.291 9.79092 159.181 10.5162C159.146 10.7433 159.13 10.9824 159.142 11.2135C159.472 17.7687 159.81 24.3278 160.141 30.883C160.164 31.3851 160.397 31.7397 160.884 31.7756C161.325 31.8075 161.789 31.7597 162.218 31.6441C162.568 31.5485 162.753 31.2297 162.733 30.8272C162.706 30.2972 162.686 29.7632 162.662 29.2332C162.607 28.0577 162.548 26.8822 162.489 25.7066C162.533 25.6867 162.58 25.6668 162.627 25.6508C164.468 27.7509 166.301 29.8509 168.15 31.943C168.296 32.1064 168.493 32.2737 168.693 32.3335C169.158 32.469 169.96 31.951 170.29 31.3572C170.566 30.8631 170.523 30.6001 170.058 30.0701C168.025 27.7429 165.983 25.4197 163.949 23.0965M162.489 19.3627C162.466 19.3985 162.419 19.4184 162.328 19.4862C162.226 17.0474 162.124 14.6525 162.021 12.2536C163.469 12.4409 164.311 13.6483 164.059 15.2144C163.823 16.7047 163.253 18.0715 162.485 19.3627" fill="white"/>
<path d="M116.182 11.9228C115.376 11.333 114.511 10.823 113.661 10.293C113.189 9.99809 112.229 10.026 111.883 10.3249C111.442 10.6994 111.312 11.4087 111.54 12.0702C111.607 12.2695 111.635 12.4887 111.635 12.6999C111.607 17.8284 111.997 22.9331 112.41 28.0417C112.453 28.5916 112.587 29.03 112.988 29.4564C113.732 30.2454 114.412 30.3649 115.156 29.5799C116.096 28.5877 117.056 27.5954 117.854 26.4876C119.369 24.3916 120.231 22.0245 120.282 19.3825C120.207 18.7928 120.172 18.191 120.057 17.6093C119.574 15.1546 118.13 13.3574 116.182 11.9308M115.895 24.6267C115.616 25.053 115.305 25.4555 115.01 25.866C114.955 25.854 114.9 25.8421 114.841 25.8341C114.632 21.8532 114.424 17.8762 114.215 13.8993C114.267 13.8834 114.322 13.8674 114.377 13.8555C115.596 14.6445 116.56 15.6726 117.075 17.0713C118.083 19.8049 117.422 22.2915 115.899 24.6267" fill="white"/>
<path d="M153.398 27.8904C152.3 27.8984 151.203 27.8904 150.086 27.8904C149.952 24.9815 149.814 22.0645 149.672 19.032C150.31 19.032 150.88 19.028 151.451 19.032C151.946 19.036 152.289 18.8009 152.375 18.3187C152.446 17.9202 152.473 17.4899 152.403 17.0954C152.312 16.5534 152.001 16.3741 151.447 16.3781C150.809 16.386 150.176 16.3781 149.507 16.3781C149.448 15.4854 149.385 14.5649 149.318 13.5607C150.381 13.5089 151.392 13.4532 152.407 13.4093C153.001 13.3814 153.292 13.1862 153.425 12.6004C153.496 12.2856 153.504 11.9389 153.453 11.6201C153.351 10.9506 153.028 10.6956 152.375 10.7354C150.868 10.8231 149.362 10.9148 147.859 11.0263C147.064 11.0861 146.651 11.6081 146.698 12.3932C146.714 12.688 146.71 12.9909 146.726 13.2898C146.907 17.175 147.092 21.0603 147.265 24.9496C147.324 26.2606 147.3 27.5796 147.426 28.8867C147.56 30.2734 148 30.7317 149.039 30.7038C150.597 30.656 152.159 30.6241 153.713 30.5364C154 30.5205 154.381 30.3451 154.543 30.118C154.916 29.58 154.885 28.9504 154.602 28.3647C154.354 27.8546 153.866 27.8944 153.402 27.8984" fill="white"/>
<path d="M181.793 16.2107C181.557 15.2703 181.137 14.4015 180.334 13.7958C179.146 12.8992 176.97 12.4848 175.224 14.2063C172.726 16.6769 171.66 19.6656 172.289 23.1524C172.568 24.6985 173.461 25.9339 175.019 26.4878C176.746 27.1014 178.721 26.3841 179.976 24.7384C181.404 22.8615 181.994 20.7096 182.069 18.0597C182.01 17.6492 181.971 16.916 181.797 16.2107M178.355 22.3953C178.037 22.9452 177.545 23.4473 177.018 23.8059C176.184 24.3758 175.287 23.9972 174.929 23.0368C174.878 22.8974 174.838 22.7539 174.819 22.6065C174.775 22.2438 174.74 21.8812 174.716 21.6461C174.771 19.8569 175.102 18.2789 176.156 16.9599C176.487 16.5454 176.931 16.2027 177.383 15.9158C178.04 15.4974 178.847 15.7365 179.142 16.4697C179.339 16.9599 179.437 17.5257 179.437 18.0597C179.437 19.5899 179.122 21.0763 178.351 22.3992" fill="white"/>
<path d="M127.225 18.0196C127.201 17.1429 126.67 16.5811 125.86 16.597C125.014 16.6129 124.534 17.131 124.55 18.0435C124.581 19.8567 124.601 21.6698 124.676 23.4789C124.743 25.057 124.865 26.631 124.991 28.205C125.018 28.5198 125.105 28.8745 125.286 29.1176C125.6 29.536 126.552 29.5997 127.135 29.3407C127.693 29.0937 127.697 28.6274 127.52 28.1293C127.422 24.7581 127.32 21.3869 127.221 18.0156" fill="white"/>
<path d="M124.735 13.4014C124.735 14.2063 125.207 14.7084 125.954 14.7084C126.733 14.7084 127.249 14.1864 127.249 13.4053C127.249 12.6243 126.706 12.0385 125.986 12.0505C125.227 12.0624 124.731 12.5964 124.731 13.4014" fill="white"/>
<path d="M189.319 15.6727C192.439 14.015 195.692 12.6282 198.812 10.9705C201.503 9.53995 199.068 7.26855 196.861 8.44011C193.741 10.0978 190.488 11.4846 187.368 13.1423C184.677 14.5729 187.112 16.8443 189.319 15.6727Z" fill="white"/>
<path d="M186.632 25.0771C188.969 26.0813 191.518 26.4599 194.048 26.2566C194.992 26.1809 196.389 25.5633 196.507 24.4674C196.629 23.3477 195.307 23.005 194.465 23.0727C192.636 23.2201 190.901 22.8376 189.217 22.1123C187.419 21.3393 184.056 23.9653 186.636 25.0731" fill="white"/>
<path d="M185.279 33.828C186.117 37.1554 188.202 39.8891 190.846 41.9732C192.337 43.1487 196.263 40.9769 194.284 39.4188C192.081 37.6854 190.417 35.3542 189.724 32.6007C189.221 30.6003 184.768 31.8037 185.275 33.828" fill="white"/>
</g>
<defs>
<clipPath id="clip0_2_1097">
<rect width="200" height="42.3077" fill="white"/>
</clipPath>
</defs>
</svg>
