<svg width="172" height="35" viewBox="0 0 172 35" fill="none" xmlns="http://www.w3.org/2000/svg">
<path d="M5.81259 24.1344C4.08831 24.9256 2.73256 26.221 1.09957 27.1407C0.447052 27.5066 -0.374513 28.2154 0.186721 28.9999C0.690479 29.7086 2.11385 29.6032 2.77651 29.2307C4.39936 28.3176 5.79906 27.0023 7.48953 26.2243C8.17585 25.9079 8.93994 25.1135 8.40238 24.3619C7.86819 23.6136 6.51244 23.8114 5.81259 24.1311" fill="black"/>
<path d="M8.85203 14.5783C7.49966 13.7344 5.99177 13.3158 4.41625 13.0817C3.54059 12.9532 2.32346 13.4048 1.92451 14.2157C1.50189 15.0727 2.30993 15.5936 3.07741 15.7089C4.08492 15.8606 5.03496 16.1507 5.89372 16.6913C6.69838 17.1923 7.90199 16.9649 8.63227 16.4375C9.25098 15.9891 9.65331 15.0826 8.84865 14.5783" fill="black"/>
<path d="M13.2033 4.85386C11.2694 3.1661 9.136 1.73876 7.03644 0.255379C5.72126 -0.674206 2.34372 1.14211 4.08151 2.36837C6.18107 3.84846 8.31105 5.27909 10.2483 6.96685C11.4553 8.0217 14.8193 6.26472 13.2033 4.85386Z" fill="black"/>
<path d="M69.553 5.33501C69.367 5.21964 69.056 5.14712 68.8666 5.21634C68.1465 5.47016 67.8524 6.47886 68.2547 7.11177C68.3358 7.24033 68.373 7.41175 68.373 7.56668C68.4744 13.4903 68.5691 19.4106 68.6672 25.3343C68.6807 26.132 68.9038 26.8242 69.7355 27.177H70.3441C70.6078 26.91 70.9189 26.6759 71.1319 26.3759C72.3287 24.7014 73.1198 22.8389 73.6574 20.8775C74.5162 17.746 74.7359 14.5913 73.8738 11.4268C73.1875 8.89842 71.8621 6.77224 69.5496 5.33501M72.0244 18.9755C71.71 20.2347 71.3212 21.4742 70.9628 22.7202C70.9391 22.8059 70.8884 22.885 70.8479 22.9675C70.8208 22.9609 70.7938 22.9576 70.7633 22.951V9.63022C70.9256 9.92031 71.0372 10.1049 71.1352 10.2961C72.5755 13.0783 72.7682 15.989 72.0244 18.9755Z" fill="black"/>
<path d="M22.4127 7.3064C21.6148 6.17244 19.9378 5.79335 18.9438 6.54493C17.8315 7.38881 16.9998 8.44366 16.4724 9.72596C15.4987 12.0961 15.2147 14.5882 15.1504 17.1099C15.0997 19.068 15.4446 20.9733 16.2966 22.7599C16.6786 23.561 17.2026 24.2598 18.1425 24.5433C18.2676 24.5795 18.3691 24.7674 18.4401 24.9059C18.7105 25.4333 18.954 25.9739 19.2278 26.5013C19.5524 27.1277 19.9277 27.2331 20.587 26.9233C21.3071 26.5838 21.5201 26.119 21.2327 25.5124C20.9791 24.9751 20.7154 24.4444 20.4517 23.9038C21.9664 22.1962 22.5377 21.181 23.0516 19.2921C23.8428 16.3748 23.9341 13.4179 23.5317 10.4413C23.3796 9.33369 23.0787 8.25247 22.416 7.3064M20.3165 20.0734C20.0494 20.67 19.7045 21.2436 19.336 21.7875C19.1771 22.0248 18.7984 22.338 18.6193 22.2885C18.3691 22.2193 18.1256 21.8666 18.0242 21.5864C17.5035 20.1624 17.2736 18.6823 17.4123 17.1758C17.5576 15.6067 17.7504 14.0409 18.0073 12.4883C18.1865 11.4005 18.5685 10.3589 19.2346 9.44577C19.4273 9.18205 19.6842 8.9612 19.904 8.71726C20.2252 8.35795 20.5329 8.47003 20.7053 8.81286C20.9318 9.26446 21.1414 9.74904 21.2158 10.2402C21.3781 11.328 21.4457 12.4257 21.5539 13.5201C21.4897 15.7749 21.2598 17.99 20.3199 20.0767" fill="black"/>
<path d="M55.6573 20.3107C55.1366 19.7371 54.6261 19.1504 54.1122 18.5735C54.2982 18.3131 54.4537 18.0988 54.6058 17.8813C55.5863 16.477 56.4349 15.0134 56.844 13.3355C57.385 11.1236 56.7358 9.59081 54.6802 8.57881C53.9398 8.21291 53.0979 8.04809 52.2967 7.80086C51.1201 7.43826 50.3831 8.12391 50.4507 9.33039C50.5081 10.3786 50.5251 11.4335 50.5825 12.485C50.8192 16.8033 51.0559 21.1216 51.3162 25.4366C51.3297 25.6641 51.4819 25.964 51.6678 26.086C52.1209 26.3794 52.6314 26.3167 53.1148 26.086C53.5679 25.8717 53.551 25.4663 53.5206 25.0641C53.507 24.8861 53.4901 24.7048 53.4834 24.5235C53.4259 23.4291 53.3752 22.3314 53.3143 21.1084C54.2069 22.0446 55.0082 22.8654 55.7824 23.7093C56.56 24.5532 57.3207 25.4135 58.078 26.2739C58.5345 26.7914 58.9808 26.8046 59.5927 26.297C60.1945 25.7992 60.2689 25.3443 59.8023 24.8334C58.4263 23.3203 57.0401 21.8139 55.6607 20.3041M53.1791 16.0122C53.0946 14.0706 53.01 12.1257 52.9221 10.1776C54.0716 10.3226 54.8019 11.2258 54.687 12.307C54.5382 13.6685 53.9939 14.8815 53.1791 16.0122Z" fill="black"/>
<path d="M34.4048 10.5799C34.0464 10.7117 33.8436 10.926 33.8774 11.3183C33.9315 11.9742 33.9856 12.6302 34.0295 13.2862C34.1783 15.4684 34.3406 17.6605 33.874 19.823C33.732 20.479 33.4649 21.1547 33.0761 21.7019C32.5521 22.4403 31.5175 22.3414 31.0543 21.5569C30.8143 21.1514 30.608 20.6866 30.5573 20.2284C30.3342 18.3033 30.4018 16.3618 30.2192 14.4334C30.2192 13.217 30.2125 12.0006 30.2192 10.7842C30.2226 10.0887 29.9352 9.62721 29.3808 9.48876C28.5964 9.29427 27.9777 9.82499 27.9405 10.7612C27.8323 13.4214 27.7512 16.0849 28.1129 18.7385C28.2921 20.0438 28.5457 21.3294 29.1982 22.5095C29.9149 23.8149 31.1253 24.5006 32.4878 24.3127C33.4244 24.1841 34.1242 23.66 34.6956 22.9546C35.7606 21.6426 36.2711 20.1164 36.2914 18.4747C36.3218 16.2068 36.244 13.9389 36.1866 11.6743C36.1595 10.6821 35.3718 10.2239 34.3981 10.5799" fill="black"/>
<path d="M45.6633 23.0137C44.7099 23.0599 43.7497 23.0236 42.7828 23.0236C42.6644 20.5941 42.5461 18.2043 42.4244 15.7287C42.9518 15.7287 43.4556 15.7221 43.956 15.7287C44.3481 15.7353 44.6288 15.5638 44.7133 15.2078C44.791 14.8782 44.8316 14.5222 44.7809 14.1925C44.7167 13.7574 44.436 13.5102 43.9323 13.5398C43.4116 13.5695 42.891 13.5464 42.2959 13.5464C42.2452 12.8048 42.1911 12.0565 42.1336 11.239C42.989 11.1928 43.7937 11.1401 44.5983 11.1104C45.0007 11.0939 45.3726 11.0708 45.5619 10.6357C45.7817 10.1314 45.7952 9.63691 45.4672 9.1853C45.3692 9.04685 45.1291 8.9117 44.9635 8.92159C43.5333 8.99081 42.1032 9.06993 40.6765 9.19849C40.1626 9.24464 39.8752 9.65009 39.8786 10.1281C39.8786 10.4544 39.8887 10.7808 39.9056 11.1071C40.0239 13.5201 40.1524 15.933 40.264 18.3493C40.3485 20.1557 40.4026 21.9622 40.4837 23.7686C40.5345 24.9091 41.001 25.3278 42.1607 25.3014C43.3406 25.275 44.5206 25.2289 45.7005 25.1926C46.4815 25.1695 46.8467 24.8069 46.7959 24.0488C46.752 23.4159 46.5829 22.9643 45.6633 23.0104" fill="black"/>
<path d="M82.6405 11.0413C80 12.6433 78.4448 16.0485 79.0669 18.9922C79.3576 20.3701 80.1251 21.4546 81.5721 21.893C82.9854 22.3183 84.2025 21.8535 85.2134 20.8778C86.8126 19.3284 87.3299 17.3506 87.4583 15.3167C87.4212 14.0707 87.2487 12.9499 86.5218 11.9709C85.7476 10.9292 83.6616 10.4249 82.6405 11.0413ZM83.79 19.1669C83.6582 19.3153 83.5027 19.4504 83.3404 19.5625C82.4918 20.1427 81.5586 19.8625 81.3456 18.8768C80.9365 16.955 81.3456 15.1915 82.7014 13.6982C82.8975 13.4839 83.1679 13.3224 83.4283 13.1774C84.0335 12.8378 84.7232 13.0356 84.9869 13.6619C85.1526 14.0641 85.1999 14.5124 85.2709 14.8058C85.0849 16.4705 84.8821 17.9637 83.79 19.1669Z" fill="black"/>
<path d="M63.5957 14.9014C63.572 14.1399 63.1359 13.7212 62.4056 13.7377C61.699 13.7542 61.2899 14.1695 61.3237 14.9376C61.4421 17.7758 61.5807 20.614 61.7261 23.4522C61.7599 24.0983 62.2129 24.3719 63.0345 24.3159C63.731 24.2664 63.9913 23.9895 63.9744 23.5643C63.8899 22.4303 63.7986 21.5502 63.7681 20.6635C63.6971 18.7417 63.6566 16.8199 63.5991 14.9014" fill="black"/>
<path d="M62.5037 12.1751C63.1528 12.185 63.6295 11.7367 63.6363 11.117C63.6431 10.4906 63.1664 9.99618 62.551 9.99618C61.9357 9.99618 61.4759 10.4379 61.459 11.0972C61.4421 11.7169 61.8782 12.1652 62.5037 12.1751Z" fill="black"/>
<path d="M121.694 18.0461C121.548 16.2364 121.437 14.4234 121.234 12.6202C120.977 10.3127 120.642 8.01186 120.348 5.70768C120.25 4.92643 119.919 4.66272 119.127 4.83083C118.438 4.97917 117.897 5.26926 118.049 6.19554C118.279 7.59322 118.482 8.99748 118.634 10.4018C118.904 12.8609 119.134 15.3266 119.371 17.789C119.452 18.6493 119.499 19.5163 119.57 20.4788C119.486 20.3404 119.449 20.2975 119.428 20.2514C117.613 15.9397 116.112 11.5291 114.84 7.03942C114.6 6.19225 113.992 5.85931 113.123 6.11313C112.602 6.26477 112.43 6.49881 112.47 7.01964C112.528 7.78771 112.602 8.55577 112.66 9.32383C112.91 12.7949 113.15 16.266 113.404 19.7372C113.549 21.7381 113.708 23.7423 113.874 25.7432C113.924 26.3366 114.157 26.5673 114.766 26.6398C115.026 26.6695 115.304 26.6464 115.561 26.5871C116.044 26.4783 116.227 26.2014 116.186 25.7069C116.031 23.7884 115.868 21.8699 115.723 19.9481C115.642 18.8735 115.584 17.7956 115.52 16.721C115.54 16.7177 115.564 16.7111 115.588 16.7078C115.621 16.777 115.659 16.8462 115.686 16.9187C116.899 20.1987 118.289 23.4093 119.871 26.5376C119.996 26.7783 120.155 27.0123 120.341 27.2101C120.696 27.5892 121.362 27.6881 121.829 27.4672C122.241 27.2727 122.404 26.8805 122.356 26.3069C122.133 23.5511 121.92 20.7953 121.697 18.0395" fill="black"/>
<path d="M140.891 19.1108C140.434 18.613 140.441 18.613 140.826 18.0724C141.912 16.5396 142.865 14.9441 143.247 13.0849C143.538 11.6675 143.382 10.3588 142.223 9.33694C141.022 8.28539 139.552 7.83708 137.983 7.68215C137.398 7.62281 136.894 8.10079 136.8 8.70073C136.769 8.88863 136.756 9.08641 136.766 9.2776C137.05 14.7002 137.341 20.1261 137.625 25.5486C137.645 25.964 137.844 26.2574 138.264 26.287C138.642 26.3134 139.041 26.2738 139.41 26.1783C139.711 26.0991 139.87 25.8354 139.853 25.5025C139.829 25.0641 139.812 24.6224 139.792 24.1839C139.744 23.2115 139.694 22.2391 139.643 21.2666C139.68 21.2501 139.721 21.2337 139.761 21.2205C141.344 22.9577 142.919 24.6949 144.508 26.4255C144.633 26.5606 144.802 26.6991 144.975 26.7485C145.374 26.8606 146.063 26.4321 146.347 25.9409C146.584 25.5322 146.547 25.3146 146.148 24.8762C144.4 22.9511 142.645 21.0293 140.897 19.1075M139.643 16.0187C139.623 16.0484 139.582 16.0649 139.504 16.1209C139.416 14.1035 139.329 12.1224 139.241 10.138C140.485 10.2929 141.208 11.2917 140.992 12.5872C140.789 13.82 140.299 14.9507 139.64 16.0187" fill="black"/>
<path d="M99.846 9.86451C99.1529 9.37664 98.4091 8.9547 97.6789 8.51628C97.2732 8.27235 96.4482 8.29542 96.1507 8.54265C95.772 8.85251 95.6604 9.43927 95.8565 9.98648C95.914 10.1513 95.9377 10.3326 95.9377 10.5073C95.914 14.7498 96.2487 18.9725 96.6037 23.1984C96.6409 23.6534 96.7559 24.016 97.1007 24.3687C97.7397 25.0214 98.3246 25.1203 98.9636 24.4709C99.7717 23.6501 100.597 22.8293 101.283 21.9129C102.585 20.1789 103.325 18.2209 103.369 16.0354C103.305 15.5475 103.274 15.0497 103.176 14.5685C102.76 12.5379 101.52 11.0512 99.846 9.8711M99.5992 20.3734C99.3592 20.7261 99.0921 21.0591 98.8385 21.3986C98.7912 21.3887 98.7439 21.3788 98.6931 21.3722C98.514 18.0791 98.3348 14.7893 98.1556 11.4995C98.1995 11.4863 98.2469 11.4732 98.2942 11.4633C99.3423 12.116 100.171 12.9664 100.614 14.1235C101.479 16.3848 100.911 18.4417 99.6026 20.3734" fill="black"/>
<path d="M131.83 23.073C130.886 23.0796 129.943 23.073 128.983 23.073C128.868 20.6666 128.75 18.2537 128.628 15.7451C129.176 15.7451 129.666 15.7418 130.156 15.7451C130.582 15.7484 130.876 15.5539 130.951 15.1551C131.011 14.8254 131.035 14.4694 130.974 14.1431C130.896 13.6947 130.629 13.5464 130.153 13.5497C129.605 13.5563 129.061 13.5497 128.486 13.5497C128.435 12.8113 128.381 12.0498 128.324 11.2192C129.236 11.1763 130.105 11.1301 130.978 11.0939C131.488 11.0708 131.738 10.9093 131.853 10.4247C131.914 10.1643 131.921 9.87752 131.877 9.6138C131.789 9.06001 131.512 8.84904 130.951 8.882C129.656 8.95452 128.361 9.03034 127.069 9.12264C126.386 9.17209 126.031 9.60391 126.072 10.2533C126.085 10.4972 126.082 10.7478 126.096 10.995C126.251 14.209 126.41 17.423 126.559 20.6403C126.609 21.7248 126.589 22.8159 126.697 23.8971C126.812 25.0443 127.191 25.4233 128.084 25.4003C129.422 25.3607 130.765 25.3343 132.1 25.2618C132.347 25.2486 132.675 25.1036 132.813 24.9157C133.135 24.4707 133.108 23.9499 132.864 23.4653C132.651 23.0433 132.232 23.0763 131.833 23.0796" fill="black"/>
<path d="M156.233 13.4114C156.03 12.6335 155.669 11.9148 154.979 11.4138C153.958 10.6721 152.088 10.3293 150.587 11.7533C148.44 13.7971 147.524 16.2694 148.065 19.1537C148.305 20.4327 149.072 21.4546 150.411 21.9128C151.895 22.4205 153.593 21.8271 154.671 20.4657C155.898 18.9131 156.406 17.133 156.47 14.9409C156.419 14.6014 156.385 13.9949 156.237 13.4114M153.278 18.5274C153.004 18.9823 152.582 19.3977 152.129 19.6943C151.412 20.1657 150.641 19.8526 150.333 19.0581C150.29 18.9428 150.256 18.8241 150.239 18.7021C150.202 18.4022 150.171 18.1022 150.151 17.9077C150.198 16.4276 150.482 15.1222 151.388 14.0311C151.672 13.6883 152.054 13.4048 152.443 13.1675C153.008 12.8213 153.701 13.0191 153.954 13.6257C154.124 14.0311 154.208 14.4992 154.208 14.9409C154.208 16.2068 153.938 17.4363 153.275 18.5307" fill="black"/>
<path d="M109.336 14.908C109.316 14.1828 108.86 13.718 108.163 13.7312C107.436 13.7443 107.024 14.1729 107.037 14.9277C107.064 16.4276 107.081 17.9275 107.145 19.424C107.203 20.7294 107.308 22.0315 107.416 23.3336C107.44 23.594 107.514 23.8874 107.67 24.0884C107.94 24.4346 108.758 24.4873 109.259 24.273C109.739 24.0687 109.742 23.683 109.59 23.2709C109.505 20.4822 109.417 17.6934 109.333 14.9047" fill="black"/>
<path d="M107.196 11.0874C107.196 11.7532 107.602 12.1686 108.244 12.1686C108.914 12.1686 109.357 11.7367 109.357 11.0906C109.357 10.4446 108.89 9.95998 108.271 9.96987C107.619 9.97976 107.193 10.4215 107.193 11.0874" fill="black"/>
<path d="M162.701 12.9663C165.382 11.595 168.178 10.4479 170.86 9.07656C173.172 7.89315 171.079 6.01421 169.183 6.98335C166.502 8.35465 163.705 9.5018 161.024 10.8731C158.712 12.0565 160.805 13.9355 162.701 12.9663Z" fill="black"/>
<path d="M160.392 20.7458C162.4 21.5765 164.591 21.8897 166.765 21.7215C167.577 21.6589 168.777 21.148 168.878 20.2415C168.983 19.3152 167.847 19.0317 167.124 19.0877C165.551 19.2097 164.06 18.8932 162.613 18.2933C161.068 17.6538 158.178 19.8261 160.396 20.7425" fill="black"/>
<path d="M159.229 27.9848C159.949 30.7373 161.741 32.9986 164.013 34.7227C165.295 35.6951 168.669 33.8986 166.968 32.6097C165.075 31.1757 163.645 29.2473 163.05 26.9695C162.617 25.3147 158.79 26.3102 159.226 27.9848" fill="black"/>
</svg>
